<?xml version="1.0" encoding="UTF-8"?>
<svg xmlns="http://www.w3.org/2000/svg" xmlns:xlink="http://www.w3.org/1999/xlink" width="841pt" height="595pt" viewBox="0 0 841 595" version="1.2">
<g id="surface908780">
<rect x="0" y="0" width="841" height="595" style="fill:rgb(0%,0%,0%);fill-opacity:1;stroke:none;"/>
<path style="fill:none;stroke-width:2.26;stroke-linecap:round;stroke-linejoin:round;stroke:rgb(0%,100%,0%);stroke-opacity:1;comp-op:src;clip-to-self:true;stroke-miterlimit:10;" d="M 168.679688 358.230469 L 168.175781 357.726562 L 168.175781 355.789062 L 168.738281 354.097656 L 169.300781 352.972656 L 169.300781 350.179688 L 169.867188 348.488281 L 169.867188 346.800781 L 170.429688 345.109375 L 170.992188 343.984375 L 170.992188 342.292969 L 171.554688 341.167969 L 171.554688 339.492188 L 172.679688 337.242188 L 173.242188 336.679688 L 173.242188 336.113281 L 173.808594 334.988281 L 174.371094 333.863281 L 174.933594 332.734375 L 176.058594 330.484375 L 176.621094 329.921875 L 177.1875 328.792969 L 177.75 328.230469 L 178.875 325.980469 L 179.4375 325.414062 L 180 324.289062 L 181.722656 324.289062 L 182.289062 324.851562 L 182.851562 325.414062 L 182.851562 327.105469 L 183.414062 328.792969 L 184.011719 331.1875 L 184.609375 332.980469 L 184.609375 334.105469 L 185.21875 337.140625 L 185.855469 339.050781 L 185.855469 340.179688 L 186.429688 342.476562 L 186.429688 344.742188 L 186.992188 346.429688 L 187.554688 346.992188 L 187.554688 352.0625 L 188.117188 353.1875 "/>
<path style="fill:none;stroke-width:2.26;stroke-linecap:round;stroke-linejoin:round;stroke:rgb(0%,100%,0%);stroke-opacity:1;comp-op:src;clip-to-self:true;stroke-miterlimit:10;" d="M 173.117188 340.894531 L 176.816406 340.894531 L 180.152344 341.5625 L 182.84375 342.234375 L 185.382812 342.871094 L 187.160156 342.871094 L 189.535156 343.464844 L 191.328125 344.0625 L 192.453125 344.0625 "/>
<path style="fill:none;stroke-width:2.26;stroke-linecap:round;stroke-linejoin:round;stroke:rgb(0%,100%,0%);stroke-opacity:1;comp-op:src;clip-to-self:true;stroke-miterlimit:10;" d="M 255.070312 356.585938 L 255.546875 356.109375 L 255.546875 345.5 L 256.109375 343.8125 L 256.109375 328.136719 L 256.664062 327.023438 L 256.664062 325.949219 L 257.191406 325.425781 L 257.890625 325.777344 L 258.953125 326.304688 L 259.507812 326.304688 L 260.617188 326.863281 L 261.183594 327.425781 L 261.746094 327.988281 L 263.996094 329.113281 L 264.5625 330.242188 L 265.6875 330.804688 L 265.6875 331.359375 L 266.242188 332.472656 L 266.804688 333.035156 L 267.371094 334.160156 L 267.933594 335.289062 L 268.496094 335.851562 L 269.058594 336.976562 L 269.058594 338.605469 L 269.621094 339.730469 L 270.183594 340.292969 L 270.746094 341.417969 L 270.746094 342.996094 L 270.332031 343.410156 L 269.8125 344.453125 L 268.253906 344.453125 L 267.128906 345.015625 L 257.863281 345.015625 L 258.222656 345.015625 L 259.734375 345.519531 L 260.296875 346.082031 L 261.425781 346.644531 L 263.097656 346.644531 L 264.226562 347.207031 L 264.789062 347.773438 L 265.914062 348.335938 L 267.042969 348.898438 L 267.605469 349.460938 L 268.125 349.460938 L 269.160156 350.496094 L 269.160156 351.605469 L 269.722656 352.734375 L 270.285156 353.859375 L 270.285156 356.050781 L 269.871094 356.464844 L 268.304688 356.984375 L 267.742188 357.550781 L 257.042969 357.550781 L 255.917969 356.984375 L 255.355469 356.421875 L 253.117188 356.421875 L 252.554688 355.859375 "/>
<path style="fill:none;stroke-width:2.26;stroke-linecap:round;stroke-linejoin:round;stroke:rgb(0%,100%,0%);stroke-opacity:1;comp-op:src;clip-to-self:true;stroke-miterlimit:10;" d="M 367.269531 336.5 L 365.375 336.5 L 364.8125 337.0625 L 363.796875 337.0625 L 363.234375 337.625 L 362.671875 338.191406 L 361.542969 338.753906 L 360.460938 339.835938 L 359.898438 340.402344 L 359.332031 341.527344 L 359.332031 342.089844 L 358.769531 343.214844 L 358.207031 343.777344 L 358.207031 344.316406 L 357.691406 344.832031 L 357.691406 349.195312 L 358.253906 350.882812 L 358.816406 352.007812 L 359.378906 352.574219 L 359.941406 353.136719 L 360.503906 354.261719 L 361.066406 354.824219 L 361.632812 355.386719 L 362.195312 355.953125 L 364.445312 358.203125 L 365.574219 358.203125 L 366.699219 358.765625 L 372.261719 358.765625 "/>
<path style="fill:none;stroke-width:2.26;stroke-linecap:round;stroke-linejoin:round;stroke:rgb(0%,100%,0%);stroke-opacity:1;comp-op:src;clip-to-self:true;stroke-miterlimit:10;" d="M 482.921875 361.34375 L 482.921875 360.84375 L 482.421875 359.84375 L 482.421875 359.289062 L 481.867188 358.175781 L 481.867188 357.613281 L 481.304688 355.925781 L 480.738281 354.796875 L 480.738281 354.234375 L 480.175781 352.546875 L 479.613281 351.417969 L 479.050781 350.292969 L 479.050781 349.167969 L 478.476562 346.867188 L 477.839844 344.332031 L 477.839844 343.757812 L 477.265625 341.453125 L 477.265625 338.0625 L 476.160156 336.957031 L 476.160156 334.679688 L 476.722656 334.113281 L 477.285156 333.550781 L 477.285156 330.242188 L 477.773438 329.753906 L 479.703125 329.753906 L 480.828125 330.316406 L 481.390625 330.878906 L 481.945312 330.878906 L 482.503906 331.4375 L 483.058594 331.4375 L 484.726562 331.992188 L 485.292969 332.554688 L 486.417969 333.117188 L 486.972656 333.117188 L 488.085938 333.675781 L 489.773438 335.363281 L 490.339844 335.925781 L 490.902344 336.492188 L 490.902344 337.046875 L 491.457031 338.15625 L 492.019531 338.722656 L 492.582031 339.285156 L 493.132812 340.382812 L 493.683594 340.933594 L 493.683594 341.496094 L 494.246094 342.625 L 494.246094 344.300781 L 495.371094 345.425781 L 495.371094 351.292969 L 494.808594 352.984375 L 494.246094 354.109375 L 494.246094 356.925781 L 493.683594 358.050781 L 493.683594 359.066406 L 493.3125 359.4375 L 492.265625 359.960938 L 491.699219 360.527344 L 490.574219 361.089844 L 489.449219 361.089844 L 488.320312 361.652344 L 487.757812 362.214844 L 475.933594 362.214844 L 475.371094 361.652344 "/>
<path style="fill:none;stroke-width:2.26;stroke-linecap:round;stroke-linejoin:round;stroke:rgb(0%,100%,0%);stroke-opacity:1;comp-op:src;clip-to-self:true;stroke-miterlimit:10;" d="M 486.558594 370.289062 L 479.359375 370.289062 L 476.980469 369.691406 L 475.828125 369.117188 L 475.265625 369.117188 L 473.574219 368.554688 L 471.886719 367.992188 L 470.761719 367.425781 L 469.632812 366.863281 L 467.945312 366.300781 L 467.382812 365.738281 L 466.253906 365.175781 L 465.691406 364.613281 L 464.566406 364.050781 L 464.003906 362.921875 L 463.441406 362.359375 L 463.441406 361.796875 L 462.863281 359.496094 L 462.289062 358.34375 L 461.152344 356.636719 L 460.011719 353.214844 L 459.445312 351.523438 L 458.882812 349.835938 L 458.882812 348.710938 L 458.308594 346.410156 L 458.308594 343.570312 L 457.714844 341.195312 L 457.117188 339.402344 L 457.117188 335.460938 L 457.679688 333.773438 L 458.246094 333.210938 L 458.808594 332.082031 L 459.933594 329.832031 L 460.496094 328.703125 L 461.058594 327.578125 L 461.625 326.453125 L 462.1875 325.890625 L 462.75 325.324219 L 463.3125 324.761719 L 464.4375 324.199219 L 465 324.199219 L 466.691406 323.636719 L 467.816406 323.074219 L 468.378906 322.511719 L 469.507812 321.945312 L 471.195312 321.382812 L 472.320312 320.820312 L 474.011719 320.820312 L 475.699219 320.257812 L 476.828125 319.695312 L 486.386719 319.695312 L 488.074219 320.257812 L 488.636719 320.820312 L 489.765625 321.382812 L 490.890625 321.945312 L 492.015625 322.511719 L 493.144531 323.074219 L 494.269531 323.074219 L 495.960938 323.636719 L 498.210938 324.761719 L 499.902344 325.324219 L 501.027344 325.890625 L 502.152344 327.015625 L 503.28125 327.578125 L 506.65625 329.265625 L 507.785156 330.394531 L 508.910156 330.957031 L 510.035156 332.082031 L 510.601562 332.644531 L 511.726562 333.773438 L 512.851562 334.898438 L 513.988281 336.605469 L 515.128906 337.742188 L 515.691406 338.871094 L 516.816406 339.996094 L 517.382812 341.121094 L 517.945312 342.25 L 517.945312 342.804688 L 518.5 343.917969 L 519.0625 344.480469 L 519.0625 346.117188 L 518.5 347.242188 L 517.9375 347.804688 L 517.375 348.929688 L 516.8125 350.058594 L 516.246094 350.621094 L 515.683594 351.183594 L 515.683594 351.746094 L 515.121094 352.871094 L 514.558594 353.4375 L 513.996094 353.4375 L 512.867188 354 L 511.742188 354.5625 L 511.179688 355.6875 L 510.054688 356.25 L 509.492188 356.816406 L 508.363281 357.378906 L 507.800781 357.941406 L 506.675781 358.503906 L 506.113281 359.066406 L 506.113281 359.625 L 505.554688 360.179688 L 504.992188 361.304688 L 503.914062 361.304688 L 502.800781 361.863281 L 502.246094 361.863281 L 501.132812 362.417969 L 500.570312 362.980469 L 499.496094 362.980469 L 498.933594 363.542969 L 498.417969 363.542969 L 497.34375 364.082031 L 496.78125 364.644531 L 495.652344 364.644531 L 494.527344 365.207031 L 493.402344 365.207031 L 491.710938 365.769531 L 490.585938 366.332031 L 490.023438 366.898438 L 487.769531 366.898438 L 486.082031 367.460938 "/>
<path style="fill:none;stroke-width:2.26;stroke-linecap:round;stroke-linejoin:round;stroke:rgb(0%,100%,0%);stroke-opacity:1;comp-op:src;clip-to-self:true;stroke-miterlimit:10;" d="M 364.207031 365.792969 L 361.996094 365.792969 L 360.308594 365.230469 L 359.179688 364.667969 L 358.054688 364.101562 L 356.929688 363.539062 L 355.800781 362.976562 L 353.550781 361.851562 L 352.988281 361.289062 L 351.859375 360.722656 L 349.609375 358.472656 L 349.042969 357.910156 L 349.042969 356.78125 L 348.480469 355.09375 L 347.355469 353.96875 L 347.355469 352.839844 L 346.792969 351.152344 L 346.230469 350.023438 L 346.230469 348.898438 L 345.65625 346.601562 L 345.65625 331.375 L 346.21875 329.683594 L 346.78125 329.121094 L 347.90625 328.558594 "/>
<path style="fill:none;stroke-width:2.26;stroke-linecap:round;stroke-linejoin:round;stroke:rgb(0%,100%,0%);stroke-opacity:1;comp-op:src;clip-to-self:true;stroke-miterlimit:10;" d="M 352.414062 327.433594 L 354.664062 327.433594 L 355.789062 326.867188 L 370.996094 326.867188 L 372.683594 327.433594 L 375.5 327.433594 L 377.1875 327.996094 L 377.753906 328.558594 L 378.308594 328.558594 L 379.421875 329.113281 L 379.984375 329.113281 L 381.109375 329.675781 L 381.671875 330.242188 L 382.234375 330.804688 L 383.925781 331.367188 L 385.050781 332.492188 L 386.179688 333.054688 L 386.742188 333.621094 L 387.304688 335.308594 L 387.867188 336.433594 L 388.429688 338.125 L 388.429688 339.234375 L 388.992188 340.363281 L 389.554688 341.488281 L 389.554688 356.691406 L 388.992188 358.382812 L 388.429688 358.945312 L 388.429688 360.070312 L 387.867188 361.195312 L 387.867188 362.308594 L 386.742188 363.433594 L 386.179688 364.5625 L 385.613281 365.125 L 384.488281 366.25 L 383.363281 366.8125 L 382.800781 367.378906 L 382.261719 367.378906 L 380.652344 367.914062 L 365.464844 367.914062 L 363.773438 367.351562 L 363.21875 367.351562 "/>
<path style="fill:none;stroke-width:2.26;stroke-linecap:round;stroke-linejoin:round;stroke:rgb(0%,100%,0%);stroke-opacity:1;comp-op:src;clip-to-self:true;stroke-miterlimit:10;" d="M 262.507812 366.375 L 253.511719 366.375 L 252.386719 365.8125 L 251.824219 365.8125 L 250.132812 365.25 L 249.007812 364.683594 L 247.878906 364.121094 L 247.316406 363.558594 L 246.191406 362.996094 L 245.628906 362.433594 L 244.5 361.871094 L 243.9375 361.304688 L 243.375 360.742188 L 242.84375 359.679688 L 242.300781 359.136719 L 241.738281 358.011719 L 241.738281 354.089844 L 241.164062 351.792969 L 240.589844 350.640625 L 240.589844 349.515625 L 240.015625 347.214844 L 240.015625 346.066406 L 239.441406 343.765625 L 238.84375 341.976562 L 238.246094 339.585938 L 238.246094 322.613281 L 239.933594 320.925781 L 241.0625 320.359375 L 241.625 319.796875 L 242.1875 319.796875 L 244.488281 319.222656 L 245.636719 318.648438 L 247.324219 318.085938 L 248.453125 317.523438 L 249.578125 316.960938 L 250.140625 316.394531 L 250.703125 316.394531 L 252.394531 315.832031 L 253.519531 315.269531 L 254.082031 315.269531 L 256.382812 314.695312 L 269.910156 314.695312 L 273.285156 316.382812 L 273.851562 316.945312 L 274.414062 317.511719 L 276.664062 319.761719 L 277.230469 320.324219 L 278.355469 320.890625 L 278.917969 321.453125 L 279.480469 322.578125 L 280.042969 324.265625 L 280.605469 325.394531 L 281.171875 326.519531 L 281.171875 327.082031 L 281.734375 328.773438 L 282.296875 329.898438 L 282.296875 330.460938 L 282.859375 332.152344 L 282.859375 333.839844 L 283.421875 334.964844 L 283.984375 336.09375 L 283.984375 343.976562 L 283.421875 345.664062 L 282.859375 346.792969 L 282.859375 350.121094 L 282.410156 350.574219 L 281.84375 351.699219 L 281.28125 352.824219 L 280.71875 353.386719 L 280.71875 353.953125 L 279.59375 356.203125 L 279.03125 356.765625 L 279.03125 357.332031 L 278.46875 358.457031 L 277.902344 359.019531 L 277.339844 360.144531 L 276.777344 360.707031 L 276.214844 361.835938 L 275.652344 362.398438 L 275.089844 363.523438 L 274.523438 364.085938 L 273.960938 364.652344 L 271.148438 367.464844 L 270.609375 367.464844 L 269.535156 368.003906 L 268.410156 368.566406 L 267.847656 369.128906 L 261.667969 369.128906 "/>
<path style="fill:none;stroke-width:2.26;stroke-linecap:round;stroke-linejoin:round;stroke:rgb(0%,100%,0%);stroke-opacity:1;comp-op:src;clip-to-self:true;stroke-miterlimit:10;" d="M 170.21875 370.511719 L 169.097656 370.511719 L 167.988281 369.957031 L 167.421875 369.394531 L 165.753906 369.394531 L 164.628906 368.828125 L 164.074219 368.828125 L 162.960938 368.273438 L 161.835938 367.710938 L 161.269531 367.148438 L 160.144531 366.585938 L 159.582031 366.019531 L 156.675781 363.113281 L 155.4375 361.257812 L 154.300781 360.121094 L 153.160156 358.410156 L 152.019531 354.988281 L 150.894531 353.859375 L 149.765625 352.734375 L 149.203125 351.609375 L 148.640625 349.917969 L 148.640625 349.355469 L 148.078125 347.667969 L 147.515625 346.539062 L 146.949219 345.414062 L 146.949219 331.335938 L 147.515625 329.648438 L 147.515625 329.082031 L 148.078125 327.394531 L 148.640625 326.832031 "/>
<path style="fill:none;stroke-width:2.26;stroke-linecap:round;stroke-linejoin:round;stroke:rgb(0%,100%,0%);stroke-opacity:1;comp-op:src;clip-to-self:true;stroke-miterlimit:10;" d="M 151.457031 322.890625 L 152.019531 321.199219 L 153.144531 320.074219 L 153.707031 318.949219 L 154.835938 318.382812 L 156.539062 317.246094 L 157.675781 316.679688 L 159.367188 316.117188 L 161.054688 315.554688 L 162.746094 314.988281 L 164.472656 313.835938 L 166.207031 313.257812 L 167.332031 312.695312 L 167.894531 312.695312 L 169.585938 312.132812 L 170.148438 311.570312 L 181.972656 311.570312 L 183.101562 312.132812 L 183.664062 312.695312 L 184.21875 312.695312 L 185.332031 313.253906 L 187.019531 313.816406 L 187.582031 314.378906 L 188.710938 314.941406 L 189.835938 314.941406 L 190.960938 315.503906 L 191.527344 316.066406 L 192.089844 316.628906 L 193.214844 317.195312 L 194.339844 318.320312 L 195.46875 318.882812 L 196.59375 320.007812 L 197.15625 320.574219 L 197.71875 321.136719 L 197.71875 321.699219 L 198.28125 322.824219 L 198.28125 326.203125 L 198.875 328.578125 L 199.476562 330.371094 L 199.476562 330.9375 L 200.039062 332.625 L 200.039062 334.878906 L 200.601562 336.566406 L 201.164062 337.695312 L 201.164062 346.703125 L 200.601562 348.394531 L 200.039062 349.519531 L 200.039062 350.082031 L 199.464844 352.382812 L 199.464844 352.957031 L 198.898438 354.644531 L 198.335938 356.335938 L 197.210938 358.585938 L 196.648438 359.714844 L 196.085938 360.277344 L 195.519531 361.402344 L 194.394531 362.527344 L 193.339844 362.527344 L 192.214844 363.09375 L 191.652344 363.65625 L 191.113281 363.65625 L 190.042969 364.191406 L 189.503906 364.730469 L 187.914062 364.730469 L 186.789062 365.292969 L 184.535156 365.292969 L 183.410156 365.855469 L 180.03125 365.855469 L 178.90625 366.421875 L 178.34375 366.984375 L 174.964844 366.984375 L 174.398438 367.546875 L 173.519531 367.546875 "/>
<path style="fill:none;stroke-width:2.26;stroke-linecap:round;stroke-linejoin:round;stroke:rgb(0%,100%,0%);stroke-opacity:1;comp-op:src;clip-to-self:true;stroke-miterlimit:10;" d="M 100.859375 340.039062 L 120.652344 340.039062 L 121.132812 340.523438 L 121.132812 345.863281 L 120.570312 347.554688 L 120.570312 349.1875 L 121.0625 349.675781 L 121.417969 349.320312 L 121.96875 348.765625 L 123.097656 348.203125 L 123.660156 347.640625 L 124.785156 347.078125 L 125.347656 346.515625 L 126.476562 345.953125 L 127.039062 345.386719 L 127.589844 344.835938 L 127.933594 344.496094 L 128.433594 343.996094 L 128.996094 343.429688 L 130.660156 341.765625 L 130.660156 340.988281 L 130.097656 339.859375 L 129.535156 339.296875 L 128.972656 338.171875 L 128.40625 337.042969 L 126.71875 333.667969 L 126.71875 333.101562 L 126.15625 331.414062 L 125.59375 330.851562 L 125.027344 329.722656 L 125.027344 329.167969 L 124.472656 328.613281 L 123.910156 328.046875 L 123.347656 326.921875 L 122.789062 326.921875 L 121.679688 326.367188 L 120.550781 325.238281 L 120.550781 333.539062 L 121.117188 334.667969 L 121.679688 335.230469 L 121.679688 336.867188 L 122.242188 337.992188 L 122.242188 340.238281 "/>
<path style="fill:none;stroke-width:2.26;stroke-linecap:round;stroke-linejoin:round;stroke:rgb(0%,100%,0%);stroke-opacity:1;comp-op:src;clip-to-self:true;stroke-miterlimit:10;" d="M 260.90625 406.046875 L 260.90625 390.199219 L 260.433594 389.726562 L 251.207031 389.726562 L 250.71875 389.242188 L 251.074219 388.886719 L 251.074219 388.375 L 251.628906 387.265625 L 252.191406 386.703125 L 252.757812 385.574219 L 253.320312 385.011719 L 253.882812 383.886719 L 253.882812 383.347656 L 254.191406 383.039062 L 254.804688 382.734375 L 255.25 382.285156 L 260.53125 382.285156 L 261.09375 382.851562 L 261.65625 383.414062 L 262.183594 383.414062 L 262.710938 383.941406 L 263.246094 383.941406 L 264.320312 384.476562 L 264.871094 385.027344 L 265.9375 385.5625 L 267.0625 386.125 L 268.1875 387.25 L 260.894531 387.25 "/>
<path style="fill:none;stroke-width:2.26;stroke-linecap:round;stroke-linejoin:round;stroke:rgb(0%,100%,0%);stroke-opacity:1;comp-op:src;clip-to-self:true;stroke-miterlimit:10;" d="M 375.308594 412.832031 L 375.816406 411.3125 L 376.324219 410.292969 L 376.886719 408.601562 L 376.886719 406.914062 L 377.453125 405.222656 L 377.453125 402.992188 L 378.015625 401.867188 L 378.015625 392.777344 L 377.714844 392.476562 L 366.046875 392.476562 L 365.558594 391.988281 L 366.0625 390.980469 L 367.1875 389.855469 L 367.1875 389.289062 L 367.75 388.164062 L 368.316406 387.039062 L 368.878906 386.476562 L 369.441406 385.347656 L 370.566406 384.222656 L 370.984375 384.222656 L 371.71875 383.714844 L 372.28125 383.148438 L 373.621094 381.808594 L 375.550781 381.808594 L 376.113281 382.371094 L 376.675781 382.9375 L 377.238281 383.5 L 378.339844 384.050781 L 379.441406 385.152344 L 379.992188 386.257812 L 380.558594 386.820312 L 381.683594 387.945312 L 382.246094 388.511719 L 382.246094 389.066406 L 382.800781 390.179688 L 383.339844 390.714844 L 384.394531 391.769531 L 383.136719 392.277344 L 382.570312 392.839844 L 374.765625 392.839844 "/>
<path style="fill:none;stroke-width:2.26;stroke-linecap:round;stroke-linejoin:round;stroke:rgb(0%,100%,0%);stroke-opacity:1;comp-op:src;clip-to-self:true;stroke-miterlimit:10;" d="M 484.886719 423.335938 L 485.855469 422.855469 L 485.855469 421.453125 L 485.289062 420.328125 L 485.289062 394.566406 L 484.988281 394.265625 L 478.597656 394.265625 L 478.113281 393.777344 L 478.617188 393.277344 L 479.179688 392.148438 L 479.742188 391.585938 L 480.304688 390.460938 L 480.867188 389.898438 L 481.429688 388.769531 L 481.992188 388.207031 L 482.558594 387.082031 L 483.683594 385.957031 L 484.246094 385.390625 L 484.246094 384.265625 L 484.808594 383.140625 L 485.800781 382.148438 L 486.367188 381.585938 L 487.804688 381.585938 L 488.878906 382.121094 L 489.441406 383.246094 L 490.566406 384.371094 L 491.691406 385.5 L 492.257812 386.0625 L 493.945312 387.75 L 494.507812 388.316406 L 495.070312 388.878906 L 495.636719 389.441406 L 496.199219 390.003906 L 491.835938 390.003906 L 490.710938 390.566406 L 490.148438 391.128906 L 487.339844 391.128906 L 486.226562 391.6875 L 482.933594 391.6875 "/>
<path style="fill:none;stroke-width:2.26;stroke-linecap:round;stroke-linejoin:round;stroke:rgb(0%,100%,0%);stroke-opacity:1;comp-op:src;clip-to-self:true;stroke-miterlimit:10;" d="M 371.75 320.550781 L 372.253906 320.050781 L 372.816406 318.921875 L 373.378906 318.359375 L 374.503906 316.109375 L 375.609375 315.003906 L 376.171875 313.875 L 376.738281 313.3125 L 377.300781 312.75 L 377.863281 311.625 L 378.425781 311.0625 L 378.988281 310.496094 L 379.550781 309.933594 L 380.117188 309.371094 L 381.242188 308.808594 L 382.367188 307.683594 L 382.925781 307.683594 L 384.035156 307.125 L 384.597656 306.5625 L 386.289062 306 L 387.976562 304.3125 L 388.542969 304.3125 L 389.667969 303.746094 L 390.230469 303.183594 L 391.355469 302.621094 L 391.914062 302.621094 L 392.46875 302.066406 L 393.59375 301.503906 L 394.15625 300.9375 L 394.714844 300.9375 L 395.828125 300.382812 L 396.390625 299.820312 L 397.515625 299.820312 L 398.640625 299.257812 L 420.011719 299.257812 L 421.136719 299.820312 L 423.9375 299.820312 L 424.503906 300.382812 L 425.066406 300.945312 L 427.867188 300.945312 L 428.992188 301.507812 L 431.757812 301.507812 L 432.882812 302.074219 L 433.445312 302.636719 L 435.132812 303.199219 L 436.824219 303.761719 L 437.386719 304.324219 L 438.511719 304.886719 L 439.640625 304.886719 L 440.765625 305.449219 L 441.890625 306.015625 L 442.449219 306.015625 L 443.558594 306.570312 L 444.117188 306.570312 L 445.230469 307.125 L 445.792969 307.691406 L 446.90625 307.691406 L 448.03125 308.253906 L 448.585938 308.253906 L 449.660156 309.328125 L 448.511719 310.476562 L 447.945312 311.039062 L 447.382812 312.167969 L 446.820312 312.730469 L 446.820312 318.125 L 447.3125 318.617188 L 449.414062 318.617188 L 451.101562 318.054688 L 452.230469 317.488281 L 452.792969 316.925781 L 453.917969 316.925781 L 455.609375 316.363281 L 456.171875 315.800781 L 456.734375 315.800781 L 457.859375 315.238281 L 458.988281 314.675781 L 459.550781 314.113281 L 460.675781 313.546875 L 462.367188 312.984375 L 462.929688 312.421875 L 464.054688 311.859375 L 465.179688 310.734375 L 464.199219 310.734375 L 463.074219 310.167969 L 462.519531 310.167969 L 461.40625 309.613281 L 460.28125 308.488281 L 459.152344 307.925781 L 458.589844 307.359375 L 456.902344 305.671875 L 456.335938 305.109375 L 455.210938 303.984375 L 455.210938 302.445312 L 454.757812 301.992188 L 454.757812 300.925781 L 453.070312 299.238281 L 452.609375 299.238281 L 451.894531 299.679688 L 451.332031 301.371094 L 450.769531 302.496094 L 450.207031 303.058594 L 450.207031 307 L 448.660156 308.546875 L 448.136719 308.546875 "/>
<path style="fill:none;stroke-width:2.26;stroke-linecap:round;stroke-linejoin:round;stroke:rgb(0%,100%,0%);stroke-opacity:1;comp-op:src;clip-to-self:true;stroke-miterlimit:10;" d="M 417.277344 271.339844 L 415.425781 271.339844 L 414.390625 272.375 L 413.871094 272.375 L 413.355469 272.894531 L 412.835938 272.894531 L 411.765625 273.429688 L 411.765625 273.964844 L 410.703125 275.027344 L 410.703125 278.238281 L 411.21875 278.757812 L 412.347656 279.320312 L 414.027344 281 L 414.492188 281.929688 L 415.488281 281.929688 L 416.601562 282.488281 L 417.15625 283.039062 "/>
<path style="fill:none;stroke-width:2.26;stroke-linecap:round;stroke-linejoin:round;stroke:rgb(0%,100%,0%);stroke-opacity:1;comp-op:src;clip-to-self:true;stroke-miterlimit:10;" d="M 283.15625 362.644531 L 282.808594 362.992188 L 282.808594 366.28125 L 283.371094 367.40625 L 283.371094 370.222656 L 283.933594 371.914062 L 284.496094 372.476562 L 284.496094 373.601562 L 285.058594 375.292969 L 285.058594 378.105469 L 285.621094 379.234375 L 286.1875 380.359375 L 286.1875 382.050781 L 286.75 383.738281 L 286.75 384.863281 L 287.3125 386.554688 L 288.4375 388.804688 L 288.4375 389.363281 L 288.996094 390.472656 L 289.558594 391.039062 L 290.121094 392.164062 L 290.683594 393.851562 L 291.246094 394.414062 L 291.246094 394.980469 L 291.808594 396.105469 L 291.808594 396.660156 L 292.367188 397.773438 L 293.492188 398.898438 L 294.054688 399.464844 L 294.617188 400.589844 L 295.179688 401.152344 L 295.746094 402.277344 L 296.308594 402.839844 L 296.871094 403.96875 L 297.433594 405.09375 L 299.125 406.785156 L 299.6875 407.910156 L 305.316406 413.539062 L 305.878906 414.105469 L 307.007812 414.667969 L 309.257812 416.917969 L 310.964844 418.054688 L 312.75 419.246094 L 313.886719 419.8125 L 315.589844 420.949219 L 317.324219 421.527344 L 318.453125 422.65625 L 319.578125 423.21875 L 320.703125 424.34375 L 322.394531 424.90625 L 323.519531 426.035156 L 324.644531 426.597656 L 325.773438 427.722656 L 327.460938 428.285156 L 328.585938 428.847656 L 329.714844 429.414062 L 330.277344 429.976562 L 331.402344 430.539062 L 331.964844 431.101562 L 333.09375 431.664062 L 334.21875 432.226562 L 334.78125 432.226562 L 336.472656 432.792969 L 337.597656 433.355469 L 339.285156 433.917969 L 340.414062 434.480469 L 342.101562 435.042969 L 343.226562 435.605469 L 345.527344 436.183594 L 347.324219 436.78125 L 349.054688 437.933594 L 350.785156 438.511719 L 352.472656 439.074219 L 353.601562 439.074219 L 355.902344 439.648438 L 359.382812 440.808594 L 362.804688 440.808594 L 365.332031 441.441406 L 367.128906 442.039062 L 368.816406 442.605469 L 370.507812 442.605469 L 373.65625 443.234375 L 376.347656 443.90625 L 377.5 443.90625 L 380.523438 444.511719 L 382.414062 444.511719 L 385.570312 445.140625 L 387.480469 445.777344 L 510.566406 445.777344 L 512.257812 445.214844 L 513.945312 444.652344 L 515.636719 444.652344 L 517.324219 444.089844 L 519.015625 444.089844 L 520.140625 443.527344 L 521.265625 442.960938 L 522.957031 442.398438 L 524.644531 441.835938 L 525.773438 441.273438 L 528.023438 440.148438 L 529.152344 439.585938 L 530.277344 439.019531 L 530.839844 439.019531 L 531.964844 438.457031 L 533.09375 437.894531 L 533.65625 437.332031 L 534.21875 437.332031 L 535.910156 436.769531 L 536.472656 436.207031 L 537.035156 435.078125 L 538.160156 434.515625 L 538.722656 433.953125 L 539.285156 433.953125 L 540.976562 433.390625 L 542.101562 432.828125 L 542.664062 431.699219 L 543.230469 431.136719 L 546.605469 429.449219 L 547.171875 428.886719 L 547.734375 428.320312 L 547.734375 427.210938 L 548.289062 426.097656 L 548.851562 425.535156 L 548.851562 421.613281 L 549.414062 419.925781 L 549.414062 408.097656 L 549.980469 406.410156 L 549.980469 396.273438 L 549.414062 395.148438 L 549.414062 393.476562 L 548.851562 392.351562 L 548.851562 391.796875 L 548.296875 390.683594 L 547.171875 389.558594 L 546.605469 388.996094 L 546.042969 388.429688 L 545.480469 387.867188 L 545.480469 387.3125 L 544.925781 386.199219 L 544.363281 385.636719 L 543.796875 384.511719 L 543.234375 383.945312 L 540.984375 381.695312 L 540.984375 381.15625 L 540.445312 380.085938 L 539.882812 378.957031 L 538.195312 377.269531 L 537.628906 376.707031 L 537.121094 376.199219 L 536.761719 375.476562 L 534.796875 375.476562 L 534.191406 375.175781 L 533.109375 374.09375 L 532.65625 374.09375 L 531.957031 374.5 L 530.828125 375.0625 L 530.265625 375.625 L 529.703125 376.753906 L 528.578125 377.878906 L 527.449219 378.441406 L 526.886719 379.003906 L 526.324219 379.570312 L 525.199219 380.132812 L 524.136719 381.195312 L 523.835938 380.59375 L 523.835938 370.277344 L 524.390625 369.164062 L 524.390625 368.664062 L 524.894531 367.664062 L 526.019531 367.101562 L 527.722656 365.964844 L 529.457031 365.386719 L 530.582031 364.257812 L 531.707031 363.695312 L 532.835938 363.132812 L 535.085938 362.007812 L 535.652344 361.445312 L 536.214844 361.445312 L 537.339844 360.882812 L 537.902344 360.316406 L 538.429688 360.316406 L 538.917969 359.828125 L 538.917969 360.726562 L 538.355469 362.414062 L 537.792969 362.976562 L 537.230469 364.105469 L 536.664062 364.667969 L 535.539062 365.792969 L 535.539062 366.253906 L 535.023438 366.769531 L 533.898438 367.332031 L 533.335938 368.457031 "/>
<path style="fill:none;stroke-width:2.26;stroke-linecap:round;stroke-linejoin:round;stroke:rgb(0%,100%,0%);stroke-opacity:1;comp-op:src;clip-to-self:true;stroke-miterlimit:10;" d="M 425.941406 451.902344 L 425.445312 451.902344 L 424.726562 452.371094 L 424.164062 452.9375 L 423.601562 453.5 L 423.039062 454.625 L 423.039062 456.039062 L 422.527344 456.550781 L 421.972656 457.101562 L 421.972656 460.632812 L 422.929688 461.589844 L 422.929688 462.125 L 423.46875 462.664062 L 423.46875 463.199219 L 424.003906 464.273438 L 424.539062 464.273438 L 425.078125 464.808594 L 425.640625 465.371094 L 429.429688 465.371094 L 429.980469 465.925781 L 430.492188 465.925781 "/>
<path style="fill:none;stroke-width:2.26;stroke-linecap:round;stroke-linejoin:round;stroke:rgb(0%,100%,0%);stroke-opacity:1;comp-op:src;clip-to-self:true;stroke-miterlimit:10;" d="M 427.835938 450.882812 L 429.519531 450.882812 "/>
<path style="fill:none;stroke-width:2.26;stroke-linecap:round;stroke-linejoin:round;stroke:rgb(0%,100%,0%);stroke-opacity:1;comp-op:src;clip-to-self:true;stroke-miterlimit:10;" d="M 444.589844 339.675781 L 445.0625 340.152344 L 445.0625 341.058594 L 445.625 342.1875 L 445.625 343.628906 L 446.183594 344.738281 L 446.183594 348.660156 L 446.738281 349.773438 L 447.300781 350.898438 L 447.300781 352.585938 L 447.863281 354.277344 L 447.863281 355.953125 L 448.425781 357.078125 L 448.992188 357.640625 L 448.992188 359.332031 L 449.554688 360.457031 L 449.554688 361.570312 L 450.117188 362.132812 L 450.679688 363.257812 L 451.242188 363.820312 L 451.242188 364.378906 L 451.800781 365.488281 L 452.363281 366.050781 L 452.925781 366.617188 L 454.613281 368.304688 L 455.179688 368.867188 L 455.742188 369.429688 L 456.304688 369.996094 L 458.554688 372.246094 L 459.683594 372.808594 L 460.234375 373.363281 L 460.789062 373.914062 L 461.351562 374.476562 L 461.914062 375.605469 L 463.039062 376.167969 L 463.59375 376.71875 L 464.699219 377.273438 L 466.859375 377.273438 L 467.988281 377.835938 L 468.550781 378.398438 L 471.367188 378.398438 L 472.492188 378.960938 L 497.269531 378.960938 L 498.957031 378.398438 L 500.648438 378.398438 L 502.335938 377.835938 L 502.898438 377.273438 L 503.464844 377.273438 L 505.152344 376.710938 L 507.96875 376.710938 L 509.09375 376.148438 L 509.65625 375.582031 L 511.910156 375.582031 L 513.035156 375.019531 L 513.597656 375.019531 L 514.726562 374.457031 L 516.414062 373.894531 L 517.542969 373.332031 L 519.230469 372.769531 L 519.792969 372.207031 L 520.355469 372.207031 L 521.484375 371.640625 L 522.589844 370.535156 L 523.714844 368.285156 L 524.277344 367.15625 L 524.839844 366.03125 L 525.402344 365.46875 L 525.402344 364.90625 L 525.96875 363.214844 L 527.09375 360.964844 L 527.65625 360.398438 L 528.21875 359.273438 L 528.78125 358.710938 L 529.347656 358.148438 L 529.910156 357.585938 L 530.472656 355.894531 L 531.035156 354.769531 L 531.597656 354.207031 L 532.160156 352.515625 L 532.160156 351.390625 L 532.722656 350.265625 L 533.289062 349.699219 L 533.289062 348.589844 L 533.851562 348.027344 L 533.851562 347.46875 L 534.40625 345.800781 L 534.96875 345.238281 L 534.96875 344.675781 L 535.53125 343.550781 L 535.53125 342.421875 L 536.097656 341.296875 L 536.660156 340.734375 L 536.660156 336.808594 L 537.222656 335.679688 L 537.222656 333.449219 L 536.667969 332.335938 L 536.101562 331.210938 L 535.546875 331.210938 L 534.992188 330.652344 L 534.425781 330.089844 L 533.863281 329.527344 L 532.738281 328.964844 L 532.175781 328.402344 L 531.050781 327.839844 L 529.921875 327.277344 L 528.796875 326.710938 L 527.671875 326.148438 L 526.542969 325.585938 L 525.417969 324.460938 L 524.292969 323.898438 L 523.726562 323.332031 L 522.601562 323.332031 L 520.914062 322.769531 L 520.355469 322.769531 L 519.246094 322.214844 L 518.679688 321.652344 L 517.554688 321.089844 L 517 321.089844 L 515.886719 320.53125 L 515.324219 319.96875 L 514.199219 319.40625 L 513.640625 319.40625 L 512.53125 318.851562 L 511.964844 318.285156 L 510.839844 317.722656 L 509.164062 317.722656 L 508.039062 317.160156 L 507.476562 316.597656 L 504.109375 316.597656 L 502.984375 316.035156 L 454.769531 316.035156 L 454.214844 316.589844 L 453.085938 317.152344 L 452.523438 317.71875 L 451.972656 318.269531 L 451.417969 318.820312 L 451.417969 319.378906 L 450.863281 320.492188 L 450.863281 321.046875 L 450.304688 321.601562 L 449.742188 322.164062 L 449.179688 322.730469 L 447.554688 324.355469 L 446.992188 325.480469 L 446.425781 326.042969 L 445.863281 327.171875 L 445.300781 328.296875 L 444.175781 329.421875 L 443.613281 330.550781 L 443.046875 331.113281 L 442.484375 331.675781 L 442.484375 332.234375 L 441.929688 333.34375 L 441.367188 333.910156 L 440.804688 335.035156 L 440.804688 337.265625 L 440.238281 338.953125 L 439.675781 339.515625 L 439.675781 342.332031 L 439.113281 343.460938 L 439.113281 345.242188 L 439.675781 345.804688 L 440.800781 346.367188 L 447.765625 346.367188 L 448.875 346.921875 L 449.441406 347.488281 L 451.679688 347.488281 "/>
<path style="fill:none;stroke-width:2.26;stroke-linecap:round;stroke-linejoin:round;stroke:rgb(0%,100%,0%);stroke-opacity:1;comp-op:src;clip-to-self:true;stroke-miterlimit:10;" d="M 359.039062 371.898438 L 359.570312 372.078125 L 360.683594 372.632812 L 387.667969 372.632812 L 388.796875 372.070312 L 390.46875 372.070312 L 392.160156 371.507812 L 392.722656 370.945312 L 394.414062 370.378906 L 395.539062 370.378906 L 396.664062 369.816406 L 397.789062 368.691406 L 398.347656 368.691406 L 399.460938 368.136719 L 400.023438 367.570312 L 401.148438 367.007812 L 401.710938 366.445312 L 402.839844 365.882812 L 403.964844 364.757812 L 404.527344 364.191406 L 405.089844 363.628906 L 405.089844 363.074219 L 405.648438 362.519531 L 405.648438 351.296875 L 405.082031 350.734375 L 405.082031 349.683594 L 404.519531 348.554688 L 403.957031 347.992188 L 403.394531 346.867188 L 403.394531 346.308594 L 402.839844 345.199219 L 402.273438 344.636719 L 402.273438 343.558594 L 401.71875 342.445312 L 401.71875 341.910156 L 401.183594 340.835938 L 400.621094 340.273438 L 400.621094 339.71875 L 400.0625 338.605469 L 400.0625 337.492188 L 398.9375 336.367188 L 398.9375 335.292969 L 397.8125 333.042969 L 397.246094 332.480469 L 396.683594 331.351562 L 395.558594 329.101562 L 394.996094 328.539062 L 394.433594 327.410156 L 393.867188 326.847656 L 393.304688 326.285156 L 393.304688 325.730469 L 392.75 325.171875 L 392.1875 324.609375 L 391.625 323.484375 L 391.085938 323.484375 L 390.550781 322.945312 L 389.425781 321.820312 L 388.867188 321.820312 L 387.75 320.703125 L 386.625 320.703125 L 385.496094 320.136719 L 382.683594 320.136719 L 380.992188 319.574219 L 380.429688 319.011719 L 377.613281 319.011719 L 375.925781 318.449219 L 374.234375 318.449219 L 372.546875 317.886719 L 371.417969 317.324219 L 368.605469 317.324219 L 366.914062 316.761719 L 365.789062 316.761719 L 364.097656 316.195312 L 362.972656 315.632812 L 359.59375 315.632812 L 357.90625 315.070312 L 354.527344 315.070312 L 352.835938 314.507812 L 351.710938 313.945312 L 340.660156 313.945312 L 339.535156 314.507812 L 338.972656 315.070312 L 338.410156 316.195312 L 337.28125 316.761719 L 336.71875 317.886719 L 336.15625 318.449219 L 336.15625 319.011719 L 335.59375 320.136719 L 335.03125 320.703125 L 334.46875 321.265625 L 333.902344 322.953125 L 333.339844 323.515625 L 333.339844 324.082031 L 332.777344 325.207031 L 332.777344 325.769531 L 332.214844 327.460938 L 331.652344 328.585938 L 331.652344 331.402344 L 331.089844 332.527344 L 331.089844 352.75 L 331.652344 353.875 L 331.652344 355.550781 L 332.214844 356.679688 L 332.777344 357.242188 L 332.777344 357.804688 L 333.339844 358.929688 L 333.339844 360.054688 L 333.902344 361.183594 L 334.46875 361.746094 L 335.03125 362.871094 L 335.59375 364 L 337.835938 366.242188 L 338.941406 366.792969 L 339.503906 367.355469 L 340.066406 367.355469 L 341.195312 367.917969 L 342.320312 368.484375 L 342.882812 369.046875 L 344.007812 369.609375 L 345.699219 370.171875 L 346.824219 371.296875 L 349.0625 371.296875 L 350.1875 371.863281 L 350.753906 372.425781 L 351.269531 372.425781 L 352.234375 372.90625 L 359.222656 372.90625 "/>
<path style="fill:none;stroke-width:2.26;stroke-linecap:round;stroke-linejoin:round;stroke:rgb(0%,100%,0%);stroke-opacity:1;comp-op:src;clip-to-self:true;stroke-miterlimit:10;" d="M 313.4375 370.730469 L 311.589844 370.730469 L 310.460938 371.292969 L 306.578125 371.292969 L 305.449219 371.855469 L 304.886719 372.421875 L 302.085938 372.421875 L 300.960938 372.984375 L 298.707031 372.984375 L 297.019531 373.546875 L 296.453125 374.109375 L 293.640625 374.109375 L 292.511719 374.671875 L 239.679688 374.671875 L 239.117188 374.109375 L 238.015625 373.558594 L 237.464844 373.011719 L 236.902344 372.445312 L 236.902344 371.394531 L 236.339844 370.265625 L 235.777344 369.703125 L 235.214844 368.578125 L 234.652344 366.886719 L 234.085938 366.324219 L 233.523438 365.199219 L 233.523438 363.511719 L 232.960938 361.820312 L 232.398438 361.257812 L 232.398438 360.695312 L 231.835938 359.566406 L 231.835938 359.003906 L 231.273438 357.878906 L 230.707031 357.316406 L 230.707031 352.824219 L 230.144531 351.699219 L 230.144531 350.007812 L 229.582031 348.882812 L 229.019531 348.320312 L 229.019531 344.953125 L 228.457031 343.828125 L 228.457031 336.558594 L 227.894531 334.867188 L 227.328125 334.304688 L 227.328125 331.488281 L 226.765625 330.363281 L 226.765625 326.984375 L 226.203125 325.859375 L 225.640625 324.730469 L 225.640625 314.597656 L 226.203125 313.46875 L 226.765625 312.90625 L 227.894531 312.34375 L 228.457031 311.21875 L 229.019531 310.652344 L 230.144531 309.527344 L 231.273438 308.964844 L 231.835938 308.402344 L 232.398438 308.402344 L 233.523438 307.839844 L 234.085938 307.277344 L 235.214844 307.277344 L 236.902344 306.710938 L 240.84375 306.710938 L 241.972656 306.148438 L 243.097656 305.585938 L 244.785156 305.585938 L 246.476562 305.023438 L 274.035156 305.023438 L 275.160156 305.585938 L 275.714844 305.585938 L 276.828125 306.140625 L 277.390625 306.707031 L 278.515625 307.269531 L 280.207031 307.832031 L 280.769531 308.394531 L 281.894531 308.957031 L 282.460938 309.519531 L 283.585938 310.082031 L 284.710938 311.210938 L 285.839844 311.773438 L 286.964844 312.898438 L 288.089844 314.027344 L 289.214844 316.277344 L 289.78125 317.40625 L 290.917969 319.109375 L 292.109375 320.898438 L 292.675781 322.035156 L 293.804688 323.160156 L 294.367188 324.289062 L 294.929688 325.976562 L 295.492188 327.101562 L 296.054688 328.230469 L 296.621094 328.792969 L 297.183594 329.917969 L 297.746094 330.480469 L 298.308594 331.609375 L 298.871094 333.296875 L 299.433594 333.859375 L 300 334.988281 L 300.5625 336.675781 L 301.125 337.238281 L 301.125 338.367188 L 301.6875 339.492188 L 301.6875 340.046875 L 302.242188 341.160156 L 302.804688 341.722656 L 302.804688 342.847656 L 303.371094 343.976562 L 303.371094 356.792969 L 303.933594 357.917969 L 304.496094 358.480469 L 304.496094 360.601562 L 305.058594 361.726562 L 305.058594 370.160156 "/>
<path style="fill:none;stroke-width:2.26;stroke-linecap:round;stroke-linejoin:round;stroke:rgb(0%,100%,0%);stroke-opacity:1;comp-op:src;clip-to-self:true;stroke-miterlimit:10;" d="M 194.023438 382.082031 L 168.304688 382.082031 L 167.179688 381.519531 L 166.617188 380.957031 L 165.488281 380.394531 L 163.800781 380.394531 L 162.675781 379.832031 L 162.113281 379.265625 L 160.984375 378.703125 L 160.457031 378.703125 L 159.40625 378.175781 L 158.851562 377.625 L 157.746094 377.070312 L 155.496094 374.820312 L 154.929688 374.257812 L 154.367188 373.691406 L 152.679688 372.003906 L 152.117188 370.878906 L 151.554688 370.316406 L 150.988281 369.1875 L 150.441406 368.089844 L 149.890625 367.539062 L 149.890625 366.464844 L 149.328125 365.339844 L 149.328125 364.785156 L 148.769531 363.671875 L 148.21875 363.121094 L 148.21875 362.609375 L 147.664062 361.496094 L 147.664062 360.941406 L 147.105469 359.828125 L 146.542969 359.265625 L 146.542969 358.152344 L 145.980469 357.027344 L 145.980469 356.492188 L 145.445312 355.417969 L 144.878906 354.855469 L 144.878906 354.296875 L 144.324219 353.742188 L 144.324219 352.074219 L 143.769531 350.964844 L 143.230469 350.425781 L 143.230469 349.957031 L 142.675781 348.84375 L 142.675781 348.304688 L 142.136719 347.234375 L 141.574219 346.671875 L 141.574219 346.113281 L 141.019531 345.003906 L 141.019531 343.890625 L 140.457031 342.761719 L 139.890625 341.636719 L 139.328125 339.949219 L 139.328125 338.273438 L 138.765625 336.582031 L 138.203125 336.019531 L 138.203125 335.464844 L 137.648438 334.351562 L 137.648438 333.789062 L 137.082031 332.664062 L 136.519531 331.535156 L 136.519531 327.617188 L 135.957031 326.492188 L 135.957031 316.917969 L 136.519531 315.792969 L 136.519531 314.664062 L 137.082031 313.539062 L 137.648438 312.976562 L 138.210938 312.414062 L 138.210938 311.285156 L 138.773438 310.160156 L 139.898438 309.597656 L 140.460938 308.472656 L 141.027344 307.90625 L 142.152344 307.34375 L 142.714844 306.21875 L 144.402344 305.65625 L 145.53125 304.527344 L 147.890625 303.9375 L 149.070312 302.761719 L 150.777344 301.621094 L 152.566406 300.429688 L 153.703125 299.859375 L 155.953125 298.734375 L 156.519531 298.734375 L 158.207031 298.171875 L 177.917969 298.171875 L 179.605469 298.734375 L 180.71875 298.734375 L 182.96875 299.859375 L 183.535156 300.421875 L 184.097656 300.421875 L 185.222656 300.988281 L 186.347656 301.550781 L 187.476562 302.113281 L 188.039062 302.113281 L 189.726562 302.675781 L 190.289062 303.238281 L 190.855469 303.238281 L 191.980469 303.800781 L 193.105469 304.367188 L 193.667969 304.929688 L 194.796875 305.492188 L 195.921875 306.617188 L 197.046875 307.179688 L 198.175781 307.742188 L 198.738281 308.308594 L 202.09375 311.664062 L 202.660156 312.792969 L 202.660156 313.347656 L 203.214844 313.902344 L 203.777344 314.46875 L 203.777344 315.023438 L 204.332031 316.136719 L 204.332031 317.824219 L 204.898438 318.949219 L 205.460938 319.515625 L 205.460938 320.070312 L 206.015625 321.183594 L 206.015625 322.308594 L 206.578125 323.433594 L 207.140625 323.996094 L 207.140625 326.171875 L 207.707031 327.296875 L 207.707031 348.066406 L 207.140625 349.753906 L 207.140625 351.445312 L 206.578125 353.132812 L 206.015625 353.695312 L 206.015625 355.386719 L 205.453125 357.074219 L 205.453125 359.328125 L 204.328125 361.578125 L 203.761719 362.707031 L 203.761719 363.832031 L 203.199219 364.957031 L 202.636719 365.523438 L 202.636719 366.078125 L 202.082031 367.191406 L 202.082031 368.261719 L 201.519531 368.824219 L 200.957031 369.390625 L 200.390625 370.515625 L 199.902344 371.003906 L 199.445312 371.464844 L 198.890625 372.015625 L 197.828125 373.078125 L 197.828125 373.613281 L 197.292969 374.152344 L 196.730469 375.277344 L 195.605469 376.402344 L 195.039062 377.53125 L 194.476562 378.65625 L 193.914062 379.21875 L 193.914062 379.773438 L 193.359375 380.886719 L 192.796875 381.449219 L 192.230469 382.011719 L 192.230469 382.550781 L 191.695312 383.621094 L 191.132812 384.1875 L 190.675781 384.640625 L 190.160156 385.671875 L 189.621094 386.210938 "/>
<path style="fill:none;stroke-width:2.26;stroke-linecap:round;stroke-linejoin:round;stroke:rgb(0%,100%,0%);stroke-opacity:1;comp-op:src;clip-to-self:true;stroke-miterlimit:10;" d="M 156.253906 287.988281 L 156.734375 287.511719 L 157.566406 287.09375 L 158.132812 286.53125 L 158.695312 285.40625 L 159.257812 284.277344 L 159.820312 283.152344 L 160.945312 282.027344 L 161.507812 280.898438 L 162.074219 279.773438 L 162.636719 278.648438 L 163.199219 278.085938 L 163.761719 277.519531 L 164.886719 276.394531 L 165.453125 275.832031 L 167.703125 274.707031 L 169.394531 273.015625 L 169.957031 273.015625 L 171.082031 272.453125 L 171.644531 271.890625 L 172.773438 271.328125 L 173.898438 270.765625 L 175.023438 270.199219 L 176.152344 269.636719 L 176.714844 269.074219 L 177.277344 269.074219 L 179.527344 267.949219 L 180.09375 267.386719 L 181.21875 266.824219 L 182.34375 266.257812 L 184.050781 265.121094 L 185.183594 264.554688 L 186.3125 263.992188 L 188.5625 262.867188 L 189.691406 262.300781 L 190.816406 262.300781 L 192.503906 261.738281 L 193.632812 261.175781 L 194.195312 261.175781 L 195.320312 260.613281 L 196.449219 260.050781 L 197.011719 259.488281 L 197.574219 259.488281 L 199.875 258.910156 L 202.148438 257.773438 L 203.277344 257.210938 L 203.839844 257.210938 L 205.527344 256.648438 L 206.65625 256.085938 L 209.449219 256.085938 L 210.578125 255.519531 L 214.519531 255.519531 L 215.644531 254.957031 L 216.207031 254.394531 L 234.769531 254.394531 L 235.894531 254.957031 L 236.457031 255.519531 L 238.128906 255.519531 L 239.253906 256.085938 L 242.070312 256.085938 L 243.757812 256.648438 L 244.320312 257.210938 L 245.449219 257.773438 L 245.988281 257.773438 L 247.101562 258.328125 L 247.664062 258.894531 L 248.789062 259.457031 L 249.347656 259.457031 L 249.902344 260.011719 L 250.464844 261.136719 L 251.027344 261.703125 L 251.59375 262.265625 L 253.28125 263.953125 L 253.84375 265.082031 L 254.96875 266.207031 L 254.96875 266.761719 L 255.527344 267.875 L 256.089844 268.4375 L 256.089844 269.546875 L 256.652344 270.675781 L 256.652344 274.59375 L 257.207031 275.707031 L 257.773438 276.832031 L 257.773438 280.589844 L 258.253906 281.550781 L 257.835938 281.96875 L 252.765625 281.96875 L 251.640625 281.40625 L 251.078125 280.84375 L 248.835938 280.84375 L 247.710938 280.277344 L 247.285156 280.703125 L 247.285156 282.03125 L 247.847656 283.15625 L 248.414062 284.28125 L 248.976562 285.410156 L 249.539062 287.097656 L 250.101562 288.222656 L 250.664062 289.351562 L 250.664062 289.914062 L 251.226562 291.039062 L 251.792969 291.601562 L 251.792969 292.730469 L 252.355469 293.292969 L 255.589844 293.292969 L 257.277344 292.730469 L 258.402344 292.164062 L 260.65625 292.164062 L 261.78125 291.601562 L 265.722656 291.601562 L 266.851562 291.039062 L 267.976562 290.476562 L 269.101562 290.476562 L 270.230469 289.914062 L 270.792969 289.914062 L 271.917969 289.351562 L 272.480469 288.785156 L 273.039062 288.785156 L 274.148438 288.230469 L 275.277344 287.667969 L 277.527344 286.542969 L 278.65625 285.414062 L 257.949219 285.414062 "/>
<path style="fill:none;stroke-width:2.26;stroke-linecap:round;stroke-linejoin:round;stroke:rgb(0%,100%,0%);stroke-opacity:1;comp-op:src;clip-to-self:true;stroke-miterlimit:10;" d="M 256.261719 285.414062 L 255.148438 285.414062 "/>
<path style="fill:none;stroke-width:2.26;stroke-linecap:round;stroke-linejoin:round;stroke:rgb(0%,100%,0%);stroke-opacity:1;comp-op:src;clip-to-self:true;stroke-miterlimit:10;" d="M 223.019531 236.699219 L 222.582031 236.699219 L 221.871094 236.34375 L 221.378906 235.851562 L 218.199219 235.851562 L 217.976562 236.078125 L 216.910156 237.144531 L 216.359375 238.242188 L 215.984375 238.621094 L 215.597656 239.003906 L 215.597656 239.398438 L 215.128906 240.335938 L 215.128906 243.535156 L 215.617188 244.023438 L 215.617188 244.542969 L 216.101562 245.507812 L 216.527344 245.507812 L 217.042969 246.023438 L 217.59375 246.578125 L 218.578125 247.070312 L 218.976562 247.070312 L 220.058594 248.152344 L 220.582031 248.152344 L 221.320312 247.921875 L 222.34375 246.898438 L 222.34375 246.582031 L 222.640625 246.28125 L 222.933594 245.988281 L 222.933594 244.039062 L 223.496094 243.476562 L 223.496094 241.988281 L 223.769531 241.714844 L 224.269531 242.21875 L 224.832031 242.78125 L 225.398438 243.90625 L 226.523438 244.46875 L 226.523438 245.683594 L 227.640625 246.800781 L 228.023438 246.800781 L 229.050781 247.3125 L 230.039062 248.300781 L 234.296875 248.300781 "/>
<path style="fill:none;stroke-width:2.26;stroke-linecap:round;stroke-linejoin:round;stroke:rgb(0%,100%,0%);stroke-opacity:1;comp-op:src;clip-to-self:true;stroke-miterlimit:10;" d="M 144.035156 295.359375 L 143.058594 294.871094 L 142.554688 293.863281 L 142.554688 291.046875 L 141.992188 289.355469 L 141.425781 287.667969 L 140.863281 286.542969 L 140.863281 285.976562 L 140.300781 284.289062 L 139.738281 282.597656 L 139.175781 281.472656 L 139.175781 278.09375 L 138.582031 275.714844 L 137.984375 273.921875 L 137.984375 272.796875 L 137.40625 270.492188 L 137.40625 252.929688 L 138.035156 250.410156 L 138.671875 247.871094 L 139.304688 245.332031 L 139.941406 242.796875 L 139.941406 239.957031 L 140.535156 237.578125 L 141.132812 235.78125 L 142.289062 234.046875 L 142.871094 232.308594 L 143.433594 230.621094 L 143.996094 228.929688 L 144.558594 227.242188 L 145.714844 225.503906 L 146.90625 223.722656 L 148.09375 221.941406 L 149.28125 220.15625 L 149.851562 219.019531 L 150.976562 217.890625 L 151.539062 216.765625 L 152.679688 215.058594 L 153.820312 213.917969 L 155.527344 212.777344 L 156.664062 212.210938 L 157.792969 211.085938 L 158.917969 210.519531 L 160.042969 209.394531 L 161.167969 208.832031 L 162.296875 207.707031 L 163.421875 207.140625 L 164.546875 206.578125 L 165.675781 206.015625 L 166.800781 205.453125 L 167.925781 204.328125 L 169.054688 203.765625 L 170.742188 203.199219 L 171.871094 202.636719 L 174.121094 201.511719 L 175.8125 200.949219 L 177.5 200.386719 L 179.191406 199.820312 L 181.441406 199.820312 L 183.132812 199.257812 L 185.523438 198.660156 L 187.316406 198.0625 L 190.738281 198.0625 L 193.253906 197.433594 L 195.054688 196.835938 L 197.449219 196.234375 L 199.976562 195.601562 L 202.507812 194.96875 L 205.050781 194.335938 L 206.832031 194.335938 L 210 193.703125 L 211.914062 193.0625 L 213.042969 193.0625 L 215.339844 192.488281 L 218.179688 192.488281 L 220.558594 191.894531 L 222.355469 191.292969 L 222.921875 191.292969 L 224.609375 190.730469 L 227.425781 190.730469 L 229.800781 190.136719 L 231.597656 189.539062 L 232.722656 189.539062 L 235.757812 188.929688 L 251.726562 188.929688 L 253.414062 189.496094 L 254.539062 189.496094 L 256.84375 190.070312 L 258.636719 190.667969 L 260.371094 191.824219 L 262.105469 192.402344 L 264.355469 193.527344 L 264.921875 194.089844 L 265.484375 194.089844 L 266.609375 194.65625 L 267.722656 194.65625 L 269.410156 195.21875 L 270.535156 195.78125 L 271.664062 196.34375 L 272.789062 196.90625 L 273.351562 197.46875 L 274.480469 198.035156 L 275.035156 198.035156 L 276.148438 198.589844 L 276.710938 199.152344 L 277.835938 199.714844 L 278.398438 200.277344 L 279.527344 200.84375 L 280.089844 201.40625 L 282.339844 202.53125 L 283.46875 203.09375 L 284.59375 203.65625 L 285.15625 204.222656 L 286.285156 204.785156 L 286.847656 205.347656 L 287.972656 205.910156 L 288.535156 206.472656 L 289.660156 207.035156 L 290.226562 207.597656 L 291.351562 208.164062 L 291.914062 208.726562 L 293.039062 209.289062 L 293.605469 209.851562 L 294.167969 210.414062 L 294.730469 211.542969 L 295.292969 212.667969 L 296.417969 213.792969 L 296.984375 214.355469 L 298.109375 215.484375 L 298.671875 216.609375 L 299.796875 217.734375 L 300.359375 218.863281 L 300.925781 219.425781 L 301.488281 220.550781 L 302.050781 221.113281 L 302.613281 222.242188 L 303.738281 223.367188 L 304.304688 223.929688 L 304.867188 224.492188 L 305.429688 225.617188 L 306.554688 226.183594 L 307.679688 227.308594 L 308.246094 228.433594 L 308.808594 229.5625 L 310.496094 231.25 L 311.625 232.375 L 312.1875 233.503906 L 314.4375 235.753906 L 315.003906 236.882812 L 316.128906 238.007812 L 316.128906 238.570312 L 316.691406 239.695312 L 317.253906 240.261719 L 317.253906 240.824219 L 318.378906 243.074219 L 318.945312 244.203125 L 320.070312 246.453125 L 320.632812 247.582031 L 321.195312 248.144531 L 321.195312 248.707031 L 321.757812 250.394531 L 322.324219 251.523438 L 322.886719 252.648438 L 322.886719 253.210938 L 323.449219 254.902344 L 324.574219 257.152344 L 324.574219 257.714844 L 325.136719 259.40625 L 325.703125 259.96875 L 325.703125 260.53125 L 326.265625 261.660156 L 326.265625 262.785156 L 326.828125 263.910156 L 327.390625 264.472656 L 327.953125 265.601562 L 327.953125 266.164062 L 328.515625 267.851562 L 329.078125 268.980469 L 329.644531 270.105469 L 329.644531 270.667969 L 330.207031 271.792969 L 330.769531 272.921875 L 330.769531 273.476562 L 331.324219 274.589844 L 331.324219 275.144531 L 331.882812 276.257812 L 332.445312 276.820312 L 332.445312 277.949219 L 333.570312 280.199219 L 334.132812 280.761719 L 334.132812 281.320312 L 334.691406 282.988281 L 334.691406 283.542969 L 335.246094 284.65625 L 335.808594 285.21875 L 335.808594 285.746094 L 336.335938 286.800781 "/>
<path style="fill:none;stroke-width:2.26;stroke-linecap:round;stroke-linejoin:round;stroke:rgb(0%,100%,0%);stroke-opacity:1;comp-op:src;clip-to-self:true;stroke-miterlimit:10;" d="M 325.46875 293.921875 L 325.945312 293.921875 L 326.945312 293.421875 L 329.761719 293.421875 L 330.886719 292.859375 L 332.015625 292.292969 L 333.683594 292.292969 L 335.371094 291.730469 L 338.1875 291.730469 L 339.316406 291.167969 L 340.441406 290.605469 L 343.257812 290.605469 L 344.382812 290.042969 L 348.210938 290.042969 L 349.324219 289.484375 L 349.886719 288.921875 L 350.441406 288.921875 L 350.808594 289.660156 L 350.808594 298.03125 L 350.253906 299.144531 L 349.691406 299.707031 L 349.691406 301.945312 L 349.128906 303.074219 L 349.128906 306.4375 L 348.636719 306.925781 L 348.273438 306.925781 L 347.160156 306.371094 L 343.796875 306.371094 L 342.667969 305.808594 L 342.105469 305.246094 L 340.980469 304.683594 L 340.417969 304.117188 L 339.855469 303.554688 L 339.289062 302.992188 L 338.164062 302.429688 L 337.046875 301.3125 L 335.945312 300.761719 L 335.378906 300.199219 L 335.378906 299.636719 L 334.816406 298.507812 L 332.566406 296.257812 L 332.132812 296.257812 "/>
<path style="fill:none;stroke-width:2.26;stroke-linecap:round;stroke-linejoin:round;stroke:rgb(0%,100%,0%);stroke-opacity:1;comp-op:src;clip-to-self:true;stroke-miterlimit:10;" d="M 259.875 134.597656 L 260.164062 134.886719 L 260.164062 136.570312 L 259.046875 137.6875 L 259.046875 140.917969 L 258.484375 141.480469 L 258.484375 144.742188 L 257.363281 145.863281 L 257.363281 148.542969 L 256.800781 149.667969 L 256.800781 152.953125 L 256.246094 153.511719 L 255.679688 154.074219 L 255.679688 156.808594 L 255.117188 157.9375 L 255.117188 162.074219 L 255.597656 162.554688 L 263.378906 162.554688 L 263.824219 163 L 264.3125 163 L 265 163.34375 L 265 165.023438 L 265.5625 166.152344 L 266.125 166.714844 L 266.125 169.382812 L 266.6875 170.511719 L 266.6875 173.808594 L 266.125 174.933594 L 266.125 175.472656 L 265.714844 175.882812 L 258.773438 175.882812 L 258.289062 175.394531 L 257.972656 174.765625 L 257.972656 174.425781 L 257.523438 173.527344 L 256.992188 172.992188 L 256.992188 167.417969 L 256.503906 166.929688 L 256.503906 167.847656 L 255.378906 168.972656 L 255.378906 169.953125 L 254.824219 171.066406 L 254.824219 173.589844 "/>
</g>
</svg>
