<?xml version="1.0" encoding="UTF-8"?>
<svg xmlns="http://www.w3.org/2000/svg" xmlns:xlink="http://www.w3.org/1999/xlink" width="841pt" height="595pt" viewBox="0 0 841 595" version="1.2">
<g id="surface997268">
<rect x="0" y="0" width="841" height="595" style="fill:rgb(0%,0%,0%);fill-opacity:1;stroke:none;"/>
<path style="fill:none;stroke-width:2.26;stroke-linecap:round;stroke-linejoin:round;stroke:rgb(0%,100%,0%);stroke-opacity:1;comp-op:src;clip-to-self:true;stroke-miterlimit:10;" d="M 168.679688 358.230469 L 168.175781 357.726562 L 168.175781 355.789062 L 168.738281 354.097656 L 169.300781 352.972656 L 169.300781 350.179688 L 169.867188 348.488281 L 169.867188 346.800781 L 170.429688 345.109375 L 170.992188 343.984375 L 170.992188 342.292969 L 171.554688 341.167969 L 171.554688 339.492188 L 172.679688 337.242188 L 173.242188 336.679688 L 173.242188 336.113281 L 173.808594 334.988281 L 174.371094 333.863281 L 174.933594 332.734375 L 176.058594 330.484375 L 176.621094 329.921875 L 177.1875 328.792969 L 177.75 328.230469 L 178.875 325.980469 L 179.4375 325.414062 L 180 324.289062 L 181.722656 324.289062 L 182.289062 324.851562 L 182.851562 325.414062 L 182.851562 327.105469 L 183.414062 328.792969 L 184.011719 331.1875 L 184.609375 332.980469 L 184.609375 334.105469 L 185.21875 337.140625 L 185.855469 339.050781 L 185.855469 340.179688 L 186.429688 342.476562 L 186.429688 344.742188 L 186.992188 346.429688 L 187.554688 346.992188 L 187.554688 352.0625 L 188.117188 353.1875 "/>
<path style="fill:none;stroke-width:2.26;stroke-linecap:round;stroke-linejoin:round;stroke:rgb(0%,100%,0%);stroke-opacity:1;comp-op:src;clip-to-self:true;stroke-miterlimit:10;" d="M 486.558594 370.289062 L 479.359375 370.289062 L 476.980469 369.691406 L 475.828125 369.117188 L 475.265625 369.117188 L 473.574219 368.554688 L 471.886719 367.992188 L 470.761719 367.425781 L 469.632812 366.863281 L 467.945312 366.300781 L 467.382812 365.738281 L 466.253906 365.175781 L 465.691406 364.613281 L 464.566406 364.050781 L 464.003906 362.921875 L 463.441406 362.359375 L 463.441406 361.796875 L 462.863281 359.496094 L 462.289062 358.34375 L 461.152344 356.636719 L 460.011719 353.214844 L 459.445312 351.523438 L 458.882812 349.835938 L 458.882812 348.710938 L 458.308594 346.410156 L 458.308594 343.570312 L 457.714844 341.195312 L 457.117188 339.402344 L 457.117188 335.460938 L 457.679688 333.773438 L 458.246094 333.210938 L 458.808594 332.082031 L 459.933594 329.832031 L 460.496094 328.703125 L 461.058594 327.578125 L 461.625 326.453125 L 462.1875 325.890625 L 462.75 325.324219 L 463.3125 324.761719 L 464.4375 324.199219 L 465 324.199219 L 466.691406 323.636719 L 467.816406 323.074219 L 468.378906 322.511719 L 469.507812 321.945312 L 471.195312 321.382812 L 472.320312 320.820312 L 474.011719 320.820312 L 475.699219 320.257812 L 476.828125 319.695312 L 486.386719 319.695312 L 488.074219 320.257812 L 488.636719 320.820312 L 489.765625 321.382812 L 490.890625 321.945312 L 492.015625 322.511719 L 493.144531 323.074219 L 494.269531 323.074219 L 495.960938 323.636719 L 498.210938 324.761719 L 499.902344 325.324219 L 501.027344 325.890625 L 502.152344 327.015625 L 503.28125 327.578125 L 506.65625 329.265625 L 507.785156 330.394531 L 508.910156 330.957031 L 510.035156 332.082031 L 510.601562 332.644531 L 511.726562 333.773438 L 512.851562 334.898438 L 513.988281 336.605469 L 515.128906 337.742188 L 515.691406 338.871094 L 516.816406 339.996094 L 517.382812 341.121094 L 517.945312 342.25 L 517.945312 342.804688 L 518.5 343.917969 L 519.0625 344.480469 L 519.0625 346.117188 L 518.5 347.242188 L 517.9375 347.804688 L 517.375 348.929688 L 516.8125 350.058594 L 516.246094 350.621094 L 515.683594 351.183594 L 515.683594 351.746094 L 515.121094 352.871094 L 514.558594 353.4375 L 513.996094 353.4375 L 512.867188 354 L 511.742188 354.5625 L 511.179688 355.6875 L 510.054688 356.25 L 509.492188 356.816406 L 508.363281 357.378906 L 507.800781 357.941406 L 506.675781 358.503906 L 506.113281 359.066406 L 506.113281 359.625 L 505.554688 360.179688 L 504.992188 361.304688 L 503.914062 361.304688 L 502.800781 361.863281 L 502.246094 361.863281 L 501.132812 362.417969 L 500.570312 362.980469 L 499.496094 362.980469 L 498.933594 363.542969 L 498.417969 363.542969 L 497.34375 364.082031 L 496.78125 364.644531 L 495.652344 364.644531 L 494.527344 365.207031 L 493.402344 365.207031 L 491.710938 365.769531 L 490.585938 366.332031 L 490.023438 366.898438 L 487.769531 366.898438 L 486.082031 367.460938 "/>
<path style="fill:none;stroke-width:2.26;stroke-linecap:round;stroke-linejoin:round;stroke:rgb(0%,100%,0%);stroke-opacity:1;comp-op:src;clip-to-self:true;stroke-miterlimit:10;" d="M 352.414062 327.433594 L 354.664062 327.433594 L 355.789062 326.867188 L 370.996094 326.867188 L 372.683594 327.433594 L 375.5 327.433594 L 377.1875 327.996094 L 377.753906 328.558594 L 378.308594 328.558594 L 379.421875 329.113281 L 379.984375 329.113281 L 381.109375 329.675781 L 381.671875 330.242188 L 382.234375 330.804688 L 383.925781 331.367188 L 385.050781 332.492188 L 386.179688 333.054688 L 386.742188 333.621094 L 387.304688 335.308594 L 387.867188 336.433594 L 388.429688 338.125 L 388.429688 339.234375 L 388.992188 340.363281 L 389.554688 341.488281 L 389.554688 356.691406 L 388.992188 358.382812 L 388.429688 358.945312 L 388.429688 360.070312 L 387.867188 361.195312 L 387.867188 362.308594 L 386.742188 363.433594 L 386.179688 364.5625 L 385.613281 365.125 L 384.488281 366.25 L 383.363281 366.8125 L 382.800781 367.378906 L 382.261719 367.378906 L 380.652344 367.914062 L 365.464844 367.914062 L 363.773438 367.351562 L 363.21875 367.351562 "/>
<path style="fill:none;stroke-width:2.26;stroke-linecap:round;stroke-linejoin:round;stroke:rgb(0%,100%,0%);stroke-opacity:1;comp-op:src;clip-to-self:true;stroke-miterlimit:10;" d="M 364.207031 365.792969 L 361.996094 365.792969 L 360.308594 365.230469 L 359.179688 364.667969 L 358.054688 364.101562 L 356.929688 363.539062 L 355.800781 362.976562 L 353.550781 361.851562 L 352.988281 361.289062 L 351.859375 360.722656 L 349.609375 358.472656 L 349.042969 357.910156 L 349.042969 356.78125 L 348.480469 355.09375 L 347.355469 353.96875 L 347.355469 352.839844 L 346.792969 351.152344 L 346.230469 350.023438 L 346.230469 348.898438 L 345.65625 346.601562 L 345.65625 331.375 L 346.21875 329.683594 L 346.78125 329.121094 L 347.90625 328.558594 "/>
<path style="fill:none;stroke-width:2.26;stroke-linecap:round;stroke-linejoin:round;stroke:rgb(0%,100%,0%);stroke-opacity:1;comp-op:src;clip-to-self:true;stroke-miterlimit:10;" d="M 262.507812 366.375 L 253.511719 366.375 L 252.386719 365.8125 L 251.824219 365.8125 L 250.132812 365.25 L 249.007812 364.683594 L 247.878906 364.121094 L 247.316406 363.558594 L 246.191406 362.996094 L 245.628906 362.433594 L 244.5 361.871094 L 243.9375 361.304688 L 243.375 360.742188 L 242.84375 359.679688 L 242.300781 359.136719 L 241.738281 358.011719 L 241.738281 354.089844 L 241.164062 351.792969 L 240.589844 350.640625 L 240.589844 349.515625 L 240.015625 347.214844 L 240.015625 346.066406 L 239.441406 343.765625 L 238.84375 341.976562 L 238.246094 339.585938 L 238.246094 322.613281 L 239.933594 320.925781 L 241.0625 320.359375 L 241.625 319.796875 L 242.1875 319.796875 L 244.488281 319.222656 L 245.636719 318.648438 L 247.324219 318.085938 L 248.453125 317.523438 L 249.578125 316.960938 L 250.140625 316.394531 L 250.703125 316.394531 L 252.394531 315.832031 L 253.519531 315.269531 L 254.082031 315.269531 L 256.382812 314.695312 L 269.910156 314.695312 L 273.285156 316.382812 L 273.851562 316.945312 L 274.414062 317.511719 L 276.664062 319.761719 L 277.230469 320.324219 L 278.355469 320.890625 L 278.917969 321.453125 L 279.480469 322.578125 L 280.042969 324.265625 L 280.605469 325.394531 L 281.171875 326.519531 L 281.171875 327.082031 L 281.734375 328.773438 L 282.296875 329.898438 L 282.296875 330.460938 L 282.859375 332.152344 L 282.859375 333.839844 L 283.421875 334.964844 L 283.984375 336.09375 L 283.984375 343.976562 L 283.421875 345.664062 L 282.859375 346.792969 L 282.859375 350.121094 L 282.410156 350.574219 L 281.84375 351.699219 L 281.28125 352.824219 L 280.71875 353.386719 L 280.71875 353.953125 L 279.59375 356.203125 L 279.03125 356.765625 L 279.03125 357.332031 L 278.46875 358.457031 L 277.902344 359.019531 L 277.339844 360.144531 L 276.777344 360.707031 L 276.214844 361.835938 L 275.652344 362.398438 L 275.089844 363.523438 L 274.523438 364.085938 L 273.960938 364.652344 L 271.148438 367.464844 L 270.609375 367.464844 L 269.535156 368.003906 L 268.410156 368.566406 L 267.847656 369.128906 L 261.667969 369.128906 "/>
<path style="fill:none;stroke-width:2.26;stroke-linecap:round;stroke-linejoin:round;stroke:rgb(0%,100%,0%);stroke-opacity:1;comp-op:src;clip-to-self:true;stroke-miterlimit:10;" d="M 170.21875 370.511719 L 169.097656 370.511719 L 167.988281 369.957031 L 167.421875 369.394531 L 165.753906 369.394531 L 164.628906 368.828125 L 164.074219 368.828125 L 162.960938 368.273438 L 161.835938 367.710938 L 161.269531 367.148438 L 160.144531 366.585938 L 159.582031 366.019531 L 156.675781 363.113281 L 155.4375 361.257812 L 154.300781 360.121094 L 153.160156 358.410156 L 152.019531 354.988281 L 150.894531 353.859375 L 149.765625 352.734375 L 149.203125 351.609375 L 148.640625 349.917969 L 148.640625 349.355469 L 148.078125 347.667969 L 147.515625 346.539062 L 146.949219 345.414062 L 146.949219 331.335938 L 147.515625 329.648438 L 147.515625 329.082031 L 148.078125 327.394531 L 148.640625 326.832031 "/>
<path style="fill:none;stroke-width:2.26;stroke-linecap:round;stroke-linejoin:round;stroke:rgb(0%,100%,0%);stroke-opacity:1;comp-op:src;clip-to-self:true;stroke-miterlimit:10;" d="M 151.457031 322.890625 L 152.019531 321.199219 L 153.144531 320.074219 L 153.707031 318.949219 L 154.835938 318.382812 L 156.539062 317.246094 L 157.675781 316.679688 L 159.367188 316.117188 L 161.054688 315.554688 L 162.746094 314.988281 L 164.472656 313.835938 L 166.207031 313.257812 L 167.332031 312.695312 L 167.894531 312.695312 L 169.585938 312.132812 L 170.148438 311.570312 L 181.972656 311.570312 L 183.101562 312.132812 L 183.664062 312.695312 L 184.21875 312.695312 L 185.332031 313.253906 L 187.019531 313.816406 L 187.582031 314.378906 L 188.710938 314.941406 L 189.835938 314.941406 L 190.960938 315.503906 L 191.527344 316.066406 L 192.089844 316.628906 L 193.214844 317.195312 L 194.339844 318.320312 L 195.46875 318.882812 L 196.59375 320.007812 L 197.15625 320.574219 L 197.71875 321.136719 L 197.71875 321.699219 L 198.28125 322.824219 L 198.28125 326.203125 L 198.875 328.578125 L 199.476562 330.371094 L 199.476562 330.9375 L 200.039062 332.625 L 200.039062 334.878906 L 200.601562 336.566406 L 201.164062 337.695312 L 201.164062 346.703125 L 200.601562 348.394531 L 200.039062 349.519531 L 200.039062 350.082031 L 199.464844 352.382812 L 199.464844 352.957031 L 198.898438 354.644531 L 198.335938 356.335938 L 197.210938 358.585938 L 196.648438 359.714844 L 196.085938 360.277344 L 195.519531 361.402344 L 194.394531 362.527344 L 193.339844 362.527344 L 192.214844 363.09375 L 191.652344 363.65625 L 191.113281 363.65625 L 190.042969 364.191406 L 189.503906 364.730469 L 187.914062 364.730469 L 186.789062 365.292969 L 184.535156 365.292969 L 183.410156 365.855469 L 180.03125 365.855469 L 178.90625 366.421875 L 178.34375 366.984375 L 174.964844 366.984375 L 174.398438 367.546875 L 173.519531 367.546875 "/>
<path style="fill:none;stroke-width:2.26;stroke-linecap:round;stroke-linejoin:round;stroke:rgb(0%,100%,0%);stroke-opacity:1;comp-op:src;clip-to-self:true;stroke-miterlimit:10;" d="M 100.859375 340.039062 L 120.652344 340.039062 L 121.132812 340.523438 L 121.132812 345.863281 L 120.570312 347.554688 L 120.570312 349.1875 L 121.0625 349.675781 L 121.417969 349.320312 L 121.96875 348.765625 L 123.097656 348.203125 L 123.660156 347.640625 L 124.785156 347.078125 L 125.347656 346.515625 L 126.476562 345.953125 L 127.039062 345.386719 L 127.589844 344.835938 L 127.933594 344.496094 L 128.433594 343.996094 L 128.996094 343.429688 L 130.660156 341.765625 L 130.660156 340.988281 L 130.097656 339.859375 L 129.535156 339.296875 L 128.972656 338.171875 L 128.40625 337.042969 L 126.71875 333.667969 L 126.71875 333.101562 L 126.15625 331.414062 L 125.59375 330.851562 L 125.027344 329.722656 L 125.027344 329.167969 L 124.472656 328.613281 L 123.910156 328.046875 L 123.347656 326.921875 L 122.789062 326.921875 L 121.679688 326.367188 L 120.550781 325.238281 L 120.550781 333.539062 L 121.117188 334.667969 L 121.679688 335.230469 L 121.679688 336.867188 L 122.242188 337.992188 L 122.242188 340.238281 "/>
<path style="fill:none;stroke-width:2.26;stroke-linecap:round;stroke-linejoin:round;stroke:rgb(0%,100%,0%);stroke-opacity:1;comp-op:src;clip-to-self:true;stroke-miterlimit:10;" d="M 173.117188 340.894531 L 176.816406 340.894531 L 180.152344 341.5625 L 182.84375 342.234375 L 185.382812 342.871094 L 187.160156 342.871094 L 189.535156 343.464844 L 191.328125 344.0625 L 192.453125 344.0625 "/>
<path style="fill:none;stroke-width:2.26;stroke-linecap:round;stroke-linejoin:round;stroke:rgb(0%,100%,0%);stroke-opacity:1;comp-op:src;clip-to-self:true;stroke-miterlimit:10;" d="M 255.070312 356.585938 L 255.546875 356.109375 L 255.546875 345.5 L 256.109375 343.8125 L 256.109375 328.136719 L 256.664062 327.023438 L 256.664062 325.949219 L 257.191406 325.425781 L 257.890625 325.777344 L 258.953125 326.304688 L 259.507812 326.304688 L 260.617188 326.863281 L 261.183594 327.425781 L 261.746094 327.988281 L 263.996094 329.113281 L 264.5625 330.242188 L 265.6875 330.804688 L 265.6875 331.359375 L 266.242188 332.472656 L 266.804688 333.035156 L 267.371094 334.160156 L 267.933594 335.289062 L 268.496094 335.851562 L 269.058594 336.976562 L 269.058594 338.605469 L 269.621094 339.730469 L 270.183594 340.292969 L 270.746094 341.417969 L 270.746094 342.996094 L 270.332031 343.410156 L 269.8125 344.453125 L 268.253906 344.453125 L 267.128906 345.015625 L 257.863281 345.015625 L 258.222656 345.015625 L 259.734375 345.519531 L 260.296875 346.082031 L 261.425781 346.644531 L 263.097656 346.644531 L 264.226562 347.207031 L 264.789062 347.773438 L 265.914062 348.335938 L 267.042969 348.898438 L 267.605469 349.460938 L 268.125 349.460938 L 269.160156 350.496094 L 269.160156 351.605469 L 269.722656 352.734375 L 270.285156 353.859375 L 270.285156 356.050781 L 269.871094 356.464844 L 268.304688 356.984375 L 267.742188 357.550781 L 257.042969 357.550781 L 255.917969 356.984375 L 255.355469 356.421875 L 253.117188 356.421875 L 252.554688 355.859375 "/>
<path style="fill:none;stroke-width:2.26;stroke-linecap:round;stroke-linejoin:round;stroke:rgb(0%,100%,0%);stroke-opacity:1;comp-op:src;clip-to-self:true;stroke-miterlimit:10;" d="M 367.269531 336.5 L 365.375 336.5 L 364.8125 337.0625 L 363.796875 337.0625 L 363.234375 337.625 L 362.671875 338.191406 L 361.542969 338.753906 L 360.460938 339.835938 L 359.898438 340.402344 L 359.332031 341.527344 L 359.332031 342.089844 L 358.769531 343.214844 L 358.207031 343.777344 L 358.207031 344.316406 L 357.691406 344.832031 L 357.691406 349.195312 L 358.253906 350.882812 L 358.816406 352.007812 L 359.378906 352.574219 L 359.941406 353.136719 L 360.503906 354.261719 L 361.066406 354.824219 L 361.632812 355.386719 L 362.195312 355.953125 L 364.445312 358.203125 L 365.574219 358.203125 L 366.699219 358.765625 L 372.261719 358.765625 "/>
<path style="fill:none;stroke-width:2.26;stroke-linecap:round;stroke-linejoin:round;stroke:rgb(0%,100%,0%);stroke-opacity:1;comp-op:src;clip-to-self:true;stroke-miterlimit:10;" d="M 479.3125 356.097656 L 478.832031 355.617188 L 478.832031 335.753906 L 479.308594 335.277344 L 481.980469 335.277344 L 482.542969 335.839844 L 483.597656 335.839844 L 484.675781 336.917969 L 485.800781 337.480469 L 487.941406 339.621094 L 488.503906 340.746094 L 489.628906 341.308594 L 489.628906 341.808594 L 490.15625 342.859375 L 490.71875 343.421875 L 491.246094 344.472656 L 491.246094 348.476562 L 490.679688 349.039062 L 490.679688 350.078125 L 490.128906 350.632812 L 489.75 350.632812 L 489.238281 351.144531 L 488.367188 351.144531 L 486.714844 352.796875 L 486.1875 353.320312 L 485.730469 353.78125 L 484.625 354.335938 L 483.496094 354.898438 L 481.34375 357.050781 "/>
<path style="fill:none;stroke-width:2.26;stroke-linecap:round;stroke-linejoin:round;stroke:rgb(0%,100%,0%);stroke-opacity:1;comp-op:src;clip-to-self:true;stroke-miterlimit:10;" d="M 444.9375 319.601562 L 444.9375 343.550781 L 445.53125 345.921875 L 445.53125 347.070312 L 446.105469 349.375 L 446.683594 350.523438 L 447.246094 351.652344 L 447.246094 352.214844 L 447.808594 353.902344 L 448.371094 355.03125 L 448.933594 355.59375 L 448.933594 356.15625 L 449.5 357.28125 L 450.0625 358.410156 L 450.625 358.972656 L 450.625 359.535156 L 451.75 361.785156 L 452.878906 362.351562 L 453.441406 363.476562 L 454.566406 364.601562 L 455.691406 365.730469 L 456.820312 366.855469 L 457.945312 367.417969 L 459.652344 368.554688 L 461.390625 369.136719 L 462.515625 370.261719 L 464.203125 370.824219 L 465.332031 371.949219 L 466.457031 372.515625 L 467.582031 373.078125 L 469.273438 373.640625 L 470.398438 374.203125 L 471.527344 375.328125 L 473.234375 376.46875 L 474.371094 377.605469 L 476.082031 378.746094 L 477.8125 379.324219 L 479.546875 380.480469 L 481.285156 381.058594 L 483.019531 382.214844 L 484.152344 382.78125 L 485.28125 383.34375 L 486.96875 383.910156 L 488.097656 384.472656 L 492.039062 384.472656 L 493.726562 385.035156 L 510.058594 385.035156 L 511.746094 384.472656 L 512.871094 384.472656 L 514.5625 383.910156 L 515.6875 383.34375 L 516.25 382.78125 L 517.378906 382.21875 L 518.503906 381.65625 L 519.628906 380.53125 L 520.757812 379.964844 L 521.882812 378.839844 L 523.570312 378.277344 L 524.699219 377.152344 L 525.824219 376.585938 L 526.949219 375.460938 L 528.078125 374.898438 L 529.765625 373.210938 L 530.890625 372.082031 L 531.457031 370.957031 L 532.019531 369.832031 L 532.582031 368.703125 L 533.144531 368.140625 L 533.707031 367.015625 L 534.269531 365.886719 L 534.835938 364.761719 L 535.960938 362.511719 L 536.523438 361.382812 L 536.523438 345.617188 L 535.960938 343.925781 L 534.835938 341.675781 L 534.269531 340.546875 L 533.144531 338.296875 L 533.144531 337.734375 L 532.582031 336.042969 L 532.019531 334.917969 L 530.890625 334.355469 L 530.890625 333.792969 L 530.328125 332.664062 L 528.640625 330.976562 L 528.078125 329.847656 L 527.511719 328.722656 L 525.824219 327.035156 L 524.699219 326.472656 L 524.136719 325.90625 L 523.570312 325.34375 L 522.445312 324.78125 L 521.882812 324.21875 L 521.320312 323.09375 L 520.757812 322.527344 L 520.191406 321.402344 L 519.066406 320.839844 L 518.503906 319.714844 L 517.941406 319.148438 L 516.816406 318.023438 L 516.25 317.460938 L 515.125 316.898438 L 514 316.898438 L 512.871094 316.335938 L 512.308594 315.773438 L 508.929688 315.773438 L 507.242188 315.207031 L 459.382812 315.207031 L 458.828125 315.765625 L 457.753906 315.765625 L 456.628906 316.890625 L 455.503906 317.453125 L 454.390625 317.453125 L 453.265625 318.578125 L 451.578125 318.578125 L 451.011719 319.144531 L 449.378906 319.144531 L 448.8125 319.707031 L 448.261719 320.257812 L 445.460938 320.257812 "/>
<path style="fill:none;stroke-width:2.26;stroke-linecap:round;stroke-linejoin:round;stroke:rgb(0%,100%,0%);stroke-opacity:1;comp-op:src;clip-to-self:true;stroke-miterlimit:10;" d="M 182.671875 306.933594 L 182.671875 305.988281 L 183.234375 305.425781 L 184.363281 304.863281 L 185.488281 304.296875 L 186.613281 303.171875 L 187.179688 303.171875 L 188.304688 302.609375 L 188.867188 302.046875 L 189.992188 301.484375 L 191.660156 301.484375 L 193.351562 300.917969 L 193.914062 300.355469 L 195.039062 299.792969 L 195.601562 299.792969 L 197.292969 299.230469 L 197.855469 298.667969 L 198.410156 298.667969 L 199.523438 298.109375 L 201.191406 298.109375 L 202.304688 297.554688 L 202.867188 296.992188 L 205.664062 296.992188 L 206.226562 296.429688 L 209.578125 296.429688 L 210.703125 295.867188 L 211.265625 295.300781 L 229.625 295.300781 L 230.738281 295.859375 L 231.300781 296.421875 L 232.429688 296.984375 L 233.554688 297.546875 L 234.65625 298.648438 L 235.125 298.648438 "/>
<path style="fill:none;stroke-width:2.26;stroke-linecap:round;stroke-linejoin:round;stroke:rgb(0%,100%,0%);stroke-opacity:1;comp-op:src;clip-to-self:true;stroke-miterlimit:10;" d="M 228.820312 307.054688 L 229.320312 305.84375 L 229.882812 305.28125 L 230.449219 304.71875 L 231.011719 304.15625 L 231.574219 303.589844 L 232.136719 303.589844 L 233.828125 303.027344 L 234.953125 302.464844 L 235.515625 301.339844 L 236.640625 300.777344 L 237.769531 299.648438 L 238.894531 299.085938 L 239.457031 297.960938 L 240.582031 296.835938 L 241.148438 296.835938 L 242.273438 296.269531 L 243.367188 295.175781 L 243.753906 295.175781 L 245.414062 293.515625 L 246.527344 293.515625 L 247.015625 294.003906 L 246.59375 294.421875 L 246.03125 294.988281 L 246.03125 295.550781 L 245.46875 296.675781 L 245.46875 297.238281 L 244.90625 298.363281 L 244.34375 299.492188 L 244.34375 304.117188 L 243.78125 305.242188 L 243.78125 305.78125 L 243.242188 306.851562 L 242.679688 307.414062 L 242.117188 308.542969 L 242.117188 309.539062 L 241.5625 310.09375 L 236.214844 310.09375 L 235.105469 309.539062 L 232.988281 309.539062 L 231.859375 308.976562 L 231.296875 308.414062 L 230.171875 307.851562 L 228.480469 307.285156 L 227.917969 306.722656 "/>
<path style="fill:none;stroke-width:2.26;stroke-linecap:round;stroke-linejoin:round;stroke:rgb(0%,100%,0%);stroke-opacity:1;comp-op:src;clip-to-self:true;stroke-miterlimit:10;" d="M 211.339844 282.34375 L 211.835938 281.84375 L 211.300781 280.480469 L 210.78125 279.957031 L 210.257812 279.4375 L 209.738281 278.917969 L 208.921875 278.398438 L 207.890625 277.367188 L 206.902344 277.367188 L 206.335938 276.804688 L 205.773438 276.242188 L 203.855469 276.242188 L 202.730469 275.679688 L 196.769531 275.679688 L 196.28125 276.164062 L 195.929688 276.519531 L 195.378906 277.070312 L 194.8125 277.632812 L 194.8125 278.554688 L 194.257812 279.109375 L 194.257812 279.964844 L 193.207031 281.015625 L 193.207031 281.402344 L 192.671875 281.9375 L 192.671875 286.25 L 193.175781 286.757812 L 194.933594 286.757812 L 196.0625 287.320312 L 196.613281 287.871094 L 201.507812 287.871094 L 203.09375 286.285156 L 203.554688 285.828125 L 203.554688 284.722656 L 204.679688 283.597656 L 204.679688 282.695312 L 205.683594 281.691406 L 205.683594 280.199219 L 206.160156 279.722656 L 207.480469 279.722656 L 209.039062 281.28125 L 210.546875 281.28125 L 211.054688 281.792969 L 211.609375 282.34375 L 212.164062 282.34375 L 213.277344 282.902344 L 217.636719 282.902344 "/>
<path style="fill:none;stroke-width:2.26;stroke-linecap:round;stroke-linejoin:round;stroke:rgb(0%,100%,0%);stroke-opacity:1;comp-op:src;clip-to-self:true;stroke-miterlimit:10;" d="M 277.851562 306.980469 L 277.375 306.503906 L 279 304.878906 L 279 304.316406 L 279.5625 302.625 L 280.125 302.0625 L 280.691406 301.5 L 281.253906 300.9375 L 281.816406 300.371094 L 282.941406 299.246094 L 283.503906 298.121094 L 284.070312 297.558594 L 284.632812 296.996094 L 285.195312 296.429688 L 285.757812 295.867188 L 286.320312 294.742188 L 287.445312 293.617188 L 288.574219 293.050781 L 289.136719 292.488281 L 290.261719 291.925781 L 290.824219 291.363281 L 291.390625 290.800781 L 291.953125 290.238281 L 292.515625 290.238281 L 293.640625 289.675781 L 294.203125 289.675781 L 295.332031 289.109375 L 296.441406 289.109375 L 298.132812 288.546875 L 299.820312 287.984375 L 300.382812 287.421875 L 304.324219 287.421875 L 305.453125 286.859375 L 324.035156 286.859375 L 325.160156 287.421875 L 327.976562 287.421875 L 329.101562 287.984375 L 330.230469 288.546875 L 331.917969 289.109375 L 333.609375 289.675781 L 334.734375 290.800781 L 335.289062 290.800781 L 336.402344 291.355469 L 337.527344 292.480469 L 338.65625 293.046875 L 344.285156 298.675781 L 344.847656 299.804688 L 345.414062 300.929688 L 346.539062 302.054688 "/>
<path style="fill:none;stroke-width:2.26;stroke-linecap:round;stroke-linejoin:round;stroke:rgb(0%,100%,0%);stroke-opacity:1;comp-op:src;clip-to-self:true;stroke-miterlimit:10;" d="M 337.164062 310.917969 L 338.703125 310.40625 L 339.214844 310.40625 L 340.902344 309.839844 L 342.03125 309.277344 L 342.59375 308.714844 L 343.71875 308.152344 L 344.84375 307.027344 L 346.519531 307.027344 L 347.648438 306.460938 L 348.1875 305.925781 L 349.785156 305.925781 L 350.910156 305.359375 L 352.035156 304.796875 L 353.164062 304.234375 L 355.511719 303.058594 L 357.347656 302.449219 L 359.035156 301.886719 L 360.164062 301.320312 L 361.289062 300.757812 L 361.84375 300.757812 L 362.207031 301.121094 L 362.207031 301.480469 L 361.648438 302.59375 L 361.085938 303.15625 L 361.085938 303.71875 L 360.523438 304.84375 L 360.523438 307.660156 L 359.960938 309.351562 L 359.398438 309.914062 L 359.398438 312.164062 L 358.835938 313.292969 L 358.835938 316.671875 L 358.34375 317.160156 L 352.917969 317.160156 L 351.226562 316.597656 L 350.664062 316.597656 L 348.976562 316.035156 L 347.285156 315.472656 L 346.160156 314.90625 L 345.035156 314.34375 L 344.46875 313.78125 L 343.34375 313.21875 L 342.21875 312.09375 L 341.65625 311.527344 L 341.097656 311.527344 L 340.542969 310.972656 "/>
<path style="fill:none;stroke-width:2.26;stroke-linecap:round;stroke-linejoin:round;stroke:rgb(0%,100%,0%);stroke-opacity:1;comp-op:src;clip-to-self:true;stroke-miterlimit:10;" d="M 321.890625 253.054688 L 321.890625 264.398438 L 321.328125 264.960938 L 321.328125 266.546875 L 320.773438 267.105469 L 320.21875 267.65625 L 320.21875 270.78125 L 319.65625 271.347656 L 320.160156 271.851562 L 324.378906 271.851562 L 324.941406 271.285156 L 328.726562 271.285156 L 329.214844 271.777344 L 329.703125 271.777344 L 330.230469 272.300781 L 330.78125 272.855469 L 330.78125 273.804688 L 331.34375 274.929688 L 331.910156 275.492188 L 331.910156 281.027344 L 331.59375 281.34375 L 320.292969 281.34375 L 319.78125 280.832031 L 319.78125 280.195312 L 319.257812 279.675781 L 319.257812 278.5625 "/>
<path style="fill:none;stroke-width:2.26;stroke-linecap:round;stroke-linejoin:round;stroke:rgb(0%,100%,0%);stroke-opacity:1;comp-op:src;clip-to-self:true;stroke-miterlimit:10;" d="M 380.804688 324 L 380.804688 321.886719 L 381.367188 320.761719 L 381.367188 319.632812 L 381.929688 317.945312 L 382.492188 317.382812 L 382.492188 315.128906 L 383.054688 314.003906 L 383.054688 313.441406 L 383.621094 312.3125 L 384.183594 311.1875 L 385.308594 310.625 L 385.871094 309.5 L 387 308.371094 L 387.5625 307.246094 L 388.6875 306.121094 L 389.25 305.554688 L 390.375 304.992188 L 390.941406 304.429688 L 392.066406 303.867188 L 393.773438 302.730469 L 396.234375 302.113281 L 397.382812 301.539062 L 399.074219 300.976562 L 402.449219 299.851562 L 404.140625 299.289062 L 405.828125 298.722656 L 406.957031 298.160156 L 409.769531 298.160156 L 411.460938 297.597656 L 412.585938 297.035156 L 413.714844 297.035156 L 415.402344 296.472656 L 447.5 296.472656 L 448.625 297.035156 L 449.183594 297.035156 L 451.417969 298.152344 L 451.984375 298.714844 L 452.539062 298.714844 L 453.652344 299.273438 L 455.902344 301.523438 L 456.464844 302.089844 L 457.03125 302.652344 "/>
<path style="fill:none;stroke-width:2.26;stroke-linecap:round;stroke-linejoin:round;stroke:rgb(0%,100%,0%);stroke-opacity:1;comp-op:src;clip-to-self:true;stroke-miterlimit:10;" d="M 464.96875 301.460938 L 464.488281 301.460938 L 463.488281 301.964844 L 462.925781 301.964844 L 461.800781 302.527344 L 461.234375 303.089844 L 459.546875 303.652344 L 458.433594 303.652344 L 457.308594 304.214844 L 456.746094 304.777344 L 456.183594 305.34375 L 455.625 305.34375 L 452.457031 308.511719 L 451.902344 309.0625 L 452.257812 309.417969 L 454.785156 309.417969 L 455.347656 309.980469 L 455.90625 309.980469 L 457.019531 310.535156 L 458.144531 311.660156 L 458.707031 311.660156 L 459.832031 312.226562 L 460.398438 312.789062 L 462.648438 313.914062 L 463.773438 315.039062 L 464.292969 315.039062 L 464.941406 314.714844 L 465.960938 313.695312 L 465.960938 313.132812 L 466.523438 312.007812 L 466.523438 311.445312 L 467.085938 310.316406 L 467.648438 309.753906 L 467.648438 309.199219 L 468.207031 308.644531 L 468.738281 308.113281 L 469.039062 308.113281 L 470.675781 306.476562 L 471.203125 306.476562 L 472.257812 305.949219 L 473.652344 304.554688 L 473.652344 303.996094 L 474.121094 303.527344 L 474.121094 303.117188 L 474.660156 302.582031 L 475.1875 302.050781 L 475.871094 301.710938 L 476.390625 301.1875 L 474.886719 301.1875 L 473.761719 301.753906 L 472.632812 302.316406 L 471.507812 302.878906 L 465.878906 302.878906 L 464.75 303.441406 L 464.242188 303.949219 "/>
<path style="fill:none;stroke-width:2.26;stroke-linecap:round;stroke-linejoin:round;stroke:rgb(0%,100%,0%);stroke-opacity:1;comp-op:src;clip-to-self:true;stroke-miterlimit:10;" d="M 431.855469 276.902344 L 425.4375 276.902344 L 424.875 277.46875 L 424.414062 278.386719 L 423.464844 279.335938 L 423.464844 279.777344 L 423.015625 280.675781 L 423.015625 283.597656 L 424.117188 284.699219 L 425.585938 284.699219 L 426.710938 285.261719 L 427.265625 285.816406 L 431.085938 285.816406 L 431.644531 286.371094 L 433.828125 286.371094 "/>
<path style="fill:none;stroke-width:2.26;stroke-linecap:round;stroke-linejoin:round;stroke:rgb(0%,100%,0%);stroke-opacity:1;comp-op:src;clip-to-self:true;stroke-miterlimit:10;" d="M 266.644531 374.527344 L 267.585938 374.714844 L 267.585938 376.042969 L 268.148438 377.167969 L 268.703125 377.722656 L 269.253906 378.828125 L 269.253906 381.566406 L 269.820312 382.691406 L 270.382812 383.257812 L 270.382812 388.296875 L 270.945312 389.984375 L 270.945312 402.71875 L 270.382812 403.84375 L 270.382812 404.378906 L 269.84375 405.453125 L 269.28125 406.015625 L 268.71875 407.140625 L 268.15625 408.269531 L 266.46875 409.957031 L 265.902344 411.082031 L 265.339844 411.648438 L 264.214844 412.210938 L 263.660156 412.761719 L 263.109375 413.316406 L 262.546875 413.878906 L 261.433594 413.878906 L 260.316406 414.996094 L 259.210938 415.546875 L 256.398438 415.546875 L 255.269531 416.109375 L 254.707031 416.671875 L 240.726562 416.671875 L 239.597656 416.109375 L 239.035156 415.546875 L 237.925781 415.546875 L 236.796875 414.984375 L 236.242188 414.984375 L 235.683594 414.429688 L 235.683594 413.90625 L 235.164062 413.386719 L 235.164062 412.273438 L 234.601562 411.148438 L 234.039062 410.582031 L 233.476562 409.457031 L 233.476562 405.53125 L 232.910156 404.402344 L 232.347656 403.839844 L 232.347656 400.515625 L 231.785156 399.390625 L 231.785156 391.585938 L 232.910156 389.335938 L 234.039062 388.207031 L 234.601562 387.082031 L 235.726562 385.957031 L 236.289062 385.390625 L 236.855469 384.828125 L 237.980469 383.703125 L 238.535156 383.703125 L 239.648438 383.148438 L 243.183594 383.148438 "/>
<path style="fill:none;stroke-width:2.26;stroke-linecap:round;stroke-linejoin:round;stroke:rgb(0%,100%,0%);stroke-opacity:1;comp-op:src;clip-to-self:true;stroke-miterlimit:10;" d="M 233.425781 376.027344 L 233.929688 377.042969 L 233.929688 378.527344 L 234.496094 379.652344 L 235.621094 380.777344 L 236.183594 381.90625 L 237.308594 382.46875 L 237.871094 383.03125 L 238.4375 384.15625 L 239 384.722656 L 239.5625 385.847656 L 241.25 387.535156 L 241.816406 388.097656 L 242.816406 388.097656 L 243.941406 388.664062 L 243.941406 388.28125 L 244.445312 387.277344 L 245.007812 386.152344 L 245.007812 385.023438 L 245.570312 383.898438 L 245.570312 383.363281 L 246.105469 382.289062 L 246.667969 381.726562 L 247.230469 380.601562 L 247.230469 380.039062 L 247.796875 378.910156 L 248.921875 377.785156 L 248.5 377.363281 L 248.136719 377.363281 L 246.46875 376.808594 L 245.90625 376.808594 L 243.605469 376.234375 L 242.457031 375.660156 L 240.765625 375.660156 L 239.078125 375.09375 L 236.292969 375.09375 L 235.726562 374.53125 "/>
<path style="fill:none;stroke-width:2.26;stroke-linecap:round;stroke-linejoin:round;stroke:rgb(0%,100%,0%);stroke-opacity:1;comp-op:src;clip-to-self:true;stroke-miterlimit:10;" d="M 270.195312 432.230469 L 269.695312 432.730469 L 263.890625 432.730469 L 262.785156 431.625 L 262.265625 431.625 L 261.644531 431.285156 L 261.230469 431.285156 L 260.265625 430.800781 L 259.828125 430.367188 L 259.425781 429.960938 L 258.578125 429.113281 L 258.105469 429.113281 L 257.742188 428.75 L 256.839844 428.75 L 255.789062 427.699219 L 254.664062 427.136719 L 246.878906 427.136719 L 245.824219 427.664062 L 245.371094 428.570312 L 244.246094 429.695312 L 244.246094 430.25 L 243.183594 431.3125 L 243.183594 433.164062 L 243.703125 433.683594 L 244.828125 434.246094 L 245.390625 434.808594 L 245.910156 434.808594 L 246.425781 435.328125 L 248.328125 435.328125 L 249.453125 435.890625 L 250.015625 436.453125 L 255.082031 436.453125 L 255.554688 435.984375 L 256.078125 435.457031 L 256.550781 435.457031 L 256.875 435.136719 L 257.300781 435.136719 L 257.671875 434.761719 L 257.671875 432.371094 L 258.15625 431.890625 L 260.082031 431.890625 L 260.527344 432.332031 L 261.554688 433.359375 L 262.347656 433.359375 L 262.910156 433.921875 L 263.476562 434.484375 L 270.230469 434.484375 L 271.332031 433.9375 "/>
<path style="fill:none;stroke-width:2.26;stroke-linecap:round;stroke-linejoin:round;stroke:rgb(0%,100%,0%);stroke-opacity:1;comp-op:src;clip-to-self:true;stroke-miterlimit:10;" d="M 383.253906 374.433594 L 383.722656 374.667969 L 384.722656 375.667969 L 385.847656 376.230469 L 386.410156 377.359375 L 387.535156 378.484375 L 388.101562 379.046875 L 388.664062 379.609375 L 389.226562 380.734375 L 389.789062 381.300781 L 390.914062 383.550781 L 391.480469 384.113281 L 391.480469 385.242188 L 392.042969 386.929688 L 392.042969 415.636719 L 390.957031 417.808594 L 389.90625 418.332031 L 388.78125 419.457031 L 388.21875 420.023438 L 387.683594 420.023438 L 386.609375 420.558594 L 385.484375 421.683594 L 384.925781 421.683594 L 383.816406 422.242188 L 382.6875 422.804688 L 380.4375 422.804688 L 379.308594 423.367188 L 365.824219 423.367188 L 364.136719 422.804688 L 363.007812 422.804688 L 361.320312 422.242188 L 359.628906 421.675781 L 358.503906 420.550781 L 356.816406 419.988281 L 355.6875 419.425781 L 354.5625 418.863281 L 353.4375 418.296875 L 352.308594 417.734375 L 351.753906 417.734375 L 351.328125 417.308594 L 350.800781 416.785156 L 350.238281 416.21875 L 348.550781 414.53125 L 347.984375 413.96875 L 347.984375 412.335938 L 347.421875 411.207031 L 346.871094 410.65625 L 346.871094 409.550781 L 346.308594 408.425781 L 346.308594 396.621094 L 346.695312 396.230469 L 347.078125 395.851562 L 347.628906 395.300781 L 349.171875 395.300781 L 349.726562 394.742188 L 350.839844 394.742188 L 351.402344 394.179688 L 351.96875 393.617188 L 352.417969 393.617188 L 352.933594 393.101562 L 353.488281 393.101562 "/>
<path style="fill:none;stroke-width:2.26;stroke-linecap:round;stroke-linejoin:round;stroke:rgb(0%,100%,0%);stroke-opacity:1;comp-op:src;clip-to-self:true;stroke-miterlimit:10;" d="M 342.480469 391.320312 L 343.332031 391.320312 L 344.460938 391.882812 L 345.023438 392.445312 L 345.578125 392.445312 L 346.132812 393 L 347.261719 393.566406 L 347.824219 394.128906 L 348.949219 394.691406 L 349.503906 395.242188 L 350.054688 395.796875 L 350.617188 396.359375 L 351.746094 396.921875 L 352.308594 397.484375 L 352.871094 398.050781 L 354.539062 399.71875 L 355.058594 399.71875 L 356.128906 400.253906 L 357.234375 401.359375 L 357.65625 400.941406 L 358.15625 400.4375 L 358.722656 399.875 L 358.722656 399.3125 L 359.285156 397.621094 L 359.285156 397.058594 L 359.847656 395.371094 L 360.410156 394.242188 L 360.972656 393.117188 L 360.972656 389.738281 L 361.535156 388.613281 L 362.101562 388.046875 L 362.101562 386.378906 L 362.65625 385.269531 L 362.65625 383.304688 L 362.375 383.023438 L 359.867188 383.023438 L 358.179688 383.585938 L 355.925781 383.585938 L 354.238281 384.152344 L 353.109375 384.714844 L 345.8125 384.714844 L 344.699219 385.269531 L 342.609375 385.269531 L 341.535156 385.804688 L 340.972656 386.371094 L 340.453125 386.371094 "/>
<path style="fill:none;stroke-width:2.26;stroke-linecap:round;stroke-linejoin:round;stroke:rgb(0%,100%,0%);stroke-opacity:1;comp-op:src;clip-to-self:true;stroke-miterlimit:10;" d="M 371.433594 431.433594 L 371.433594 451.53125 L 371.914062 452.011719 L 374.457031 449.46875 L 374.832031 449.46875 L 375.640625 449.066406 L 381.246094 449.066406 L 381.765625 449.582031 L 382.3125 450.683594 L 382.3125 451.058594 L 382.828125 452.089844 L 382.828125 454.105469 L 383.382812 455.21875 L 383.949219 455.78125 L 383.949219 458.492188 L 382.632812 459.808594 L 381.691406 459.808594 L 380.640625 460.335938 L 379.5625 460.335938 L 378.449219 460.890625 L 377.886719 461.453125 L 374.375 461.453125 L 373.304688 460.917969 L 373.304688 460.550781 L 372.851562 459.644531 L 372.289062 459.078125 L 371.761719 458.027344 L 371.761719 453.226562 "/>
<path style="fill:none;stroke-width:2.26;stroke-linecap:round;stroke-linejoin:round;stroke:rgb(0%,100%,0%);stroke-opacity:1;comp-op:src;clip-to-self:true;stroke-miterlimit:10;" d="M 536.273438 372.324219 L 537.46875 372.824219 L 538.03125 373.949219 L 538.597656 374.511719 L 539.722656 375.078125 L 541.410156 376.765625 L 541.976562 377.328125 L 542.539062 377.890625 L 543.101562 379.019531 L 543.664062 379.582031 L 544.789062 381.832031 L 545.351562 382.398438 L 545.351562 382.960938 L 545.917969 384.085938 L 545.917969 384.640625 L 546.472656 385.753906 L 547.035156 386.316406 L 547.035156 386.855469 L 547.570312 388.464844 L 547.570312 389.019531 L 548.128906 390.132812 L 548.691406 390.695312 L 548.691406 391.820312 L 549.253906 392.949219 L 549.253906 394.058594 L 549.816406 395.1875 L 550.378906 395.75 L 550.945312 396.875 L 550.945312 399.691406 L 552.070312 401.941406 L 552.070312 405.308594 L 552.632812 406.433594 L 552.632812 410.910156 L 553.757812 412.035156 L 553.757812 424.917969 L 553.195312 426.042969 L 552.632812 426.605469 L 552.632812 427.679688 L 552.070312 428.242188 L 552.070312 429.355469 L 551.507812 430.480469 L 550.390625 431.597656 L 550.390625 432.972656 L 549.855469 434.046875 L 549.328125 434.046875 L 548.800781 434.574219 L 548.265625 434.574219 L 547.191406 435.109375 L 546.066406 435.671875 L 544.9375 436.234375 L 516.824219 436.234375 L 514.574219 435.109375 L 512.34375 432.878906 L 511.777344 432.316406 L 511.214844 431.1875 L 510.113281 430.085938 L 510.113281 428.09375 L 508.988281 426.96875 L 508.988281 415.613281 L 509.550781 415.046875 L 510.070312 414.53125 L 510.070312 413.199219 L 510.625 412.085938 L 510.625 409.488281 L 511.1875 408.363281 L 511.742188 407.808594 L 511.742188 405.035156 L 511.257812 404.554688 L 510.441406 404.554688 L 509.367188 405.089844 L 508.804688 405.652344 L 504.882812 405.652344 L 503.195312 406.21875 L 496.4375 406.21875 L 495.949219 405.726562 L 496.449219 405.222656 L 497.015625 404.660156 L 497.578125 403.535156 L 497.578125 402.972656 L 498.140625 401.28125 L 499.265625 399.03125 L 499.828125 397.902344 L 500.390625 397.339844 L 500.957031 396.777344 L 501.519531 395.652344 L 502.367188 395.652344 L 503.378906 395.144531 L 503.941406 394.582031 L 505.054688 394.582031 L 505.617188 394.019531 L 508.851562 394.019531 L 509.976562 394.582031 L 511.105469 395.144531 L 511.667969 395.710938 L 512.230469 396.273438 L 513.355469 396.835938 L 513.917969 397.960938 L 515.585938 399.628906 L 516.714844 400.191406 L 517.277344 400.757812 L 517.839844 401.320312 L 518.964844 401.882812 L 519.53125 402.445312 L 520.65625 403.570312 L 520.65625 404.128906 L 521.210938 404.683594 L 512.4375 404.683594 L 511.324219 404.128906 "/>
<path style="fill:none;stroke-width:2.26;stroke-linecap:round;stroke-linejoin:round;stroke:rgb(0%,100%,0%);stroke-opacity:1;comp-op:src;clip-to-self:true;stroke-miterlimit:10;" d="M 543.261719 449.074219 L 540.707031 449.074219 L 540.046875 449.40625 L 539.253906 450.199219 L 538.15625 450.746094 L 537.703125 451.199219 L 537.277344 452.046875 L 536.878906 452.445312 L 536.878906 455.066406 L 537.421875 456.148438 L 538.5 456.6875 L 539.050781 457.789062 L 539.929688 458.226562 L 540.441406 458.738281 L 541.003906 459.304688 L 546.882812 459.304688 "/>
</g>
</svg>
