<?xml version="1.0" encoding="UTF-8"?>
<svg xmlns="http://www.w3.org/2000/svg" xmlns:xlink="http://www.w3.org/1999/xlink" width="595pt" height="841pt" viewBox="0 0 595 841" version="1.2">
<g id="surface253793">
<rect x="0" y="0" width="595" height="841" style="fill:rgb(0%,0%,0%);fill-opacity:1;stroke:none;"/>
<path style="fill:none;stroke-width:0.5;stroke-linecap:butt;stroke-linejoin:miter;stroke:rgb(0%,0%,0%);stroke-opacity:1;stroke-miterlimit:10;" d="M 50 80 L 545 80 M 50 85 L 545 85 M 50 90 L 545 90 M 50 95 L 545 95 M 50 100 L 545 100 M 50 79.75 L 50 100.25 M 545 79.75 L 545 100.25 "/>
<path style="fill:none;stroke-width:0.5;stroke-linecap:butt;stroke-linejoin:miter;stroke:rgb(0%,0%,0%);stroke-opacity:1;stroke-miterlimit:10;" d="M 50 142.5 L 545 142.5 M 50 147.5 L 545 147.5 M 50 152.5 L 545 152.5 M 50 157.5 L 545 157.5 M 50 162.5 L 545 162.5 M 50 142.25 L 50 162.75 M 545 142.25 L 545 162.75 "/>
<path style="fill:none;stroke-width:0.5;stroke-linecap:butt;stroke-linejoin:miter;stroke:rgb(0%,0%,0%);stroke-opacity:1;stroke-miterlimit:10;" d="M 50 205 L 545 205 M 50 210 L 545 210 M 50 215 L 545 215 M 50 220 L 545 220 M 50 225 L 545 225 M 50 204.75 L 50 225.25 M 545 204.75 L 545 225.25 "/>
<path style="fill:none;stroke-width:0.5;stroke-linecap:butt;stroke-linejoin:miter;stroke:rgb(0%,0%,0%);stroke-opacity:1;stroke-miterlimit:10;" d="M 50 267.5 L 545 267.5 M 50 272.5 L 545 272.5 M 50 277.5 L 545 277.5 M 50 282.5 L 545 282.5 M 50 287.5 L 545 287.5 M 50 267.25 L 50 287.75 M 545 267.25 L 545 287.75 "/>
<path style="fill:none;stroke-width:0.5;stroke-linecap:butt;stroke-linejoin:miter;stroke:rgb(0%,0%,0%);stroke-opacity:1;stroke-miterlimit:10;" d="M 50 330 L 545 330 M 50 335 L 545 335 M 50 340 L 545 340 M 50 345 L 545 345 M 50 350 L 545 350 M 50 329.75 L 50 350.25 M 545 329.75 L 545 350.25 "/>
<path style="fill:none;stroke-width:0.5;stroke-linecap:butt;stroke-linejoin:miter;stroke:rgb(0%,0%,0%);stroke-opacity:1;stroke-miterlimit:10;" d="M 50 392.5 L 545 392.5 M 50 397.5 L 545 397.5 M 50 402.5 L 545 402.5 M 50 407.5 L 545 407.5 M 50 412.5 L 545 412.5 M 50 392.25 L 50 412.75 M 545 392.25 L 545 412.75 "/>
<path style="fill:none;stroke-width:0.5;stroke-linecap:butt;stroke-linejoin:miter;stroke:rgb(0%,0%,0%);stroke-opacity:1;stroke-miterlimit:10;" d="M 50 455 L 545 455 M 50 460 L 545 460 M 50 465 L 545 465 M 50 470 L 545 470 M 50 475 L 545 475 M 50 454.75 L 50 475.25 M 545 454.75 L 545 475.25 "/>
<path style="fill:none;stroke-width:0.5;stroke-linecap:butt;stroke-linejoin:miter;stroke:rgb(0%,0%,0%);stroke-opacity:1;stroke-miterlimit:10;" d="M 50 517.5 L 545 517.5 M 50 522.5 L 545 522.5 M 50 527.5 L 545 527.5 M 50 532.5 L 545 532.5 M 50 537.5 L 545 537.5 M 50 517.25 L 50 537.75 M 545 517.25 L 545 537.75 "/>
<path style="fill:none;stroke-width:0.5;stroke-linecap:butt;stroke-linejoin:miter;stroke:rgb(0%,0%,0%);stroke-opacity:1;stroke-miterlimit:10;" d="M 50 580 L 545 580 M 50 585 L 545 585 M 50 590 L 545 590 M 50 595 L 545 595 M 50 600 L 545 600 M 50 579.75 L 50 600.25 M 545 579.75 L 545 600.25 "/>
<path style="fill:none;stroke-width:0.5;stroke-linecap:butt;stroke-linejoin:miter;stroke:rgb(0%,0%,0%);stroke-opacity:1;stroke-miterlimit:10;" d="M 50 642.5 L 545 642.5 M 50 647.5 L 545 647.5 M 50 652.5 L 545 652.5 M 50 657.5 L 545 657.5 M 50 662.5 L 545 662.5 M 50 642.25 L 50 662.75 M 545 642.25 L 545 662.75 "/>
<path style="fill:none;stroke-width:0.5;stroke-linecap:butt;stroke-linejoin:miter;stroke:rgb(0%,0%,0%);stroke-opacity:1;stroke-miterlimit:10;" d="M 50 705 L 545 705 M 50 710 L 545 710 M 50 715 L 545 715 M 50 720 L 545 720 M 50 725 L 545 725 M 50 704.75 L 50 725.25 M 545 704.75 L 545 725.25 "/>
<path style="fill:none;stroke-width:0.5;stroke-linecap:butt;stroke-linejoin:miter;stroke:rgb(0%,0%,0%);stroke-opacity:1;stroke-miterlimit:10;" d="M 50 767.5 L 545 767.5 M 50 772.5 L 545 772.5 M 50 777.5 L 545 777.5 M 50 782.5 L 545 782.5 M 50 787.5 L 545 787.5 M 50 767.25 L 50 787.75 M 545 767.25 L 545 787.75 "/>
<path style="fill:none;stroke-width:2.26;stroke-linecap:round;stroke-linejoin:round;stroke:rgb(0%,100%,0%);stroke-opacity:1;comp-op:src;clip-to-self:true;stroke-miterlimit:10;" d="M 103.605469 54.960938 L 103.605469 54.207031 L 103.957031 53.234375 L 103.957031 52.523438 L 104.3125 51.457031 L 104.3125 49.324219 L 104.667969 48.257812 L 105.023438 47.902344 L 105.023438 46.480469 L 105.378906 45.769531 L 105.378906 41.675781 L 105.734375 40.960938 L 106.089844 40.25 L 106.089844 39.183594 L 105.785156 38.878906 L 103.390625 38.878906 L 102.324219 39.234375 L 101.613281 39.589844 L 101.257812 39.589844 L 100.191406 39.945312 L 99.835938 39.945312 L 98.769531 40.300781 L 97.347656 41.011719 L 94.882812 41.011719 "/>
<path style="fill:none;stroke-width:2.26;stroke-linecap:round;stroke-linejoin:round;stroke:rgb(0%,100%,0%);stroke-opacity:1;comp-op:src;clip-to-self:true;stroke-miterlimit:10;" d="M 114.574219 64.265625 L 108.53125 64.265625 L 107.109375 63.554688 L 106.753906 63.554688 L 105.6875 63.199219 L 104.621094 63.199219 L 103.121094 62.824219 L 101.988281 62.445312 L 100.921875 62.089844 L 100.210938 62.089844 L 98.757812 61.726562 L 98.03125 61.363281 L 96.609375 61.363281 L 95.113281 60.992188 L 94.75 60.992188 L 93.683594 60.636719 L 90.839844 59.214844 L 89.773438 58.859375 L 88.351562 58.148438 L 87.996094 57.792969 L 87.285156 57.4375 L 86.929688 57.082031 L 86.574219 56.371094 L 85.863281 55.660156 L 85.507812 54.945312 L 85.152344 54.234375 L 84.433594 53.160156 L 84.070312 52.066406 L 83.714844 51 L 82.984375 49.90625 L 82.625 49.1875 L 82.625 39.945312 L 82.980469 39.234375 L 84.046875 38.167969 L 84.402344 37.457031 L 85.824219 36.035156 L 86.535156 35.679688 L 87.601562 34.613281 L 88.3125 34.257812 L 89.378906 33.902344 L 89.734375 33.546875 L 90.089844 33.546875 L 91.15625 33.191406 L 92.222656 33.191406 L 93.289062 32.835938 L 94 32.480469 L 106.085938 32.480469 L 107.507812 33.191406 L 108.574219 33.546875 L 110.707031 34.613281 L 111.773438 34.96875 L 112.484375 35.324219 L 112.839844 35.679688 L 113.550781 35.679688 L 114.972656 36.390625 L 115.328125 37.101562 L 116.039062 37.457031 L 116.394531 37.8125 L 117.105469 38.167969 L 117.460938 38.523438 L 117.816406 39.234375 L 118.171875 39.589844 L 118.53125 40.300781 L 119.597656 42.433594 L 119.597656 42.789062 L 119.953125 43.855469 L 119.953125 44.210938 L 121.019531 47.410156 L 121.019531 54.875 L 120.664062 55.585938 L 120.664062 55.941406 L 119.597656 58.074219 L 119.597656 59.140625 L 119.242188 59.851562 L 118.53125 60.5625 L 118.171875 61.273438 L 116.394531 63.050781 L 116.0625 63.050781 L 115.730469 63.382812 L 115.03125 63.382812 L 114.671875 63.738281 L 114.316406 64.09375 L 113.605469 64.449219 "/>
<path style="fill:none;stroke-width:2.26;stroke-linecap:round;stroke-linejoin:round;stroke:rgb(0%,100%,0%);stroke-opacity:1;comp-op:src;clip-to-self:true;stroke-miterlimit:10;" d="M 124.558594 51.175781 L 125.488281 51.488281 L 128.324219 51.488281 L 129.746094 52.199219 L 133.300781 52.199219 L 134.011719 52.554688 L 135.78125 52.554688 L 136.492188 52.910156 L 136.847656 53.265625 L 138.234375 53.265625 L 139.300781 53.621094 L 167.964844 53.621094 "/>
<path style="fill:none;stroke-width:2.26;stroke-linecap:round;stroke-linejoin:round;stroke:rgb(0%,100%,0%);stroke-opacity:1;comp-op:src;clip-to-self:true;stroke-miterlimit:10;" d="M 168.363281 49.246094 L 168.363281 66.222656 L 168.992188 65.90625 L 169.632812 65.585938 L 169.988281 65.230469 L 170.699219 64.875 L 171.054688 64.164062 L 171.765625 63.808594 L 172.121094 63.453125 L 173.542969 62.742188 L 173.898438 62.386719 L 174.609375 62.386719 L 175.320312 62.03125 L 175.675781 61.675781 L 179.941406 60.253906 L 181.363281 59.542969 L 181.714844 59.542969 L 182.0625 59.191406 L 181.425781 58.875 L 181.105469 58.554688 L 180.394531 58.199219 L 180.039062 57.84375 L 179.328125 57.488281 L 178.261719 56.421875 L 177.90625 55.710938 L 177.550781 55.355469 L 177.195312 54.644531 L 176.484375 53.933594 L 176.128906 53.222656 L 175.773438 52.867188 L 175.148438 52.867188 L 174.4375 52.511719 L 174.097656 52.171875 L 173.601562 51.925781 "/>
<path style="fill:none;stroke-width:2.26;stroke-linecap:round;stroke-linejoin:round;stroke:rgb(0%,100%,0%);stroke-opacity:1;comp-op:src;clip-to-self:true;stroke-miterlimit:10;" d="M 142.230469 40.949219 L 141.917969 40.640625 L 142.238281 40.324219 L 142.59375 39.613281 L 143.308594 38.535156 L 143.667969 37.816406 L 144.378906 37.105469 L 145.089844 35.683594 L 145.089844 35.328125 L 145.445312 34.261719 L 146.15625 32.839844 L 146.15625 32.484375 L 146.511719 31.417969 L 146.867188 30.707031 L 147.191406 30.382812 L 147.632812 30.605469 L 147.976562 30.945312 L 147.976562 32.011719 L 148.332031 33.078125 L 148.6875 33.789062 L 148.6875 35.210938 L 149.050781 36.664062 L 149.050781 37.386719 L 149.414062 38.839844 L 149.8125 40.441406 L 150.214844 42.042969 L 150.214844 43.828125 L 150.570312 44.539062 "/>
<path style="fill:none;stroke-width:2.26;stroke-linecap:round;stroke-linejoin:round;stroke:rgb(0%,100%,0%);stroke-opacity:1;comp-op:src;clip-to-self:true;stroke-miterlimit:10;" d="M 144.785156 38.101562 L 151.996094 38.101562 "/>
<path style="fill:none;stroke-width:2.26;stroke-linecap:round;stroke-linejoin:round;stroke:rgb(0%,100%,0%);stroke-opacity:1;comp-op:src;clip-to-self:true;stroke-miterlimit:10;" d="M 201.699219 68.675781 L 201.390625 68.367188 L 200.460938 68.015625 L 200.105469 67.660156 L 193.914062 67.660156 L 193.558594 67.304688 L 191.589844 67.304688 L 190.878906 66.949219 L 190.523438 66.59375 L 190.035156 66.59375 L 190.144531 66.171875 L 190.855469 65.460938 L 191.566406 65.105469 L 191.921875 64.75 L 192.632812 64.394531 L 193.699219 64.039062 L 194.410156 63.328125 L 195.121094 62.972656 L 195.832031 62.261719 L 196.542969 61.90625 L 198.675781 59.773438 L 199.03125 59.0625 L 199.386719 58.707031 L 199.742188 57.996094 L 200.453125 57.285156 L 200.453125 56.574219 L 201.164062 55.152344 L 201.164062 54.453125 L 201.519531 53.386719 L 201.519531 46.984375 L 201.164062 46.273438 L 200.832031 46.273438 L 200.21875 45.660156 L 193.160156 45.660156 L 192.449219 46.015625 L 192.09375 46.371094 L 191.761719 46.371094 "/>
<path style="fill:none;stroke-width:2.26;stroke-linecap:round;stroke-linejoin:round;stroke:rgb(0%,100%,0%);stroke-opacity:1;comp-op:src;clip-to-self:true;stroke-miterlimit:10;" d="M 199.480469 73.816406 L 194.226562 73.816406 L 193.515625 73.457031 L 193.160156 73.101562 L 192.457031 73.101562 L 191.746094 72.746094 L 189.96875 72.746094 L 189.257812 72.390625 L 188.902344 72.035156 L 188.550781 72.035156 L 188.199219 71.6875 L 187.847656 71.6875 L 187.148438 71.335938 L 186.792969 70.625 L 185.726562 69.558594 L 185.015625 69.203125 L 185.015625 68.523438 L 184.664062 67.820312 L 183.953125 67.109375 L 183.953125 66.398438 L 183.597656 65.332031 L 183.242188 64.621094 L 183.242188 61.792969 L 182.886719 60.726562 L 182.886719 41.53125 L 183.242188 40.820312 L 183.242188 40.46875 L 183.59375 39.417969 L 183.949219 39.0625 L 184.304688 38.351562 L 184.660156 37.996094 L 185.015625 37.285156 L 185.726562 36.574219 L 186.082031 35.863281 L 187.503906 34.441406 L 188.214844 34.085938 L 188.925781 33.726562 L 189.28125 33.371094 L 189.636719 33.371094 L 190.703125 33.015625 L 193.546875 31.59375 L 198.523438 31.59375 L 199.589844 31.949219 L 203.144531 33.726562 L 203.5 33.726562 L 204.210938 34.085938 L 204.921875 34.441406 L 205.632812 35.152344 L 206.34375 35.507812 L 208.476562 37.640625 L 210.964844 42.617188 L 211.320312 42.972656 L 211.675781 43.683594 L 212.03125 44.75 L 212.03125 47.949219 L 212.742188 50.082031 L 212.742188 61.453125 L 212.035156 62.867188 L 211.679688 63.222656 L 211.679688 63.578125 L 211.324219 64.289062 L 210.96875 64.644531 L 210.96875 65 L 210.613281 65.710938 L 210.613281 66.410156 L 209.902344 67.121094 L 209.902344 68.179688 L 209.546875 68.535156 L 209.199219 69.230469 L 208.855469 69.578125 L 208.496094 69.933594 L 208.496094 70.269531 L 208.160156 70.949219 L 206.382812 72.726562 L 206.027344 73.4375 L 205.671875 73.792969 L 205.320312 73.792969 L 204.617188 74.144531 L 203.558594 74.144531 L 202.847656 74.5 L 202.492188 74.855469 L 196.527344 74.855469 "/>
<path style="fill:none;stroke-width:2.26;stroke-linecap:round;stroke-linejoin:round;stroke:rgb(0%,100%,0%);stroke-opacity:1;comp-op:src;clip-to-self:true;stroke-miterlimit:10;" d="M 215.828125 55.105469 L 250.460938 55.105469 L 250.761719 55.40625 L 250.761719 65.507812 L 251.070312 65.816406 L 251.386719 65.496094 L 252.808594 64.785156 L 253.886719 64.070312 L 254.984375 63.703125 L 257.117188 62.992188 L 257.828125 62.636719 L 259.960938 62.636719 L 260.265625 62.332031 L 260.265625 60.039062 L 259.910156 58.972656 L 259.910156 57.550781 L 259.554688 56.484375 L 259.199219 55.773438 L 259.199219 55.0625 L 258.84375 54.351562 L 258.84375 54 L 258.492188 53.300781 L 258.136719 52.945312 L 258.136719 52.589844 L 257.425781 50.457031 L 257.070312 50.101562 L 257.070312 49.746094 L 256.359375 48.324219 L 255.308594 47.273438 L 254.96875 46.929688 L 254.640625 46.601562 L 254.46875 46.242188 L 254.066406 46.242188 L 253.390625 45.90625 L 252.742188 45.90625 L 252.425781 46.21875 L 252.425781 48.183594 L 252.070312 48.894531 L 252.070312 55.285156 "/>
<path style="fill:none;stroke-width:2.26;stroke-linecap:round;stroke-linejoin:round;stroke:rgb(0%,100%,0%);stroke-opacity:1;comp-op:src;clip-to-self:true;stroke-miterlimit:10;" d="M 229.625 41.308594 L 229.625 39.984375 L 229.269531 38.917969 L 228.914062 38.5625 L 228.914062 37.851562 L 228.558594 36.785156 L 228.558594 30.027344 L 228.867188 29.722656 L 229.398438 29.722656 L 229.753906 30.078125 L 230.433594 30.078125 L 231.132812 30.425781 L 231.488281 30.78125 L 232.199219 31.136719 L 232.503906 31.136719 L 232.832031 31.46875 L 233.1875 31.824219 L 233.519531 31.824219 L 233.710938 32.179688 L 233.710938 36.371094 L 233.390625 36.691406 L 226.972656 36.691406 L 228.300781 36.691406 L 229.011719 37.046875 L 230.066406 37.046875 L 230.777344 37.402344 L 231.132812 37.757812 L 232.519531 37.757812 L 232.875 38.113281 L 233.929688 38.113281 L 234.632812 38.460938 L 234.988281 38.816406 L 235.335938 38.816406 L 236.019531 39.160156 L 236.664062 39.160156 L 237.375 39.515625 L 237.730469 39.871094 L 238.441406 40.226562 L 238.722656 40.507812 L 238.722656 43.148438 L 238.367188 43.859375 L 238.011719 44.214844 L 238.011719 44.523438 L 237.679688 44.855469 L 237.335938 45.539062 L 236.996094 45.878906 L 228.558594 45.878906 L 228.242188 45.5625 L 228.242188 43.636719 L 227.886719 42.925781 L 227.53125 42.570312 L 227.53125 42.21875 "/>
<path style="fill:none;stroke-width:2.26;stroke-linecap:round;stroke-linejoin:round;stroke:rgb(0%,100%,0%);stroke-opacity:1;comp-op:src;clip-to-self:true;stroke-miterlimit:10;" d="M 283.199219 72.441406 L 281.1875 72.441406 L 280.476562 72.085938 L 280.121094 71.730469 L 279.410156 71.375 L 278.707031 71.375 L 277.996094 71.019531 L 273.40625 66.429688 L 273.050781 65.71875 L 272.339844 65.363281 L 270.917969 62.519531 L 270.5625 62.164062 "/>
<path style="fill:none;stroke-width:2.26;stroke-linecap:round;stroke-linejoin:round;stroke:rgb(0%,100%,0%);stroke-opacity:1;comp-op:src;clip-to-self:true;stroke-miterlimit:10;" d="M 279.699219 61.996094 L 281.679688 61.996094 L 282.746094 61.640625 L 284.167969 61.640625 L 285.234375 61.285156 L 285.589844 60.929688 L 286.644531 60.929688 L 287.355469 60.574219 L 288.039062 60.234375 L 288.039062 56.484375 L 287.328125 55.0625 L 286.972656 54.707031 L 285.195312 54.707031 L 284.128906 54.351562 L 282.722656 54.351562 L 282.011719 53.996094 L 281.65625 53.640625 L 278.488281 53.640625 L 279.011719 53.117188 L 279.722656 52.761719 L 280.789062 52.40625 L 282.210938 51.695312 L 282.921875 50.984375 L 283.988281 50.628906 L 284.699219 49.917969 L 285.777344 49.199219 L 288.410156 46.566406 L 289.121094 45.144531 L 289.121094 43.019531 L 288.765625 42.308594 L 288.054688 41.242188 L 286.988281 40.175781 L 286.277344 39.820312 L 285.921875 39.109375 L 285.210938 38.753906 L 284.855469 38.398438 L 282.011719 38.398438 "/>
<path style="fill:none;stroke-width:2.26;stroke-linecap:round;stroke-linejoin:round;stroke:rgb(0%,100%,0%);stroke-opacity:1;comp-op:src;clip-to-self:true;stroke-miterlimit:10;" d="M 272.636719 63.402344 L 272.003906 62.769531 L 272.003906 62.417969 L 270.941406 61.355469 L 270.941406 58.867188 L 270.585938 58.15625 L 270.230469 57.800781 L 270.230469 56.394531 L 269.875 55.683594 L 269.875 54.628906 L 269.164062 52.496094 L 268.453125 51.074219 L 268.097656 50.71875 L 268.097656 50.363281 L 267.742188 49.652344 L 267.742188 48.238281 L 267.03125 46.816406 L 267.03125 39.707031 L 267.742188 38.285156 L 268.097656 37.929688 L 268.097656 37.574219 L 268.808594 36.152344 L 269.164062 35.796875 L 269.519531 35.085938 L 270.230469 34.375 L 270.585938 33.664062 L 273.074219 31.175781 L 273.425781 31.175781 L 275.550781 30.113281 L 276.601562 30.113281 L 278.023438 29.402344 L 286.914062 29.402344 L 288.363281 29.765625 L 294.066406 32.617188 L 294.421875 32.972656 L 295.132812 33.328125 L 295.488281 34.039062 L 296.199219 34.394531 L 296.554688 35.105469 L 297.265625 35.816406 L 297.621094 36.527344 L 299.042969 37.949219 L 299.761719 39.027344 L 300.480469 39.746094 L 300.835938 40.457031 L 301.546875 41.167969 L 301.902344 41.878906 L 302.613281 42.589844 L 302.96875 43.300781 L 303.324219 44.367188 L 304.035156 45.789062 L 304.390625 46.855469 L 305.457031 48.988281 L 305.457031 49.34375 L 305.8125 50.410156 L 306.167969 51.121094 L 306.523438 52.1875 L 306.523438 52.542969 L 306.886719 53.996094 L 307.25 54.722656 L 307.25 60.054688 L 306.894531 61.121094 L 305.828125 62.1875 L 305.472656 62.898438 L 304.761719 63.253906 L 304.40625 63.964844 L 301.5625 65.386719 L 301.207031 65.742188 L 300.851562 65.742188 L 299.785156 66.097656 L 298.363281 66.808594 L 298.007812 67.164062 L 296.585938 67.875 L 296.230469 67.875 L 295.164062 68.230469 L 294.453125 68.585938 L 294.097656 68.941406 L 293.386719 68.941406 L 292.675781 69.296875 L 292.320312 69.652344 L 291.964844 69.652344 L 289.832031 70.71875 L 289.121094 70.71875 L 288.410156 71.074219 L 288.058594 71.074219 L 286.644531 71.78125 L 285.578125 72.136719 L 283.800781 72.136719 L 282.378906 72.847656 L 281.085938 72.847656 "/>
<path style="fill:none;stroke-width:2.26;stroke-linecap:round;stroke-linejoin:round;stroke:rgb(0%,100%,0%);stroke-opacity:1;comp-op:src;clip-to-self:true;stroke-miterlimit:10;" d="M 34.222656 107.863281 L 34.222656 105.625 L 34.578125 104.914062 L 34.578125 103.148438 L 34.929688 102.449219 L 35.285156 102.09375 L 35.285156 100.683594 L 34.976562 100.378906 L 25.476562 100.378906 L 25.160156 100.0625 L 25.160156 98.523438 L 25.515625 97.457031 L 25.871094 96.746094 L 25.871094 94.96875 L 26.582031 92.835938 L 26.9375 92.125 L 26.9375 91.066406 L 27.292969 90 L 27.292969 88.941406 "/>
<path style="fill:none;stroke-width:2.26;stroke-linecap:round;stroke-linejoin:round;stroke:rgb(0%,100%,0%);stroke-opacity:1;comp-op:src;clip-to-self:true;stroke-miterlimit:10;" d="M 33.523438 97.675781 L 33.75 97.902344 L 34.421875 97.230469 L 34.421875 94.742188 L 34.777344 94.03125 L 35.414062 93.394531 "/>
<path style="fill:none;stroke-width:2.26;stroke-linecap:round;stroke-linejoin:round;stroke:rgb(0%,100%,0%);stroke-opacity:1;comp-op:src;clip-to-self:true;stroke-miterlimit:10;" d="M 35.589844 111.988281 L 35.34375 112.238281 L 28.039062 112.238281 L 27.328125 111.882812 L 25.90625 111.882812 L 25.191406 111.527344 L 24.835938 111.171875 L 23.429688 111.171875 L 22.71875 110.816406 L 22.015625 110.816406 L 21.304688 110.460938 L 20.949219 110.105469 L 19.527344 109.394531 L 19.171875 108.683594 L 18.816406 108.328125 L 18.105469 107.972656 L 17.75 107.261719 L 17.394531 106.90625 L 17.394531 106.550781 L 16.683594 105.128906 L 16.328125 104.773438 L 16.328125 104.417969 L 15.972656 103.351562 L 15.261719 101.929688 L 15.261719 100.507812 L 14.90625 99.441406 L 14.550781 98.730469 L 14.550781 95.886719 L 14.195312 94.820312 L 14.195312 92.6875 L 14.550781 91.621094 L 14.550781 89.84375 L 14.90625 88.777344 L 15.617188 87.355469 L 15.972656 86.289062 L 16.328125 85.578125 L 17.039062 84.867188 L 18.460938 84.15625 L 18.816406 84.15625 L 25.214844 82.023438 L 25.925781 82.023438 L 26.992188 81.667969 L 27.703125 81.3125 L 30.546875 81.3125 L 31.257812 80.957031 L 34.101562 80.957031 L 35.167969 81.3125 L 36.589844 81.3125 L 37.65625 81.667969 L 38.367188 82.023438 L 39.078125 82.023438 L 40.144531 82.378906 L 40.5 82.378906 L 41.566406 82.734375 L 41.925781 83.089844 L 42.636719 83.445312 L 43.703125 83.800781 L 44.414062 84.511719 L 45.125 84.867188 L 45.835938 85.578125 L 46.191406 86.289062 L 46.546875 86.644531 L 46.546875 87 L 46.902344 88.066406 L 47.257812 88.421875 L 47.257812 100.152344 L 46.882812 101.652344 L 46.503906 102.785156 L 46.503906 103.140625 L 46.148438 104.207031 L 46.148438 105.988281 L 45.792969 106.699219 L 45.4375 107.054688 L 44.726562 107.410156 L 44.371094 107.765625 L 43.660156 107.765625 L 42.59375 108.121094 L 40.816406 108.121094 L 39.394531 108.832031 L 38.328125 108.832031 L 37.261719 109.1875 L 35.128906 109.1875 L 34.0625 109.542969 L 33.707031 109.898438 L 31.574219 109.898438 L 31.21875 110.253906 "/>
<path style="fill:none;stroke-width:2.26;stroke-linecap:round;stroke-linejoin:round;stroke:rgb(0%,100%,0%);stroke-opacity:1;comp-op:src;clip-to-self:true;stroke-miterlimit:10;" d="M 51.109375 84.929688 L 51.90625 84.132812 L 52.617188 83.777344 L 53.328125 83.066406 L 54.039062 82.710938 L 56.882812 79.867188 L 57.59375 79.511719 L 58.304688 78.800781 L 59.261719 78.800781 L 59.972656 78.445312 L 60.328125 78.089844 L 60.667969 78.089844 L 60.953125 77.804688 L 61.535156 77.804688 L 62.246094 77.449219 L 62.570312 76.804688 L 63.214844 76.480469 L 65.164062 74.53125 L 65.496094 73.933594 L 65.835938 73.59375 L 66.097656 73.328125 L 66.429688 73 L 66.78125 73 L 67.132812 72.648438 L 67.480469 72.296875 L 67.828125 71.949219 L 69.125 71.949219 L 69.828125 72.300781 L 70.859375 72.300781 L 71.570312 73.011719 L 71.894531 73.011719 L 72.539062 73.335938 L 72.890625 73.335938 L 74.539062 74.984375 L 74.863281 75.304688 L 75.191406 75.636719 L 75.191406 64.324219 L 74.875 64.007812 L 63.21875 64.007812 L 63.535156 64.640625 L 64.921875 66.027344 L 64.921875 66.375 L 65.273438 67.078125 L 65.628906 67.433594 L 65.984375 68.144531 L 66.695312 68.855469 L 67.050781 69.566406 L 67.050781 69.917969 L 67.402344 70.621094 L 68.113281 71.332031 L 68.113281 71.660156 L 68.453125 72.335938 "/>
<path style="fill:none;stroke-width:2.26;stroke-linecap:round;stroke-linejoin:round;stroke:rgb(0%,100%,0%);stroke-opacity:1;comp-op:src;clip-to-self:true;stroke-miterlimit:10;" d="M 51.589844 59.210938 L 51.050781 59.75 L 49.3125 59.75 L 48.957031 60.105469 L 48.320312 60.105469 L 47.648438 60.777344 L 47.648438 61.640625 L 46.953125 62.335938 L 46.953125 64.132812 L 47.308594 64.84375 L 50.175781 64.84375 L 50.5 64.519531 L 50.5 64.96875 L 50.144531 66.035156 L 49.789062 66.390625 L 49.433594 67.101562 L 49.078125 68.167969 L 48.722656 68.523438 L 48.367188 69.234375 L 48.367188 70.042969 L 48.710938 70.726562 L 49.152344 70.726562 L 49.417969 70.996094 L 49.765625 71.34375 L 52.730469 71.34375 L 53.300781 70.773438 L 53.621094 70.773438 "/>
<path style="fill:none;stroke-width:2.26;stroke-linecap:round;stroke-linejoin:round;stroke:rgb(0%,100%,0%);stroke-opacity:1;comp-op:src;clip-to-self:true;stroke-miterlimit:10;" d="M 49.097656 104.605469 L 52.078125 104.605469 L 52.789062 104.960938 L 54.566406 104.960938 L 55.632812 105.316406 L 55.988281 105.671875 L 56.699219 105.671875 L 57.765625 106.027344 L 62.742188 106.027344 L 64.164062 106.738281 L 64.875 106.738281 L 65.585938 107.09375 L 76.164062 107.09375 L 77.15625 107.445312 L 77.511719 107.800781 L 77.851562 107.800781 L 78.179688 108.125 L 81.945312 108.125 L 82.65625 107.769531 L 84.953125 107.769531 L 85.253906 108.070312 L 85.253906 113.847656 L 84.546875 114.554688 L 84.546875 115.585938 L 85.15625 115.890625 L 85.789062 115.574219 L 86.144531 115.21875 L 86.5 115.21875 L 87.210938 114.863281 L 87.921875 114.863281 L 88.632812 114.507812 L 88.988281 114.152344 L 89.699219 113.796875 L 90.050781 113.796875 L 90.605469 113.476562 L 90.960938 113.121094 L 91.296875 113.121094 L 91.636719 112.78125 L 91.960938 112.78125 L 92.542969 112.199219 L 93.164062 111.890625 L 93.777344 111.890625 L 94.488281 111.535156 L 95.105469 110.917969 L 94.867188 110.441406 L 94.15625 109.730469 L 93.800781 108.664062 L 93.445312 108.308594 L 93.445312 107.597656 L 93.089844 106.886719 L 92.378906 106.175781 L 92.023438 105.464844 L 91.667969 105.109375 L 91.3125 104.394531 L 90.957031 103.683594 L 90.957031 103.335938 L 90.605469 102.28125 L 89.894531 101.570312 L 89.183594 101.214844 L 88.828125 100.859375 L 88.472656 100.148438 L 86.710938 98.386719 L 86.710938 105.28125 "/>
<path style="fill:none;stroke-width:2.26;stroke-linecap:round;stroke-linejoin:round;stroke:rgb(0%,100%,0%);stroke-opacity:1;comp-op:src;clip-to-self:true;stroke-miterlimit:10;" d="M 86.710938 105.28125 L 86.710938 105.589844 L 86.390625 106.226562 L 86.035156 106.582031 L 86.035156 106.9375 "/>
<path style="fill:none;stroke-width:2.26;stroke-linecap:round;stroke-linejoin:round;stroke:rgb(0%,100%,0%);stroke-opacity:1;comp-op:src;clip-to-self:true;stroke-miterlimit:10;" d="M 75.054688 85.523438 L 73.964844 85.523438 L 73.609375 85.878906 L 71.613281 85.878906 L 70.957031 86.207031 L 70.609375 86.558594 L 70.375 86.789062 L 70.054688 87.109375 L 70.054688 87.460938 L 69.703125 88.164062 L 69.703125 88.503906 L 69.398438 89.113281 L 69.042969 89.46875 L 69.042969 90.105469 L 69.753906 90.816406 L 70.785156 90.816406 L 71.496094 91.527344 L 73.523438 91.527344 L 72.894531 91.839844 L 72.355469 91.839844 L 71.644531 92.195312 L 70.933594 92.90625 L 70.253906 92.90625 L 69.199219 93.960938 L 68.863281 94.632812 L 68.152344 94.988281 L 67.832031 95.3125 L 67.832031 96.335938 L 68.542969 97.757812 L 68.898438 98.113281 L 69.253906 98.824219 L 69.574219 98.824219 L 70.210938 99.140625 L 70.566406 99.496094 L 70.914062 99.496094 "/>
<path style="fill:none;stroke-width:2.26;stroke-linecap:round;stroke-linejoin:round;stroke:rgb(0%,100%,0%);stroke-opacity:1;comp-op:src;clip-to-self:true;stroke-miterlimit:10;" d="M 113.328125 115.757812 L 118.882812 115.757812 L 119.898438 114.742188 L 119.898438 110.972656 L 119.542969 110.265625 L 119.1875 109.910156 L 118.476562 108.488281 L 115.640625 108.488281 L 114.574219 108.132812 L 113.863281 107.777344 L 112.085938 107.777344 L 111.375 107.421875 L 111.042969 107.421875 L 110.847656 107.007812 L 110.847656 98.847656 L 111.179688 98.511719 L 112.878906 98.511719 L 114.332031 98.875 L 115.929688 99.277344 L 117.0625 99.652344 L 119.550781 99.652344 L 120.261719 100.007812 L 120.617188 100.363281 "/>
<path style="fill:none;stroke-width:2.26;stroke-linecap:round;stroke-linejoin:round;stroke:rgb(0%,100%,0%);stroke-opacity:1;comp-op:src;clip-to-self:true;stroke-miterlimit:10;" d="M 124.988281 118.3125 L 124.660156 118.640625 L 124.054688 118.945312 L 123.699219 119.300781 L 122.988281 119.65625 L 122.273438 120.011719 L 121.917969 120.367188 L 121.5625 120.367188 L 120.851562 120.722656 L 120.140625 120.722656 L 119.074219 121.078125 L 118.71875 121.433594 L 110.613281 121.433594 L 109.902344 121.078125 L 109.546875 120.722656 L 108.835938 120.722656 L 108.125 120.367188 L 107.773438 120.367188 L 106.359375 119.660156 L 106.003906 119.304688 L 105.292969 118.949219 L 104.582031 118.238281 L 103.871094 117.882812 L 102.449219 116.460938 L 102.449219 115.757812 L 102.09375 114.691406 L 101.738281 114.335938 L 101.382812 113.625 L 101.382812 101.539062 L 101.746094 100.085938 L 101.746094 97.226562 L 102.121094 95.726562 L 102.5 94.59375 L 102.5 93.882812 L 102.855469 92.816406 L 102.855469 92.460938 L 103.21875 91.007812 L 103.582031 90.285156 L 103.582031 88.863281 L 103.9375 87.796875 L 104.292969 86.726562 L 104.648438 86.371094 L 105.359375 86.015625 L 106.070312 85.304688 L 115.667969 85.304688 L 117.089844 86.015625 L 117.800781 86.015625 L 118.867188 86.371094 L 119.222656 86.371094 L 120.289062 86.726562 L 120.644531 87.085938 L 121.355469 87.441406 L 122.421875 87.796875 L 122.777344 88.152344 L 123.488281 88.507812 L 123.84375 88.863281 L 124.554688 89.21875 L 124.910156 89.929688 L 125.621094 90.285156 L 127.042969 93.128906 L 127.398438 93.484375 L 127.753906 94.195312 L 128.109375 94.550781 L 128.464844 95.261719 L 128.464844 95.972656 L 128.820312 97.039062 L 129.175781 97.75 L 129.175781 98.816406 L 129.53125 99.882812 L 129.53125 109.835938 L 129.175781 110.902344 L 129.175781 112.324219 L 128.820312 113.390625 L 128.464844 113.746094 L 128.464844 114.070312 L 128.140625 114.726562 L 128.140625 115.082031 L 127.429688 116.503906 L 127.429688 116.851562 L 127.078125 117.203125 L 126.730469 117.898438 L 126.382812 118.246094 L 126.050781 118.246094 L 125.386719 118.578125 L 125.03125 118.933594 L 124.363281 118.933594 "/>
<path style="fill:none;stroke-width:2.26;stroke-linecap:round;stroke-linejoin:round;stroke:rgb(0%,100%,0%);stroke-opacity:1;comp-op:src;clip-to-self:true;stroke-miterlimit:10;" d="M 132.792969 106.113281 L 153.132812 106.113281 L 153.84375 106.46875 L 154.199219 106.824219 L 168.460938 106.824219 L 169.171875 107.179688 L 172.136719 107.179688 L 172.324219 107.546875 L 172.324219 109.96875 L 171.96875 110.679688 L 171.96875 111.382812 L 171.613281 112.09375 L 171.257812 112.449219 L 171.257812 113.480469 L 170.902344 114.191406 L 170.902344 115.96875 L 170.574219 116.296875 L 170.28125 116.585938 L 170.542969 116.851562 L 171.496094 116.53125 L 171.851562 116.175781 L 172.5625 116.175781 L 173.628906 115.820312 L 175.050781 115.820312 L 176.117188 115.464844 L 176.828125 115.109375 L 177.539062 115.109375 L 178.605469 114.753906 L 180.738281 114.753906 L 182.160156 114.042969 L 182.871094 114.042969 L 183.9375 113.6875 L 184.648438 113.6875 L 185.714844 113.332031 L 186.425781 112.976562 L 186.78125 112.621094 L 187.492188 112.621094 L 187.175781 111.988281 L 186.855469 111.667969 L 185.789062 109.535156 L 185.789062 108.824219 L 185.433594 107.757812 L 184.011719 104.914062 L 183.300781 104.558594 L 182.945312 103.847656 L 181.523438 102.425781 L 181.167969 101.714844 L 180.8125 101.359375 L 180.101562 101.003906 L 179.746094 100.648438 L 177.613281 99.582031 L 177.257812 99.226562 L 175.851562 98.523438 L 175.503906 98.175781 L 175.1875 98.492188 L 174.867188 99.128906 L 174.511719 99.484375 L 174.511719 100.195312 L 174.15625 100.90625 L 174.15625 101.238281 L 173.824219 101.902344 L 173.160156 102.566406 L 172.8125 103.265625 L 171.785156 104.292969 L 171.449219 104.625 L 171.449219 105.609375 L 171.09375 105.964844 "/>
<path style="fill:none;stroke-width:2.26;stroke-linecap:round;stroke-linejoin:round;stroke:rgb(0%,100%,0%);stroke-opacity:1;comp-op:src;clip-to-self:true;stroke-miterlimit:10;" d="M 202.519531 102.621094 L 202.34375 103.097656 L 201.988281 103.808594 L 201.277344 104.519531 L 200.921875 105.230469 L 200.355469 105.796875 L 200.355469 106.734375 L 199.644531 107.445312 L 199.644531 107.785156 L 199.304688 108.460938 L 199.304688 110.230469 L 198.949219 110.941406 L 198.59375 111.296875 L 198.59375 115.738281 L 199.304688 116.449219 L 199.65625 116.796875 L 200.003906 117.148438 L 200.359375 117.503906 L 201.390625 117.503906 L 202.101562 117.859375 L 202.457031 118.214844 L 208.070312 118.214844 L 208.78125 117.859375 L 209.136719 117.503906 L 209.476562 117.503906 L 209.8125 117.164062 L 209.8125 116.84375 L 209.464844 115.90625 L 208.753906 115.195312 L 208.753906 114.839844 L 208.398438 114.128906 L 206.265625 111.996094 L 205.554688 111.640625 L 205.199219 111.285156 L 198.953125 111.285156 "/>
<path style="fill:none;stroke-width:2.26;stroke-linecap:round;stroke-linejoin:round;stroke:rgb(0%,100%,0%);stroke-opacity:1;comp-op:src;clip-to-self:true;stroke-miterlimit:10;" d="M 210.007812 125.429688 L 206.820312 125.429688 L 206.109375 125.074219 L 205.753906 124.71875 L 200.777344 124.71875 L 200.066406 124.363281 L 199.011719 124.363281 L 198.300781 124.007812 L 197.945312 123.652344 L 197.242188 123.652344 L 196.53125 123.296875 L 194.753906 121.519531 L 194.753906 120.808594 L 194.398438 119.742188 L 194.042969 119.386719 L 193.332031 119.03125 L 192.976562 118.675781 L 192.976562 118.320312 L 192.621094 117.253906 L 192.621094 115.832031 L 191.910156 114.410156 L 191.554688 114.054688 L 191.554688 111.566406 L 190.84375 110.144531 L 190.84375 99.140625 L 191.199219 98.429688 L 194.042969 95.585938 L 196.164062 95.585938 L 197.585938 94.875 L 199.007812 94.875 L 200.074219 94.519531 L 209.316406 94.519531 L 210.027344 94.875 L 210.730469 94.875 L 211.441406 95.585938 L 212.863281 96.296875 L 213.21875 96.652344 L 213.574219 97.363281 L 215.351562 99.140625 L 215.707031 99.851562 L 216.0625 100.207031 L 216.417969 100.917969 L 216.417969 101.628906 L 216.773438 102.695312 L 217.128906 103.050781 L 217.128906 103.40625 L 217.484375 104.117188 L 217.484375 112.296875 L 217.160156 112.945312 L 216.808594 113.898438 L 216.453125 114.253906 L 216.453125 114.605469 L 216.101562 115.308594 L 216.101562 115.660156 L 215.75 116.359375 L 215.394531 116.714844 L 215.394531 117.070312 L 215.039062 117.78125 L 215.039062 118.847656 L 213.972656 119.914062 L 213.972656 120.265625 L 213.621094 120.96875 L 212.929688 121.660156 L 212.597656 122.21875 L 210.171875 124.644531 L 209.457031 125 L 209.101562 125.355469 "/>
<path style="fill:none;stroke-width:2.26;stroke-linecap:round;stroke-linejoin:round;stroke:rgb(0%,100%,0%);stroke-opacity:1;comp-op:src;clip-to-self:true;stroke-miterlimit:10;" d="M 310.871094 58.605469 L 311.683594 58.421875 L 316.304688 58.421875 L 317.371094 58.777344 L 317.726562 59.132812 L 318.792969 59.132812 L 319.503906 59.488281 L 321.238281 59.488281 L 321.949219 59.84375 L 323.371094 61.265625 L 324.074219 61.265625 L 324.785156 61.621094 L 325.816406 61.621094 L 326.527344 61.976562 L 327.238281 62.6875 L 327.949219 63.042969 L 328.660156 63.753906 L 329.011719 63.753906 L 329.710938 64.105469 L 330.066406 64.460938 L 330.777344 64.816406 L 331.117188 64.816406 L 331.796875 65.152344 L 332.507812 65.863281 L 332.855469 66.214844 L 333.203125 66.5625 L 333.914062 66.917969 L 334.230469 66.917969 L 334.894531 67.25 L 335.25 67.605469 L 335.960938 67.960938 L 336.273438 67.960938 L 336.941406 68.292969 L 337.652344 69.003906 L 338.363281 69.359375 L 338.71875 69.714844 L 339.722656 69.714844 L 340.332031 70.019531 "/>
<path style="fill:none;stroke-width:2.26;stroke-linecap:round;stroke-linejoin:round;stroke:rgb(0%,100%,0%);stroke-opacity:1;comp-op:src;clip-to-self:true;stroke-miterlimit:10;" d="M 366.390625 99.921875 L 366.707031 99.605469 L 366.707031 95.480469 L 367.0625 94.414062 L 367.0625 85.21875 L 366.726562 85.078125 L 361.785156 85.078125 L 361.074219 85.433594 L 355.769531 85.433594 "/>
<path style="fill:none;stroke-width:2.26;stroke-linecap:round;stroke-linejoin:round;stroke:rgb(0%,100%,0%);stroke-opacity:1;comp-op:src;clip-to-self:true;stroke-miterlimit:10;" d="M 356.519531 95.101562 L 356.824219 95.40625 L 357.390625 94.839844 L 357.742188 94.839844 L 358.445312 94.488281 L 358.796875 94.488281 L 359.496094 94.136719 L 359.851562 94.136719 L 360.917969 93.78125 L 363.050781 93.78125 L 363.761719 93.425781 L 365.894531 93.425781 L 366.960938 93.070312 L 367.671875 92.714844 L 368.742188 92.714844 L 369.808594 92.359375 L 371.925781 92.359375 L 372.636719 92.003906 L 372.992188 91.648438 L 375.476562 91.648438 L 375.828125 91.296875 L 377.589844 91.296875 "/>
<path style="fill:none;stroke-width:2.26;stroke-linecap:round;stroke-linejoin:round;stroke:rgb(0%,100%,0%);stroke-opacity:1;comp-op:src;clip-to-self:true;stroke-miterlimit:10;" d="M 376.148438 103.117188 L 375.828125 103.117188 L 375.152344 103.792969 L 374.441406 104.148438 L 374.089844 104.148438 L 373.386719 104.5 L 372.675781 105.210938 L 371.964844 105.210938 L 370.898438 105.566406 L 370.542969 105.921875 L 369.832031 106.277344 L 369.480469 106.277344 L 368.78125 106.628906 L 367.359375 107.339844 L 365.226562 107.339844 L 364.515625 107.695312 L 364.160156 108.050781 L 362.378906 108.050781 L 361.3125 108.40625 L 352.070312 108.40625 L 351.359375 108.050781 L 351.003906 108.050781 L 349.582031 107.339844 L 349.226562 106.984375 L 348.515625 106.628906 L 346.027344 104.140625 L 345.671875 103.429688 L 345.316406 103.074219 L 344.605469 101.652344 L 344.605469 101.296875 L 343.539062 98.097656 L 343.539062 86.367188 L 344.257812 85.289062 L 344.257812 84.9375 L 344.964844 83.523438 L 344.964844 82.46875 L 345.320312 81.757812 L 346.386719 80.691406 L 346.742188 79.980469 L 348.164062 78.558594 L 348.519531 77.847656 L 349.585938 76.78125 L 350.296875 76.425781 L 351.371094 75.707031 L 352.089844 75.351562 L 354.222656 74.285156 L 355.289062 73.21875 L 356 72.863281 L 356.710938 72.863281 L 359.910156 71.796875 L 360.621094 71.796875 L 362.074219 71.433594 L 363.203125 71.054688 L 371.734375 71.054688 L 373.15625 71.765625 L 373.511719 72.121094 L 374.933594 72.832031 L 376.011719 73.550781 L 376.726562 74.265625 L 377.082031 74.265625 L 377.792969 74.621094 L 379.214844 76.042969 L 379.214844 76.398438 L 379.570312 77.464844 L 380.28125 78.175781 L 380.28125 79.953125 L 380.636719 80.664062 L 380.992188 81.019531 L 380.992188 82.441406 L 381.355469 83.894531 L 381.355469 86.390625 L 381.710938 87.457031 L 382.066406 87.8125 L 382.066406 89.234375 L 382.421875 90.300781 L 382.421875 95.621094 L 382.066406 96.332031 L 382.066406 96.683594 L 381.359375 98.097656 L 381.003906 99.164062 L 380.648438 99.875 L 379.226562 104.140625 L 378.871094 104.851562 L 378.871094 105.554688 L 378.515625 105.910156 L 376.46875 105.910156 "/>
<path style="fill:none;stroke-width:2.26;stroke-linecap:round;stroke-linejoin:round;stroke:rgb(0%,100%,0%);stroke-opacity:1;comp-op:src;clip-to-self:true;stroke-miterlimit:10;" d="M 336.0625 75.269531 L 336.0625 74.652344 L 336.417969 73.941406 L 337.128906 73.230469 L 337.484375 72.519531 L 337.839844 72.164062 L 338.195312 71.453125 L 339.261719 70.386719 L 339.621094 70.03125 L 339.976562 69.320312 L 341.753906 67.542969 L 342.464844 67.1875 L 343.175781 66.476562 L 343.5 66.476562 L 344.183594 65.792969 L 344.859375 65.792969 L 345.570312 65.4375 L 345.902344 65.4375 L 346.570312 65.105469 L 346.570312 73.078125 L 345.859375 73.789062 L 337.984375 73.789062 "/>
<path style="fill:none;stroke-width:2.26;stroke-linecap:round;stroke-linejoin:round;stroke:rgb(0%,100%,0%);stroke-opacity:1;comp-op:src;clip-to-self:true;stroke-miterlimit:10;" d="M 222.316406 112.695312 L 254.21875 112.695312 L 256.898438 112.25 L 258.695312 111.800781 L 260.296875 111.402344 L 269.554688 111.402344 L 271.054688 111.027344 L 271.78125 111.027344 L 273.234375 110.664062 L 274.367188 110.285156 L 275.433594 110.285156 L 276.5 109.929688 L 280.054688 109.929688 L 283.253906 108.863281 L 284.320312 108.863281 L 286.453125 108.152344 L 287.875 108.152344 L 289.328125 107.789062 L 294.667969 107.789062 L 295.378906 107.433594 L 295.734375 107.078125 L 297.144531 107.078125 L 297.855469 106.722656 L 299.277344 106.722656 L 300.34375 106.367188 L 300.699219 106.011719 L 302.476562 106.011719 L 303.1875 105.65625 L 304.609375 105.65625 L 305.675781 105.300781 L 306.03125 104.945312 L 307.453125 104.945312 L 308.164062 104.589844 L 309.941406 104.589844 L 310.652344 104.234375 L 311.007812 103.878906 L 313.132812 103.878906 L 313.488281 103.523438 L 322.480469 103.523438 "/>
<path style="fill:none;stroke-width:2.26;stroke-linecap:round;stroke-linejoin:round;stroke:rgb(0%,100%,0%);stroke-opacity:1;comp-op:src;clip-to-self:true;stroke-miterlimit:10;" d="M 322.082031 91.78125 L 322.082031 91.78125 "/>
<path style="fill:none;stroke-width:2.26;stroke-linecap:round;stroke-linejoin:round;stroke:rgb(0%,100%,0%);stroke-opacity:1;comp-op:src;clip-to-self:true;stroke-miterlimit:10;" d="M 322.082031 92.675781 L 322.082031 94.453125 L 322.792969 96.585938 L 322.792969 96.941406 L 323.148438 98.007812 L 323.148438 100.851562 L 323.859375 102.273438 L 323.859375 102.628906 L 324.214844 103.695312 L 324.214844 105.117188 L 324.925781 106.539062 L 324.925781 108.308594 L 325.28125 109.019531 L 325.28125 111.132812 L 325.828125 110.8125 L 326.183594 110.457031 L 326.183594 109.746094 L 326.539062 108.679688 L 330.449219 104.769531 L 330.804688 104.769531 L 331.515625 104.414062 L 333.292969 102.636719 L 333.644531 102.636719 L 334.347656 102.285156 L 334.703125 101.929688 L 334.140625 101.652344 L 332.75 100.261719 L 332.75 99.933594 L 332.414062 99.59375 L 332.414062 99.242188 L 332.0625 98.542969 L 328.863281 95.34375 L 328.160156 95.34375 L 327.449219 94.988281 L 326.738281 94.277344 L 326.386719 94.277344 L 325.324219 93.214844 L 324.613281 92.859375 L 323.902344 92.148438 L 322.132812 92.148438 "/>
<path style="fill:none;stroke-width:2.26;stroke-linecap:round;stroke-linejoin:round;stroke:rgb(0%,100%,0%);stroke-opacity:1;comp-op:src;clip-to-self:true;stroke-miterlimit:10;" d="M 156.453125 87.929688 L 153.300781 87.929688 L 152.589844 88.640625 L 151.984375 88.964844 L 151.273438 89.320312 L 151.273438 89.652344 L 150.945312 89.980469 L 150.945312 92.25 L 150.589844 92.960938 L 150.589844 95.328125 L 150.945312 96.039062 L 150.945312 96.378906 L 151.410156 96.84375 L 151.972656 96.84375 L 152.648438 97.183594 L 153.003906 97.539062 L 156.609375 97.539062 "/>
<path style="fill:none;stroke-width:2.26;stroke-linecap:round;stroke-linejoin:round;stroke:rgb(0%,100%,0%);stroke-opacity:1;comp-op:src;clip-to-self:true;stroke-miterlimit:10;" d="M 339.769531 38.859375 L 337.351562 38.859375 L 337.003906 39.207031 L 336.128906 39.53125 L 335.441406 40.21875 L 334.871094 40.5 L 334.664062 40.96875 L 334.433594 41.199219 L 334.433594 42.53125 L 334.078125 42.886719 L 334.078125 44.253906 L 334.414062 44.589844 L 335.648438 44.589844 L 336.003906 44.945312 L 337.488281 44.945312 L 337.183594 44.945312 L 336.546875 45.261719 L 336.191406 45.617188 L 335.179688 45.617188 L 334.46875 45.972656 L 333.246094 45.972656 L 332.390625 46.828125 L 331.679688 47.183594 L 331.324219 47.539062 L 331.324219 51.707031 L 331.660156 52.578125 L 331.996094 52.578125 L 332.324219 52.90625 L 333.378906 52.90625 L 334.078125 53.257812 L 334.789062 53.96875 L 335.117188 53.96875 "/>
<path style="fill:none;stroke-width:2.26;stroke-linecap:round;stroke-linejoin:round;stroke:rgb(0%,100%,0%);stroke-opacity:1;comp-op:src;clip-to-self:true;stroke-miterlimit:10;" d="M 273.601562 84.929688 L 273.289062 85.242188 L 273.015625 85.511719 L 271.238281 85.511719 L 270.171875 85.867188 L 269.816406 86.222656 L 269.105469 86.578125 L 268.039062 86.933594 L 267.683594 87.289062 L 266.972656 87.644531 L 266.292969 88.324219 L 265.945312 88.675781 L 265.59375 89.023438 L 265.238281 89.378906 L 265.238281 90.003906 L 264.882812 90.714844 L 265.214844 91.378906 L 266.1875 92.351562 L 266.519531 92.351562 L 267.1875 92.683594 L 269.234375 92.683594 L 269.050781 93.050781 L 268.109375 93.402344 L 267.761719 93.402344 L 267.058594 93.75 L 266.703125 94.105469 L 266.347656 94.105469 L 265.636719 94.460938 L 264.957031 94.460938 L 264.246094 95.171875 L 263.535156 95.527344 L 263.179688 95.882812 L 262.824219 96.597656 L 261.167969 98.253906 L 260.8125 98.964844 L 260.101562 99.675781 L 260.425781 99.996094 L 261.105469 100.675781 L 261.804688 100.675781 L 262.515625 101.03125 L 262.871094 101.386719 L 268.464844 101.386719 "/>
<path style="fill:none;stroke-width:2.26;stroke-linecap:round;stroke-linejoin:round;stroke:rgb(0%,100%,0%);stroke-opacity:1;comp-op:src;clip-to-self:true;stroke-miterlimit:10;" d="M 14.992188 52.085938 L 14.992188 58.019531 L 15.347656 58.730469 L 15.703125 59.085938 L 15.703125 60.855469 L 16.058594 61.566406 L 16.058594 63.304688 L 16.410156 64.007812 L 16.765625 64.363281 L 16.765625 64.71875 L 17.121094 65.429688 L 17.121094 68.492188 "/>
<path style="fill:none;stroke-width:2.26;stroke-linecap:round;stroke-linejoin:round;stroke:rgb(0%,100%,0%);stroke-opacity:1;comp-op:src;clip-to-self:true;stroke-miterlimit:10;" d="M 12.4375 70.15625 L 13.054688 70.15625 L 13.765625 69.800781 L 16.949219 69.800781 L 18.371094 69.089844 L 19.082031 69.089844 L 19.792969 68.734375 L 22.597656 68.734375 L 23.308594 68.378906 L 23.664062 68.023438 L 24.71875 68.023438 L 25.429688 67.667969 L 24.496094 68.601562 L 24.496094 69.3125 L 24.140625 70.378906 L 24.140625 70.730469 L 23.789062 71.433594 L 23.433594 71.789062 L 23.433594 72.140625 L 23.082031 72.84375 L 23.082031 73.191406 L 22.730469 73.894531 L 22.375 74.25 L 22.375 74.601562 L 22.023438 75.304688 L 22.023438 76.003906 L 21.667969 76.359375 L 21.320312 76.710938 L 21.046875 76.984375 L 20.234375 76.984375 L 19.523438 76.628906 L 19.167969 76.273438 L 18.8125 76.273438 L 17.390625 75.5625 L 17.035156 75.207031 L 16.683594 75.207031 L 15.984375 74.855469 L 15.273438 74.144531 L 14.921875 73.796875 L 13.992188 73.464844 L 13.636719 72.753906 L 12.925781 72.042969 "/>
<path style="fill:none;stroke-width:2.26;stroke-linecap:round;stroke-linejoin:round;stroke:rgb(0%,100%,0%);stroke-opacity:1;comp-op:src;clip-to-self:true;stroke-miterlimit:10;" d="M 390.617188 116.203125 L 390.265625 116.203125 L 389.5625 116.550781 L 389.207031 116.90625 L 387.785156 116.90625 L 387.074219 117.261719 L 360.769531 117.261719 L 359.703125 116.90625 L 357.925781 116.90625 L 356.855469 116.550781 L 356.144531 116.195312 L 355.433594 116.195312 L 354.367188 115.839844 L 353.300781 115.839844 L 352.234375 115.484375 L 351.878906 115.128906 L 351.167969 115.128906 L 350.101562 114.773438 L 347.980469 114.773438 L 347.269531 114.417969 L 346.917969 114.070312 L 346.222656 113.722656 L 345.90625 113.722656 L 345.242188 113.390625 L 344.886719 112.679688 L 344.535156 112.679688 L 344.183594 112.328125 L 343.828125 111.617188 L 343.476562 111.617188 L 342.777344 111.265625 L 342.421875 110.910156 L 342.066406 110.199219 L 342.066406 109.855469 L 341.359375 109.148438 L 341.003906 108.4375 L 341.003906 108.101562 L 340.671875 107.433594 L 340.316406 107.078125 L 339.960938 106.367188 L 339.960938 106.035156 L 339.628906 105.371094 L 339.273438 105.015625 L 339.273438 104.664062 L 338.921875 103.960938 L 338.921875 103.613281 L 338.589844 102.671875 L 338.234375 102.316406 L 338.234375 100.222656 L 337.882812 99.519531 L 337.882812 97.753906 L 337.527344 97.042969 L 337.171875 96.6875 L 337.171875 86.785156 L 337.523438 85.789062 L 337.523438 85.441406 L 337.871094 84.738281 L 337.871094 84.035156 L 338.226562 83.679688 L 338.226562 83.015625 L 338.582031 82.304688 L 339.292969 81.59375 L 339.292969 81.242188 L 339.644531 80.539062 L 340 80.183594 L 340.355469 79.472656 L 342.757812 77.070312 L 343.109375 76.722656 L 343.457031 76.371094 L 343.773438 76.058594 L 344.820312 75.707031 L 345.175781 75.351562 L 345.886719 73.929688 L 346.597656 73.574219 L 346.953125 72.507812 L 347.65625 71.804688 L 347.914062 71.292969 L 348.609375 70.945312 L 349.320312 70.234375 L 350.742188 69.523438 L 351.097656 69.167969 L 351.453125 68.457031 L 352.164062 68.101562 L 352.519531 67.746094 L 353.230469 67.390625 L 353.585938 67.035156 L 354.300781 66.324219 L 355.011719 65.613281 L 355.359375 65.613281 L 356.066406 64.90625 L 356.777344 64.550781 L 371.234375 64.550781 L 371.945312 64.90625 L 372.648438 64.90625 L 373.359375 65.261719 L 373.714844 65.617188 L 374.75 65.617188 L 375.460938 65.972656 L 375.792969 65.972656 L 376.46875 66.308594 L 377.890625 67.730469 L 379.3125 68.441406 L 379.667969 69.152344 L 381.445312 70.929688 L 381.800781 71.640625 L 382.15625 72 L 382.511719 72.355469 L 382.867188 73.066406 L 383.222656 73.421875 L 383.222656 73.769531 L 383.574219 74.121094 L 383.574219 74.472656 L 384.636719 76.597656 L 384.636719 77.664062 L 384.992188 78.375 L 385.347656 78.730469 L 385.347656 80.140625 L 385.703125 80.851562 L 385.703125 83.324219 L 386.058594 84.390625 L 386.414062 84.746094 L 386.414062 86.167969 L 386.769531 86.878906 L 386.769531 88.300781 L 387.125 89.367188 L 387.480469 90.078125 L 387.480469 92.207031 L 387.832031 93.261719 L 387.832031 93.613281 L 388.183594 94.3125 L 388.539062 95.023438 L 388.539062 96.445312 L 388.894531 97.15625 L 388.894531 98.851562 L 389.605469 100.273438 L 389.605469 101.695312 L 389.960938 102.40625 L 389.960938 109.402344 L 389.605469 110.113281 L 389.605469 112.601562 L 389.25 113.3125 L 388.894531 113.667969 L 388.894531 114.996094 L 388.539062 115.707031 L 388.539062 116.039062 "/>
</g>
</svg>
