<?xml version="1.0" encoding="UTF-8"?>
<svg xmlns="http://www.w3.org/2000/svg" xmlns:xlink="http://www.w3.org/1999/xlink" width="841pt" height="595pt" viewBox="0 0 841 595" version="1.2">
<g id="surface426729">
<rect x="0" y="0" width="841" height="595" style="fill:rgb(0%,0%,0%);fill-opacity:1;stroke:none;"/>
<path style="fill:none;stroke-width:2.26;stroke-linecap:round;stroke-linejoin:round;stroke:rgb(0%,100%,0%);stroke-opacity:1;comp-op:src;clip-to-self:true;stroke-miterlimit:10;" d="M 53.652344 385.722656 L 53.878906 385.496094 L 53.878906 383.980469 L 54.441406 382.292969 L 55.003906 381.726562 L 55.003906 380.601562 L 55.570312 378.914062 L 55.570312 377.222656 L 56.132812 375.535156 L 56.695312 374.40625 L 56.695312 372.15625 L 57.257812 370.464844 L 57.257812 367.648438 L 57.820312 365.960938 L 58.382812 364.835938 L 58.382812 364.273438 L 58.945312 363.144531 L 58.945312 359.203125 L 59.511719 358.078125 L 60.074219 357.515625 L 60.074219 348.828125 L 60.074219 349.300781 L 59.574219 349.800781 L 59.011719 350.367188 L 58.445312 350.929688 L 57.882812 351.492188 L 57.320312 351.492188 L 55.632812 352.054688 L 54.503906 352.617188 L 53.941406 353.179688 L 52.816406 353.742188 L 52.253906 354.308594 L 51.125 354.871094 L 50 355.433594 L 49.4375 355.996094 L 48.3125 355.996094 L 47.75 356.558594 L 45.695312 356.558594 "/>
<path style="fill:none;stroke-width:2.26;stroke-linecap:round;stroke-linejoin:round;stroke:rgb(0%,100%,0%);stroke-opacity:1;comp-op:src;clip-to-self:true;stroke-miterlimit:10;" d="M 57.179688 387.777344 L 56.90625 388.050781 L 55.902344 388.550781 L 55.339844 389.117188 L 43.351562 389.117188 L 42.523438 388.699219 L 41.976562 388.152344 L 41.410156 387.589844 L 41.410156 387.101562 L 40.886719 386.046875 L 40.320312 385.484375 L 39.757812 384.355469 L 38.632812 382.105469 L 38.632812 353.386719 L 39.757812 352.261719 L 39.757812 350.632812 L 40.316406 349.519531 L 40.316406 347.882812 L 42.003906 346.195312 L 42.003906 345.636719 L 42.558594 344.527344 L 43.125 343.960938 L 44.25 343.398438 L 44.8125 342.835938 L 45.375 342.835938 L 46.503906 342.273438 L 48.753906 341.148438 L 49.882812 340.582031 L 51.007812 340.582031 L 52.695312 340.019531 L 53.257812 339.457031 L 55.511719 339.457031 L 56.636719 338.894531 L 59.453125 338.894531 L 60.578125 338.332031 L 61.144531 337.769531 L 63.339844 337.769531 L 64.464844 338.332031 L 65.027344 338.894531 L 66.082031 338.894531 L 67.207031 339.457031 L 67.746094 339.457031 L 68.816406 339.992188 L 69.382812 341.121094 L 70.507812 341.683594 L 71.632812 342.808594 L 72.195312 343.9375 L 72.195312 345.0625 L 72.757812 346.75 L 73.324219 347.316406 L 73.886719 348.441406 L 74.449219 350.128906 L 75.011719 350.691406 L 75.011719 351.25 L 75.570312 352.363281 L 75.570312 363.0625 L 75.003906 364.75 L 75.003906 366.441406 L 74.441406 368.128906 L 73.878906 369.253906 L 73.878906 369.820312 L 73.316406 370.945312 L 73.316406 371.5 L 72.761719 372.613281 L 72.195312 373.175781 L 71.632812 374.300781 L 71.632812 375.429688 L 71.070312 376.554688 L 70.507812 377.117188 L 69.945312 378.242188 L 69.945312 378.800781 L 69.386719 379.910156 L 68.824219 380.476562 L 64.71875 384.582031 L 63.71875 384.582031 L 62.59375 385.144531 L 62.03125 385.707031 "/>
<path style="fill:none;stroke-width:2.26;stroke-linecap:round;stroke-linejoin:round;stroke:rgb(0%,100%,0%);stroke-opacity:1;comp-op:src;clip-to-self:true;stroke-miterlimit:10;" d="M 8.726562 365.539062 L 8.726562 365.539062 "/>
<path style="fill:none;stroke-width:2.26;stroke-linecap:round;stroke-linejoin:round;stroke:rgb(0%,100%,0%);stroke-opacity:1;comp-op:src;clip-to-self:true;stroke-miterlimit:10;" d="M 8.726562 365.539062 L 14.199219 365.539062 L 15.324219 366.101562 L 15.828125 366.605469 L 17.191406 366.605469 L 17.667969 367.082031 L 17.667969 370.441406 L 17.105469 371.566406 L 16.566406 372.105469 L 14.90625 375.425781 L 14.90625 375.984375 L 15.265625 376.34375 L 15.625 376.34375 L 16.738281 375.785156 L 17.863281 375.785156 L 18.988281 375.222656 L 19.554688 374.660156 L 20.109375 374.660156 L 20.664062 374.105469 L 22.207031 374.105469 L 23.789062 372.523438 L 24.804688 371.503906 L 25.933594 370.378906 L 27.058594 369.816406 L 28.183594 368.6875 L 28.746094 368.125 L 28.246094 367.625 L 27.890625 367.625 L 26.78125 367.070312 L 25.652344 365.941406 L 24.527344 365.378906 L 22.839844 363.691406 L 21.710938 363.128906 L 21.148438 362.5625 L 20.023438 362 L 19.460938 361.4375 L 18.332031 360.3125 L 17.769531 359.75 L 17.207031 359.183594 L 16.652344 358.632812 L 16.101562 358.078125 L 16.101562 366.886719 "/>
<path style="fill:none;stroke-width:2.26;stroke-linecap:round;stroke-linejoin:round;stroke:rgb(0%,100%,0%);stroke-opacity:1;comp-op:src;clip-to-self:true;stroke-miterlimit:10;" d="M 87.269531 369.160156 L 139.265625 369.160156 L 139.746094 369.640625 L 139.746094 379.390625 L 140.226562 379.871094 L 140.902344 379.53125 L 141.453125 378.980469 L 142.578125 378.417969 L 143.707031 378.417969 L 145.394531 377.855469 L 145.957031 377.292969 L 147.085938 376.730469 L 148.210938 376.164062 L 149.335938 375.601562 L 150.449219 375.601562 L 150.980469 375.070312 L 151.996094 374.5625 L 152.558594 374 L 153.0625 374 L 154.066406 373.5 L 154.628906 372.933594 L 154.628906 369.222656 L 154.066406 367.535156 L 154.066406 366.972656 L 153.503906 365.84375 L 151.253906 363.59375 L 150.6875 362.464844 L 150.136719 361.914062 L 149.03125 361.363281 L 148.46875 360.234375 L 147.34375 359.109375 L 146.777344 358.546875 L 146.332031 358.101562 L 146.019531 357.785156 L 145.636719 358.835938 L 145.074219 359.398438 L 144.511719 361.085938 L 144.511719 363.902344 L 143.949219 365.027344 L 143.386719 366.15625 L 143.386719 368.40625 L 142.820312 369.535156 L 142.820312 371.207031 L 142.257812 371.773438 L 141.695312 372.335938 "/>
<path style="fill:none;stroke-width:2.26;stroke-linecap:round;stroke-linejoin:round;stroke:rgb(0%,100%,0%);stroke-opacity:1;comp-op:src;clip-to-self:true;stroke-miterlimit:10;" d="M 108.632812 354.304688 L 108.886719 354.046875 L 108.886719 353.566406 L 109.453125 352.4375 L 110.015625 351.3125 L 110.578125 349.625 L 111.140625 348.496094 L 111.703125 347.371094 L 111.703125 346.808594 L 112.265625 345.679688 L 112.265625 344.570312 L 112.828125 344.007812 L 113.394531 343.445312 L 113.957031 342.878906 L 113.957031 341.753906 L 114.519531 340.628906 L 115.082031 339.5 L 115.082031 338.964844 L 115.386719 339.269531 L 115.386719 341.929688 L 115.949219 343.621094 L 116.511719 345.308594 L 116.511719 347 L 117.074219 348.125 L 117.074219 353.574219 L 117.636719 354.699219 L 118.203125 355.265625 "/>
<path style="fill:none;stroke-width:2.26;stroke-linecap:round;stroke-linejoin:round;stroke:rgb(0%,100%,0%);stroke-opacity:1;comp-op:src;clip-to-self:true;stroke-miterlimit:10;" d="M 109.953125 352.671875 L 110.535156 352.460938 L 116.019531 352.460938 "/>
<path style="fill:none;stroke-width:2.26;stroke-linecap:round;stroke-linejoin:round;stroke:rgb(0%,100%,0%);stroke-opacity:1;comp-op:src;clip-to-self:true;stroke-miterlimit:10;" d="M 185.257812 383.042969 L 180.429688 383.042969 L 179.300781 382.480469 L 178.738281 381.917969 L 177.75 381.917969 L 176.695312 381.390625 L 173.507812 381.390625 L 173.039062 380.917969 L 173.476562 380.039062 L 175.625 378.964844 L 176.1875 378.402344 L 177.3125 377.839844 L 180.128906 375.023438 L 180.128906 374.46875 L 180.6875 373.355469 L 181.25 372.792969 L 181.8125 371.664062 L 181.8125 369.996094 L 182.375 368.871094 L 182.9375 367.742188 L 183.5 366.617188 L 183.5 361.007812 L 184.0625 359.316406 L 184.0625 358.761719 L 183.507812 357.652344 L 183.507812 357.09375 L 182.996094 356.582031 L 182.445312 355.476562 L 181.882812 354.914062 L 181.34375 354.914062 L 180.273438 354.378906 L 179.144531 353.816406 L 170.136719 353.816406 "/>
<path style="fill:none;stroke-width:2.26;stroke-linecap:round;stroke-linejoin:round;stroke:rgb(0%,100%,0%);stroke-opacity:1;comp-op:src;clip-to-self:true;stroke-miterlimit:10;" d="M 190.351562 389.519531 L 189.925781 389.945312 L 188.996094 389.945312 L 187.871094 390.507812 L 187.308594 391.074219 L 173.792969 391.074219 L 172.667969 390.507812 L 172.101562 389.945312 L 171.546875 389.945312 L 170.433594 389.390625 L 169.871094 388.828125 L 169.308594 388.261719 L 168.179688 387.699219 L 167.054688 386.574219 L 166.492188 385.449219 L 165.929688 384.882812 L 165.367188 383.757812 L 164.804688 382.070312 L 164.238281 381.507812 L 163.675781 380.941406 L 163.675781 380.378906 L 163.113281 379.253906 L 162.550781 378.691406 L 161.988281 377.5625 L 161.988281 376.4375 L 161.425781 374.75 L 160.859375 373.621094 L 160.296875 373.058594 L 160.296875 370.910156 L 159.742188 369.796875 L 159.179688 369.234375 L 159.179688 366.4375 L 158.617188 365.3125 L 158.617188 362.496094 L 158.050781 361.371094 L 157.488281 360.246094 L 157.488281 346.730469 L 158.050781 345.605469 L 159.179688 345.039062 L 159.742188 344.476562 L 160.296875 344.476562 L 161.410156 343.921875 L 163.097656 343.359375 L 163.664062 342.796875 L 164.21875 342.796875 L 165.886719 342.238281 L 166.449219 342.238281 L 168.140625 341.675781 L 168.703125 341.113281 L 182.78125 341.113281 L 185.03125 342.238281 L 186.722656 342.800781 L 187.847656 343.367188 L 188.972656 343.929688 L 190.664062 344.492188 L 191.789062 345.054688 L 193.480469 345.617188 L 194.605469 346.746094 L 195.730469 347.308594 L 196.859375 348.433594 L 198.546875 350.121094 L 199.109375 351.25 L 199.671875 352.375 L 200.238281 353.5 L 200.800781 354.066406 L 201.925781 356.316406 L 202.488281 356.878906 L 202.488281 368.691406 L 201.925781 370.378906 L 201.363281 370.945312 L 201.363281 372.632812 L 200.800781 373.757812 L 200.800781 374.871094 L 200.238281 376 L 199.671875 377.125 L 199.109375 377.6875 L 198.546875 378.8125 L 197.984375 379.375 L 197.421875 379.941406 L 196.859375 381.066406 L 196.292969 381.628906 L 195.730469 382.191406 L 195.730469 382.75 L 193.523438 384.957031 L 192.445312 385.496094 L 190.8125 387.128906 L 190.28125 388.191406 L 189.71875 388.753906 L 189.152344 389.316406 L 189.152344 390.445312 L 188.589844 391.007812 "/>
<path style="fill:none;stroke-width:2.26;stroke-linecap:round;stroke-linejoin:round;stroke:rgb(0%,100%,0%);stroke-opacity:1;comp-op:src;clip-to-self:true;stroke-miterlimit:10;" d="M 192.140625 340.332031 L 192.613281 340.800781 L 193.609375 340.304688 L 194.738281 339.742188 L 195.300781 339.175781 L 195.863281 338.050781 L 197.550781 336.363281 L 198.117188 335.800781 L 198.679688 335.234375 L 199.804688 334.109375 L 200.929688 331.859375 L 202.058594 331.292969 L 202.058594 330.738281 L 202.613281 329.625 L 203.738281 328.5 L 204.300781 327.375 L 204.867188 326.8125 L 205.390625 326.285156 L 205.925781 325.21875 L 206.488281 324.652344 L 207.050781 324.089844 L 207.613281 322.964844 L 208.175781 322.402344 L 208.742188 321.839844 L 209.292969 321.285156 L 209.847656 320.734375 L 210.398438 320.179688 L 211.296875 319.28125 L 211.863281 318.71875 L 212.375 318.71875 L 212.851562 318.480469 L 213.355469 316.96875 L 213.917969 316.40625 "/>
<path style="fill:none;stroke-width:2.26;stroke-linecap:round;stroke-linejoin:round;stroke:rgb(0%,100%,0%);stroke-opacity:1;comp-op:src;clip-to-self:true;stroke-miterlimit:10;" d="M 208.542969 314.222656 L 209.289062 314.722656 L 209.847656 314.722656 L 210.957031 315.277344 L 211.519531 315.84375 L 212.085938 316.40625 L 213.210938 316.96875 L 214.898438 318.65625 L 215.464844 319.21875 L 216.027344 319.785156 L 216.582031 319.785156 L 217.695312 320.339844 L 218.257812 321.464844 L 218.816406 321.464844 L 219.371094 322.023438 L 219.933594 322.585938 L 220.488281 323.136719 L 221.59375 323.691406 L 223.28125 325.378906 L 223.84375 325.945312 L 224.40625 326.507812 L 224.964844 326.507812 L 226.078125 327.0625 L 226.078125 326.558594 L 227.140625 325.496094 L 227.707031 323.804688 L 228.269531 322.117188 L 228.832031 321.550781 L 229.394531 320.425781 L 229.957031 318.738281 L 230.519531 318.175781 L 231.085938 317.046875 L 231.648438 316.484375 L 232.210938 315.359375 L 232.773438 314.796875 L 232.773438 314.230469 L 233.335938 313.105469 L 233.898438 312.542969 L 217.851562 312.542969 L 216.726562 311.980469 L 216.164062 311.417969 L 214.558594 311.417969 L 213.996094 310.851562 L 213.035156 310.851562 L 212.003906 310.335938 L 211.4375 309.773438 L 210.410156 309.773438 "/>
<path style="fill:none;stroke-width:2.26;stroke-linecap:round;stroke-linejoin:round;stroke:rgb(0%,100%,0%);stroke-opacity:1;comp-op:src;clip-to-self:true;stroke-miterlimit:10;" d="M 243.484375 323.203125 L 244.667969 322.703125 L 245.230469 322.140625 L 246.863281 322.140625 L 247.429688 321.578125 L 248.351562 321.117188 L 248.625 320.839844 L 248.964844 320.503906 L 248.964844 320.03125 L 249.519531 318.921875 L 250.082031 318.359375 L 250.644531 317.792969 L 250.644531 316.808594 L 249.519531 315.683594 L 247.265625 315.683594 L 246.140625 315.117188 L 245.578125 314.554688 L 245.019531 314.554688 L 243.910156 314 L 242.78125 314 L 242.21875 313.4375 L 241.695312 312.910156 L 242.269531 312.625 L 242.78125 312.113281 L 245.03125 310.988281 L 245.59375 310.988281 L 247.285156 310.425781 L 247.847656 309.863281 L 248.972656 309.300781 L 249.535156 308.734375 L 250.664062 308.171875 L 251.226562 307.609375 L 252.351562 307.046875 L 252.914062 306.484375 L 252.914062 305.960938 L 253.4375 304.921875 L 253.4375 299.878906 L 252.875 299.316406 L 252.875 298.761719 L 252.316406 298.207031 L 251.761719 298.207031 L 250.648438 297.648438 L 248.960938 297.648438 L 247.835938 297.085938 L 247.269531 296.523438 L 246.714844 296.523438 "/>
<path style="fill:none;stroke-width:2.26;stroke-linecap:round;stroke-linejoin:round;stroke:rgb(0%,100%,0%);stroke-opacity:1;comp-op:src;clip-to-self:true;stroke-miterlimit:10;" d="M 264.011719 336.269531 L 259.40625 336.269531 L 258.277344 335.707031 L 257.714844 335.144531 L 255.523438 335.144531 L 254.410156 334.589844 L 247.304688 334.589844 L 246.179688 334.027344 "/>
<path style="fill:none;stroke-width:2.26;stroke-linecap:round;stroke-linejoin:round;stroke:rgb(0%,100%,0%);stroke-opacity:1;comp-op:src;clip-to-self:true;stroke-miterlimit:10;" d="M 246.179688 334.027344 L 245.808594 333.28125 L 243.621094 331.09375 L 243.054688 329.96875 L 242.492188 329.402344 L 241.929688 328.839844 L 241.367188 327.714844 L 241.367188 326.214844 L 240.804688 324.523438 L 240.242188 323.960938 L 240.242188 320.597656 L 239.675781 319.472656 L 239.675781 317.433594 L 239.113281 316.304688 L 238.550781 315.742188 L 238.550781 311.855469 L 237.988281 310.730469 L 237.988281 308.476562 L 237.425781 306.785156 L 236.863281 305.660156 L 236.863281 303.410156 L 236.300781 302.28125 L 236.300781 298.339844 L 235.734375 297.214844 L 235.171875 296.085938 L 235.171875 288.21875 L 235.734375 287.09375 L 236.300781 286.53125 L 236.863281 285.964844 L 237.425781 284.839844 L 237.980469 284.839844 L 238.539062 284.285156 L 239.101562 283.722656 L 239.664062 283.15625 L 241.351562 283.15625 L 242.480469 282.59375 L 243.042969 282.03125 L 254.851562 282.03125 L 256.542969 282.59375 L 257.667969 283.15625 L 258.230469 283.722656 L 259.359375 283.722656 L 260.484375 284.285156 L 261.046875 284.847656 L 262.171875 285.410156 L 262.738281 285.972656 L 263.300781 286.535156 L 263.863281 287.101562 L 265.550781 288.789062 L 266.117188 289.351562 L 266.679688 289.914062 L 266.679688 290.472656 L 267.234375 291.582031 L 267.234375 292.695312 L 267.796875 294.386719 L 268.359375 295.511719 L 268.925781 296.636719 L 268.925781 297.765625 L 270.050781 300.015625 L 270.613281 301.144531 L 270.613281 304.519531 L 271.175781 306.210938 L 271.738281 306.773438 L 271.738281 310.714844 L 272.300781 311.84375 L 272.300781 327.59375 L 271.738281 328.722656 L 271.738281 330.355469 L 271.175781 330.921875 L 270.191406 331.90625 L 269.6875 332.40625 L 268.5625 332.972656 L 267.4375 334.097656 L 266.882812 334.097656 L 265.769531 334.652344 L 265.207031 335.214844 L 264.082031 335.777344 L 260.773438 335.777344 "/>
<path style="fill:none;stroke-width:2.26;stroke-linecap:round;stroke-linejoin:round;stroke:rgb(0%,100%,0%);stroke-opacity:1;comp-op:src;clip-to-self:true;stroke-miterlimit:10;" d="M 192.535156 301.945312 L 192.273438 302.203125 L 191.9375 302.542969 L 189.714844 304.765625 L 189.714844 305.320312 L 189.160156 305.878906 L 189.160156 306.394531 L 188.621094 306.929688 L 188.058594 307.496094 L 188.058594 311.859375 L 188.433594 312.234375 L 190.957031 312.234375 L 191.445312 312.71875 L 191.019531 313.570312 L 190.492188 313.570312 L 189.953125 314.105469 L 189.390625 315.230469 L 188.265625 315.792969 L 187.703125 316.921875 L 186.578125 317.484375 L 186.578125 317.917969 L 186.175781 318.324219 L 185.714844 318.78125 L 185.714844 322.117188 L 186.269531 322.671875 L 187.269531 323.171875 L 187.621094 323.523438 L 189.296875 323.523438 "/>
<path style="fill:none;stroke-width:2.26;stroke-linecap:round;stroke-linejoin:round;stroke:rgb(0%,100%,0%);stroke-opacity:1;comp-op:src;clip-to-self:true;stroke-miterlimit:10;" d="M 278.117188 306.636719 L 313.566406 306.636719 L 314.695312 307.203125 L 321.175781 307.203125 L 321.65625 307.679688 L 321.65625 310.140625 L 321.09375 311.265625 L 320.527344 311.828125 L 320.527344 313.503906 L 319.964844 314.628906 L 319.964844 317.28125 L 320.460938 317.773438 L 323.136719 317.773438 L 325.507812 317.179688 L 327.300781 316.582031 L 328.992188 316.019531 L 332.933594 316.019531 L 334.058594 315.457031 L 334.621094 314.894531 L 336.257812 314.894531 L 337.949219 314.332031 L 341.328125 314.332031 L 340.34375 313.839844 L 339.984375 313.480469 L 338.878906 312.925781 L 337.824219 312.925781 L 336.699219 311.800781 L 335.570312 311.238281 L 334.445312 310.675781 L 333.882812 310.109375 L 332.195312 308.421875 L 331.628906 307.859375 L 331.066406 307.296875 L 330.503906 306.167969 L 328.867188 304.53125 L 328.867188 304.023438 L 328.507812 303.660156 L 328.003906 303.15625 L 326.878906 302.59375 L 326.3125 302.03125 L 325.773438 301.492188 L 324.035156 301.492188 L 323.542969 301.984375 L 323.109375 302.851562 L 323.109375 307.722656 "/>
<path style="fill:none;stroke-width:2.26;stroke-linecap:round;stroke-linejoin:round;stroke:rgb(0%,100%,0%);stroke-opacity:1;comp-op:src;clip-to-self:true;stroke-miterlimit:10;" d="M 365.054688 324.882812 L 365.054688 322.878906 L 365.617188 321.75 L 365.617188 310.304688 L 365.398438 310.082031 L 356.820312 310.082031 L 356.324219 309.585938 L 356.324219 294.785156 "/>
<path style="fill:none;stroke-width:2.26;stroke-linecap:round;stroke-linejoin:round;stroke:rgb(0%,100%,0%);stroke-opacity:1;comp-op:src;clip-to-self:true;stroke-miterlimit:10;" d="M 364.648438 305.484375 L 364.648438 295.375 "/>
<path style="fill:none;stroke-width:2.26;stroke-linecap:round;stroke-linejoin:round;stroke:rgb(0%,100%,0%);stroke-opacity:1;comp-op:src;clip-to-self:true;stroke-miterlimit:10;" d="M 381.792969 319.4375 L 381.792969 323.871094 L 381.226562 325.558594 L 380.664062 326.6875 L 379.539062 328.9375 L 378.976562 329.5 L 378.976562 330.066406 L 378.414062 331.191406 L 378.414062 331.753906 L 377.847656 332.878906 L 377.285156 334.007812 L 375.035156 336.257812 L 373.980469 336.257812 L 372.855469 336.820312 L 363.84375 336.820312 L 362.71875 336.257812 L 361.027344 336.257812 L 359.902344 335.695312 L 359.339844 334.570312 L 357.648438 334.007812 L 357.085938 333.441406 L 356.523438 332.878906 L 355.960938 331.753906 L 354.835938 330.628906 L 354.269531 330.066406 L 353.707031 329.5 L 353.707031 328.945312 L 353.152344 327.277344 L 353.152344 326.148438 L 352.589844 325.023438 L 352.023438 324.460938 L 352.023438 322.785156 L 351.460938 321.660156 L 351.460938 319.40625 L 350.898438 318.28125 L 350.335938 317.152344 L 349.773438 316.027344 L 349.773438 314.953125 L 349.210938 313.828125 L 348.648438 313.265625 L 348.082031 312.140625 L 347.519531 310.449219 L 346.957031 309.886719 L 346.394531 308.761719 L 346.394531 308.203125 L 345.839844 307.09375 L 345.273438 306.53125 L 344.710938 305.402344 L 344.710938 300.914062 L 344.148438 299.785156 L 343.585938 298.660156 L 343.585938 295.949219 L 344.140625 294.835938 L 344.703125 294.273438 L 345.269531 293.710938 L 345.832031 292.585938 L 346.386719 292.585938 L 347.5 292.027344 L 348.0625 291.464844 L 350.3125 290.339844 L 350.878906 289.777344 L 352.003906 289.214844 L 352.558594 289.214844 L 354.226562 288.65625 L 354.789062 288.09375 L 355.917969 287.53125 L 356.480469 287.53125 L 357.605469 286.96875 L 358.167969 286.40625 L 368.160156 286.40625 L 369.285156 286.96875 L 369.847656 287.53125 L 370.972656 288.09375 L 371.539062 288.65625 L 372.101562 289.21875 L 372.101562 289.785156 L 372.664062 290.910156 L 373.226562 291.472656 L 373.789062 292.597656 L 374.351562 293.164062 L 374.914062 293.726562 L 375.480469 294.289062 L 375.480469 295.398438 L 376.042969 297.089844 L 377.167969 298.214844 L 377.730469 299.339844 L 378.292969 300.46875 L 378.859375 301.03125 L 379.421875 302.15625 L 379.984375 302.71875 L 380.546875 303.847656 L 381.671875 304.972656 L 381.671875 306.050781 L 382.183594 306.558594 L 382.183594 308.753906 L 382.746094 309.878906 L 383.277344 310.410156 L 383.277344 314.335938 L 382.769531 315.347656 L 382.207031 315.910156 L 382.207031 316.910156 L 381.652344 318.019531 L 381.652344 318.546875 "/>
<path style="fill:none;stroke-width:2.26;stroke-linecap:round;stroke-linejoin:round;stroke:rgb(0%,100%,0%);stroke-opacity:1;comp-op:src;clip-to-self:true;stroke-miterlimit:10;" d="M 290.949219 294.457031 L 291.359375 294.046875 L 291.359375 284.390625 L 290.796875 283.261719 L 290.230469 282.699219 L 290.230469 272.339844 L 290.605469 271.964844 L 294.308594 271.964844 L 295.4375 272.527344 L 295.992188 272.527344 L 297.105469 273.082031 L 297.667969 273.648438 L 298.222656 273.648438 L 299.335938 274.203125 L 300.460938 274.765625 L 301.585938 275.890625 L 302.105469 275.890625 L 303.179688 276.429688 L 303.179688 276.957031 L 303.707031 278.007812 L 304.269531 278.570312 L 304.269531 281.222656 L 303.707031 281.785156 L 303.140625 282.347656 L 301.523438 282.347656 L 300.398438 283.472656 L 293.59375 283.472656 L 294.164062 283.757812 L 296.347656 283.757812 L 297.476562 284.320312 L 298.039062 284.882812 L 298.929688 284.882812 L 299.453125 285.40625 L 299.453125 286.976562 L 300.015625 288.101562 L 300.578125 288.667969 L 300.578125 291.269531 L 300.074219 291.773438 L 298.519531 291.773438 L 297.957031 292.335938 L 297.394531 292.902344 L 296.265625 293.464844 L 291.136719 293.464844 "/>
<path style="fill:none;stroke-width:2.26;stroke-linecap:round;stroke-linejoin:round;stroke:rgb(0%,100%,0%);stroke-opacity:1;comp-op:src;clip-to-self:true;stroke-miterlimit:10;" d="M 384.238281 328.621094 L 384.238281 328.621094 "/>
<path style="fill:none;stroke-width:2.26;stroke-linecap:round;stroke-linejoin:round;stroke:rgb(0%,100%,0%);stroke-opacity:1;comp-op:src;clip-to-self:true;stroke-miterlimit:10;" d="M 385.117188 329.496094 L 386.242188 330.621094 L 386.804688 331.1875 L 387.929688 332.3125 L 389.058594 332.875 L 390.183594 334 L 390.746094 334.566406 L 391.308594 335.128906 L 391.875 335.691406 L 393 336.253906 L 394.117188 337.371094 L 395.097656 337.863281 L 395.621094 338.90625 L 396.75 339.472656 L 396.75 339.996094 L 397.285156 340.535156 L 398.410156 341.097656 L 398.410156 341.652344 L 400.09375 343.335938 L 400.09375 343.871094 L 400.628906 344.945312 L 401.617188 345.933594 L 402.148438 346.996094 L 403.273438 347.558594 L 403.273438 348.113281 L 403.832031 348.667969 L 404.957031 349.234375 L 404.957031 349.65625 "/>
<path style="fill:none;stroke-width:2.26;stroke-linecap:round;stroke-linejoin:round;stroke:rgb(0%,100%,0%);stroke-opacity:1;comp-op:src;clip-to-self:true;stroke-miterlimit:10;" d="M 409.195312 351.539062 L 408.714844 351.058594 L 407.398438 351.058594 L 406.273438 352.183594 L 405.707031 352.746094 L 405.144531 353.3125 L 403.046875 355.410156 L 402.484375 356.535156 L 401.917969 357.097656 L 401.371094 358.199219 L 401.371094 358.613281 L 401.644531 358.886719 L 407.625 358.886719 L 408.1875 359.453125 L 408.753906 360.015625 L 409.878906 360.015625 L 411.003906 360.578125 L 413.050781 360.578125 L 414.164062 361.132812 L 414.726562 361.695312 L 415.253906 361.695312 L 416.519531 361.195312 L 417.085938 360.632812 L 417.648438 359.507812 L 418.210938 358.945312 L 418.773438 357.816406 L 419.335938 357.253906 L 419.886719 356.15625 L 420.335938 355.703125 L 420.335938 354.902344 L 420.835938 353.902344 L 413.441406 353.902344 L 412.316406 354.464844 L 407.921875 354.464844 L 407.355469 355.027344 L 406.792969 355.59375 L 406.238281 355.59375 "/>
<path style="fill:none;stroke-width:2.26;stroke-linecap:round;stroke-linejoin:round;stroke:rgb(0%,100%,0%);stroke-opacity:1;comp-op:src;clip-to-self:true;stroke-miterlimit:10;" d="M 418.34375 386.316406 L 430.210938 386.316406 L 430.699219 385.824219 L 430.699219 385.308594 L 431.234375 384.773438 L 431.785156 384.21875 L 431.785156 382.828125 L 431.222656 381.699219 L 430.097656 381.136719 L 430.097656 380.058594 L 429.542969 378.949219 L 429.011719 378.417969 L 419.199219 378.417969 L 418.691406 377.914062 L 418.691406 377.050781 "/>
<path style="fill:none;stroke-width:2.26;stroke-linecap:round;stroke-linejoin:round;stroke:rgb(0%,100%,0%);stroke-opacity:1;comp-op:src;clip-to-self:true;stroke-miterlimit:10;" d="M 419.253906 373.109375 L 419.253906 372.546875 L 419.816406 371.417969 L 420.382812 370.855469 "/>
<path style="fill:none;stroke-width:2.26;stroke-linecap:round;stroke-linejoin:round;stroke:rgb(0%,100%,0%);stroke-opacity:1;comp-op:src;clip-to-self:true;stroke-miterlimit:10;" d="M 420.382812 370.855469 L 420.890625 370.347656 L 424.644531 370.347656 "/>
<path style="fill:none;stroke-width:2.26;stroke-linecap:round;stroke-linejoin:round;stroke:rgb(0%,100%,0%);stroke-opacity:1;comp-op:src;clip-to-self:true;stroke-miterlimit:10;" d="M 424.644531 370.347656 L 424.644531 370.347656 "/>
<path style="fill:none;stroke-width:2.26;stroke-linecap:round;stroke-linejoin:round;stroke:rgb(0%,100%,0%);stroke-opacity:1;comp-op:src;clip-to-self:true;stroke-miterlimit:10;" d="M 416.386719 305.421875 L 416.386719 305.421875 "/>
<path style="fill:none;stroke-width:2.26;stroke-linecap:round;stroke-linejoin:round;stroke:rgb(0%,100%,0%);stroke-opacity:1;comp-op:src;clip-to-self:true;stroke-miterlimit:10;" d="M 416.386719 305.421875 L 416.386719 305.898438 L 415.976562 306.304688 L 415.414062 306.871094 L 414.851562 307.433594 L 414.324219 307.433594 L 413.796875 307.960938 L 413.265625 308.488281 L 412.765625 308.992188 L 411.125 310.632812 L 410.59375 311.160156 L 410.203125 311.554688 L 410.203125 316.832031 L 410.625 317.253906 L 414.402344 317.253906 L 414.964844 317.816406 L 416.089844 318.378906 L 416.515625 318.804688 L 415.507812 319.304688 L 414.382812 319.871094 L 412.707031 319.871094 L 411.582031 320.433594 L 411.054688 320.433594 L 410.78125 320.707031 L 410.78125 327.121094 L 413.007812 329.347656 L 414.597656 329.347656 L 415.722656 329.910156 L 416.261719 330.449219 L 417.519531 330.449219 "/>
<path style="fill:none;stroke-width:2.26;stroke-linecap:round;stroke-linejoin:round;stroke:rgb(0%,100%,0%);stroke-opacity:1;comp-op:src;clip-to-self:true;stroke-miterlimit:10;" d="M 434.902344 392.257812 L 434.394531 393.277344 L 430 393.277344 L 428.875 393.839844 L 428.308594 394.402344 L 418.90625 394.402344 L 417.78125 393.839844 L 417.21875 393.277344 L 416.09375 392.710938 L 415.535156 392.710938 L 414.425781 392.15625 L 413.859375 391.59375 L 413.296875 391.03125 L 412.171875 390.46875 L 412.171875 389.910156 L 411.617188 389.355469 L 411.617188 388.800781 L 411.058594 387.132812 L 410.496094 386.566406 L 410.496094 379.261719 L 411.058594 378.136719 L 411.625 377.574219 L 411.625 375.90625 L 412.1875 374.777344 L 412.1875 374.222656 L 412.742188 373.109375 L 413.304688 372.546875 L 413.304688 371.992188 L 413.863281 370.878906 L 413.863281 370.324219 L 414.417969 369.210938 L 415.542969 368.085938 L 416.105469 366.957031 L 416.671875 366.394531 L 417.222656 365.84375 L 417.222656 365.332031 L 417.777344 364.21875 L 418.34375 363.65625 L 418.90625 363.09375 L 418.90625 362.535156 L 419.460938 361.425781 L 422.136719 358.75 L 422.699219 357.621094 L 423.8125 357.621094 L 424.9375 357.058594 L 426.066406 356.496094 L 430.554688 356.496094 L 431.679688 357.058594 L 432.808594 357.621094 L 434.480469 357.621094 L 435.609375 358.1875 L 436.734375 358.75 L 437.296875 359.875 L 438.425781 360.4375 L 438.988281 361 L 439.550781 362.128906 L 440.113281 362.691406 L 440.113281 363.816406 L 440.675781 365.507812 L 440.675781 367.757812 L 441.238281 369.449219 L 441.804688 370.574219 L 441.804688 376.496094 L 441.246094 377.609375 L 440.121094 378.734375 L 439.558594 379.859375 L 438.996094 380.421875 L 438.429688 380.984375 L 438.429688 381.550781 L 437.867188 382.675781 L 436.742188 383.800781 L 436.179688 385.492188 L 435.617188 386.054688 L 435.617188 386.589844 L 435.078125 387.664062 L 435.078125 388.191406 L 433.988281 390.371094 L 433.988281 391.449219 L 433.433594 392.558594 L 433.433594 394.207031 "/>
<path style="fill:none;stroke-width:2.26;stroke-linecap:round;stroke-linejoin:round;stroke:rgb(0%,100%,0%);stroke-opacity:1;comp-op:src;clip-to-self:true;stroke-miterlimit:10;" d="M 199.148438 389.785156 L 199.148438 390.265625 L 199.648438 391.269531 L 200.210938 391.832031 L 200.210938 392.394531 L 200.773438 393.519531 L 200.773438 394.648438 L 201.335938 396.335938 L 201.898438 396.898438 L 202.464844 397.460938 L 202.464844 398.019531 L 203.558594 399.113281 L 203.949219 399.507812 L 203.949219 400.851562 L 204.515625 401.414062 L 205.078125 401.976562 L 205.601562 402.503906 L 205.601562 402.882812 L 206.691406 403.972656 L 206.691406 404.511719 L 207.230469 405.046875 L 207.230469 405.5625 L 207.746094 406.597656 L 208.296875 407.152344 L 208.851562 408.257812 L 208.851562 408.777344 L 209.324219 409.25 L 210.320312 409.746094 L 212.808594 412.234375 L 213.9375 412.800781 L 214.492188 412.800781 L 214.9375 413.242188 L 215.265625 413.574219 "/>
<path style="fill:none;stroke-width:2.26;stroke-linecap:round;stroke-linejoin:round;stroke:rgb(0%,100%,0%);stroke-opacity:1;comp-op:src;clip-to-self:true;stroke-miterlimit:10;" d="M 213.769531 417.53125 L 214.269531 417.03125 L 215.0625 416.503906 L 216.1875 415.378906 L 217.316406 414.816406 L 217.878906 414.25 L 218.441406 413.6875 L 219.375 413.6875 L 220.351562 414.175781 L 220.855469 415.183594 L 221.421875 415.746094 L 221.984375 416.3125 L 223.671875 418 L 224.234375 419.691406 L 224.796875 420.253906 L 225.363281 420.816406 L 225.363281 421.371094 L 225.917969 422.484375 L 226.46875 423.035156 L 227.023438 424.140625 L 227.023438 424.679688 L 226.722656 424.980469 L 224.128906 424.980469 L 223.003906 424.417969 L 221.878906 423.292969 L 221.359375 423.292969 L 220.285156 422.753906 L 219.722656 421.628906 L 219.167969 421.628906 L 218.054688 421.074219 L 217.492188 420.507812 L 216.410156 419.96875 L 215.417969 419.472656 "/>
<path style="fill:none;stroke-width:2.26;stroke-linecap:round;stroke-linejoin:round;stroke:rgb(0%,100%,0%);stroke-opacity:1;comp-op:src;clip-to-self:true;stroke-miterlimit:10;" d="M 251.832031 415.101562 L 251.347656 414.617188 L 250.5 415.042969 L 249.945312 415.59375 L 249.394531 416.148438 L 248.832031 416.710938 L 248.265625 417.273438 L 247.703125 417.835938 L 247.140625 418.402344 L 246.015625 418.964844 L 245.453125 419.527344 L 244.886719 420.089844 L 241.617188 423.359375 L 241.617188 424.386719 L 241.054688 425.511719 L 240.492188 426.078125 L 240.492188 428.328125 L 239.929688 429.453125 L 239.929688 436.652344 L 240.464844 437.726562 L 241.003906 438.265625 L 250.824219 438.265625 L 251.351562 437.738281 L 251.351562 432.539062 L 250.789062 430.847656 L 250.222656 430.285156 L 249.660156 429.160156 L 249.660156 428.046875 L 249.097656 426.921875 L 248.546875 426.367188 L 247.613281 425.902344 L 247.074219 425.363281 L 246.546875 425.363281 L 245.492188 424.835938 L 243.804688 424.835938 L 242.675781 424.273438 L 242.113281 423.707031 "/>
<path style="fill:none;stroke-width:2.26;stroke-linecap:round;stroke-linejoin:round;stroke:rgb(0%,100%,0%);stroke-opacity:1;comp-op:src;clip-to-self:true;stroke-miterlimit:10;" d="M 242.113281 423.707031 L 242.113281 423.707031 "/>
<path style="fill:none;stroke-width:2.26;stroke-linecap:round;stroke-linejoin:round;stroke:rgb(0%,100%,0%);stroke-opacity:1;comp-op:src;clip-to-self:true;stroke-miterlimit:10;" d="M 237.296875 445.636719 L 236.730469 445.074219 L 236.730469 444.558594 L 236.195312 443.484375 L 235.632812 442.921875 L 235.070312 441.796875 L 235.070312 440.683594 L 234.507812 439.558594 L 233.941406 438.429688 L 233.378906 437.304688 L 233.378906 423.804688 L 233.941406 422.113281 L 233.941406 420.425781 L 234.507812 418.734375 L 235.070312 418.171875 L 235.070312 417.609375 L 235.632812 416.484375 L 236.195312 415.355469 L 236.757812 414.792969 L 236.757812 414.230469 L 237.882812 411.980469 L 239.011719 410.851562 L 241.261719 409.726562 L 241.828125 409.164062 L 244.078125 409.164062 L 245.207031 408.601562 L 246.332031 408.035156 L 257.59375 408.035156 L 258.71875 408.601562 L 259.28125 409.164062 L 260.394531 409.164062 L 260.957031 409.726562 L 261.484375 409.726562 L 262.539062 410.253906 L 263.101562 411.378906 L 264.226562 412.503906 L 264.226562 413.632812 L 264.789062 415.320312 "/>
<path style="fill:none;stroke-width:2.26;stroke-linecap:round;stroke-linejoin:round;stroke:rgb(0%,100%,0%);stroke-opacity:1;comp-op:src;clip-to-self:true;stroke-miterlimit:10;" d="M 265.355469 417.011719 L 265.355469 418.699219 L 265.917969 420.390625 L 265.917969 435.59375 L 265.367188 436.691406 L 264.917969 437.144531 L 263.816406 438.246094 L 262.714844 438.796875 "/>
<path style="fill:none;stroke-width:2.26;stroke-linecap:round;stroke-linejoin:round;stroke:rgb(0%,100%,0%);stroke-opacity:1;comp-op:src;clip-to-self:true;stroke-miterlimit:10;" d="M 261.039062 440.472656 L 260.476562 441.035156 "/>
<path style="fill:none;stroke-width:2.26;stroke-linecap:round;stroke-linejoin:round;stroke:rgb(0%,100%,0%);stroke-opacity:1;comp-op:src;clip-to-self:true;stroke-miterlimit:10;" d="M 257.28125 442.640625 L 256.726562 443.191406 L 256.164062 443.757812 L 255.601562 444.320312 L 254.539062 444.847656 L 251.851562 444.847656 L 251.289062 445.414062 L 250.726562 445.976562 L 240.492188 445.976562 L 239.929688 445.414062 L 239.367188 444.847656 "/>
<path style="fill:none;stroke-width:2.26;stroke-linecap:round;stroke-linejoin:round;stroke:rgb(0%,100%,0%);stroke-opacity:1;comp-op:src;clip-to-self:true;stroke-miterlimit:10;" d="M 195.164062 410.910156 L 194.867188 410.613281 L 194.644531 410.839844 L 194.074219 411.125 L 193.667969 411.53125 L 193.207031 411.988281 L 192.871094 411.988281 L 191.347656 413.511719 L 190.496094 413.9375 L 189.957031 414.480469 L 189.957031 417.664062 L 190.511719 418.21875 L 191.078125 418.78125 L 191.640625 419.90625 L 193.53125 419.90625 L 189.878906 419.90625 L 189.316406 420.472656 L 188.765625 421.023438 L 187.789062 421.023438 L 186.71875 421.558594 L 186.71875 426.621094 L 188.183594 428.085938 L 188.183594 428.496094 L 188.625 429.382812 L 189.175781 429.933594 L 189.703125 429.933594 L 190.753906 430.460938 "/>
<path style="fill:none;stroke-width:2.26;stroke-linecap:round;stroke-linejoin:round;stroke:rgb(0%,100%,0%);stroke-opacity:1;comp-op:src;clip-to-self:true;stroke-miterlimit:10;" d="M 273.523438 423.191406 L 309.367188 423.191406 L 310.492188 423.753906 L 312.734375 423.753906 "/>
<path style="fill:none;stroke-width:2.26;stroke-linecap:round;stroke-linejoin:round;stroke:rgb(0%,100%,0%);stroke-opacity:1;comp-op:src;clip-to-self:true;stroke-miterlimit:10;" d="M 297.996094 404.058594 L 293.816406 404.058594 L 293.300781 404.574219 L 292.328125 404.574219 L 291.292969 405.609375 L 290.738281 405.609375 L 290.183594 406.164062 L 289.671875 406.164062 L 288.664062 407.171875 L 288.664062 408.246094 L 288.097656 408.808594 L 287.535156 409.371094 L 287.535156 410.425781 L 286.972656 410.992188 L 286.972656 413.730469 L 287.527344 414.289062 L 287.527344 415.363281 L 288.085938 415.917969 L 288.648438 416.484375 L 289.210938 417.046875 L 289.730469 417.046875 L 290.265625 417.582031 L 299.390625 417.582031 "/>
<path style="fill:none;stroke-width:2.26;stroke-linecap:round;stroke-linejoin:round;stroke:rgb(0%,100%,0%);stroke-opacity:1;comp-op:src;clip-to-self:true;stroke-miterlimit:10;" d="M 315.285156 413.402344 L 315.285156 434.046875 L 315.558594 434.316406 L 316.5625 433.816406 L 317.6875 433.25 L 318.25 432.6875 L 319.375 432.125 L 321.066406 431.5625 L 322.191406 431 L 323.898438 429.863281 L 325.679688 428.671875 L 326.816406 428.105469 L 327.941406 427.542969 L 328.507812 426.417969 L 329.632812 425.851562 L 330.167969 425.851562 L 331.242188 425.316406 L 330.738281 424.308594 L 329.109375 422.679688 L 327.984375 422.117188 L 326.855469 421.554688 L 326.292969 420.992188 L 325.730469 420.425781 L 325.167969 419.863281 L 324.605469 418.738281 L 324.039062 418.175781 L 323.476562 417.613281 L 322.914062 416.484375 L 321.789062 415.359375 L 321.226562 414.234375 L 320.664062 413.667969 L 320.109375 413.117188 L 319.703125 412.710938 L 316.546875 412.710938 L 316.226562 412.390625 "/>
<path style="fill:none;stroke-width:2.26;stroke-linecap:round;stroke-linejoin:round;stroke:rgb(0%,100%,0%);stroke-opacity:1;comp-op:src;clip-to-self:true;stroke-miterlimit:10;" d="M 350.609375 435.609375 L 350.609375 428.605469 L 350.046875 427.476562 L 349.480469 426.351562 L 349.480469 425.789062 L 348.917969 424.097656 L 348.917969 420.71875 L 348.355469 419.59375 L 347.792969 419.03125 L 347.792969 416.777344 L 347.230469 415.652344 L 347.230469 408.953125 L 346.746094 408.46875 L 336.84375 408.46875 "/>
<path style="fill:none;stroke-width:2.26;stroke-linecap:round;stroke-linejoin:round;stroke:rgb(0%,100%,0%);stroke-opacity:1;comp-op:src;clip-to-self:true;stroke-miterlimit:10;" d="M 342.15625 420.777344 L 357.265625 420.777344 "/>
<path style="fill:none;stroke-width:2.26;stroke-linecap:round;stroke-linejoin:round;stroke:rgb(0%,100%,0%);stroke-opacity:1;comp-op:src;clip-to-self:true;stroke-miterlimit:10;" d="M 358.796875 440.835938 L 358.796875 441.394531 L 358.371094 441.820312 L 357.472656 442.269531 L 356.910156 442.832031 L 343.972656 442.832031 L 342.847656 442.269531 L 342.285156 441.707031 L 340.046875 441.707031 L 338.917969 441.144531 L 337.792969 440.582031 L 337.230469 440.019531 L 336.105469 438.890625 L 335.542969 438.328125 L 334.976562 437.765625 L 333.851562 437.203125 L 333.851562 436.644531 L 333.296875 435.53125 L 332.730469 434.96875 L 332.167969 433.84375 L 331.605469 433.28125 L 331.042969 432.15625 L 330.480469 431.589844 L 330.480469 431.027344 L 329.917969 429.902344 L 329.355469 429.339844 L 328.789062 428.777344 L 328.789062 427.101562 L 328.226562 425.972656 L 327.664062 425.410156 L 327.664062 424.300781 L 327.101562 423.171875 L 327.101562 421.492188 L 326.625 420.539062 L 326.625 420.121094 L 326.089844 419.046875 L 326.089844 412.988281 L 326.652344 411.863281 L 327.214844 411.300781 L 327.214844 407.996094 L 327.769531 406.882812 L 327.769531 406.363281 L 328.292969 405.320312 L 328.855469 404.757812 L 329.40625 404.203125 L 329.960938 403.652344 L 332.761719 403.652344 L 333.890625 403.089844 L 337.816406 403.089844 L 338.941406 402.527344 L 340.070312 401.960938 L 349.640625 401.960938 L 350.769531 402.527344 L 351.894531 403.089844 L 353.007812 403.089844 L 354.132812 403.652344 L 354.6875 403.652344 L 355.800781 404.207031 L 356.363281 404.769531 L 356.925781 405.335938 L 357.488281 405.898438 L 358.054688 406.460938 L 359.179688 407.023438 L 359.742188 407.585938 L 359.742188 409.839844 L 360.304688 410.964844 L 360.867188 411.527344 L 360.867188 414.34375 L 361.429688 416.035156 L 361.429688 417.722656 L 361.996094 419.410156 L 362.558594 420.539062 L 362.558594 430.675781 L 361.996094 431.800781 L 361.429688 432.925781 L 361.429688 433.484375 L 360.875 434.039062 L 360.875 435.113281 L 360.3125 436.238281 L 359.75 436.800781 L 359.207031 437.882812 L 359.207031 438.929688 L 358.644531 440.054688 L 358.082031 440.617188 L 357.519531 441.742188 L 357.519531 443.332031 L 356.957031 443.894531 L 356.390625 444.457031 "/>
<path style="fill:none;stroke-width:2.26;stroke-linecap:round;stroke-linejoin:round;stroke:rgb(0%,100%,0%);stroke-opacity:1;comp-op:src;clip-to-self:true;stroke-miterlimit:10;" d="M 356.390625 444.457031 L 356.390625 444.457031 "/>
<path style="fill:none;stroke-width:2.26;stroke-linecap:round;stroke-linejoin:round;stroke:rgb(0%,100%,0%);stroke-opacity:1;comp-op:src;clip-to-self:true;stroke-miterlimit:10;" d="M 371.695312 423.773438 L 371.914062 423.554688 L 372.390625 423.554688 L 374.640625 422.429688 L 375.207031 421.304688 L 376.332031 420.738281 L 377.457031 419.613281 L 378.585938 419.050781 L 379.710938 418.488281 L 380.273438 417.925781 L 380.835938 417.359375 L 381.964844 416.796875 L 382.527344 416.796875 L 384.777344 415.671875 L 385.90625 415.109375 L 386.46875 414.546875 L 387.03125 413.980469 L 387.5625 413.453125 L 388.527344 413.453125 L 389.039062 412.941406 L 389.550781 412.941406 L 390.664062 412.386719 L 391.21875 412.386719 L 392.886719 411.828125 L 394.5625 411.828125 L 395.6875 411.265625 L 396.8125 410.140625 L 397.9375 410.140625 L 399.066406 409.578125 L 399.628906 409.011719 L 400.097656 409.011719 L 400.621094 408.492188 L 401.15625 408.492188 L 402.835938 407.652344 L 404.523438 405.964844 L 405.648438 405.402344 L 406.210938 404.839844 "/>
<path style="fill:none;stroke-width:2.26;stroke-linecap:round;stroke-linejoin:round;stroke:rgb(0%,100%,0%);stroke-opacity:1;comp-op:src;clip-to-self:true;stroke-miterlimit:10;" d="M 396.832031 397.328125 L 397.335938 397.832031 L 398.339844 398.332031 L 399.46875 398.894531 L 400.03125 400.023438 L 400.59375 400.585938 L 401.15625 401.710938 L 401.71875 402.273438 L 402.28125 403.402344 L 402.84375 403.964844 L 403.410156 404.527344 L 404.535156 405.089844 L 405.097656 405.652344 L 405.660156 406.78125 L 406.222656 407.34375 L 406.789062 407.90625 L 407.914062 409.03125 L 409.039062 409.59375 L 409.601562 410.160156 L 410.167969 410.722656 L 411.855469 412.410156 L 412.40625 412.964844 L 412.40625 413.386719 L 412.707031 413.683594 L 413.015625 413.996094 L 413.371094 413.996094 L 414.425781 414.523438 L 414.425781 413.53125 L 414.988281 412.402344 L 414.988281 410.179688 L 415.550781 409.054688 L 416.117188 407.925781 L 416.679688 407.363281 L 416.679688 406.800781 L 417.242188 405.675781 L 417.804688 405.113281 L 417.804688 404.589844 L 417.546875 404.070312 L 416.035156 403.566406 L 415.46875 403.003906 L 414.34375 402.441406 L 413.78125 401.878906 L 412.65625 401.316406 L 412.089844 400.75 L 410.964844 400.1875 L 409.277344 398.5 L 408.710938 397.9375 L 408.148438 397.375 L 407.023438 396.808594 L 405.898438 395.683594 L 404.769531 395.121094 L 404.207031 394.558594 L 403.652344 394.558594 L 403.097656 394 L 402.558594 394 L 401.484375 393.464844 L 400.921875 392.339844 L 399.796875 391.777344 L 399.234375 390.648438 L 398.109375 390.085938 L 398.109375 389.53125 L 397.550781 388.417969 L 396.988281 387.855469 L 396.988281 403.441406 "/>
<path style="fill:none;stroke-width:2.26;stroke-linecap:round;stroke-linejoin:round;stroke:rgb(0%,100%,0%);stroke-opacity:1;comp-op:src;clip-to-self:true;stroke-miterlimit:10;" d="M 393.144531 421.679688 L 393.40625 421.941406 L 392.566406 422.78125 L 392.03125 423.847656 L 391.6875 424.191406 L 390.914062 424.582031 L 390.914062 424.996094 L 390.425781 425.484375 L 389.980469 425.925781 L 389.980469 426.3125 L 389.425781 426.867188 L 389.425781 427.425781 L 389.808594 428.191406 L 394.761719 428.191406 L 394.503906 428.445312 L 394.003906 428.949219 L 393.4375 429.511719 L 392.3125 430.074219 L 391.75 431.199219 L 391.75 432.222656 L 391.1875 432.789062 L 390.0625 433.914062 L 390.0625 438.015625 L 390.625 439.140625 L 391.105469 439.140625 L 392.144531 439.660156 L 392.683594 440.199219 L 394.589844 440.199219 L 395.148438 440.757812 L 397.78125 440.757812 L 398.859375 440.214844 L 399.34375 440.214844 L 400.417969 439.679688 L 401.542969 438.554688 L 402.101562 438.554688 "/>
<path style="fill:none;stroke-width:2.26;stroke-linecap:round;stroke-linejoin:round;stroke:rgb(0%,100%,0%);stroke-opacity:1;comp-op:src;clip-to-self:true;stroke-miterlimit:10;" d="M 448.375 375.128906 L 486.511719 375.128906 "/>
<path style="fill:none;stroke-width:2.26;stroke-linecap:round;stroke-linejoin:round;stroke:rgb(0%,100%,0%);stroke-opacity:1;comp-op:src;clip-to-self:true;stroke-miterlimit:10;" d="M 521.515625 378.382812 L 521.835938 378.699219 L 525.789062 378.699219 L 526.914062 377.574219 L 527.441406 377.050781 L 528.203125 376.667969 L 528.726562 375.617188 L 528.726562 374.617188 L 529.285156 374.0625 L 529.285156 372.023438 L 528.722656 370.335938 L 528.15625 368.644531 L 527.03125 367.519531 L 527.03125 366.40625 L 526.46875 365.28125 L 523.652344 362.464844 L 522.527344 361.902344 L 521.402344 360.777344 L 520.273438 360.214844 L 519.710938 359.085938 L 519.148438 357.960938 L 518.585938 357.398438 L 518.023438 356.269531 L 517.460938 355.144531 L 516.894531 354.582031 L 516.894531 352.90625 L 515.769531 351.78125 L 515.769531 350.859375 L 516.304688 349.785156 L 516.871094 349.222656 L 517.433594 348.660156 L 517.996094 347.535156 L 524.617188 347.535156 L 525.746094 348.097656 L 526.871094 348.660156 L 527.433594 349.222656 L 527.96875 350.292969 L 528.503906 350.828125 L 528.503906 351.941406 L 529.066406 353.066406 L 529.066406 363.179688 L 528.503906 364.308594 L 528.503906 365.96875 L 528.117188 366.355469 L 527.054688 366.886719 L 527.054688 367.441406 L 526.5 368 L 525.9375 368.5625 L 525.382812 369.113281 L 524.925781 369.574219 L 523.261719 371.238281 L 522.132812 371.800781 L 521.21875 372.714844 L 520.855469 373.445312 L 520.472656 373.824219 L 519.945312 374.886719 L 519.945312 379.824219 L 520.507812 380.953125 L 521.070312 381.515625 L 526.070312 381.515625 "/>
<path style="fill:none;stroke-width:2.26;stroke-linecap:round;stroke-linejoin:round;stroke:rgb(0%,100%,0%);stroke-opacity:1;comp-op:src;clip-to-self:true;stroke-miterlimit:10;" d="M 525.855469 389.46875 L 525.007812 388.621094 L 523.339844 388.621094 L 521.648438 388.054688 L 521.085938 387.492188 L 520.523438 387.492188 L 518.832031 386.929688 L 516.582031 385.804688 L 516.019531 385.242188 L 515.453125 385.242188 L 514.328125 384.675781 L 513.203125 384.113281 L 512.640625 383.550781 L 512.074219 382.988281 L 512.074219 382.433594 L 511.519531 381.875 L 510.957031 381.3125 L 510.394531 380.1875 L 510.394531 379.074219 L 509.832031 377.949219 L 509.269531 377.386719 L 509.269531 376.257812 L 508.703125 375.132812 L 508.703125 371.207031 L 508.140625 370.078125 L 507.578125 369.515625 L 507.578125 355.46875 L 508.140625 354.34375 L 508.703125 353.777344 L 509.269531 352.652344 L 509.269531 351.527344 L 509.832031 350.398438 L 510.394531 349.273438 L 510.957031 347.585938 L 511.519531 347.019531 L 512.082031 346.457031 L 512.082031 345.902344 L 512.640625 344.789062 L 513.746094 343.683594 L 514.871094 343.121094 L 515.949219 343.121094 L 517.058594 342.566406 L 517.625 342.003906 L 523.179688 342.003906 L 524.871094 342.566406 L 525.433594 343.128906 L 526.558594 343.691406 L 527.6875 343.691406 L 528.8125 344.253906 L 529.375 344.816406 L 529.9375 345.382812 L 531.066406 345.945312 L 533.316406 347.070312 L 533.878906 347.632812 L 535.007812 348.195312 L 535.570312 349.324219 L 536.695312 349.886719 L 537.257812 350.449219 L 537.824219 351.011719 L 538.386719 352.703125 L 538.949219 353.265625 L 539.511719 354.390625 L 540.074219 356.082031 L 540.636719 356.644531 L 541.199219 357.769531 L 541.199219 358.894531 L 541.765625 360.023438 L 542.328125 361.148438 L 542.328125 374.664062 L 541.765625 376.351562 L 541.199219 376.914062 L 540.636719 378.042969 L 540.074219 379.730469 L 539.511719 380.292969 L 538.949219 381.421875 L 538.386719 383.109375 L 537.824219 383.671875 L 537.257812 384.234375 L 536.695312 385.363281 L 535.570312 386.488281 L 535.570312 387.042969 L 535.015625 387.601562 L 534.449219 388.164062 L 533.492188 389.121094 L 532.972656 389.644531 L 532.414062 389.644531 L 531.304688 390.199219 L 525.121094 390.199219 "/>
<path style="fill:none;stroke-width:2.26;stroke-linecap:round;stroke-linejoin:round;stroke:rgb(0%,100%,0%);stroke-opacity:1;comp-op:src;clip-to-self:true;stroke-miterlimit:10;" d="M 531.582031 398.320312 L 530.070312 398.320312 L 528.382812 397.757812 L 527.257812 397.191406 L 525.566406 397.191406 L 524.441406 396.628906 L 523.3125 396.628906 L 521.625 396.066406 L 521.0625 395.503906 L 519.9375 394.941406 L 519.378906 394.941406 L 518.265625 394.382812 L 517.703125 393.820312 L 516.578125 393.257812 L 514.886719 392.695312 L 514.324219 392.132812 L 513.761719 391.007812 L 513.199219 390.441406 L 511.511719 388.753906 L 510.945312 388.191406 L 510.382812 387.628906 L 510.382812 387.070312 L 509.828125 385.957031 L 509.265625 385.394531 L 508.699219 384.832031 L 508.148438 384.28125 L 507.597656 383.726562 L 507.03125 382.601562 L 506.46875 382.039062 L 505.90625 380.910156 L 505.34375 380.347656 L 505.34375 379.222656 L 504.78125 377.53125 L 504.21875 376.96875 L 504.21875 376.40625 L 503.652344 375.28125 L 503.652344 374.167969 L 503.089844 373.042969 L 502.527344 372.480469 L 502.527344 370.804688 L 501.964844 369.113281 L 501.402344 368.550781 L 500.839844 367.425781 L 500.839844 364.609375 L 500.277344 363.484375 L 500.277344 347.789062 L 500.839844 346.664062 L 500.839844 346.097656 L 501.402344 344.410156 L 501.964844 343.285156 L 501.964844 342.722656 L 502.527344 341.59375 L 502.527344 340.46875 L 503.089844 339.34375 L 503.652344 338.777344 L 504.21875 338.214844 L 504.21875 337.652344 L 504.78125 336.527344 L 505.34375 335.964844 L 505.90625 334.835938 L 507.03125 333.710938 L 507.597656 333.148438 L 508.058594 332.683594 L 509.09375 332.167969 L 510.222656 331.039062 L 511.347656 331.039062 L 513.039062 330.476562 L 513.601562 329.914062 L 524.863281 329.914062 L 526.550781 330.476562 L 527.113281 331.039062 L 527.679688 331.039062 L 529.367188 331.601562 L 530.492188 332.167969 L 531.621094 332.730469 L 532.746094 333.292969 L 534.4375 333.855469 L 536.6875 334.980469 L 537.25 334.980469 L 538.941406 335.546875 L 540.066406 336.671875 L 541.757812 337.796875 L 542.882812 338.921875 L 544.007812 339.488281 L 545.132812 340.613281 L 546.261719 341.175781 L 547.386719 342.300781 L 547.949219 342.867188 L 548.511719 343.992188 L 549.078125 345.117188 L 549.640625 346.808594 L 550.765625 349.058594 L 551.328125 350.75 L 551.890625 351.875 L 552.457031 353.566406 L 553.019531 355.253906 L 553.582031 356.378906 L 554.144531 357.507812 L 554.707031 359.195312 L 555.269531 360.320312 L 555.832031 361.449219 L 555.832031 362.011719 L 556.398438 363.136719 L 556.398438 366.515625 L 556.960938 367.640625 L 557.523438 368.207031 L 557.523438 378.328125 L 556.960938 379.453125 L 556.398438 380.015625 L 555.832031 381.144531 L 555.269531 382.269531 L 554.144531 383.394531 L 553.582031 384.519531 L 553.019531 385.085938 L 552.457031 386.210938 L 551.890625 386.773438 L 550.765625 387.898438 L 550.203125 389.027344 L 549.140625 390.089844 L 548.667969 390.089844 L 548.199219 390.558594 L 547.242188 391.039062 L 546.714844 392.085938 L 545.589844 392.648438 L 545.027344 393.210938 L 544.464844 393.777344 L 543.339844 394.339844 L 542.773438 394.902344 L 542.210938 395.464844 L 541.085938 396.027344 L 540.523438 396.589844 L 538.886719 396.589844 L 538.324219 397.15625 L 527.261719 397.15625 L 526.136719 396.589844 "/>
<path style="fill:none;stroke-width:2.26;stroke-linecap:round;stroke-linejoin:round;stroke:rgb(0%,100%,0%);stroke-opacity:1;comp-op:src;clip-to-self:true;stroke-miterlimit:10;" d="M 489.503906 363.757812 L 489.503906 380.953125 L 490.8125 380.953125 L 491.9375 380.386719 L 492.5 379.824219 L 493.625 379.261719 L 494.1875 378.699219 L 494.753906 378.136719 L 495.316406 377.574219 L 495.878906 377.574219 L 497.003906 377.007812 L 497.535156 376.480469 L 497.875 376.480469 L 498.917969 375.957031 L 499.441406 375.957031 L 498.160156 375.453125 L 497.035156 374.328125 L 496.480469 374.328125 L 495.367188 373.773438 L 494.804688 372.644531 L 493.679688 372.082031 L 493.113281 371.519531 L 491.425781 369.832031 L 490.863281 368.703125 L 490.300781 368.140625 L 489.738281 367.015625 L 489.171875 366.453125 L 488.046875 365.324219 L 486.359375 363.636719 L 485.792969 363.074219 L 485.230469 362.511719 "/>
<path style="fill:none;stroke-width:2.26;stroke-linecap:round;stroke-linejoin:round;stroke:rgb(0%,100%,0%);stroke-opacity:1;comp-op:src;clip-to-self:true;stroke-miterlimit:10;" d="M 462.074219 366.171875 L 462.074219 353.234375 "/>
<path style="fill:none;stroke-width:2.26;stroke-linecap:round;stroke-linejoin:round;stroke:rgb(0%,100%,0%);stroke-opacity:1;comp-op:src;clip-to-self:true;stroke-miterlimit:10;" d="M 462.074219 353.234375 L 462.074219 350.910156 "/>
<path style="fill:none;stroke-width:2.26;stroke-linecap:round;stroke-linejoin:round;stroke:rgb(0%,100%,0%);stroke-opacity:1;comp-op:src;clip-to-self:true;stroke-miterlimit:10;" d="M 462.074219 350.910156 L 462.554688 350.425781 L 463.558594 350.925781 L 464.121094 352.054688 L 464.621094 352.054688 L 465.671875 352.578125 L 468.992188 355.898438 L 468.992188 362.558594 L 468.472656 363.601562 L 468.472656 364.160156 L 467.914062 365.269531 L 467.402344 365.785156 L 456.570312 365.785156 "/>
</g>
</svg>
