<?xml version="1.0" encoding="UTF-8"?>
<svg xmlns="http://www.w3.org/2000/svg" xmlns:xlink="http://www.w3.org/1999/xlink" width="841pt" height="595pt" viewBox="0 0 841 595" version="1.2">
<g id="surface284339">
<rect x="0" y="0" width="841" height="595" style="fill:rgb(0%,0%,0%);fill-opacity:1;stroke:none;"/>
<path style="fill:none;stroke-width:2.26;stroke-linecap:round;stroke-linejoin:round;stroke:rgb(0%,100%,0%);stroke-opacity:1;comp-op:src;clip-to-self:true;stroke-miterlimit:10;" d="M 83.78125 369.589844 L 83.78125 345.390625 L 83.292969 344.902344 L 82.285156 345.40625 L 81.15625 345.96875 L 80.59375 346.53125 L 79.46875 347.09375 L 78.90625 347.660156 L 77.777344 348.222656 L 76.652344 348.785156 L 76.089844 349.347656 L 75.535156 349.347656 L 74.421875 349.902344 L 73.34375 349.902344 L 72.234375 350.460938 "/>
<path style="fill:none;stroke-width:2.26;stroke-linecap:round;stroke-linejoin:round;stroke:rgb(0%,100%,0%);stroke-opacity:1;comp-op:src;clip-to-self:true;stroke-miterlimit:10;" d="M 83.457031 377.433594 L 81.71875 376.933594 L 80.59375 375.808594 L 79.46875 375.242188 L 78.90625 374.679688 L 77.777344 373.554688 L 75.527344 372.429688 L 74.398438 371.867188 L 73.273438 371.300781 L 72.148438 370.738281 L 71.019531 370.175781 L 69.332031 368.488281 L 68.769531 367.921875 L 67.644531 366.796875 L 67.078125 365.671875 L 66.515625 363.980469 L 64.265625 361.730469 L 63.699219 360.039062 L 63.136719 358.914062 L 62.574219 357.222656 L 62.011719 355.535156 L 61.449219 354.410156 L 61.449219 345.398438 L 62.011719 343.710938 L 62.574219 342.582031 L 63.136719 341.457031 L 64.265625 340.894531 L 64.828125 339.769531 L 65.953125 339.203125 L 66.515625 338.640625 L 72.148438 338.640625 L 74.398438 337.515625 L 82.847656 337.515625 L 84.535156 338.078125 L 85.097656 338.640625 L 85.65625 338.640625 L 87.324219 339.199219 L 88.449219 340.324219 L 89.011719 340.324219 L 90.136719 340.886719 L 91.25 340.886719 L 92.375 341.449219 L 92.941406 342.011719 L 93.503906 342.578125 L 95.734375 344.808594 L 96.296875 345.933594 L 96.859375 346.496094 L 97.425781 348.1875 L 97.988281 349.3125 L 98.550781 351.003906 L 98.550781 353.253906 L 99.113281 354.382812 L 99.113281 369.570312 L 98.550781 371.261719 L 98.550781 371.824219 L 97.988281 373.511719 L 97.425781 374.074219 L 96.859375 375.203125 L 96.296875 376.328125 L 94.066406 378.558594 L 93.503906 379.125 L 79.535156 379.125 L 78.972656 378.558594 L 78.433594 378.019531 "/>
<path style="fill:none;stroke-width:2.26;stroke-linecap:round;stroke-linejoin:round;stroke:rgb(0%,100%,0%);stroke-opacity:1;comp-op:src;clip-to-self:true;stroke-miterlimit:10;" d="M 103.644531 361.828125 L 140.628906 361.828125 L 142.320312 361.265625 L 143.433594 361.265625 L 144.558594 360.703125 L 145.121094 360.140625 L 159.734375 360.140625 "/>
<path style="fill:none;stroke-width:2.26;stroke-linecap:round;stroke-linejoin:round;stroke:rgb(0%,100%,0%);stroke-opacity:1;comp-op:src;clip-to-self:true;stroke-miterlimit:10;" d="M 141.660156 336.203125 L 135.050781 336.203125 L 132.542969 338.710938 L 132.542969 342.859375 L 133.050781 343.367188 L 134.066406 343.875 L 137.402344 343.875 L 136.648438 344.628906 L 134.972656 344.628906 L 134.40625 345.191406 L 133.296875 345.191406 L 132.167969 346.320312 L 131.042969 346.882812 L 129.964844 346.882812 L 127.179688 349.667969 L 126.613281 350.230469 L 126.050781 350.796875 L 126.050781 351.265625 L 126.324219 351.539062 L 135.355469 351.539062 "/>
<path style="fill:none;stroke-width:2.26;stroke-linecap:round;stroke-linejoin:round;stroke:rgb(0%,100%,0%);stroke-opacity:1;comp-op:src;clip-to-self:true;stroke-miterlimit:10;" d="M 159.15625 360.539062 L 167.867188 360.539062 L 168.992188 361.664062 "/>
<path style="fill:none;stroke-width:2.26;stroke-linecap:round;stroke-linejoin:round;stroke:rgb(0%,100%,0%);stroke-opacity:1;comp-op:src;clip-to-self:true;stroke-miterlimit:10;" d="M 194.316406 368.796875 L 188.5 368.796875 L 187.390625 368.242188 L 184.699219 368.242188 L 185.191406 368.242188 L 186.199219 367.738281 L 187.316406 366.621094 L 188.421875 366.070312 L 188.984375 365.503906 L 189.546875 364.941406 L 190.675781 364.378906 L 191.238281 363.253906 L 191.789062 362.699219 L 192.34375 362.148438 L 192.34375 361.019531 L 192.90625 359.894531 L 193.46875 359.332031 L 193.46875 358.21875 L 194.03125 357.09375 L 194.03125 356.039062 L 194.59375 355.476562 L 195.160156 354.914062 L 195.160156 354.386719 L 194.824219 353.714844 L 193.324219 353.714844 L 191.632812 353.152344 L 191.070312 352.589844 L 189.441406 352.589844 "/>
<path style="fill:none;stroke-width:2.26;stroke-linecap:round;stroke-linejoin:round;stroke:rgb(0%,100%,0%);stroke-opacity:1;comp-op:src;clip-to-self:true;stroke-miterlimit:10;" d="M 171.355469 358.089844 L 170.816406 359.167969 L 169.691406 360.292969 L 169.691406 365.898438 L 170.253906 367.023438 L 170.253906 368.136719 L 170.816406 369.261719 L 171.382812 369.824219 L 171.945312 370.386719 L 172.507812 371.515625 L 173.070312 372.078125 L 173.632812 373.203125 L 174.195312 373.765625 L 174.761719 374.894531 L 175.886719 376.019531 L 177.574219 376.582031 L 178.703125 377.707031 L 179.828125 378.273438 L 180.953125 378.835938 L 182.082031 379.960938 L 183.769531 380.523438 L 184.894531 381.652344 L 186.023438 382.214844 L 186.585938 382.214844 L 188.273438 382.777344 L 208.546875 382.777344 L 209.671875 382.214844 L 210.230469 382.214844 L 211.339844 381.65625 L 211.902344 381.09375 L 213.03125 379.96875 L 213.59375 379.40625 L 213.59375 378.277344 L 214.15625 376.589844 L 214.15625 376.027344 L 214.730469 373.722656 L 215.332031 371.929688 L 215.332031 370.800781 L 215.90625 368.503906 L 215.90625 366.226562 L 216.46875 364.535156 L 217.03125 362.847656 L 217.03125 348.207031 L 216.46875 347.078125 L 215.90625 345.953125 L 215.34375 345.390625 L 214.777344 344.265625 L 214.214844 343.703125 L 213.652344 343.136719 L 212.527344 342.011719 L 211.398438 340.886719 L 210.835938 340.324219 L 209.710938 339.757812 L 209.148438 339.757812 L 207.457031 339.195312 L 205.207031 338.070312 L 203.515625 338.070312 L 201.828125 337.507812 L 200.703125 336.945312 L 199.574219 336.378906 L 189.507812 336.378906 L 187.816406 336.945312 L 187.261719 336.945312 L 186.148438 337.5 L 185.585938 338.0625 L 184.460938 338.625 L 182.769531 339.1875 L 182.207031 339.753906 L 181.644531 339.753906 L 179.953125 340.316406 L 179.390625 340.316406 L 177.703125 340.878906 L 177.140625 341.441406 L 176.578125 341.441406 L 175.449219 342.003906 L 174.324219 342.566406 L 173.761719 343.132812 L 173.199219 343.695312 L 172.070312 344.257812 L 171.507812 344.820312 L 170.945312 345.945312 L 170.382812 346.511719 L 170.382812 348.144531 L 169.820312 349.273438 L 169.820312 357.691406 "/>
<path style="fill:none;stroke-width:2.26;stroke-linecap:round;stroke-linejoin:round;stroke:rgb(0%,100%,0%);stroke-opacity:1;comp-op:src;clip-to-self:true;stroke-miterlimit:10;" d="M 191.820312 351.714844 L 186.464844 351.714844 L 186.101562 352.074219 "/>
<path style="fill:none;stroke-width:2.26;stroke-linecap:round;stroke-linejoin:round;stroke:rgb(0%,100%,0%);stroke-opacity:1;comp-op:src;clip-to-self:true;stroke-miterlimit:10;" d="M 217.382812 361.09375 L 224.546875 361.09375 L 226.234375 361.65625 L 227.925781 362.21875 L 272.945312 362.21875 L 273.246094 362.519531 L 273.246094 367.183594 L 272.683594 368.308594 L 272.683594 369.976562 L 272.121094 371.667969 L 271.558594 372.792969 L 271.558594 373.351562 L 271.917969 373.710938 L 272.421875 373.210938 L 272.984375 373.210938 L 274.113281 372.648438 L 275.238281 372.082031 L 275.800781 371.519531 L 276.363281 371.519531 L 277.492188 370.957031 L 278.617188 370.394531 L 279.742188 369.269531 L 280.871094 368.703125 L 281.996094 367.578125 L 283.683594 367.015625 L 284.8125 366.453125 L 285.9375 365.890625 L 286.5 365.324219 L 287.0625 364.761719 L 286.046875 364.253906 L 285.539062 363.746094 L 285.003906 363.746094 L 283.929688 363.210938 L 283.367188 362.648438 L 282.804688 362.082031 L 282.804688 359.84375 L 281.675781 358.71875 L 281.113281 358.15625 L 280.550781 357.027344 L 279.988281 355.902344 L 278.363281 354.277344 L 277.808594 353.726562 L 275.75 353.726562 L 274.734375 354.742188 L 274.734375 355.296875 L 274.175781 356.410156 L 273.613281 356.972656 L 273.613281 357.535156 L 273.050781 358.664062 L 273.050781 359.21875 "/>
<path style="fill:none;stroke-width:2.26;stroke-linecap:round;stroke-linejoin:round;stroke:rgb(0%,100%,0%);stroke-opacity:1;comp-op:src;clip-to-self:true;stroke-miterlimit:10;" d="M 232.570312 347.328125 L 233.070312 346.828125 L 233.570312 345.832031 L 234.695312 344.707031 L 235.257812 344.140625 L 235.820312 343.578125 L 236.382812 342.453125 L 236.949219 341.890625 L 237.511719 340.761719 L 238.074219 340.199219 L 238.636719 339.074219 L 239.199219 338.511719 L 240.328125 337.386719 L 240.890625 336.257812 L 242.015625 334.007812 L 242.578125 333.441406 L 243.703125 332.878906 L 244.269531 332.316406 L 244.832031 331.753906 L 245.394531 330.628906 L 245.957031 330.0625 L 246.519531 329.5 L 247.078125 329.5 L 247.484375 329.09375 L 248.519531 328.578125 L 249.082031 328.011719 L 249.082031 327.457031 L 249.082031 344.96875 L 249.644531 346.09375 L 249.644531 347.21875 "/>
<path style="fill:none;stroke-width:2.26;stroke-linecap:round;stroke-linejoin:round;stroke:rgb(0%,100%,0%);stroke-opacity:1;comp-op:src;clip-to-self:true;stroke-miterlimit:10;" d="M 238.445312 339.152344 L 244.367188 339.152344 L 245.496094 340.28125 L 249.4375 340.28125 "/>
<path style="fill:none;stroke-width:2.26;stroke-linecap:round;stroke-linejoin:round;stroke:rgb(0%,100%,0%);stroke-opacity:1;comp-op:src;clip-to-self:true;stroke-miterlimit:10;" d="M 34.722656 353.488281 L 47.847656 353.488281 L 48.332031 353.972656 L 48.332031 362.535156 L 48.824219 363.027344 L 49.832031 362.523438 L 50.394531 361.960938 L 50.957031 360.832031 L 51.519531 360.269531 L 52.648438 359.144531 L 53.773438 358.019531 L 53.773438 357.460938 L 54.328125 356.347656 L 54.882812 355.796875 L 55.433594 355.242188 L 55.960938 354.71875 L 55.277344 354.304688 L 54.714844 353.742188 L 53.589844 353.179688 L 53.027344 352.050781 L 51.902344 350.925781 L 51.902344 350.371094 L 51.34375 349.816406 L 50.78125 349.25 L 50.78125 348.726562 L 50.292969 348.238281 L 50.292969 348.652344 L 49.792969 349.65625 L 49.230469 350.21875 L 48.664062 351.34375 L 48.664062 351.910156 L 46.976562 355.285156 L 46.976562 355.84375 "/>
<path style="fill:none;stroke-width:2.26;stroke-linecap:round;stroke-linejoin:round;stroke:rgb(0%,100%,0%);stroke-opacity:1;comp-op:src;clip-to-self:true;stroke-miterlimit:10;" d="M 38.054688 354.027344 L 26.875 354.027344 "/>
<path style="fill:none;stroke-width:2.26;stroke-linecap:round;stroke-linejoin:round;stroke:rgb(0%,100%,0%);stroke-opacity:1;comp-op:src;clip-to-self:true;stroke-miterlimit:10;" d="M 299.253906 374.367188 L 313.507812 374.367188 L 315.199219 373.804688 L 315.761719 373.804688 L 317.449219 373.242188 L 318.578125 372.679688 L 319.703125 372.113281 L 320.828125 371.550781 L 320.828125 369.109375 L 320.273438 367.996094 L 319.710938 366.871094 L 317.457031 364.617188 L 316.332031 364.054688 L 315.203125 364.054688 L 314.078125 363.492188 L 313.515625 362.929688 L 312.390625 362.363281 L 309.589844 362.363281 L 307.898438 361.800781 L 306.773438 361.238281 L 305.644531 361.238281 L 304.519531 360.675781 L 304.011719 360.167969 L 304.519531 359.660156 L 305.644531 358.53125 L 306.773438 357.96875 L 307.898438 356.84375 L 308.460938 355.71875 L 309.589844 354.589844 L 310.152344 353.464844 L 311.277344 352.902344 L 311.839844 351.773438 L 312.964844 350.648438 L 313.53125 349.523438 L 314.09375 348.398438 L 314.09375 347.832031 L 314.65625 346.144531 L 315.21875 345.019531 L 315.21875 343.5 L 314.113281 342.394531 L 313.558594 342.394531 L 311.890625 341.839844 L 310.761719 341.277344 L 309.636719 340.714844 L 301.242188 340.714844 "/>
<path style="fill:none;stroke-width:2.26;stroke-linecap:round;stroke-linejoin:round;stroke:rgb(0%,100%,0%);stroke-opacity:1;comp-op:src;clip-to-self:true;stroke-miterlimit:10;" d="M 303.1875 380.273438 L 302.0625 379.707031 L 301.496094 379.144531 L 300.933594 378.582031 L 300.933594 378.046875 L 300.398438 376.972656 L 299.84375 376.421875 L 299.292969 375.867188 L 298.761719 375.335938 L 297.699219 374.808594 L 297.136719 373.679688 L 296.011719 372.554688 L 295.449219 371.429688 L 294.886719 370.863281 L 294.324219 370.300781 L 293.195312 369.738281 L 292.632812 369.175781 L 291.507812 368.613281 L 290.984375 368.089844 L 290.984375 366.714844 L 290.421875 365.027344 L 289.859375 364.464844 L 289.296875 363.335938 L 289.296875 338.5625 L 289.859375 337.433594 L 289.859375 335.757812 L 290.421875 334.632812 L 290.984375 334.070312 L 291.546875 332.941406 L 292.113281 331.253906 L 292.675781 330.691406 L 293.238281 329.5625 L 294.363281 328.4375 L 295.492188 327.875 L 296.617188 326.75 L 297.742188 326.1875 L 298.871094 325.621094 L 300.558594 325.621094 L 302.246094 325.058594 L 310.695312 325.058594 L 312.382812 325.621094 L 312.945312 325.621094 L 315.246094 326.195312 L 316.394531 326.773438 L 317.519531 327.335938 L 318.648438 327.898438 L 320.898438 329.023438 L 322.589844 329.585938 L 323.152344 330.152344 L 324.839844 331.839844 L 325.96875 332.964844 L 327.09375 334.09375 L 328.230469 335.796875 L 329.367188 336.933594 L 329.929688 338.0625 L 330.496094 338.625 L 331.058594 339.75 L 331.621094 340.3125 L 332.183594 341.441406 L 332.746094 342.003906 L 333.308594 343.128906 L 333.871094 343.691406 L 334.4375 344.816406 L 335 345.945312 L 335.5625 347.632812 L 336.125 349.324219 L 336.6875 350.449219 L 336.6875 365.089844 L 336.125 366.214844 L 335.5625 366.78125 L 335 367.90625 L 334.4375 368.46875 L 333.871094 369.03125 L 333.308594 370.160156 L 332.746094 371.285156 L 331.621094 372.410156 L 331.621094 373.535156 L 331.058594 375.226562 L 330.496094 375.789062 L 329.367188 376.351562 L 328.804688 376.914062 L 328.242188 377.480469 L 327.679688 378.605469 L 327.117188 379.167969 L 326.550781 379.730469 L 325.996094 379.730469 L 324.882812 380.289062 L 324.320312 380.851562 L 323.195312 381.414062 L 322.636719 381.414062 L 321.527344 381.96875 L 320.964844 382.53125 L 319.273438 382.53125 L 318.148438 383.097656 L 315.910156 383.097656 L 314.21875 383.660156 L 313.65625 384.222656 L 302.972656 384.222656 L 301.84375 383.660156 L 300.71875 383.097656 L 300.164062 383.097656 "/>
<path style="fill:none;stroke-width:2.26;stroke-linecap:round;stroke-linejoin:round;stroke:rgb(0%,100%,0%);stroke-opacity:1;comp-op:src;clip-to-self:true;stroke-miterlimit:10;" d="M 342.132812 360.3125 L 344.785156 360.3125 L 346.472656 360.875 L 362.214844 360.875 L 363.902344 361.4375 L 364.464844 362 L 403.386719 362 L 403.742188 362.355469 L 403.742188 365.511719 L 403.175781 366.636719 L 403.175781 372.699219 L 402.050781 373.824219 L 402.050781 375.378906 L 402.542969 375.871094 L 403.035156 375.871094 L 405.335938 375.292969 L 406.484375 374.71875 L 407.609375 373.59375 L 408.738281 373.03125 L 409.863281 372.46875 L 410.988281 372.46875 L 412.117188 371.902344 L 412.679688 371.339844 L 413.242188 371.339844 L 414.929688 370.777344 L 415.496094 370.777344 L 417.746094 369.652344 L 418.304688 369.652344 L 418.859375 369.09375 L 418.355469 368.59375 L 417.851562 367.085938 L 417.289062 366.519531 L 417.289062 365.394531 L 416.726562 363.707031 L 416.726562 362.578125 L 415.601562 360.328125 L 415.601562 359.769531 L 415.042969 358.660156 L 415.042969 357.027344 L 414.480469 355.898438 L 412.960938 354.378906 L 411.671875 354.378906 L 411.15625 353.863281 L 410.828125 353.277344 L 410.023438 352.472656 L 409.519531 351.464844 L 409.167969 351.113281 L 408.617188 350.558594 L 407.59375 350.558594 L 407.03125 349.996094 L 406.605469 350.847656 L 406.605469 354.511719 L 406.042969 355.636719 L 405.480469 356.199219 L 405.480469 359.566406 L 404.917969 360.691406 L 404.917969 364.53125 "/>
<path style="fill:none;stroke-width:2.26;stroke-linecap:round;stroke-linejoin:round;stroke:rgb(0%,100%,0%);stroke-opacity:1;comp-op:src;clip-to-self:true;stroke-miterlimit:10;" d="M 374.585938 324.140625 L 373.625 324.140625 L 372.5 324.703125 L 370.871094 324.703125 L 369.757812 325.261719 L 369.195312 325.824219 L 367.011719 325.824219 L 366.039062 326.796875 L 365.476562 327.921875 L 364.910156 328.484375 L 364.347656 329.046875 L 363.785156 329.613281 L 363.222656 330.175781 L 363.222656 332.242188 L 363.457031 332.472656 L 365.203125 332.472656 L 364.703125 333.1875 L 364.140625 333.75 L 363.601562 333.75 L 362.53125 334.289062 L 361.964844 334.851562 L 361.484375 335.332031 L 360.5 335.824219 L 358.875 337.449219 L 358.375 337.953125 L 357.820312 338.503906 L 357.257812 339.628906 L 357.257812 340.128906 L 356.730469 341.179688 L 356.175781 341.734375 L 356.175781 342.660156 L 356.695312 343.699219 L 357.214844 344.21875 L 358.8125 344.21875 L 359.941406 344.78125 L 366.683594 344.78125 "/>
<path style="fill:none;stroke-width:2.26;stroke-linecap:round;stroke-linejoin:round;stroke:rgb(0%,100%,0%);stroke-opacity:1;comp-op:src;clip-to-self:true;stroke-miterlimit:10;" d="M 441.253906 372.035156 L 440.773438 371.554688 L 440.773438 358.207031 L 441.335938 357.078125 L 441.898438 356.515625 L 441.394531 356.011719 L 440.429688 356.011719 L 439.300781 355.449219 L 436.484375 355.449219 L 434.796875 354.886719 L 434.234375 354.324219 L 432.566406 354.324219 L 431.453125 353.769531 L 430.957031 353.769531 L 430.667969 353.480469 L 430.667969 349.738281 L 431.230469 348.050781 L 431.230469 347.488281 L 431.792969 345.796875 L 432.359375 344.109375 L 432.921875 342.417969 L 433.484375 341.292969 L 433.484375 339.617188 "/>
<path style="fill:none;stroke-width:2.26;stroke-linecap:round;stroke-linejoin:round;stroke:rgb(0%,100%,0%);stroke-opacity:1;comp-op:src;clip-to-self:true;stroke-miterlimit:10;" d="M 442.859375 358.53125 L 442.859375 357.53125 L 442.296875 356.40625 L 442.296875 339.546875 "/>
<path style="fill:none;stroke-width:2.26;stroke-linecap:round;stroke-linejoin:round;stroke:rgb(0%,100%,0%);stroke-opacity:1;comp-op:src;clip-to-self:true;stroke-miterlimit:10;" d="M 447.574219 375.195312 L 433.191406 375.195312 L 432.0625 374.632812 L 431.5 374.070312 L 430.375 373.503906 L 429.355469 373.503906 L 428.230469 372.378906 L 427.101562 371.816406 L 425.414062 371.253906 L 424.851562 370.691406 L 423.722656 370.125 L 422.597656 369.5625 L 421.472656 368.4375 L 420.347656 367.875 L 419.78125 367.3125 L 419.21875 366.183594 L 418.65625 365.621094 L 418.09375 364.496094 L 416.96875 363.933594 L 416.402344 362.804688 L 415.839844 362.242188 L 415.839844 361.679688 L 414.714844 359.429688 L 414.152344 358.863281 L 414.152344 357.753906 L 413.589844 356.625 L 413.023438 355.5 L 413.023438 325.65625 L 413.589844 323.964844 L 414.152344 323.402344 L 414.152344 322.839844 L 414.714844 321.714844 L 414.714844 320.585938 L 415.277344 319.460938 L 416.402344 318.898438 L 416.96875 318.335938 L 418.09375 318.335938 L 419.21875 317.773438 L 438.367188 317.773438 L 440.054688 318.335938 L 440.617188 318.335938 L 442.308594 318.898438 L 443.996094 319.460938 L 445.121094 320.585938 L 446.25 321.152344 L 446.8125 321.152344 L 448.5 321.714844 L 449.628906 322.277344 L 450.753906 322.839844 L 452.441406 324.527344 L 453.007812 325.65625 L 454.132812 326.21875 L 454.695312 327.34375 L 455.820312 328.472656 L 456.949219 329.597656 L 458.636719 331.285156 L 459.199219 332.414062 L 459.765625 332.976562 L 460.328125 334.101562 L 460.890625 334.664062 L 461.453125 335.792969 L 462.015625 336.917969 L 462.578125 338.605469 L 463.140625 340.296875 L 464.296875 342.027344 L 464.863281 343.164062 L 464.863281 353.300781 L 464.300781 354.425781 L 463.738281 354.988281 L 463.738281 355.550781 L 463.175781 356.679688 L 463.175781 357.234375 L 462.617188 358.347656 L 462.054688 359.472656 L 461.492188 360.039062 L 461.492188 360.59375 L 460.9375 361.707031 L 460.375 362.269531 L 459.808594 362.832031 L 459.808594 363.367188 L 459.292969 363.886719 L 458.175781 365.003906 L 457.625 366.105469 L 457.0625 366.671875 L 456.5 367.234375 L 455.933594 368.359375 L 454.300781 369.992188 L 453.289062 370.5 "/>
<path style="fill:none;stroke-width:2.26;stroke-linecap:round;stroke-linejoin:round;stroke:rgb(0%,100%,0%);stroke-opacity:1;comp-op:src;clip-to-self:true;stroke-miterlimit:10;" d="M 99.886719 379.757812 L 100.585938 380.109375 L 101.085938 380.613281 L 102.214844 381.175781 L 102.777344 382.300781 L 103.339844 382.863281 L 103.902344 383.992188 L 105.027344 385.117188 L 105.59375 385.679688 L 106.15625 386.242188 L 107.28125 386.804688 L 107.84375 387.367188 L 108.972656 387.933594 L 112.347656 389.621094 L 112.914062 389.621094 L 114.601562 390.183594 L 115.726562 390.746094 L 116.855469 391.3125 L 117.417969 391.3125 L 119.105469 391.875 L 120.234375 392.4375 L 121.921875 393 L 123.613281 393.5625 L 124.738281 394.125 L 125.863281 394.691406 L 127.554688 395.253906 L 128.679688 395.816406 L 130.371094 396.378906 L 133.746094 398.066406 L 134.3125 398.066406 L 136 398.632812 L 137.125 399.195312 L 138.816406 399.757812 L 139.941406 399.757812 L 141.632812 400.320312 L 143.882812 400.320312 L 146.253906 400.914062 L 147.402344 401.488281 L 148.53125 401.488281 L 150.828125 402.0625 L 153.667969 402.0625 L 156.042969 402.65625 L 157.835938 403.253906 L 158.960938 403.253906 L 160.648438 403.816406 L 161.210938 403.816406 L 163.515625 404.390625 L 164.667969 404.96875 L 165.792969 404.96875 L 168.089844 405.542969 L 170.917969 405.542969 L 173.21875 406.117188 L 174.367188 406.691406 L 174.929688 406.691406 L 176.621094 407.253906 L 180 407.253906 L 181.6875 407.816406 L 182.8125 408.382812 L 206.078125 408.382812 L 207.765625 408.945312 L 209.457031 408.945312 L 211.144531 409.507812 L 212.269531 410.070312 L 214.523438 410.070312 L 216.210938 410.632812 L 217.902344 410.632812 L 219.589844 411.195312 L 221.84375 411.195312 L 223.535156 411.761719 L 226.347656 411.761719 L 228.039062 412.324219 L 229.726562 412.324219 L 231.417969 412.886719 L 232.542969 413.449219 L 233.667969 413.449219 L 235.359375 414.011719 L 239.863281 414.011719 L 241.554688 414.574219 L 242.679688 415.140625 L 244.367188 415.140625 L 245.496094 415.703125 L 247.183594 415.703125 L 248.875 416.265625 L 250 416.828125 L 253.378906 416.828125 L 254.503906 417.390625 L 256.757812 417.390625 L 257.882812 417.953125 L 258.445312 418.515625 L 262.386719 418.515625 L 264.078125 419.082031 L 315.320312 419.082031 L 317.011719 418.515625 L 320.386719 418.515625 L 321.515625 417.953125 L 322.640625 417.390625 L 323.753906 417.390625 L 324.878906 416.828125 L 326.546875 416.828125 L 328.847656 416.253906 L 332.328125 415.09375 L 335.144531 415.09375 L 337.519531 414.5 L 338.667969 413.925781 L 341.484375 413.925781 L 342.609375 413.363281 L 345.371094 413.363281 L 345.933594 412.796875 L 346.496094 412.234375 L 348.183594 412.234375 L 349.875 411.671875 L 354.378906 411.671875 L 355.503906 411.109375 L 356.070312 410.546875 L 357.757812 410.546875 L 358.882812 409.984375 L 362.824219 409.984375 L 363.953125 409.421875 L 365.078125 408.855469 L 365.640625 408.855469 L 366.769531 408.292969 L 370.710938 408.292969 L 371.835938 407.730469 L 372.398438 407.167969 L 375.214844 407.167969 L 376.902344 406.605469 L 378.59375 406.605469 L 379.71875 406.042969 L 380.28125 405.476562 L 382.535156 405.476562 L 384.222656 404.914062 L 386.476562 404.914062 L 387.601562 404.351562 L 388.730469 403.789062 L 390.96875 403.789062 L 391.53125 403.226562 L 392.085938 403.226562 L 393.753906 402.667969 L 394.320312 402.105469 L 395.445312 401.542969 L 397.132812 400.980469 L 397.699219 400.417969 L 398.824219 399.855469 L 399.949219 399.289062 L 400.511719 398.726562 L 401.039062 398.726562 L 401.566406 398.199219 L 402.640625 398.199219 L 403.765625 397.636719 L 404.328125 397.074219 L 405.453125 396.511719 L 407.574219 396.511719 L 408.699219 395.949219 L 409.261719 395.386719 "/>
<path style="fill:none;stroke-width:2.26;stroke-linecap:round;stroke-linejoin:round;stroke:rgb(0%,100%,0%);stroke-opacity:1;comp-op:src;clip-to-self:true;stroke-miterlimit:10;" d="M 402.066406 388.804688 L 403.441406 390.179688 L 404.566406 390.742188 L 405.128906 391.867188 L 406.257812 392.429688 L 406.820312 392.996094 L 407.382812 393.558594 L 408.507812 394.121094 L 409.074219 394.683594 L 410.199219 395.246094 L 410.761719 395.808594 L 411.324219 396.375 L 411.886719 396.9375 L 413.015625 397.5 L 415.265625 399.75 L 415.828125 400.316406 L 416.882812 400.316406 L 418.007812 400.878906 L 418.574219 402.003906 L 420.261719 402.566406 L 420.824219 403.128906 L 421.832031 402.625 L 421.832031 402.261719 L 421.277344 401.152344 L 421.277344 397.792969 L 420.714844 396.105469 L 420.714844 393.851562 L 420.152344 392.726562 L 420.152344 391.550781 L 420.714844 390.988281 L 420.714844 389.433594 L 420.457031 389.175781 L 414.484375 389.175781 L 412.234375 388.050781 L 410.542969 388.050781 L 409.417969 387.488281 L 407.1875 387.488281 L 406.0625 386.925781 L 405.496094 386.359375 L 404.019531 386.359375 L 402.894531 385.796875 L 402.894531 387.339844 L 403.457031 388.464844 L 403.457031 390.101562 "/>
<path style="fill:none;stroke-width:2.26;stroke-linecap:round;stroke-linejoin:round;stroke:rgb(0%,100%,0%);stroke-opacity:1;comp-op:src;clip-to-self:true;stroke-miterlimit:10;" d="M 251.398438 434.183594 L 245.402344 434.183594 L 244.277344 434.746094 L 243.714844 435.308594 L 243.203125 435.308594 L 242.835938 435.679688 L 242.332031 436.179688 L 241.78125 436.734375 L 240.09375 438.421875 L 239.527344 438.984375 L 239.527344 439.492188 L 239.019531 440 L 239.019531 441.96875 L 239.53125 442.992188 L 241.117188 444.578125 L 242.097656 445.070312 L 243.59375 445.070312 L 244.542969 446.019531 L 244.039062 446.523438 L 241.863281 446.523438 L 240.738281 447.085938 L 240.171875 447.648438 L 239.046875 448.210938 L 237.972656 448.210938 L 237.457031 448.730469 L 237.457031 453.464844 L 238.019531 454.59375 L 238.535156 455.109375 L 239 456.039062 L 240.074219 457.113281 L 241.171875 457.660156 L 243.894531 457.660156 L 244.96875 458.199219 L 245.53125 458.761719 L 247.769531 458.761719 "/>
<path style="fill:none;stroke-width:2.26;stroke-linecap:round;stroke-linejoin:round;stroke:rgb(0%,100%,0%);stroke-opacity:1;comp-op:src;clip-to-self:true;stroke-miterlimit:10;" d="M 315.523438 321.144531 L 315.023438 320.644531 L 315.023438 320.289062 L 314.464844 318.621094 L 313.339844 316.371094 L 313.339844 315.804688 L 312.214844 313.554688 L 311.648438 312.992188 L 311.648438 312.425781 L 310.523438 310.175781 L 310.523438 309.613281 L 309.960938 307.921875 L 309.398438 306.796875 L 307.707031 305.105469 L 307.144531 303.980469 L 306.582031 302.292969 L 306.019531 301.164062 L 305.457031 300.039062 L 304.328125 298.914062 L 303.765625 297.222656 L 300.386719 293.84375 L 299.246094 292.136719 L 298.109375 290.996094 L 294.730469 287.617188 L 293.023438 286.480469 L 291.886719 285.910156 L 290.757812 284.785156 L 289.050781 283.644531 L 287.914062 282.507812 L 286.222656 281.945312 L 284.535156 281.378906 L 282.796875 280.222656 L 281.011719 279.035156 L 279.28125 278.457031 L 278.152344 277.894531 L 277.027344 277.328125 L 276.464844 277.328125 L 275.339844 276.765625 L 274.210938 276.765625 L 271.960938 275.640625 L 267.46875 275.640625 L 265.78125 275.078125 L 253.390625 275.078125 L 251.703125 275.640625 L 250.574219 275.640625 L 248.886719 276.203125 L 247.195312 276.765625 L 246.632812 276.765625 L 244.945312 277.328125 L 244.382812 277.894531 L 243.253906 278.457031 L 242.691406 278.457031 L 241.003906 279.019531 L 239.875 279.582031 L 237.625 280.707031 L 236.5 281.273438 L 235.933594 281.835938 L 234.808594 282.398438 L 234.246094 282.960938 L 233.121094 283.523438 L 232.554688 284.085938 L 231.992188 284.085938 L 230.867188 284.648438 L 230.304688 285.214844 L 230.304688 285.777344 L 229.742188 286.902344 L 229.175781 287.464844 L 228.050781 288.59375 L 227.488281 289.71875 L 226.925781 290.28125 L 226.363281 291.40625 L 225.800781 292.535156 L 225.234375 293.660156 L 223.546875 295.347656 L 223.546875 295.914062 L 222.421875 298.164062 L 221.855469 298.726562 L 221.855469 299.285156 L 221.300781 300.398438 L 220.738281 300.960938 L 219.640625 303.15625 L 218.542969 304.253906 L 217.980469 305.378906 L 217.414062 306.507812 L 216.851562 307.632812 L 216.851562 308.160156 L 215.761719 309.25 L 215.199219 310.375 L 214.074219 311.5 L 213.511719 312.066406 L 213.511719 312.628906 L 212.945312 313.753906 L 212.382812 314.878906 L 211.878906 315.386719 L 210.675781 314.886719 L 210.113281 314.320312 L 209.558594 314.320312 L 209 313.765625 L 208.445312 313.765625 L 207.332031 313.210938 L 206.769531 312.644531 L 206.214844 312.644531 L 205.65625 312.089844 L 203.503906 312.089844 L 203.015625 312.578125 L 203.015625 328.007812 L 203.511719 328.503906 L 205.324219 328.503906 L 206.4375 327.949219 L 207 327.382812 L 207.5625 326.820312 L 208.6875 326.820312 L 210.378906 326.257812 L 210.941406 325.695312 L 216.472656 325.695312 L 217.601562 325.132812 L 217.601562 323.585938 L 217.035156 322.460938 L 215.347656 320.773438 L 215.347656 320.207031 L 214.785156 319.082031 L 213.660156 317.957031 L 213.09375 316.832031 L 212.53125 316.265625 L 211.96875 315.140625 L 211.96875 314.585938 "/>
<path style="fill:none;stroke-width:2.26;stroke-linecap:round;stroke-linejoin:round;stroke:rgb(0%,100%,0%);stroke-opacity:1;comp-op:src;clip-to-self:true;stroke-miterlimit:10;" d="M 306.242188 251.050781 L 305.257812 251.050781 L 304.21875 251.574219 L 303.800781 251.574219 L 303.246094 252.128906 L 302.683594 253.253906 L 301.015625 254.921875 L 300.453125 255.488281 L 299.886719 256.050781 L 299.886719 256.585938 L 299.351562 257.660156 L 298.820312 258.191406 L 298.820312 260.8125 L 299.332031 261.839844 L 299.894531 262.402344 L 300.460938 262.964844 L 300.941406 263.449219 L 301.46875 263.972656 L 302.03125 264.535156 L 301.53125 264.535156 L 300.527344 265.039062 L 299.398438 265.601562 L 297.148438 265.601562 L 296.59375 266.152344 L 295.8125 266.152344 L 295.257812 266.710938 L 294.152344 267.816406 L 294.152344 270.011719 L 294.714844 271.140625 L 295.277344 271.703125 L 295.84375 272.828125 L 295.84375 273.386719 L 296.398438 274.5 L 298.085938 276.1875 L 298.652344 276.75 L 299.214844 277.3125 L 300.230469 277.3125 L 300.792969 277.875 L 301.355469 278.441406 "/>
<path style="fill:none;stroke-width:2.26;stroke-linecap:round;stroke-linejoin:round;stroke:rgb(0%,100%,0%);stroke-opacity:1;comp-op:src;clip-to-self:true;stroke-miterlimit:10;" d="M 471.589844 349.40625 L 513.328125 349.40625 L 513.804688 349.882812 L 513.804688 354.082031 L 513.242188 354.644531 L 513.242188 357.914062 L 512.679688 359.042969 L 512.117188 359.605469 L 512.117188 361.660156 L 511.550781 362.222656 L 512.402344 361.800781 L 513.414062 361.292969 L 515.101562 360.730469 L 515.664062 360.730469 L 517.355469 360.167969 L 519.042969 359.605469 L 520.171875 358.476562 L 523.546875 357.351562 L 524.675781 356.789062 L 525.800781 356.226562 L 526.925781 355.101562 L 528.054688 354.535156 L 530.304688 353.410156 L 531.433594 352.847656 L 531.996094 352.285156 L 533.121094 351.722656 L 533.683594 351.15625 L 532.136719 351.15625 L 531.007812 350.59375 L 530.472656 350.59375 L 529.9375 350.058594 L 529.371094 348.933594 L 528.808594 348.371094 L 528.246094 347.804688 L 527.683594 346.679688 L 526.558594 345.554688 L 526.558594 344.992188 L 525.996094 343.863281 L 525.429688 343.300781 L 524.867188 342.738281 L 524.304688 341.613281 L 523.742188 341.046875 L 522.617188 339.921875 L 522.050781 339.359375 L 520.363281 337.671875 L 519.800781 337.105469 L 519.238281 335.980469 L 518.671875 335.417969 L 518.109375 334.292969 L 517.609375 333.789062 L 517.105469 334.292969 L 517.105469 346.4375 "/>
<path style="fill:none;stroke-width:2.26;stroke-linecap:round;stroke-linejoin:round;stroke:rgb(0%,100%,0%);stroke-opacity:1;comp-op:src;clip-to-self:true;stroke-miterlimit:10;" d="M 499.5625 313.351562 L 499.152344 313.351562 L 498.652344 313.851562 L 498.097656 313.851562 L 496.984375 314.410156 L 495.859375 315.535156 L 495.304688 315.535156 L 494.191406 316.09375 L 493.636719 316.644531 L 493.136719 317.144531 L 492.03125 317.695312 L 491.46875 318.261719 L 489.21875 319.386719 L 488.652344 320.511719 L 487.527344 321.074219 L 487.527344 324.421875 L 487.839844 324.738281 L 490.257812 324.738281 L 490.824219 325.300781 L 491.386719 325.863281 L 490.546875 326.28125 L 489.539062 326.785156 L 488.976562 327.347656 L 488.421875 327.347656 L 487.863281 327.90625 L 486.78125 328.445312 L 486.25 328.980469 L 486.25 329.429688 L 485.734375 330.457031 L 485.171875 331.023438 L 484.75 331.441406 L 484.75 334.402344 L 485.304688 334.957031 L 485.304688 335.34375 L 485.820312 336.371094 L 486.34375 336.371094 L 487.398438 336.898438 L 489.074219 336.898438 L 490.199219 337.460938 L 490.761719 338.023438 L 492.960938 338.023438 "/>
<path style="fill:none;stroke-width:2.26;stroke-linecap:round;stroke-linejoin:round;stroke:rgb(0%,100%,0%);stroke-opacity:1;comp-op:src;clip-to-self:true;stroke-miterlimit:10;" d="M 551.796875 359.269531 L 556.140625 359.269531 L 558.335938 358.171875 L 558.871094 357.636719 L 559.433594 357.070312 L 559.433594 349.285156 L 558.871094 347.597656 L 558.871094 346.472656 L 558.308594 344.78125 L 557.746094 344.21875 L 557.183594 343.09375 L 556.621094 341.964844 L 555.492188 341.402344 L 554.929688 340.839844 L 553.804688 340.277344 L 546.570312 340.277344 L 546.058594 339.765625 L 546.058594 323.0625 L 546.589844 322.53125 L 560.402344 322.53125 L 562.703125 323.105469 L 563.851562 323.679688 L 565.542969 323.679688 L 566.667969 324.246094 "/>
<path style="fill:none;stroke-width:2.26;stroke-linecap:round;stroke-linejoin:round;stroke:rgb(0%,100%,0%);stroke-opacity:1;comp-op:src;clip-to-self:true;stroke-miterlimit:10;" d="M 571.332031 370.550781 L 570.867188 370.550781 L 569.757812 371.109375 L 555.117188 371.109375 L 553.425781 370.546875 L 549.484375 370.546875 L 548.921875 369.980469 L 547.796875 368.855469 L 546.742188 368.855469 L 545.613281 368.292969 L 544.488281 367.167969 L 543.363281 366.605469 L 541.109375 364.351562 L 540.546875 363.226562 L 540.546875 362.097656 L 539.410156 360.394531 L 538.21875 358.609375 L 537.078125 355.1875 L 537.078125 354.625 L 536.515625 352.933594 L 535.390625 350.683594 L 535.390625 346.738281 L 534.816406 344.4375 L 534.214844 342.644531 L 533.652344 341.515625 L 533.652344 339.265625 L 533.089844 337.574219 L 532.527344 337.011719 L 532.527344 334.210938 L 531.964844 332.519531 L 531.964844 323.511719 L 532.539062 321.210938 L 532.539062 320.632812 L 533.101562 318.945312 L 533.664062 318.382812 L 533.664062 317.816406 L 534.230469 316.691406 L 534.792969 315.566406 L 535.355469 315.003906 L 535.917969 313.875 L 537.605469 312.1875 L 538.734375 311.625 L 539.859375 310.496094 L 540.421875 309.933594 L 541.550781 309.371094 L 542.113281 308.808594 L 544.363281 307.683594 L 555.613281 307.683594 L 557.300781 308.246094 L 557.863281 308.246094 L 559.554688 308.808594 L 560.679688 309.371094 L 561.808594 309.933594 L 562.371094 310.496094 L 563.496094 311.0625 L 564.621094 312.1875 L 565.75 312.75 L 566.875 313.3125 L 567.4375 313.875 L 568.5625 314.441406 L 569.128906 315.566406 L 570.253906 316.128906 L 573.632812 319.507812 L 574.195312 320.632812 L 574.757812 321.761719 L 575.320312 323.449219 L 575.882812 324.574219 L 576.449219 325.703125 L 577.574219 326.828125 L 577.574219 327.382812 L 578.128906 329.054688 L 578.128906 344.257812 L 577.566406 345.945312 L 577.566406 348.761719 L 577.003906 349.886719 L 576.441406 351.015625 L 575.878906 352.140625 L 575.878906 353.265625 L 575.316406 354.394531 L 574.75 354.957031 L 574.75 355.519531 L 574.1875 356.644531 L 574.1875 357.210938 L 573.625 358.335938 L 573.0625 358.898438 L 573.0625 360.011719 L 572.5 360.574219 L 572.5 364.449219 L 571.9375 365.011719 L 571.371094 365.574219 L 570.808594 366.699219 L 570.246094 367.828125 L 569.683594 368.390625 "/>
<path style="fill:none;stroke-width:2.26;stroke-linecap:round;stroke-linejoin:round;stroke:rgb(0%,100%,0%);stroke-opacity:1;comp-op:src;clip-to-self:true;stroke-miterlimit:10;" d="M 585.371094 345.789062 L 590.996094 345.789062 L 592.121094 346.351562 L 602.820312 346.351562 L 603.945312 346.914062 L 605.074219 347.480469 L 607.890625 347.480469 L 609.015625 348.042969 L 627.707031 348.042969 L 628.832031 347.480469 L 629.945312 347.480469 L 631.070312 346.914062 L 631.632812 346.351562 L 634.996094 346.351562 L 635.5625 345.789062 L 637.117188 345.789062 L 638.144531 345.273438 L 639.269531 344.710938 L 640.398438 344.710938 L 642.085938 344.148438 L 653.703125 344.148438 L 654.183594 344.628906 L 654.183594 347.101562 L 653.621094 348.226562 L 653.621094 353.109375 L 654.605469 353.601562 L 655.109375 353.097656 L 656.238281 352.535156 L 657.925781 351.96875 L 659.054688 351.40625 L 660.742188 350.84375 L 661.867188 350.28125 L 662.425781 350.28125 L 663.535156 349.726562 L 664.664062 349.160156 L 665.226562 349.160156 L 666.351562 348.597656 L 667.84375 348.597656 L 666.828125 348.089844 L 665.808594 347.582031 L 665.246094 347.582031 L 662.996094 346.457031 L 660.179688 343.640625 L 660.179688 343.085938 L 659.625 341.972656 L 659.058594 341.410156 L 658.496094 340.847656 L 657.933594 339.71875 L 657.371094 339.15625 L 656.808594 338.03125 L 656.246094 336.339844 L 655.679688 335.777344 L 655.117188 335.214844 L 655.117188 334.660156 L 654.5625 334.101562 L 653.46875 333.007812 L 653.46875 342.464844 "/>
<path style="fill:none;stroke-width:2.26;stroke-linecap:round;stroke-linejoin:round;stroke:rgb(0%,100%,0%);stroke-opacity:1;comp-op:src;clip-to-self:true;stroke-miterlimit:10;" d="M 692.773438 322.699219 L 692.464844 322.390625 L 691.964844 323.394531 L 688.605469 326.753906 L 687.480469 327.316406 L 686.917969 328.441406 L 685.226562 330.132812 L 684.664062 331.257812 L 684.101562 332.945312 L 683.539062 333.511719 L 682.976562 334.636719 L 682.414062 335.199219 L 682.414062 335.761719 L 681.847656 336.890625 L 681.285156 337.453125 L 681.285156 337.988281 L 680.75 339.0625 L 680.75 339.617188 L 680.195312 340.730469 L 679.628906 341.292969 L 679.628906 351.144531 L 680.195312 352.273438 L 680.757812 352.835938 L 681.253906 353.335938 L 689.519531 353.335938 L 690.644531 352.769531 L 691.207031 352.207031 L 691.734375 351.683594 L 691.734375 350.773438 L 692.296875 350.210938 L 692.296875 347.988281 L 691.734375 346.859375 L 691.734375 346.332031 L 691.207031 345.28125 L 689.519531 343.59375 L 688.390625 343.027344 L 687.265625 341.902344 L 686.730469 341.902344 L 685.65625 341.367188 L 684.53125 340.804688 L 683.972656 340.804688 "/>
<path style="fill:none;stroke-width:2.26;stroke-linecap:round;stroke-linejoin:round;stroke:rgb(0%,100%,0%);stroke-opacity:1;comp-op:src;clip-to-self:true;stroke-miterlimit:10;" d="M 689.21875 365.839844 L 688.164062 365.839844 L 687.039062 365.277344 L 686.480469 365.277344 L 685.371094 364.71875 L 684.808594 364.15625 L 684.25 364.15625 L 683.695312 363.601562 L 683.132812 363.601562 L 682.007812 363.039062 L 681.441406 362.472656 L 679.191406 361.347656 L 678.628906 360.785156 L 678.0625 360.222656 L 676.9375 359.660156 L 676.375 358.53125 L 675.8125 357.96875 L 675.25 356.84375 L 675.25 356.28125 L 674.683594 354.589844 L 673.558594 353.464844 L 673.558594 352.472656 L 672.996094 351.347656 L 672.433594 350.78125 L 672.433594 333.328125 "/>
<path style="fill:none;stroke-width:2.26;stroke-linecap:round;stroke-linejoin:round;stroke:rgb(0%,100%,0%);stroke-opacity:1;comp-op:src;clip-to-self:true;stroke-miterlimit:10;" d="M 673.558594 319.8125 L 673.558594 319.25 L 674.121094 317.558594 L 674.121094 316.433594 L 674.683594 315.308594 L 675.25 314.179688 L 675.8125 313.617188 L 676.375 312.492188 L 676.9375 311.929688 L 677.5 311.363281 L 678.628906 310.800781 L 679.753906 309.675781 L 684.246094 309.675781 L 686.496094 308.550781 L 699.449219 308.550781 L 701.699219 309.675781 L 703.390625 310.238281 L 705.078125 310.800781 L 707.875 313.597656 L 707.875 314.496094 L 708.4375 316.1875 L 709 317.3125 L 709 317.875 L 709.5625 319.566406 L 709.5625 322.378906 L 710.128906 324.070312 L 710.691406 324.632812 L 710.691406 344.34375 L 710.128906 346.03125 L 710.128906 347.71875 L 709.5625 349.410156 L 709.5625 351.085938 L 709 352.773438 L 709 353.332031 L 708.445312 355 L 707.882812 356.125 L 707.320312 356.6875 L 707.320312 357.25 L 706.753906 358.378906 L 706.191406 358.941406 L 706.191406 360.054688 L 705.628906 360.617188 L 705.628906 361.171875 L 705.074219 361.730469 L 704.507812 362.292969 L 703.382812 362.855469 L 702.820312 363.417969 L 701.695312 363.980469 L 701.167969 363.980469 L 700.085938 365.0625 L 687.851562 365.0625 "/>
<path style="fill:none;stroke-width:2.26;stroke-linecap:round;stroke-linejoin:round;stroke:rgb(0%,100%,0%);stroke-opacity:1;comp-op:src;clip-to-self:true;stroke-miterlimit:10;" d="M 671.949219 336.453125 L 671.949219 323.519531 L 672.511719 322.394531 L 672.511719 322 "/>
<path style="fill:none;stroke-width:2.26;stroke-linecap:round;stroke-linejoin:round;stroke:rgb(0%,100%,0%);stroke-opacity:1;comp-op:src;clip-to-self:true;stroke-miterlimit:10;" d="M 611.765625 329.601562 L 611.351562 329.1875 L 611.351562 320.558594 L 610.789062 319.433594 L 610.789062 316.082031 L 610.226562 314.953125 L 609.664062 314.390625 L 609.664062 312.152344 L 609.097656 311.589844 L 609.097656 304.582031 L 609.585938 304.097656 L 613.132812 304.097656 L 614.257812 304.660156 L 614.808594 305.214844 L 615.320312 305.214844 L 615.832031 305.726562 L 616.777344 305.726562 L 617.199219 306.148438 L 617.730469 307.210938 L 618.695312 308.175781 L 619.257812 309.304688 L 619.824219 309.867188 L 619.824219 310.9375 L 620.386719 312.066406 L 620.386719 314.757812 L 620 315.53125 L 619.621094 315.90625 L 619.171875 315.90625 L 618.652344 316.425781 L 613.734375 316.425781 L 614.730469 316.921875 L 615.160156 317.351562 L 616.175781 317.351562 L 617.25 317.886719 L 618.285156 317.886719 L 619.410156 318.449219 L 619.972656 319.015625 L 620.535156 319.578125 L 621.066406 320.105469 L 621.597656 321.167969 L 622.722656 321.730469 L 622.722656 323.285156 L 623.285156 323.847656 L 623.851562 324.410156 L 623.851562 324.949219 L 624.386719 326.019531 L 624.386719 327.09375 L 623.875 328.113281 L 623.4375 328.554688 L 620.070312 328.554688 L 618.945312 329.117188 L 612.339844 329.117188 L 611.824219 329.632812 "/>
<path style="fill:none;stroke-width:2.26;stroke-linecap:round;stroke-linejoin:round;stroke:rgb(0%,100%,0%);stroke-opacity:1;comp-op:src;clip-to-self:true;stroke-miterlimit:10;" d="M 718.210938 340.105469 L 739.683594 340.105469 L 740.796875 339.550781 L 744.171875 339.550781 L 744.738281 338.988281 L 745.300781 338.425781 L 749.214844 338.425781 L 749.777344 337.863281 L 752.523438 337.863281 L 753.652344 337.296875 L 754.214844 336.734375 L 761.835938 336.734375 L 762.316406 337.214844 L 762.316406 337.570312 L 761.761719 338.683594 L 761.199219 339.8125 L 761.199219 340.375 L 760.632812 341.5 L 760.632812 346.554688 L 760.070312 347.679688 L 759.507812 348.242188 L 759.507812 348.761719 L 759.8125 349.066406 L 760.117188 349.066406 L 761.191406 348.53125 L 762.316406 347.964844 L 763.445312 347.964844 L 765.132812 347.402344 L 767.386719 347.402344 L 769.765625 346.808594 L 771.5625 346.210938 L 772.6875 346.210938 L 774.378906 345.644531 L 775.488281 345.644531 L 775.488281 345.167969 L 774.988281 344.167969 L 774.425781 343.601562 L 774.425781 343.046875 L 773.871094 342.492188 L 773.871094 341.363281 L 773.304688 340.238281 L 772.742188 339.675781 L 772.742188 339.113281 L 772.179688 337.984375 L 772.179688 337.421875 L 771.617188 336.296875 L 770.492188 335.171875 L 770.492188 334.613281 L 769.933594 333.503906 L 769.371094 332.9375 L 768.808594 332.375 L 768.808594 331.839844 L 768.355469 331.386719 L 767.617188 331.757812 L 767.617188 332.765625 L 767.054688 333.890625 L 766.011719 334.414062 L 766.011719 334.722656 L 764.976562 335.757812 L 764.976562 339.371094 "/>
<path style="fill:none;stroke-width:2.26;stroke-linecap:round;stroke-linejoin:round;stroke:rgb(0%,100%,0%);stroke-opacity:1;comp-op:src;clip-to-self:true;stroke-miterlimit:10;" d="M 799.277344 358.449219 L 799.636719 358.085938 L 799.136719 357.585938 L 799.136719 355.332031 L 798.574219 353.640625 L 798.574219 350.828125 L 797.996094 348.527344 L 797.421875 347.378906 L 797.421875 345.125 L 796.859375 344 L 796.859375 330.65625 L 796.496094 330.292969 L 778.691406 330.292969 "/>
<path style="fill:none;stroke-width:2.26;stroke-linecap:round;stroke-linejoin:round;stroke:rgb(0%,100%,0%);stroke-opacity:1;comp-op:src;clip-to-self:true;stroke-miterlimit:10;" d="M 790.960938 340.753906 L 803.777344 340.753906 "/>
<path style="fill:none;stroke-width:2.26;stroke-linecap:round;stroke-linejoin:round;stroke:rgb(0%,100%,0%);stroke-opacity:1;comp-op:src;clip-to-self:true;stroke-miterlimit:10;" d="M 805.90625 364.792969 L 805.394531 365.304688 L 790.414062 365.304688 L 789.285156 364.742188 L 788.160156 363.617188 L 787.597656 363.050781 L 787.035156 362.488281 L 786.46875 361.925781 L 784.78125 360.238281 L 784.21875 359.671875 L 783.09375 358.546875 L 782.527344 357.984375 L 782.527344 356.296875 L 781.964844 355.167969 L 781.402344 354.605469 L 780.839844 353.480469 L 780.839844 352.40625 L 780.277344 351.28125 L 779.714844 350.71875 L 779.714844 348.050781 L 779.160156 347.496094 L 779.160156 344.398438 L 778.605469 343.285156 L 778.042969 342.722656 L 778.042969 341.117188 L 777.476562 339.992188 L 777.476562 338.878906 L 776.914062 337.75 L 776.351562 336.625 L 776.351562 336.105469 L 775.945312 335.699219 L 775.945312 332.535156 L 774.820312 330.285156 L 774.820312 323.019531 L 775.382812 321.332031 L 775.945312 320.769531 L 776.507812 319.640625 L 776.507812 319.078125 L 777.074219 317.953125 L 777.636719 316.824219 L 779.886719 314.574219 L 780.453125 313.445312 L 781.015625 312.882812 L 782.140625 312.320312 L 784.394531 312.320312 L 785.519531 311.757812 L 786.082031 311.195312 L 791.714844 311.195312 L 793.402344 311.757812 L 795.09375 312.320312 L 796.78125 312.320312 L 797.90625 312.882812 L 800.160156 312.882812 L 801.285156 313.445312 L 802.414062 314.011719 L 802.976562 314.574219 L 804.101562 315.136719 L 804.664062 315.699219 L 805.792969 316.824219 L 806.355469 317.390625 L 808.042969 319.078125 L 808.042969 320.191406 L 808.605469 321.878906 L 809.171875 322.441406 L 809.734375 323.570312 L 809.734375 324.132812 L 810.296875 325.820312 L 810.296875 326.949219 L 810.859375 328.636719 L 811.421875 329.761719 L 811.984375 330.890625 L 811.984375 332.578125 L 812.550781 334.269531 L 813.113281 335.394531 L 813.113281 337.648438 L 813.675781 339.335938 L 813.675781 350.53125 L 813.113281 351.65625 L 812.550781 352.785156 L 811.984375 353.910156 L 811.984375 354.472656 L 811.421875 355.597656 L 811.421875 357.234375 L 810.890625 357.761719 L 810.363281 358.292969 L 809.796875 358.855469 L 809.234375 359.984375 L 808.128906 361.089844 L 807.589844 361.625 L 807.269531 361.625 L 806.761719 362.132812 "/>
<path style="fill:none;stroke-width:2.26;stroke-linecap:round;stroke-linejoin:round;stroke:rgb(0%,100%,0%);stroke-opacity:1;comp-op:src;clip-to-self:true;stroke-miterlimit:10;" d="M 747.101562 303.363281 L 747.101562 303.363281 "/>
<path style="fill:none;stroke-width:2.26;stroke-linecap:round;stroke-linejoin:round;stroke:rgb(0%,100%,0%);stroke-opacity:1;comp-op:src;clip-to-self:true;stroke-miterlimit:10;" d="M 747.101562 303.363281 L 746.617188 303.847656 L 745.941406 304.183594 L 745.394531 304.734375 L 744.839844 305.285156 L 744.386719 305.285156 L 743.851562 305.824219 L 743.289062 306.386719 L 742.734375 306.9375 L 742.378906 307.292969 L 742.378906 312.421875 L 742.761719 312.804688 L 743.65625 313.253906 L 744.191406 313.785156 L 745.480469 313.785156 L 745.96875 314.277344 L 745.601562 314.277344 L 744.492188 314.832031 L 743.925781 315.394531 L 742.253906 315.394531 L 741.6875 315.957031 L 741.164062 316.484375 L 740.640625 317.007812 L 740.101562 317.007812 L 737.921875 319.1875 L 737.921875 320.066406 L 738.449219 321.121094 L 740.136719 322.808594 L 740.699219 323.375 L 741.265625 323.9375 L 743.363281 326.035156 L 750.972656 326.035156 "/>
<path style="fill:none;stroke-width:2.26;stroke-linecap:round;stroke-linejoin:round;stroke:rgb(0%,100%,0%);stroke-opacity:1;comp-op:src;clip-to-self:true;stroke-miterlimit:10;" d="M 456.757812 383.453125 L 457.234375 382.976562 L 460.4375 382.976562 L 462.128906 383.542969 L 463.253906 384.105469 L 463.816406 384.105469 L 465.507812 384.667969 L 468.324219 384.667969 L 470.574219 385.792969 L 472.265625 386.355469 L 472.828125 386.921875 L 473.953125 387.484375 L 474.515625 388.046875 L 475.078125 388.046875 L 476.207031 388.609375 L 477.332031 389.171875 L 477.894531 389.734375 L 478.453125 389.734375 L 479.5625 390.292969 L 480.691406 390.855469 L 482.378906 391.417969 L 483.503906 391.980469 L 485.195312 392.542969 L 486.320312 393.105469 L 487.445312 393.671875 L 488.574219 394.234375 L 490.261719 394.796875 L 491.953125 394.796875 L 494.203125 395.921875 L 494.769531 396.484375 L 495.332031 396.484375 L 496.457031 397.050781 L 497.582031 397.613281 L 499.273438 398.175781 L 502.089844 398.175781 L 504.339844 399.300781 L 506.59375 399.300781 L 508.28125 399.863281 L 511.097656 399.863281 L 512.789062 400.425781 L 513.914062 400.992188 L 514.476562 400.992188 L 516.164062 401.554688 L 520.671875 401.554688 L 522.921875 402.679688 L 524.050781 402.679688 L 525.738281 403.242188 L 527.992188 403.242188 L 529.679688 403.804688 L 532.070312 404.402344 L 546.238281 404.402344 L 547.367188 404.96875 L 549.605469 404.96875 L 550.730469 405.53125 L 551.859375 406.09375 L 554.671875 406.09375 L 555.800781 406.65625 L 558.613281 406.65625 L 560.304688 407.21875 L 561.429688 407.78125 L 561.992188 407.78125 L 563.683594 408.34375 L 565.933594 408.34375 L 567.625 408.910156 L 568.75 409.472656 L 570.441406 409.472656 L 572.128906 410.035156 L 574.382812 410.035156 L 576.683594 410.609375 L 577.832031 411.183594 L 580.085938 411.183594 L 581.773438 411.75 L 583.464844 411.75 L 585.152344 412.3125 L 586.84375 412.875 L 596.976562 412.875 L 598.667969 413.4375 L 602.046875 413.4375 L 604.296875 414.5625 L 688.765625 414.5625 L 690.453125 414 L 692.144531 413.4375 L 693.832031 412.875 L 696.648438 412.875 L 698.949219 412.300781 L 700.097656 411.726562 L 701.222656 411.726562 L 702.914062 411.164062 L 704.601562 411.164062 L 706.898438 410.585938 L 708.046875 410.011719 L 708.613281 410.011719 L 710.914062 409.4375 L 712.0625 409.4375 L 714.359375 408.863281 L 715.507812 408.289062 L 717.199219 407.726562 L 718.324219 407.726562 L 720.015625 407.164062 L 721.140625 406.601562 L 721.703125 406.035156 L 722.265625 406.035156 L 723.394531 405.472656 L 725.644531 404.347656 L 726.207031 404.347656 L 727.898438 403.785156 L 728.460938 403.222656 L 729.585938 402.65625 L 731.277344 402.09375 L 731.839844 401.53125 L 732.402344 401.53125 L 733.53125 400.96875 L 734.09375 400.96875 L 735.78125 400.40625 L 736.34375 399.84375 L 736.90625 399.277344 L 737.472656 399.277344 L 739.722656 398.152344 L 740.285156 397.589844 L 741.414062 397.027344 L 742.539062 395.902344 L 743.664062 395.335938 L 744.792969 394.773438 L 745.355469 394.210938 L 745.800781 394.210938 L 746.824219 393.699219 L 747.386719 393.136719 L 748.511719 392.574219 L 749.5625 391.523438 L 750.6875 390.960938 L 751.660156 390.960938 L 752.128906 390.488281 L 752.695312 389.925781 L 753.257812 389.363281 L 754.945312 389.363281 L 756.074219 388.800781 L 756.636719 388.238281 "/>
<path style="fill:none;stroke-width:2.26;stroke-linecap:round;stroke-linejoin:round;stroke:rgb(0%,100%,0%);stroke-opacity:1;comp-op:src;clip-to-self:true;stroke-miterlimit:10;" d="M 747.59375 380.621094 L 747.59375 380.964844 L 748.097656 381.964844 L 749.222656 383.089844 L 749.785156 384.21875 L 750.910156 385.34375 L 751.476562 386.46875 L 752.601562 387.59375 L 753.164062 388.722656 L 754.289062 389.847656 L 754.851562 390.972656 L 757.667969 393.789062 L 758.230469 395.480469 L 758.796875 396.042969 L 761.046875 398.292969 L 761.609375 398.859375 L 762.171875 399.421875 L 762.738281 399.984375 L 763.863281 400.546875 L 764.425781 401.109375 L 764.980469 401.109375 L 765.539062 401.667969 L 766.527344 401.667969 L 767.652344 401.101562 L 768.777344 399.976562 L 769.90625 398.851562 L 770.46875 398.289062 L 771.03125 397.160156 L 771.59375 396.597656 L 772.15625 395.472656 L 773.285156 394.910156 L 773.847656 393.78125 L 774.410156 393.21875 L 774.972656 392.09375 L 776.097656 390.96875 L 775.683594 390.550781 L 775.183594 389.546875 L 774.617188 388.984375 L 773.492188 388.421875 L 772.929688 387.859375 L 772.367188 387.859375 L 771.238281 387.292969 L 770.113281 386.167969 L 769.558594 386.167969 L 768.445312 385.613281 L 767.882812 385.050781 L 766.757812 384.484375 L 766.199219 384.484375 L 765.089844 383.929688 L 764.523438 383.367188 L 763.398438 382.804688 L 762.84375 382.804688 L 761.730469 382.246094 L 761.167969 381.683594 L 760.039062 381.683594 L 758.914062 381.121094 L 758.386719 381.121094 L 757.109375 380.617188 L 756.546875 380.054688 L 755.980469 379.492188 L 754.871094 379.492188 L 752.828125 377.449219 L 752.34375 376.96875 L 750.515625 376.96875 L 749.957031 376.410156 L 749.957031 380.691406 L 750.523438 382.378906 L 750.523438 382.9375 L 751.078125 384.050781 L 751.640625 384.613281 L 752.203125 385.738281 L 752.203125 386.292969 L 752.761719 387.40625 L 753.324219 387.96875 L 753.886719 389.097656 L 754.449219 390.222656 L 755.011719 390.785156 L 755.574219 391.910156 "/>
<path style="fill:none;stroke-width:2.26;stroke-linecap:round;stroke-linejoin:round;stroke:rgb(0%,100%,0%);stroke-opacity:1;comp-op:src;clip-to-self:true;stroke-miterlimit:10;" d="M 680.34375 298.804688 L 680.34375 296.742188 L 679.78125 295.050781 L 679.214844 293.925781 L 678.652344 292.800781 L 678.652344 292.238281 L 678.089844 290.546875 L 676.964844 288.296875 L 676.402344 286.605469 L 675.835938 285.480469 L 675.273438 284.351562 L 675.273438 283.789062 L 674.710938 282.101562 L 674.148438 280.972656 L 673.585938 279.847656 L 673.585938 277.617188 L 673.023438 276.492188 L 673.023438 273.128906 L 672.457031 272 L 671.894531 271.4375 L 671.332031 270.3125 L 670.769531 269.183594 L 670.207031 268.621094 L 670.207031 268.066406 L 669.648438 266.953125 L 669.085938 266.390625 L 668.523438 265.265625 L 667.960938 264.699219 L 667.398438 264.136719 L 666.835938 263.011719 L 666.269531 262.449219 L 665.144531 261.320312 L 664.582031 260.757812 L 664.019531 259.632812 L 663.457031 259.070312 L 662.328125 258.507812 L 661.765625 257.941406 L 660.640625 257.378906 L 660.078125 256.816406 L 659.519531 256.816406 L 658.410156 256.261719 L 657.28125 255.699219 L 655.59375 255.136719 L 653.902344 255.136719 L 652.214844 254.570312 L 651.089844 253.445312 L 648.335938 253.445312 L 647.210938 252.882812 L 646.644531 252.320312 L 644.394531 252.320312 L 643.265625 251.757812 L 641.578125 251.757812 L 639.886719 251.191406 L 638.761719 250.628906 L 638.199219 250.066406 L 637.074219 249.503906 L 636.511719 248.941406 L 635.382812 248.378906 L 634.257812 248.378906 L 633.132812 247.8125 L 632.003906 247.25 L 630.878906 246.6875 L 630.324219 246.6875 L 628.65625 246.132812 L 626.964844 245.570312 L 618.65625 245.570312 L 617.53125 246.132812 L 616.96875 246.695312 L 615.839844 247.257812 L 615.285156 247.257812 L 613.617188 247.816406 L 613.054688 248.378906 L 611.925781 248.941406 L 610.816406 248.941406 L 609.691406 249.503906 L 609.125 250.066406 L 608 250.628906 L 606.925781 250.628906 L 605.800781 251.191406 L 605.238281 251.757812 L 604.683594 251.757812 L 604.125 252.3125 L 603 252.875 L 601.945312 253.929688 L 600.839844 254.480469 L 600.277344 255.609375 L 599.714844 256.171875 L 598.589844 256.734375 L 598.023438 257.296875 L 596.898438 257.859375 L 596.335938 258.421875 L 595.210938 259.550781 L 594.644531 260.113281 L 593.519531 260.675781 L 592.394531 261.800781 L 591.832031 262.367188 L 591.265625 262.929688 L 590.703125 263.492188 L 588.453125 264.617188 L 587.351562 265.71875 L 586.8125 266.796875 L 586.246094 267.921875 L 585.683594 268.488281 L 584.578125 269.59375 L 584.578125 270.148438 L 584.023438 270.703125 L 584.023438 271.261719 L 583.464844 272.375 L 582.902344 272.9375 L 582.902344 273.492188 L 582.347656 274.050781 L 582.347656 275.726562 L 581.785156 276.851562 L 581.222656 277.414062 L 581.222656 278.355469 L 580.890625 279.015625 L 580.378906 280.550781 L 579.253906 281.675781 L 579.253906 282.789062 L 578.691406 283.351562 L 578.125 283.914062 "/>
<path style="fill:none;stroke-width:2.26;stroke-linecap:round;stroke-linejoin:round;stroke:rgb(0%,100%,0%);stroke-opacity:1;comp-op:src;clip-to-self:true;stroke-miterlimit:10;" d="M 567.773438 280.757812 L 568.261719 280.269531 L 569.640625 281.648438 L 570.203125 282.777344 L 570.765625 283.339844 L 571.890625 285.589844 L 574.707031 288.40625 L 575.269531 289.535156 L 575.832031 290.097656 L 576.398438 291.222656 L 576.398438 291.777344 L 576.953125 292.890625 L 577.515625 293.453125 L 578.078125 294.578125 L 578.640625 296.269531 L 579.207031 296.832031 L 579.769531 297.394531 L 579.769531 297.949219 L 580.324219 299.0625 L 580.886719 299.625 L 580.886719 301.179688 L 581.441406 301.734375 L 581.085938 302.085938 L 580.78125 302.085938 L 579.710938 301.550781 L 578.582031 301.550781 L 576.894531 300.988281 L 575.765625 300.425781 L 575.203125 299.859375 L 574.078125 299.296875 L 573.515625 298.734375 L 572.390625 298.171875 L 561 298.171875 L 560.515625 297.6875 L 560.515625 290.132812 L 561.078125 289.007812 L 561.644531 288.441406 L 561.644531 276.414062 L 562.136719 275.917969 L 565.195312 278.976562 L 565.757812 280.101562 L 567.445312 281.789062 L 568.574219 282.355469 L 569.683594 282.355469 "/>
<path style="fill:none;stroke-width:2.26;stroke-linecap:round;stroke-linejoin:round;stroke:rgb(0%,100%,0%);stroke-opacity:1;comp-op:src;clip-to-self:true;stroke-miterlimit:10;" d="M 640.5 206.675781 L 637.574219 206.675781 L 636.445312 207.238281 L 635.320312 207.800781 L 634.203125 208.917969 L 633.097656 209.46875 L 633.097656 210.027344 L 631.417969 211.707031 L 630.855469 212.832031 L 628.039062 215.648438 L 628.039062 216.167969 L 628.292969 216.722656 L 628.292969 217.078125 L 628.734375 217.964844 L 631.9375 217.964844 L 632.167969 218.199219 L 631.734375 219.066406 L 631.171875 220.195312 L 630.609375 221.320312 L 629.515625 222.414062 L 629.128906 222.414062 L 628.59375 222.949219 L 628.070312 223.996094 L 627.023438 224.519531 L 626.457031 225.648438 L 625.960938 225.648438 L 625.433594 226.175781 L 625.433594 226.710938 L 625.753906 227.347656 L 626.078125 227.675781 L 626.617188 228.214844 L 627.742188 228.777344 L 628.304688 229.339844 L 628.871094 229.902344 L 629.984375 229.902344 L 631.109375 230.464844 L 631.648438 231.003906 L 634.707031 231.003906 "/>
<path style="fill:none;stroke-width:2.26;stroke-linecap:round;stroke-linejoin:round;stroke:rgb(0%,100%,0%);stroke-opacity:1;comp-op:src;clip-to-self:true;stroke-miterlimit:10;" d="M 625.289062 424.867188 L 624.785156 424.867188 L 624.285156 425.367188 L 623.722656 425.933594 L 623.160156 426.496094 L 622.59375 427.058594 L 621.46875 428.183594 L 620.90625 428.183594 L 619.78125 428.746094 L 619.21875 429.3125 L 618.089844 429.875 L 617.535156 429.875 L 616.421875 430.429688 L 615.859375 430.992188 L 615.308594 431.546875 L 614.753906 432.097656 L 614.230469 432.625 L 614.230469 434.070312 L 613.664062 434.632812 L 613.101562 435.199219 L 613.101562 438.011719 L 613.664062 439.140625 L 614.230469 439.703125 L 615.277344 440.226562 L 615.800781 440.75 L 620.777344 440.75 L 620.296875 440.75 L 619.292969 441.25 L 618.164062 441.816406 L 617.039062 442.941406 L 615.347656 443.503906 L 613.660156 445.191406 L 613.097656 445.757812 L 611.972656 446.320312 L 611.40625 446.882812 L 610.84375 447.445312 L 610.28125 448.570312 L 609.71875 449.136719 L 608.59375 450.261719 L 608.027344 450.824219 L 608.027344 451.378906 L 607.472656 452.492188 L 607.472656 455.816406 L 607.992188 456.339844 L 608.410156 456.339844 L 609.519531 456.894531 L 610.085938 457.457031 L 615.699219 457.457031 "/>
<path style="fill:none;stroke-width:2.26;stroke-linecap:round;stroke-linejoin:round;stroke:rgb(0%,100%,0%);stroke-opacity:1;comp-op:src;clip-to-self:true;stroke-miterlimit:10;" d="M 784.128906 291.425781 L 783.003906 291.988281 L 782.441406 292.554688 L 781.875 293.117188 L 780.75 293.679688 L 779.0625 295.367188 L 778.496094 295.929688 L 777.371094 296.496094 L 776.246094 297.621094 L 776.246094 298.183594 L 775.683594 299.875 L 775.117188 301 L 773.429688 302.6875 L 773.429688 303.253906 L 772.867188 304.378906 L 772.867188 304.941406 L 772.304688 306.066406 L 771.742188 307.195312 L 771.175781 307.757812 L 771.175781 308.320312 L 770.613281 309.445312 L 770.050781 310.574219 L 769.488281 311.699219 L 769.488281 313.335938 L 768.363281 315.585938 L 768.363281 318.402344 L 767.796875 319.527344 L 767.796875 337.804688 L 768.363281 338.367188 L 768.363281 339.480469 L 768.925781 340.605469 L 769.488281 341.171875 L 770.050781 342.296875 L 770.613281 343.984375 L 771.175781 344.550781 L 771.175781 346.222656 L 771.742188 347.351562 L 771.742188 347.90625 L 772.296875 349.019531 L 772.859375 349.582031 L 772.859375 350.144531 L 773.421875 351.269531 L 773.421875 351.832031 L 773.984375 352.960938 L 774.546875 353.523438 L 774.546875 354.078125 L 775.105469 355.191406 L 775.667969 356.316406 L 776.230469 356.878906 L 776.792969 357.445312 L 777.355469 359.132812 L 777.921875 359.695312 L 778.484375 360.824219 L 779.609375 361.949219 L 780.734375 362.511719 L 781.300781 363.074219 L 781.863281 363.636719 L 782.988281 364.199219 L 783.550781 364.765625 L 786.308594 364.765625 L 787.4375 365.328125 L 795.867188 365.328125 L 797.558594 365.890625 L 798.121094 366.453125 L 816.113281 366.453125 L 817.800781 367.015625 L 824.859375 367.015625 L 825.375 366.503906 L 825.375 349.804688 L 824.8125 348.679688 L 824.8125 347.554688 L 824.25 345.863281 L 823.6875 345.300781 L 823.121094 344.738281 L 823.121094 343.625 L 822.558594 342.5 L 821.996094 341.9375 L 821.996094 340.824219 L 821.433594 339.699219 L 821.433594 337.46875 L 820.871094 335.777344 L 820.308594 335.214844 L 820.308594 332.960938 L 819.746094 331.835938 L 819.746094 330.144531 L 819.179688 328.457031 L 818.617188 327.332031 L 818.054688 326.769531 L 817.492188 325.640625 L 816.929688 324.515625 L 816.367188 322.824219 L 816.367188 320.574219 L 815.800781 318.882812 L 814.675781 317.757812 L 814.113281 316.632812 L 813.550781 315.503906 L 812.988281 314.941406 L 812.421875 313.816406 L 811.296875 312.691406 L 810.734375 312.125 L 809.046875 310.4375 L 808.480469 309.875 L 807.355469 308.75 L 806.792969 308.183594 L 806.230469 307.058594 L 805.667969 305.371094 L 802.289062 301.992188 L 801.726562 301.425781 L 801.160156 300.863281 L 800.035156 299.738281 L 799.472656 299.738281 L 798.347656 299.175781 L 797.789062 299.175781 L 796.675781 298.621094 L 796.113281 298.054688 L 794.988281 297.492188 L 794.425781 297.492188 L 793.300781 296.929688 L 792.171875 296.367188 L 791.609375 295.804688 L 790.484375 295.242188 L 789.921875 294.675781 L 788.792969 294.113281 L 788.230469 293.550781 L 787.105469 292.988281 L 786.542969 292.425781 L 785.414062 291.863281 L 784.851562 291.296875 L 783.164062 289.609375 L 782.601562 289.609375 "/>
</g>
</svg>
