<?xml version="1.0" encoding="UTF-8"?>
<svg xmlns="http://www.w3.org/2000/svg" xmlns:xlink="http://www.w3.org/1999/xlink" width="841pt" height="595pt" viewBox="0 0 841 595" version="1.2">
<g id="surface127921">
<rect x="0" y="0" width="841" height="595" style="fill:rgb(0%,0%,0%);fill-opacity:1;stroke:none;"/>
<path style="fill:none;stroke-width:2.26;stroke-linecap:round;stroke-linejoin:round;stroke:rgb(0%,100%,0%);stroke-opacity:1;comp-op:src;clip-to-self:true;stroke-miterlimit:10;" d="M 202.070312 101.167969 L 201.765625 100.863281 L 201.765625 100.25 L 202.125 98.800781 L 202.125 92.039062 L 202.480469 90.972656 L 202.480469 79.949219 L 202.171875 79.640625 L 201.300781 79.980469 L 200.945312 79.980469 L 199.878906 80.335938 L 199.167969 80.691406 L 198.101562 80.691406 L 197.035156 81.046875 L 196.324219 81.402344 L 195.253906 81.757812 L 193.121094 82.824219 L 191.699219 82.824219 L 191.34375 83.179688 L 189.230469 83.179688 L 188.519531 83.535156 L 188.164062 83.890625 L 187.835938 83.890625 "/>
<path style="fill:none;stroke-width:2.26;stroke-linecap:round;stroke-linejoin:round;stroke:rgb(0%,100%,0%);stroke-opacity:1;comp-op:src;clip-to-self:true;stroke-miterlimit:10;" d="M 208.597656 109.449219 L 208.242188 109.804688 L 190.835938 109.804688 L 187.636719 108.738281 L 186.214844 108.738281 L 184.761719 108.375 L 183.628906 107.996094 L 183.273438 107.996094 L 182.207031 107.640625 L 181.496094 107.285156 L 180.785156 107.285156 L 179.71875 106.929688 L 179.363281 106.929688 L 178.652344 106.574219 L 178.296875 106.574219 L 176.875 105.863281 L 175.453125 104.441406 L 174.734375 103.363281 L 172.59375 101.222656 L 172.238281 100.511719 L 172.238281 100.15625 L 171.882812 99.445312 L 171.882812 99.089844 L 171.511719 97.230469 L 171.085938 95.53125 L 171.085938 88.890625 L 171.460938 87.390625 L 171.824219 86.664062 L 172.539062 85.585938 L 173.289062 84.460938 L 174.042969 83.335938 L 174.761719 82.617188 L 175.117188 81.90625 L 175.828125 81.195312 L 176.183594 80.484375 L 177.25 79.417969 L 178.671875 78.707031 L 179.738281 78.351562 L 180.832031 77.621094 L 182.972656 76.550781 L 184.039062 76.195312 L 184.394531 76.195312 L 185.460938 75.839844 L 204.65625 75.839844 L 205.367188 76.195312 L 205.71875 76.195312 L 206.773438 76.546875 L 207.484375 77.257812 L 207.832031 77.257812 L 208.535156 77.609375 L 208.535156 77.960938 L 208.886719 78.660156 L 209.953125 80.792969 L 210.664062 81.503906 L 210.664062 81.859375 L 211.019531 82.570312 L 211.375 82.925781 L 211.730469 83.992188 L 211.730469 84.707031 L 212.09375 86.15625 L 212.492188 87.753906 L 212.871094 88.886719 L 212.871094 89.953125 L 213.246094 91.453125 L 213.644531 93.050781 L 214.023438 94.183594 L 214.023438 96.671875 L 214.734375 98.804688 L 215.089844 99.515625 L 215.089844 102.003906 L 215.445312 103.070312 L 215.445312 104.847656 L 215.089844 105.558594 L 215.089844 106.609375 L 214.734375 107.320312 L 214.734375 108.03125 L 214.378906 109.101562 L 214.023438 109.457031 L 213.667969 110.167969 L 213.3125 110.523438 L 212.957031 111.234375 L 212.246094 111.589844 L 211.890625 111.945312 L 211.179688 112.300781 L 210.824219 112.65625 L 209.402344 112.65625 L 208.335938 113.011719 L 201.222656 113.011719 "/>
<path style="fill:none;stroke-width:2.26;stroke-linecap:round;stroke-linejoin:round;stroke:rgb(0%,100%,0%);stroke-opacity:1;comp-op:src;clip-to-self:true;stroke-miterlimit:10;" d="M 223.925781 95.542969 L 223.925781 95.542969 "/>
<path style="fill:none;stroke-width:2.26;stroke-linecap:round;stroke-linejoin:round;stroke:rgb(0%,100%,0%);stroke-opacity:1;comp-op:src;clip-to-self:true;stroke-miterlimit:10;" d="M 224.785156 94.496094 L 249.457031 94.496094 L 249.644531 94.90625 L 249.644531 102.328125 L 249.949219 102.628906 L 250.554688 102.628906 L 251.621094 102.273438 L 252.332031 101.917969 L 252.6875 101.917969 L 253.753906 101.5625 L 254.109375 101.5625 L 255.175781 101.207031 L 255.886719 100.851562 L 256.953125 100.496094 L 258.046875 99.769531 L 259.597656 99.378906 L 261.234375 98.5625 L 262.871094 98.152344 L 264.003906 97.777344 L 265.425781 97.066406 L 265.753906 97.066406 L 266.71875 96.714844 L 267.074219 96.359375 L 266.175781 96.039062 L 265.835938 95.699219 L 265.496094 95.019531 L 264.785156 94.308594 L 264.429688 93.597656 L 264.074219 93.242188 L 263.71875 92.53125 L 263.007812 91.820312 L 262.296875 91.464844 L 259.808594 88.976562 L 259.097656 88.621094 L 256.253906 85.777344 L 254.832031 82.933594 L 254.476562 82.578125 L 254.121094 81.867188 L 253.410156 81.15625 L 253.058594 80.808594 L 252.710938 80.457031 L 252.007812 79.753906 L 251.78125 79.976562 L 251.464844 80.613281 L 251.464844 83.09375 L 251.109375 83.449219 L 251.109375 85.164062 L 250.398438 85.875 L 250.398438 87.644531 L 250.042969 88.355469 L 250.042969 91.199219 L 249.332031 91.910156 L 249.332031 92.925781 L 248.980469 93.628906 L 248.980469 94.304688 L 248.625 95.015625 L 248.304688 95.335938 "/>
<path style="fill:none;stroke-width:2.26;stroke-linecap:round;stroke-linejoin:round;stroke:rgb(0%,100%,0%);stroke-opacity:1;comp-op:src;clip-to-self:true;stroke-miterlimit:10;" d="M 224.121094 74.4375 L 223.808594 74.125 L 223.808594 73.5 L 224.171875 72.046875 L 224.171875 71.683594 L 224.527344 70.617188 L 224.527344 70.261719 L 224.890625 68.808594 L 224.890625 67.378906 L 225.246094 66.3125 L 225.601562 65.957031 L 225.601562 64.890625 L 225.9375 64.558594 L 226.289062 63.925781 L 227.246094 63.925781 L 228.3125 64.28125 L 229.023438 64.992188 L 229.371094 64.992188 L 230.074219 65.34375 L 230.429688 66.054688 L 231.140625 66.765625 L 231.851562 68.1875 L 232.207031 69.253906 L 233.273438 71.386719 L 233.273438 71.742188 L 233.628906 72.808594 L 233.984375 73.164062 "/>
<path style="fill:none;stroke-width:2.26;stroke-linecap:round;stroke-linejoin:round;stroke:rgb(0%,100%,0%);stroke-opacity:1;comp-op:src;clip-to-self:true;stroke-miterlimit:10;" d="M 225.984375 70.992188 L 229.4375 70.992188 L 230.148438 70.636719 L 230.503906 70.28125 L 232.539062 70.28125 "/>
<path style="fill:none;stroke-width:2.26;stroke-linecap:round;stroke-linejoin:round;stroke:rgb(0%,100%,0%);stroke-opacity:1;comp-op:src;clip-to-self:true;stroke-miterlimit:10;" d="M 296.042969 103.429688 L 289.742188 103.429688 L 289.03125 103.074219 L 287.695312 103.074219 L 288.019531 102.425781 L 289.734375 100.710938 L 290.089844 100 L 290.808594 98.925781 L 291.164062 98.207031 L 291.519531 97.496094 L 291.878906 96.429688 L 292.234375 96.074219 L 292.234375 95.371094 L 292.589844 94.660156 L 292.589844 94.308594 L 292.9375 93.609375 L 293.292969 93.253906 L 293.292969 92.539062 L 293.648438 91.828125 L 293.648438 91.480469 L 294.355469 90.066406 L 295.066406 87.933594 L 295.777344 86.511719 L 295.777344 82.601562 L 296.132812 81.535156 L 296.132812 81.195312 L 295.796875 80.855469 L 295.796875 80.503906 L 295.445312 79.804688 L 295.105469 79.46875 L 294.765625 79.125 L 294.410156 78.769531 L 289.871094 78.769531 L 289.160156 79.125 L 288.808594 79.125 L 288.105469 79.476562 L 287.75 79.832031 L 287.039062 79.832031 L 286.328125 80.1875 L 285.980469 80.539062 L 283.855469 82.664062 L 283.855469 83.015625 L 283.503906 83.71875 L 283.148438 84.074219 L 283.148438 85.140625 L 282.792969 85.851562 "/>
<path style="fill:none;stroke-width:2.26;stroke-linecap:round;stroke-linejoin:round;stroke:rgb(0%,100%,0%);stroke-opacity:1;comp-op:src;clip-to-self:true;stroke-miterlimit:10;" d="M 302.933594 110.75 L 289.070312 110.75 L 288.359375 110.394531 L 288.003906 110.039062 L 286.597656 110.039062 L 285.886719 109.683594 L 285.183594 109.683594 L 284.472656 109.328125 L 283.761719 108.617188 L 283.050781 108.261719 L 281.984375 107.195312 L 281.273438 106.839844 L 280.917969 106.128906 L 280.207031 105.773438 L 279.140625 104.707031 L 278.785156 103.996094 L 278.429688 103.640625 L 277.71875 102.21875 L 277.363281 101.152344 L 277.363281 100.796875 L 276.652344 98.664062 L 275.585938 96.53125 L 275.230469 96.171875 L 275.230469 95.460938 L 274.875 94.394531 L 274.519531 94.039062 L 274.519531 93.328125 L 274.164062 92.617188 L 274.164062 90.890625 L 273.800781 89.441406 L 273.421875 88.3125 L 273.421875 87.957031 L 273.066406 86.890625 L 273.066406 84.757812 L 272.710938 83.691406 L 272.355469 82.980469 L 272.355469 75.15625 L 272.710938 74.089844 L 273.066406 73.734375 L 274.488281 70.890625 L 274.84375 70.535156 L 275.199219 69.824219 L 275.910156 69.46875 L 276.265625 68.757812 L 276.976562 68.402344 L 278.054688 67.6875 L 278.773438 67.328125 L 284.105469 65.550781 L 284.816406 65.195312 L 285.171875 65.195312 L 286.625 64.832031 L 295.527344 64.832031 L 296.976562 65.195312 L 297.703125 65.195312 L 299.15625 65.558594 L 299.882812 65.921875 L 300.59375 66.632812 L 301.660156 66.988281 L 303.082031 67.699219 L 303.792969 68.410156 L 304.859375 68.765625 L 305.570312 69.476562 L 306.636719 71.609375 L 306.992188 72.675781 L 307.347656 73.386719 L 308.058594 74.097656 L 308.414062 74.808594 L 309.480469 78.007812 L 309.480469 78.71875 L 309.84375 80.171875 L 309.84375 93.339844 L 309.132812 95.472656 L 308.777344 95.828125 L 308.421875 96.539062 L 308.421875 97.605469 L 308.066406 98.671875 L 307.710938 99.027344 L 307.710938 99.382812 L 307.355469 100.09375 L 307.355469 100.445312 L 307.003906 101.148438 L 306.648438 101.503906 L 306.292969 102.214844 L 306.292969 102.925781 L 305.9375 103.992188 L 305.582031 104.347656 L 305.582031 105.050781 L 304.871094 106.472656 L 304.515625 106.828125 L 304.515625 107.164062 L 304.1875 107.492188 L 303.570312 107.800781 L 303.265625 108.109375 L 302.910156 108.464844 L 302.199219 108.820312 "/>
<path style="fill:none;stroke-width:2.26;stroke-linecap:round;stroke-linejoin:round;stroke:rgb(0%,100%,0%);stroke-opacity:1;comp-op:src;clip-to-self:true;stroke-miterlimit:10;" d="M 316.488281 88.667969 L 343.644531 88.667969 L 343.945312 88.96875 L 343.945312 92.0625 L 343.589844 92.773438 L 343.589844 101.542969 L 343.894531 101.847656 L 344.113281 101.628906 L 344.464844 101.28125 L 344.820312 101.28125 L 345.53125 100.925781 L 345.886719 100.925781 L 346.953125 100.570312 L 348.375 99.859375 L 349.441406 99.503906 L 350.863281 98.792969 L 351.574219 98.082031 L 352.640625 97.726562 L 353.351562 97.371094 L 354.417969 97.015625 L 355.128906 96.660156 L 355.484375 96.660156 L 356.90625 95.949219 L 357.257812 95.949219 L 357.609375 95.597656 L 358.25 95.597656 L 358.605469 95.242188 L 358.328125 94.964844 L 357.03125 94.613281 L 355.964844 94.257812 L 353.832031 93.191406 L 352.410156 91.769531 L 352.054688 91.058594 L 351.699219 90.703125 L 350.277344 87.859375 L 349.566406 87.148438 L 349.210938 86.082031 L 348.5 85.371094 L 347.789062 83.949219 L 347.433594 83.59375 L 346.367188 81.460938 L 346.011719 81.105469 L 345.65625 80.394531 L 345.300781 80.039062 L 344.945312 79.328125 L 344.945312 78.976562 L 344.59375 78.625 L 344.59375 78.273438 L 344.59375 83.964844 L 343.882812 85.386719 L 343.882812 86.097656 L 343.527344 86.808594 L 343.527344 88.941406 "/>
<path style="fill:none;stroke-width:2.26;stroke-linecap:round;stroke-linejoin:round;stroke:rgb(0%,100%,0%);stroke-opacity:1;comp-op:src;clip-to-self:true;stroke-miterlimit:10;" d="M 327.136719 76.097656 L 326.828125 75.789062 L 326.828125 70.503906 L 326.472656 69.4375 L 326.117188 68.726562 L 326.117188 67.660156 L 325.761719 66.949219 L 325.761719 65.171875 L 325.40625 64.105469 L 325.050781 63.394531 L 325.050781 62.328125 L 324.695312 61.617188 L 324.695312 58.773438 L 325.011719 58.457031 L 326.957031 58.457031 L 327.667969 58.8125 L 328.023438 59.167969 L 329.078125 59.167969 L 329.792969 59.523438 L 330.503906 59.878906 L 330.859375 60.234375 L 331.570312 60.589844 L 332.28125 61.300781 L 332.992188 61.65625 L 334.058594 62.722656 L 334.414062 63.433594 L 334.414062 63.789062 L 334.769531 64.5 L 335.125 64.855469 L 335.125 65.492188 L 334.769531 66.203125 L 334.414062 66.558594 L 334.414062 67.238281 L 334.058594 67.59375 L 333.714844 67.933594 L 333.019531 68.628906 L 332.34375 68.628906 L 331.988281 68.984375 L 328.179688 68.984375 L 327.113281 68.628906 L 326.414062 68.628906 L 328.808594 68.628906 L 329.164062 68.984375 L 330.828125 68.984375 L 331.183594 69.339844 L 331.527344 70.023438 L 332.167969 70.664062 L 332.523438 71.375 L 332.878906 71.730469 L 333.21875 72.40625 L 333.464844 72.90625 L 333.347656 73.429688 L 332.992188 74.140625 L 332.28125 74.496094 L 331.925781 74.851562 L 331.214844 75.207031 L 330.855469 75.5625 L 330.5 75.917969 L 330.5 76.242188 L 330.0625 76.445312 L 325.84375 76.445312 "/>
<path style="fill:none;stroke-width:2.26;stroke-linecap:round;stroke-linejoin:round;stroke:rgb(0%,100%,0%);stroke-opacity:1;comp-op:src;clip-to-self:true;stroke-miterlimit:10;" d="M 375.570312 97.878906 L 373.511719 97.878906 L 372.800781 97.523438 L 371.550781 96.273438 L 371.195312 95.5625 L 370.839844 95.207031 L 370.484375 94.496094 L 370.128906 94.140625 L 369.773438 93.429688 L 369.417969 92.363281 L 369.0625 92.007812 L 368.707031 91.296875 L 368.707031 89.875 L 368.332031 88.375 L 367.953125 87.242188 L 367.953125 82.976562 L 368.664062 80.84375 L 368.664062 79.777344 L 369.019531 79.066406 L 369.019531 78.714844 L 369.371094 78.011719 L 370.792969 76.589844 L 371.859375 76.234375 L 372.570312 75.878906 L 373.992188 75.878906 L 375.058594 75.523438 L 377.902344 75.523438 L 378.96875 75.167969 L 379.679688 74.8125 L 389.992188 74.8125 L 391.496094 75.1875 L 392.222656 75.550781 L 392.578125 75.550781 L 393.644531 75.90625 L 394 75.90625 L 395.066406 76.261719 L 398.265625 79.460938 L 398.976562 79.816406 L 399.6875 80.527344 L 400.398438 80.882812 L 401.820312 83.726562 L 402.535156 84.804688 L 402.902344 85.898438 L 403.257812 86.964844 L 403.257812 87.320312 L 403.96875 89.453125 L 403.96875 99.882812 L 403.613281 100.949219 L 403.257812 101.660156 L 402.902344 102.726562 L 402.191406 104.148438 L 401.480469 104.859375 L 400.769531 106.28125 L 400.058594 106.636719 L 398.992188 107.703125 L 398.28125 108.058594 L 396.503906 108.058594 L 394.371094 108.769531 L 392.59375 108.769531 L 391.09375 109.144531 L 377.214844 109.144531 L 376.148438 108.789062 L 375.4375 108.789062 L 373.984375 108.425781 L 372.546875 107.707031 L 372.191406 107.351562 L 371.480469 106.996094 L 370.769531 106.285156 L 370.769531 105.945312 L 370.429688 105.269531 L 370.074219 104.914062 "/>
<path style="fill:none;stroke-width:2.26;stroke-linecap:round;stroke-linejoin:round;stroke:rgb(0%,100%,0%);stroke-opacity:1;comp-op:src;clip-to-self:true;stroke-miterlimit:10;" d="M 382.457031 103.492188 L 387.332031 103.492188 L 388.398438 103.136719 L 388.753906 102.78125 L 389.101562 102.429688 L 389.777344 102.429688 L 390.488281 102.074219 L 391.199219 101.363281 L 391.910156 101.007812 L 392.84375 100.074219 L 392.84375 98.792969 L 392.488281 98.082031 L 390.355469 95.949219 L 389.289062 95.59375 L 388.578125 95.238281 L 387.167969 95.238281 L 386.101562 94.882812 L 385.746094 94.527344 L 384.324219 94.527344 L 383.613281 94.171875 L 382.910156 94.171875 L 382.199219 93.816406 L 382.199219 93.496094 L 385.007812 90.6875 L 385.363281 89.976562 L 385.71875 89.621094 L 386.429688 88.199219 L 386.785156 87.84375 L 386.785156 85.417969 L 386.074219 83.996094 L 385.71875 83.640625 L 385.363281 82.929688 L 381.871094 82.929688 "/>
<path style="fill:none;stroke-width:2.26;stroke-linecap:round;stroke-linejoin:round;stroke:rgb(0%,100%,0%);stroke-opacity:1;comp-op:src;clip-to-self:true;stroke-miterlimit:10;" d="M 374.8125 94.15625 L 374.503906 94.464844 L 374.503906 95.046875 L 374.148438 95.402344 L 374.148438 97.792969 L 373.4375 98.503906 L 373.4375 111.246094 "/>
<path style="fill:none;stroke-width:2.26;stroke-linecap:round;stroke-linejoin:round;stroke:rgb(0%,100%,0%);stroke-opacity:1;comp-op:src;clip-to-self:true;stroke-miterlimit:10;" d="M 400.992188 78.144531 L 400.691406 77.84375 L 400.691406 76.230469 L 401.402344 74.808594 L 401.402344 74.460938 L 401.753906 74.109375 L 401.753906 72.695312 L 402.472656 71.617188 L 402.472656 70.914062 L 402.828125 70.203125 L 402.828125 69.847656 L 403.539062 68.425781 L 403.539062 67.359375 L 403.894531 66.648438 L 403.894531 65.589844 L 404.25 64.878906 L 404.605469 64.523438 L 404.960938 63.8125 L 404.960938 62.78125 L 405.316406 62.070312 L 406.027344 61.359375 L 406.027344 58.878906 L 406.738281 58.167969 L 406.738281 57.464844 L 407.09375 57.109375 L 407.09375 56.433594 L 407.441406 56.082031 L 407.757812 55.769531 L 408.015625 55.222656 L 408.355469 54.625 L 408.671875 54.625 L 409.949219 54.976562 L 411.371094 55.6875 L 412.4375 55.6875 L 413.503906 56.042969 L 413.859375 56.398438 L 414.570312 56.753906 L 415.25 56.753906 L 415.949219 57.105469 L 416.304688 57.460938 L 416.644531 57.460938 L 417.253906 57.765625 L 417.898438 57.765625 L 418.210938 57.449219 L 418.210938 52.246094 L 417.855469 51.179688 L 417.855469 50.113281 L 416.433594 47.269531 L 415.730469 46.566406 L 415.382812 45.867188 L 415.042969 45.867188 L 414.359375 45.183594 L 414.007812 45.183594 L 413.308594 44.835938 L 412.957031 44.835938 L 412.253906 44.484375 L 411.898438 44.128906 L 411.558594 44.128906 L 410.882812 43.789062 L 410.171875 43.789062 L 409.460938 43.433594 L 408.511719 42.484375 L 408.308594 42.882812 L 407.761719 43.15625 L 407.40625 43.867188 L 406.695312 44.222656 L 406.339844 44.578125 L 405.984375 45.289062 L 405.273438 45.644531 L 404.917969 46 L 404.566406 46 L 403.867188 46.351562 L 403.15625 46.707031 L 402.804688 46.707031 L 402.453125 47.058594 L 401.417969 47.058594 L 400.707031 47.414062 L 399.996094 48.125 L 398.964844 48.125 L 398.652344 48.4375 L 399.683594 49.46875 L 400.394531 49.824219 L 402.527344 51.957031 L 405.371094 51.957031 "/>
<path style="fill:none;stroke-width:2.26;stroke-linecap:round;stroke-linejoin:round;stroke:rgb(0%,100%,0%);stroke-opacity:1;comp-op:src;clip-to-self:true;stroke-miterlimit:10;" d="M 383.753906 50.585938 L 383.410156 50.398438 L 383.15625 50.65625 L 382.835938 51.519531 L 382.835938 52.550781 L 382.132812 53.253906 L 382.132812 54.519531 L 382.445312 54.832031 L 382.765625 55.148438 L 384.808594 55.148438 L 385.105469 55.445312 L 385.785156 55.785156 L 385.46875 56.105469 L 383.820312 56.105469 L 383.109375 56.460938 L 382.753906 56.816406 L 381.351562 56.816406 L 381.015625 57.152344 L 380.480469 57.152344 L 379.804688 57.488281 L 379.484375 58.097656 L 379.167969 58.414062 L 379.167969 61.738281 L 379.523438 62.449219 L 379.878906 62.804688 L 380.589844 63.160156 L 380.945312 63.515625 L 382.367188 64.226562 L 387.832031 64.226562 "/>
<path style="fill:none;stroke-width:2.26;stroke-linecap:round;stroke-linejoin:round;stroke:rgb(0%,100%,0%);stroke-opacity:1;comp-op:src;clip-to-self:true;stroke-miterlimit:10;" d="M 383.964844 50.125 L 384.269531 49.820312 L 384.675781 49.640625 L 385.574219 49.640625 "/>
<path style="fill:none;stroke-width:2.26;stroke-linecap:round;stroke-linejoin:round;stroke:rgb(0%,100%,0%);stroke-opacity:1;comp-op:src;clip-to-self:true;stroke-miterlimit:10;" d="M 425.097656 41.691406 L 424.871094 41.914062 L 420.390625 41.914062 L 419.324219 41.558594 L 418.972656 41.558594 L 418.269531 41.207031 L 417.914062 40.851562 L 417.203125 40.496094 L 416.136719 40.140625 L 414.714844 38.71875 L 414.003906 38.363281 L 412.9375 37.296875 L 412.226562 36.941406 L 411.871094 36.585938 L 411.515625 35.875 L 410.09375 34.453125 L 409.738281 33.742188 L 409.382812 33.386719 L 409.382812 33.03125 L 409.027344 32.320312 L 409.027344 31.609375 L 408.671875 30.542969 L 408.316406 30.1875 L 408.316406 25.933594 L 408.652344 25.597656 "/>
<path style="fill:none;stroke-width:2.26;stroke-linecap:round;stroke-linejoin:round;stroke:rgb(0%,100%,0%);stroke-opacity:1;comp-op:src;clip-to-self:true;stroke-miterlimit:10;" d="M 422.933594 32.253906 L 422.933594 25.984375 L 422.625 25.679688 L 416.015625 25.679688 L 415.6875 25.347656 L 415.6875 18.460938 "/>
<path style="fill:none;stroke-width:2.26;stroke-linecap:round;stroke-linejoin:round;stroke:rgb(0%,100%,0%);stroke-opacity:1;comp-op:src;clip-to-self:true;stroke-miterlimit:10;" d="M 421.59375 22.996094 L 421.59375 16.660156 "/>
<path style="fill:none;stroke-width:2.26;stroke-linecap:round;stroke-linejoin:round;stroke:rgb(0%,100%,0%);stroke-opacity:1;comp-op:src;clip-to-self:true;stroke-miterlimit:10;" d="M 407.570312 24.730469 L 407.570312 23.359375 L 407.214844 22.292969 L 406.859375 21.9375 L 406.859375 20.871094 L 406.503906 19.804688 L 406.503906 18.027344 L 406.148438 16.960938 L 405.789062 16.605469 L 405.789062 11.636719 L 406.148438 10.925781 L 406.859375 10.214844 L 407.214844 9.503906 L 407.925781 8.792969 L 408.976562 8.792969 L 409.6875 8.4375 L 410.398438 7.726562 L 411.464844 7.371094 L 411.820312 7.015625 L 413.242188 6.304688 L 413.597656 5.949219 L 414.664062 5.949219 L 415.730469 5.59375 L 422.117188 5.59375 L 423.183594 5.949219 L 423.894531 5.949219 L 426.027344 6.660156 L 427.449219 7.371094 L 428.515625 7.726562 L 429.226562 8.082031 L 430.292969 8.4375 L 433.136719 9.859375 L 434.203125 10.925781 L 435.625 11.636719 L 436.691406 11.992188 L 437.402344 12.703125 L 438.824219 13.414062 L 439.890625 14.480469 L 441.3125 15.191406 L 441.667969 15.902344 L 442.023438 16.257812 L 442.378906 16.96875 L 443.800781 18.390625 L 444.15625 19.101562 L 444.15625 19.453125 L 444.507812 20.507812 L 444.863281 21.21875 L 445.21875 21.574219 L 445.21875 26.550781 L 444.863281 27.617188 L 444.507812 28.328125 L 444.152344 29.394531 L 442.730469 32.238281 L 442.019531 32.59375 L 441.308594 33.304688 L 440.953125 34.015625 L 440.242188 34.371094 L 439.886719 35.082031 L 439.175781 35.792969 L 438.109375 36.148438 L 436.6875 36.859375 L 435.621094 36.859375 L 434.554688 37.214844 L 433.84375 37.570312 L 432.066406 37.570312 L 430.566406 37.945312 L 423.804688 37.945312 L 423.09375 38.65625 L 421.773438 38.65625 L 421.433594 38.996094 "/>
<path style="fill:none;stroke-width:2.26;stroke-linecap:round;stroke-linejoin:round;stroke:rgb(0%,100%,0%);stroke-opacity:1;comp-op:src;clip-to-self:true;stroke-miterlimit:10;" d="M 449.449219 28.582031 L 459.382812 28.582031 L 460.09375 28.9375 L 464.359375 28.9375 L 465.070312 29.292969 L 467.890625 29.292969 L 468.601562 29.648438 L 469.660156 29.648438 L 470.371094 30.003906 L 470.71875 30.351562 L 472.933594 30.351562 L 473.238281 30.65625 L 473.238281 31.15625 L 472.882812 31.511719 L 472.882812 32.179688 L 472.171875 32.890625 L 471.816406 33.957031 L 471.816406 34.667969 L 471.460938 35.378906 L 471.105469 35.734375 L 471.105469 36.410156 L 471.414062 36.71875 L 472.050781 36.398438 L 472.40625 36.398438 L 473.472656 36.042969 L 473.828125 35.6875 L 475.25 34.976562 L 476.316406 34.621094 L 476.671875 34.621094 L 477.382812 34.265625 L 477.734375 34.265625 L 478.433594 33.917969 L 478.789062 33.5625 L 479.140625 33.5625 L 479.492188 33.210938 L 480.195312 33.210938 L 480.515625 32.886719 L 480.195312 32.242188 L 478.773438 31.53125 L 478.0625 30.820312 L 477.707031 30.109375 L 476.996094 29.398438 L 476.996094 29.042969 L 476.640625 27.976562 L 476.285156 27.265625 L 476.285156 26.910156 L 475.929688 25.84375 L 475.929688 23.710938 L 475.574219 23 L 475.21875 22.644531 L 475.21875 22.3125 L 474.886719 21.976562 L 473.894531 21.976562 L 473.230469 22.3125 L 473.230469 22.648438 L 472.898438 23.316406 L 472.898438 24.027344 L 472.1875 26.160156 L 472.1875 26.515625 L 471.832031 27.582031 L 471.832031 27.933594 "/>
<path style="fill:none;stroke-width:2.26;stroke-linecap:round;stroke-linejoin:round;stroke:rgb(0%,100%,0%);stroke-opacity:1;comp-op:src;clip-to-self:true;stroke-miterlimit:10;" d="M 463.707031 11.960938 L 463.488281 11.742188 L 462.296875 11.742188 L 461.941406 12.097656 L 460.933594 12.097656 L 459.902344 13.128906 L 459.460938 13.574219 L 459.109375 13.921875 L 459.109375 14.414062 L 458.757812 14.765625 L 458.757812 19.011719 L 459.46875 19.722656 L 460.535156 20.078125 L 460.890625 20.433594 L 461.601562 20.789062 "/>
<path style="fill:none;stroke-width:2.26;stroke-linecap:round;stroke-linejoin:round;stroke:rgb(0%,100%,0%);stroke-opacity:1;comp-op:src;clip-to-self:true;stroke-miterlimit:10;" d="M 491.125 44.175781 L 498.507812 44.175781 L 498.863281 43.820312 L 499.804688 43.496094 L 499.804688 43.164062 L 500.132812 42.835938 L 500.132812 40.3125 L 499.777344 39.957031 L 499.777344 39.605469 L 499.425781 38.90625 L 499.078125 38.554688 L 498.375 37.851562 L 497.664062 37.496094 L 497.308594 36.785156 L 496.597656 36.074219 L 496.246094 36.074219 L 495.894531 35.722656 L 495.554688 35.722656 L 494.878906 35.382812 L 494.523438 35.027344 L 494.171875 35.027344 L 493.820312 34.679688 L 491.734375 34.679688 L 491.734375 25.902344 L 492.046875 25.589844 L 500.824219 25.589844 "/>
<path style="fill:none;stroke-width:2.26;stroke-linecap:round;stroke-linejoin:round;stroke:rgb(0%,100%,0%);stroke-opacity:1;comp-op:src;clip-to-self:true;stroke-miterlimit:10;" d="M 500.679688 48.839844 L 500.347656 49.171875 L 497.148438 49.171875 L 496.4375 49.527344 L 489.066406 49.527344 L 488.738281 49.199219 L 488.449219 48.90625 L 488.09375 48.195312 L 487.738281 47.839844 L 487.382812 47.128906 L 487.382812 46.78125 L 487.03125 46.078125 L 486.675781 45.722656 L 486.320312 45.011719 L 486.320312 44.660156 L 485.96875 43.609375 L 485.613281 43.253906 L 485.613281 40.773438 L 485.257812 40.0625 L 485.257812 23.007812 L 485.613281 21.941406 L 485.613281 21.585938 L 486.324219 20.164062 L 486.679688 19.808594 L 486.679688 19.097656 L 487.035156 18.386719 L 487.390625 18.03125 L 488.101562 16.609375 L 488.457031 16.253906 L 488.785156 16.253906 L 489.4375 15.925781 L 490.859375 15.925781 L 491.570312 15.570312 L 499.035156 15.570312 L 499.746094 16.28125 L 500.457031 16.28125 L 501.167969 16.636719 L 501.871094 16.636719 L 502.582031 17.347656 L 502.914062 17.347656 L 503.578125 17.679688 L 503.917969 17.679688 L 504.582031 18.015625 L 504.921875 18.351562 L 505.261719 18.691406 L 505.609375 18.691406 L 506.3125 19.042969 L 507.625 20.355469 L 507.953125 21.296875 L 508.308594 21.652344 L 508.664062 22.363281 L 508.664062 23.351562 L 509.375 24.0625 L 509.375 24.402344 L 509.714844 25.335938 L 509.714844 26.742188 L 510.0625 27.445312 L 510.417969 27.800781 L 510.417969 31.691406 L 510.0625 32.402344 L 509.707031 32.757812 L 509.707031 34.855469 L 509.355469 35.203125 L 509.355469 36.871094 L 509 37.582031 L 508.644531 37.9375 L 508.644531 39.359375 L 508.289062 40.070312 L 508.289062 41.839844 L 507.933594 42.550781 L 507.578125 42.90625 L 507.578125 44.316406 L 507.222656 44.671875 L 507.222656 45.347656 L 505.445312 47.125 L 505.089844 47.835938 L 504.378906 48.191406 L 503.71875 48.851562 L 503.097656 48.851562 L 502.386719 49.207031 L 502.03125 49.5625 L 500.261719 49.5625 "/>
<path style="fill:none;stroke-width:2.26;stroke-linecap:round;stroke-linejoin:round;stroke:rgb(0%,100%,0%);stroke-opacity:1;comp-op:src;clip-to-self:true;stroke-miterlimit:10;" d="M 513.332031 35.789062 L 513.585938 35.535156 L 530.078125 35.535156 L 530.429688 35.183594 L 532.789062 35.183594 L 533.089844 35.484375 L 533.089844 42.140625 L 533.320312 42.371094 L 533.953125 42.050781 L 534.664062 41.339844 L 535.34375 41.339844 L 536.054688 40.984375 L 537.097656 39.941406 L 537.957031 39.613281 L 539.316406 38.253906 L 539.539062 37.808594 L 540.222656 37.125 L 539.679688 36.855469 L 539.003906 36.179688 L 537.582031 35.46875 L 537.226562 34.757812 L 536.515625 34.402344 L 536.160156 33.691406 L 535.449219 32.980469 L 534.382812 30.847656 L 534.027344 30.492188 L 533.671875 29.78125 L 533.671875 29.429688 L 533.320312 28.730469 L 532.980469 28.386719 L 532.980469 33.601562 L 532.65625 33.929688 "/>
<path style="fill:none;stroke-width:2.26;stroke-linecap:round;stroke-linejoin:round;stroke:rgb(0%,100%,0%);stroke-opacity:1;comp-op:src;clip-to-self:true;stroke-miterlimit:10;" d="M 519.398438 27.039062 L 519.398438 26.628906 L 519.046875 25.929688 L 518.691406 25.574219 L 518.691406 24.195312 L 518.335938 23.484375 L 518.335938 18.285156 L 518.691406 18.097656 L 519.183594 18.097656 L 519.859375 18.433594 L 520.570312 18.789062 L 521.28125 19.5 L 521.992188 19.855469 L 522.339844 20.207031 L 522.617188 20.480469 L 522.949219 20.8125 L 522.949219 21.148438 L 523.28125 21.480469 L 523.28125 21.808594 L 523.632812 22.421875 L 523.972656 22.761719 L 523.972656 24.449219 L 523.289062 25.132812 L 522.398438 25.132812 L 521.6875 25.84375 L 521.351562 25.84375 L 520.417969 26.183594 L 518.730469 26.183594 "/>
<path style="fill:none;stroke-width:2.26;stroke-linecap:round;stroke-linejoin:round;stroke:rgb(0%,100%,0%);stroke-opacity:1;comp-op:src;clip-to-self:true;stroke-miterlimit:10;" d="M 549.332031 24.328125 L 549.550781 24.542969 L 549.550781 25.332031 L 548.84375 26.039062 L 548.84375 27.25 L 548.546875 27.546875 L 548.546875 29.269531 L 547.835938 29.980469 L 547.835938 32.425781 L 547.480469 33.136719 L 547.480469 40.898438 L 547.835938 41.609375 L 548.191406 41.964844 L 548.546875 42.675781 L 548.902344 43.03125 L 549.257812 43.742188 L 551.035156 45.519531 L 551.390625 46.230469 L 551.730469 46.230469 L 552.066406 46.570312 L 555.515625 46.570312 L 555.871094 46.214844 L 555.871094 45.628906 L 556.226562 45.273438 L 556.226562 41.382812 L 556.582031 40.671875 L 555.871094 39.25 L 555.871094 38.183594 L 555.160156 37.472656 L 555.160156 37.132812 L 554.824219 36.796875 L 554.46875 36.085938 L 553.757812 35.375 L 553.402344 34.664062 L 553.050781 34.664062 L 552.34375 33.957031 L 551.285156 33.957031 L 550.574219 33.601562 L 549.871094 33.601562 "/>
<path style="fill:none;stroke-width:2.26;stroke-linecap:round;stroke-linejoin:round;stroke:rgb(0%,100%,0%);stroke-opacity:1;comp-op:src;clip-to-self:true;stroke-miterlimit:10;" d="M 540.546875 25.660156 L 540.546875 45.421875 L 540.902344 46.488281 L 541.257812 47.199219 L 541.257812 47.554688 L 541.613281 48.621094 L 541.613281 49.332031 L 541.96875 50.398438 L 542.324219 51.109375 L 542.324219 51.464844 L 542.679688 52.175781 L 542.679688 52.53125 L 543.035156 53.242188 L 543.726562 53.933594 L 544.046875 54.574219 L 544.398438 54.574219 L 545.105469 55.28125 L 545.816406 55.636719 L 549 55.636719 L 550.066406 55.992188 L 550.777344 56.347656 L 556.824219 56.347656 L 557.890625 55.992188 L 558.246094 55.636719 L 558.957031 55.28125 L 561.800781 52.4375 L 561.800781 52.085938 L 562.148438 51.03125 L 562.859375 49.609375 L 563.214844 49.253906 L 563.570312 48.542969 L 563.925781 48.1875 L 563.925781 45.34375 L 564.285156 44.277344 L 564.640625 43.921875 L 564.640625 37.878906 L 564.285156 36.8125 L 563.925781 36.457031 L 563.925781 36.101562 L 563.570312 35.390625 L 563.570312 35.035156 L 563.214844 34.324219 L 562.503906 33.613281 L 562.503906 33.261719 L 562.15625 32.5625 L 561.800781 32.207031 L 561.089844 30.785156 L 560.734375 30.429688 L 560.378906 30.070312 L 560.023438 29.359375 L 559.667969 29.003906 L 559.3125 28.292969 L 558.957031 27.226562 L 558.246094 26.515625 L 557.890625 25.804688 L 557.535156 25.449219 L 557.183594 25.101562 L 556.835938 24.402344 L 556.125 23.691406 L 555.414062 23.335938 L 554.386719 22.308594 L 553.675781 21.953125 L 552.617188 20.894531 L 552.265625 20.546875 L 551.910156 20.191406 L 551.582031 20.191406 L 550.90625 19.851562 L 550.550781 19.496094 L 549.839844 19.140625 L 547.617188 19.140625 L 546.90625 19.496094 L 546.554688 19.496094 L 545.851562 19.847656 L 542.695312 23.003906 L 542.339844 23.714844 L 541.984375 24.070312 L 541.628906 24.78125 L 541.628906 25.460938 L 540.921875 26.167969 L 540.921875 27.234375 L 540.566406 27.945312 L 540.566406 29.324219 "/>
<path style="fill:none;stroke-width:2.26;stroke-linecap:round;stroke-linejoin:round;stroke:rgb(0%,100%,0%);stroke-opacity:1;comp-op:src;clip-to-self:true;stroke-miterlimit:10;" d="M 555.832031 60.851562 L 555.832031 61.882812 L 556.1875 62.59375 L 556.527344 62.929688 L 556.527344 63.371094 L 556.867188 64.046875 L 556.867188 66.074219 L 557.203125 66.753906 L 557.558594 67.109375 L 557.558594 68.097656 L 557.886719 68.421875 L 557.886719 70.085938 L 558.226562 70.769531 L 558.582031 71.125 L 558.582031 72.8125 L 558.9375 73.523438 L 558.9375 78.730469 "/>
<path style="fill:none;stroke-width:2.26;stroke-linecap:round;stroke-linejoin:round;stroke:rgb(0%,100%,0%);stroke-opacity:1;comp-op:src;clip-to-self:true;stroke-miterlimit:10;" d="M 553.675781 80.964844 L 568.363281 80.964844 "/>
<path style="fill:none;stroke-width:2.26;stroke-linecap:round;stroke-linejoin:round;stroke:rgb(0%,100%,0%);stroke-opacity:1;comp-op:src;clip-to-self:true;stroke-miterlimit:10;" d="M 568.664062 80.964844 L 568.347656 81.710938 L 567.636719 82.421875 L 567.636719 82.773438 L 566.929688 83.480469 L 566.929688 83.832031 L 566.578125 84.183594 L 566.578125 84.535156 L 565.871094 85.242188 L 565.515625 85.953125 L 565.515625 86.257812 L 565.175781 86.933594 L 564.828125 87.28125 L 564.539062 87.574219 L 564.199219 88.171875 L 563.140625 89.230469 L 562.789062 89.578125 L 562.433594 90.289062 L 562.433594 90.625 L 562.101562 91.171875 L 561.785156 91.171875 L 561.152344 90.855469 L 560.796875 90.5 L 560.085938 90.144531 L 559.730469 89.789062 L 559.019531 89.433594 L 557.242188 87.65625 L 556.886719 86.945312 L 556.53125 86.589844 L 556.175781 85.878906 L 556.175781 85.527344 L 555.824219 84.828125 L 555.113281 84.117188 L 555.113281 83.789062 "/>
<path style="fill:none;stroke-width:2.26;stroke-linecap:round;stroke-linejoin:round;stroke:rgb(0%,100%,0%);stroke-opacity:1;comp-op:src;clip-to-self:true;stroke-miterlimit:10;" d="M 558.511719 116.371094 L 558.195312 116.054688 L 558.195312 109.765625 L 557.839844 109.054688 L 557.484375 108.699219 L 557.484375 104.222656 L 557.253906 103.992188 L 547.597656 103.992188 "/>
<path style="fill:none;stroke-width:2.26;stroke-linecap:round;stroke-linejoin:round;stroke:rgb(0%,100%,0%);stroke-opacity:1;comp-op:src;clip-to-self:true;stroke-miterlimit:10;" d="M 550.277344 111.335938 L 550.839844 111.054688 L 551.125 110.773438 L 552.890625 110.773438 L 553.601562 110.417969 L 566.398438 110.417969 "/>
<path style="fill:none;stroke-width:2.26;stroke-linecap:round;stroke-linejoin:round;stroke:rgb(0%,100%,0%);stroke-opacity:1;comp-op:src;clip-to-self:true;stroke-miterlimit:10;" d="M 562.917969 118 L 562.566406 118 L 561.863281 118.351562 L 561.507812 118.707031 L 559.390625 118.707031 L 558.679688 119.0625 L 549.4375 119.0625 L 548.371094 118.707031 L 547.304688 118.707031 L 546.238281 118.351562 L 545.527344 117.640625 L 544.816406 117.640625 L 543.75 117.285156 L 543.039062 116.929688 L 542.328125 116.21875 L 541.617188 115.863281 L 540.550781 114.796875 L 540.195312 114.085938 L 539.835938 113.730469 L 539.480469 113.019531 L 539.125 112.664062 L 538.769531 111.953125 L 538.058594 111.242188 L 537.347656 109.820312 L 536.992188 108.753906 L 536.992188 103.78125 L 537.699219 102.367188 L 538.410156 101.65625 L 538.765625 100.945312 L 539.121094 100.589844 L 539.472656 100.242188 L 541.242188 98.472656 L 541.953125 98.117188 L 542.664062 97.40625 L 543.375 97.050781 L 543.730469 96.695312 L 545.140625 96.695312 L 545.851562 96.339844 L 547.617188 96.339844 L 548.328125 95.984375 L 548.683594 95.625 L 561.128906 95.625 L 562.195312 95.984375 L 562.90625 96.339844 L 563.980469 97.054688 L 564.699219 97.414062 L 565.054688 97.414062 L 566.121094 97.769531 L 567.542969 98.480469 L 567.894531 98.480469 L 568.597656 98.832031 L 568.953125 99.1875 L 569.664062 99.542969 L 570.019531 99.898438 L 570.375 99.898438 L 571.796875 100.609375 L 573.574219 102.386719 L 573.574219 102.738281 L 573.925781 103.441406 L 574.28125 103.796875 L 574.28125 104.152344 L 574.636719 104.863281 L 574.636719 109.828125 L 573.570312 111.960938 L 573.210938 112.316406 L 573.210938 112.644531 L 572.875 113.324219 L 571.453125 114.746094 L 570.742188 115.101562 L 570.386719 115.457031 L 569.683594 115.457031 L 568.980469 116.160156 L 568.628906 116.507812 L 568.277344 116.507812 L 567.929688 116.859375 L 567.589844 116.859375 L 566.914062 117.199219 L 566.203125 117.910156 L 565.851562 117.910156 L 564.4375 118.617188 L 564.082031 118.972656 L 563.371094 119.328125 L 563.015625 119.683594 L 562.304688 120.039062 L 561.953125 120.039062 "/>
<path style="fill:none;stroke-width:2.26;stroke-linecap:round;stroke-linejoin:round;stroke:rgb(0%,100%,0%);stroke-opacity:1;comp-op:src;clip-to-self:true;stroke-miterlimit:10;" d="M 407.179688 95.179688 L 407.511719 95.292969 L 427.03125 95.292969 L 428.453125 96.003906 L 429.519531 96.003906 L 430.585938 96.359375 L 432.71875 96.359375 L 433.785156 96.714844 L 434.140625 97.070312 L 434.496094 97.070312 L 435.5625 97.425781 L 436.984375 97.425781 L 438.054688 97.78125 L 439.5625 98.160156 L 444.910156 98.160156 L 446.40625 98.53125 L 447.132812 98.53125 L 449.046875 98.914062 L 450.746094 99.339844 L 452.351562 99.742188 L 453.476562 99.742188 L 454.972656 100.117188 L 456.570312 100.515625 L 457.296875 100.515625 L 459.214844 100.898438 L 460.65625 100.898438 L 462.152344 101.273438 L 462.878906 101.636719 L 463.234375 101.636719 L 464.6875 102 L 465.761719 102 L 467.210938 102.363281 L 467.9375 102.726562 L 474.335938 102.726562 L 475.402344 103.082031 L 485.359375 103.082031 L 486.425781 103.4375 L 487.136719 103.792969 L 492.824219 103.792969 L 494.277344 104.15625 L 499.964844 104.15625 L 501.414062 104.519531 L 502.542969 104.894531 L 503.253906 104.894531 L 504.707031 105.257812 L 508.496094 105.257812 L 508.796875 105.558594 L 508.796875 106.742188 L 508.441406 107.097656 L 508.441406 107.796875 L 508.085938 108.507812 L 507.730469 108.863281 L 507.730469 109.21875 L 507.375 109.929688 L 507.375 110.632812 L 507.019531 111.34375 L 506.664062 111.699219 L 506.664062 112.050781 L 506.410156 112.300781 L 506.410156 112.773438 L 507.445312 112.773438 L 508.898438 112.410156 L 509.625 112.046875 L 510.335938 112.046875 L 511.785156 111.683594 L 513.570312 111.683594 L 514.636719 111.328125 L 515.347656 110.972656 L 516.40625 110.972656 L 517.078125 110.300781 L 517.078125 102.929688 L 516.367188 100.796875 L 516.011719 100.441406 L 516.011719 99.730469 L 515.65625 99.019531 L 515.65625 98.667969 L 515.304688 97.964844 L 514.683594 97.34375 L 514.0625 97.964844 L 514.0625 98.320312 L 510.863281 101.519531 L 510.144531 102.597656 L 509.425781 103.320312 L 508.003906 104.742188 L 507.648438 105.453125 L 506.582031 106.519531 "/>
<path style="fill:none;stroke-width:2.26;stroke-linecap:round;stroke-linejoin:round;stroke:rgb(0%,100%,0%);stroke-opacity:1;comp-op:src;clip-to-self:true;stroke-miterlimit:10;" d="M 582.753906 60.070312 L 580.085938 60.070312 L 579.101562 61.054688 L 578.425781 61.054688 L 577.96875 61.511719 L 577.554688 61.511719 L 577.140625 61.929688 L 577.140625 68.023438 L 577.597656 68.484375 L 581.191406 68.484375 L 580.753906 69.359375 L 580.433594 69.675781 L 579.984375 69.675781 L 579 70.167969 L 579 70.621094 L 577.773438 71.847656 L 577.773438 75.988281 L 578.273438 76.984375 L 578.769531 77.976562 L 579.265625 78.476562 L 579.765625 79.46875 L 586.496094 79.46875 "/>
<path style="fill:none;stroke-width:2.26;stroke-linecap:round;stroke-linejoin:round;stroke:rgb(0%,100%,0%);stroke-opacity:1;comp-op:src;clip-to-self:true;stroke-miterlimit:10;" d="M 443.542969 112.898438 L 443.117188 112.472656 L 442.308594 112.472656 L 441.8125 112.972656 L 441.324219 113.457031 L 440.882812 113.902344 L 439.457031 115.328125 L 438.460938 115.824219 L 437.964844 116.320312 L 437.46875 117.316406 L 436.972656 118.308594 L 436.472656 119.304688 L 435.976562 119.800781 L 435.480469 120.796875 L 434.980469 121.789062 L 434.484375 122.289062 L 433.988281 122.785156 L 432.992188 123.28125 L 432.992188 124.390625 L 433.492188 124.886719 L 434.484375 125.382812 L 434.925781 125.382812 L 435.855469 125.847656 L 436.34375 126.335938 L 437.046875 126.335938 L 436.777344 126.605469 L 434.921875 126.605469 L 433.429688 127.105469 L 432.4375 127.601562 L 430.492188 127.601562 L 430.035156 128.054688 L 429.546875 128.054688 L 428.5625 128.546875 L 425.671875 131.4375 L 425.671875 134.585938 L 426.171875 135.578125 L 426.667969 137.070312 L 427.164062 137.570312 L 427.660156 138.066406 L 428.65625 138.5625 L 429.152344 139.058594 L 429.648438 139.558594 L 434.074219 139.558594 L 435.070312 140.054688 L 438.550781 140.054688 "/>
<path style="fill:none;stroke-width:2.26;stroke-linecap:round;stroke-linejoin:round;stroke:rgb(0%,100%,0%);stroke-opacity:1;comp-op:src;clip-to-self:true;stroke-miterlimit:10;" d="M 442.707031 112.351562 L 443.460938 111.886719 L 450.191406 111.886719 "/>
<path style="fill:none;stroke-width:2.26;stroke-linecap:round;stroke-linejoin:round;stroke:rgb(0%,100%,0%);stroke-opacity:1;comp-op:src;clip-to-self:true;stroke-miterlimit:10;" d="M 129.816406 91.15625 L 157.507812 91.15625 L 157.777344 91.425781 L 157.777344 102.890625 L 158.207031 103.320312 L 158.648438 102.875 L 159.148438 102.378906 L 159.644531 101.382812 L 160.140625 100.390625 L 161.136719 99.394531 L 161.632812 98.398438 L 162.628906 97.902344 L 163.125 97.40625 L 164.09375 96.921875 L 164.582031 96.433594 L 165.535156 95.957031 L 166.492188 95.480469 L 166.988281 94.484375 L 166.542969 93.589844 L 166.09375 93.144531 L 165.101562 92.152344 L 164.605469 91.15625 L 164.105469 89.664062 L 163.609375 89.167969 L 163.113281 88.171875 L 163.113281 87.675781 L 162.613281 86.183594 L 162.117188 85.191406 L 161.621094 84.691406 L 161.125 84.195312 L 160.625 83.699219 L 160.128906 82.703125 L 160.128906 82.246094 L 159.707031 81.398438 L 159.332031 81.773438 L 159.332031 83.074219 L 158.839844 84.054688 L 158.839844 87.535156 L 158.34375 88.527344 L 157.847656 89.027344 L 157.847656 92.351562 "/>
<path style="fill:none;stroke-width:2.26;stroke-linecap:round;stroke-linejoin:round;stroke:rgb(0%,100%,0%);stroke-opacity:1;comp-op:src;clip-to-self:true;stroke-miterlimit:10;" d="M 539.308594 132.109375 L 539.085938 131.890625 L 538.128906 130.933594 L 537.632812 130.433594 L 537.132812 129.9375 L 536.636719 129.441406 L 536.636719 128.945312 L 536.140625 127.453125 L 535.644531 126.957031 L 535.144531 125.960938 L 535.144531 125.46875 L 534.65625 124.488281 L 534.15625 123.992188 L 534.15625 123.5 L 533.667969 122.519531 L 533.667969 120.578125 L 533.171875 119.582031 L 532.671875 119.085938 L 532.671875 116.675781 L 532.175781 116.179688 L 532.175781 102.78125 L 532.671875 101.789062 L 532.671875 99 L 533.171875 98.003906 L 534.144531 97.03125 L 534.617188 96.078125 L 535.117188 95.085938 L 535.613281 94.589844 L 536.109375 94.089844 L 536.605469 93.59375 L 537.0625 93.140625 L 537.96875 92.6875 L 538.464844 92.6875 L 539.460938 92.191406 L 540.953125 91.691406 L 541.945312 91.195312 L 542.441406 91.195312 L 543.4375 90.699219 L 544.429688 90.199219 L 545.425781 89.703125 L 571.238281 89.703125 L 572.234375 90.199219 L 574.671875 90.199219 L 575.664062 90.699219 L 576.152344 91.1875 L 576.640625 91.671875 L 577.136719 92.171875 L 578.132812 92.667969 L 580.121094 94.65625 L 580.617188 95.652344 L 581.117188 96.644531 L 581.613281 97.140625 L 581.613281 99.628906 L 582.109375 101.121094 L 582.605469 101.617188 L 582.605469 105.097656 L 583.105469 106.089844 L 583.105469 118.980469 L 582.605469 119.476562 L 582.605469 119.96875 L 582.117188 120.949219 L 581.621094 121.445312 L 581.121094 121.941406 L 580.625 122.441406 L 580.128906 122.9375 L 579.628906 123.433594 L 579.132812 124.429688 L 578.140625 124.925781 L 577.640625 126.417969 L 576.648438 127.410156 L 575.652344 127.910156 L 575.15625 128.40625 L 574.664062 128.40625 L 573.191406 128.898438 L 572.199219 128.898438 L 571.203125 129.394531 L 570.210938 129.890625 L 569.714844 130.386719 L 566.234375 130.386719 L 565.238281 130.886719 L 564.742188 131.382812 L 561.757812 131.382812 L 560.765625 131.878906 L 538.457031 131.878906 "/>
</g>
</svg>
