<?xml version="1.0" encoding="UTF-8"?>
<svg xmlns="http://www.w3.org/2000/svg" xmlns:xlink="http://www.w3.org/1999/xlink" width="841pt" height="595pt" viewBox="0 0 841 595" version="1.2">
<g id="surface1169839">
<rect x="0" y="0" width="841" height="595" style="fill:rgb(0%,0%,0%);fill-opacity:1;stroke:none;"/>
<path style="fill:none;stroke-width:2.26;stroke-linecap:round;stroke-linejoin:round;stroke:rgb(0%,100%,0%);stroke-opacity:1;comp-op:src;clip-to-self:true;stroke-miterlimit:10;" d="M 296.660156 406.898438 L 296.660156 397.851562 L 297.253906 395.472656 L 297.253906 393.6875 L 297.882812 390.535156 L 297.882812 386.507812 L 298.460938 384.207031 L 298.460938 372.371094 L 299.023438 371.808594 L 299.023438 366.191406 L 299.585938 365.066406 L 300.148438 364.5 L 300.148438 361.988281 L 300.710938 360.863281 L 300.710938 356.917969 L 301.234375 355.878906 L 301.234375 354.339844 L 300.742188 353.851562 L 300.4375 353.851562 L 299.363281 354.386719 L 298.800781 354.949219 L 298.238281 354.949219 L 297.109375 355.511719 L 295.441406 355.511719 L 293.753906 356.078125 L 292.628906 356.640625 L 291.5 357.203125 L 289.8125 357.765625 L 288.121094 358.328125 L 286.996094 359.457031 L 285.308594 360.019531 L 283.574219 361.171875 L 281.839844 361.75 L 280.152344 362.316406 L 278.460938 362.878906 L 276.773438 363.441406 L 275.082031 364.003906 L 273.957031 365.128906 L 272.265625 365.128906 "/>
<path style="fill:none;stroke-width:2.26;stroke-linecap:round;stroke-linejoin:round;stroke:rgb(0%,100%,0%);stroke-opacity:1;comp-op:src;clip-to-self:true;stroke-miterlimit:10;" d="M 316.808594 417.292969 L 313.996094 417.292969 L 312.304688 417.859375 L 310.617188 418.421875 L 308.925781 418.984375 L 306.109375 418.984375 L 303.734375 419.578125 L 301.941406 420.175781 L 300.816406 420.175781 L 299.128906 420.738281 L 282.234375 420.738281 L 279.933594 420.164062 L 279.359375 420.164062 L 277.667969 419.601562 L 276.542969 419.039062 L 274.855469 418.472656 L 273.726562 417.910156 L 272.601562 417.347656 L 270.914062 416.785156 L 269.785156 416.222656 L 268.660156 415.660156 L 267.535156 414.53125 L 266.40625 413.96875 L 265.84375 412.84375 L 264.71875 411.714844 L 264.15625 410.027344 L 263.027344 408.902344 L 262.464844 407.773438 L 261.328125 406.070312 L 260.753906 404.339844 L 259.625 403.214844 L 259.0625 401.523438 L 257.9375 400.398438 L 257.375 399.273438 L 256.8125 397.582031 L 255.683594 396.457031 L 255.121094 394.769531 L 254.558594 393.078125 L 253.996094 391.390625 L 253.433594 389.699219 L 252.871094 388.574219 L 252.304688 387.449219 L 252.304688 386.320312 L 251.742188 384.632812 L 251.742188 381.816406 L 251.148438 379.445312 L 251.148438 368.160156 L 251.742188 365.785156 L 252.339844 363.996094 L 252.339844 362.867188 L 253.503906 360.542969 L 254.828125 357.894531 L 255.472656 355.304688 L 256.839844 351.886719 L 258.234375 349.097656 L 259.628906 345.613281 L 261.023438 342.824219 L 262.230469 341.621094 L 263.367188 339.914062 L 264.503906 338.777344 L 265.066406 337.648438 L 266.191406 336.523438 L 267.320312 335.960938 L 268.445312 335.398438 L 269.007812 335.398438 L 270.132812 334.835938 L 271.261719 334.269531 L 272.386719 333.707031 L 275.203125 333.707031 L 277.582031 333.113281 L 279.375 332.515625 L 293.824219 332.515625 L 296.195312 333.109375 L 299.675781 334.269531 L 302.0625 334.867188 L 303.855469 335.464844 L 304.984375 335.464844 L 307.28125 336.039062 L 308.429688 336.613281 L 309.558594 337.175781 L 311.261719 338.3125 L 312.398438 338.878906 L 313.523438 340.003906 L 314.648438 341.132812 L 316.433594 342.917969 L 317.675781 344.777344 L 319.53125 346.632812 L 320.769531 348.488281 L 321.957031 350.269531 L 322.535156 352.003906 L 325.078125 357.089844 L 327.125 359.820312 L 328.558594 363.410156 L 330.027344 367.074219 L 331.421875 369.863281 L 332.742188 372.507812 L 333.355469 374.34375 L 333.917969 376.035156 L 334.480469 377.722656 L 335.042969 379.414062 L 335.609375 381.101562 L 336.171875 382.230469 L 336.171875 383.917969 L 336.746094 386.21875 L 336.746094 400.320312 L 336.183594 402.007812 L 335.621094 402.570312 L 335.054688 403.699219 L 333.929688 405.949219 L 333.367188 407.078125 L 332.242188 407.640625 L 331.679688 408.765625 L 331.113281 409.328125 L 330.550781 410.457031 L 328.300781 412.707031 L 327.734375 412.707031 L 326.609375 413.269531 L 326.046875 413.269531 L 324.921875 413.835938 L 324.355469 414.398438 L 323.792969 414.398438 L 322.667969 414.960938 L 322.113281 414.960938 L 320.445312 415.515625 L 318.753906 415.515625 L 317.628906 416.078125 L 313.144531 416.078125 "/>
<path style="fill:none;stroke-width:2.26;stroke-linecap:round;stroke-linejoin:round;stroke:rgb(0%,100%,0%);stroke-opacity:1;comp-op:src;clip-to-self:true;stroke-miterlimit:10;" d="M 159.261719 367.226562 L 204.476562 367.226562 L 204.960938 367.714844 L 204.960938 375.382812 L 204.398438 377.074219 L 204.398438 380.449219 L 203.835938 381.015625 L 203.269531 381.578125 L 203.269531 383.210938 L 203.765625 383.707031 L 205.285156 383.199219 L 206.976562 382.636719 L 208.710938 381.480469 L 210.441406 380.902344 L 212.132812 380.339844 L 214.519531 379.742188 L 216.308594 379.144531 L 217.433594 378.019531 L 219.125 377.457031 L 220.25 376.894531 L 221.363281 376.894531 L 221.875 376.382812 L 222.386719 375.867188 L 222.949219 375.304688 L 224.078125 374.742188 L 225.203125 374.179688 L 226.90625 373.042969 L 228.042969 372.476562 L 230.296875 370.222656 L 229.28125 369.714844 L 225.957031 366.390625 L 225.394531 365.265625 L 224.257812 363.558594 L 223.121094 362.421875 L 221.414062 361.285156 L 219.558594 359.425781 L 218.367188 358.238281 L 217.242188 357.113281 L 215.53125 355.972656 L 212.140625 352.582031 L 211.015625 351.453125 L 209.886719 350.328125 L 208.199219 348.640625 L 207.636719 347.511719 L 207.070312 346.949219 L 205.945312 345.824219 L 205.945312 350.027344 L 205.382812 351.714844 L 204.820312 353.40625 L 204.257812 355.09375 L 204.257812 357.910156 L 203.691406 359.597656 L 203.128906 360.726562 L 203.128906 363.539062 L 202.566406 364.667969 L 202.566406 365.738281 "/>
<path style="fill:none;stroke-width:2.26;stroke-linecap:round;stroke-linejoin:round;stroke:rgb(0%,100%,0%);stroke-opacity:1;comp-op:src;clip-to-self:true;stroke-miterlimit:10;" d="M 342.554688 381.179688 L 362.898438 381.179688 L 365.273438 381.777344 L 367.070312 382.375 L 368.757812 382.9375 L 389.207031 382.9375 L 391.511719 383.511719 L 392.660156 384.089844 L 413.792969 384.089844 L 414.277344 384.570312 L 414.277344 388.761719 L 413.714844 390.453125 L 413.714844 393.039062 L 413.152344 394.730469 L 412.589844 395.292969 L 412.589844 396.980469 L 413.082031 397.472656 L 414.609375 396.453125 L 417.070312 395.839844 L 420.488281 394.472656 L 423.277344 393.078125 L 426.003906 391.03125 L 428.816406 388.921875 L 431.628906 386.816406 L 434.355469 385.449219 L 436.238281 384.195312 L 438.023438 383.003906 L 439.757812 382.425781 L 440.882812 381.863281 L 441.449219 381.300781 L 442.003906 381.300781 L 441.164062 381.300781 L 440.039062 380.738281 L 439.476562 380.175781 L 438.910156 380.175781 L 437.222656 379.613281 L 436.660156 379.046875 L 435.53125 378.484375 L 432.15625 377.359375 L 430.464844 376.796875 L 428.734375 375.640625 L 427.597656 375.074219 L 425.890625 373.9375 L 424.160156 373.359375 L 423.03125 372.234375 L 421.90625 371.667969 L 421.34375 371.105469 L 420.21875 370.542969 L 419.652344 369.980469 L 419.089844 369.417969 L 418.539062 368.863281 L 417.984375 368.3125 L 417.433594 367.757812 L 416.921875 367.757812 L 416.550781 368.132812 L 416.550781 385.285156 "/>
<path style="fill:none;stroke-width:2.26;stroke-linecap:round;stroke-linejoin:round;stroke:rgb(0%,100%,0%);stroke-opacity:1;comp-op:src;clip-to-self:true;stroke-miterlimit:10;" d="M 372.679688 363.375 L 372.195312 362.890625 L 372.195312 361.410156 L 372.761719 359.722656 L 372.761719 359.15625 L 373.324219 357.46875 L 373.886719 356.90625 L 373.886719 355.214844 L 374.449219 353.527344 L 374.449219 350.710938 L 375.011719 349.023438 L 375.574219 347.332031 L 375.574219 340.574219 L 376.140625 338.886719 L 376.140625 330.453125 L 376.628906 329.964844 L 378.070312 329.964844 L 379.757812 330.527344 L 380.320312 331.089844 L 380.859375 331.089844 L 381.929688 331.628906 L 382.496094 331.628906 L 383.621094 332.191406 L 384.183594 332.753906 L 385.308594 333.316406 L 386.4375 333.878906 L 387 334.445312 L 387.5625 335.007812 L 388.6875 335.570312 L 389.25 336.132812 L 389.816406 336.695312 L 390.941406 337.257812 L 391.503906 338.386719 L 392.628906 338.949219 L 393.195312 340.074219 L 393.757812 340.636719 L 393.757812 342.8125 L 394.3125 343.367188 L 394.3125 344.789062 L 393.777344 345.863281 L 393.214844 346.425781 L 392.648438 346.988281 L 392.085938 347.550781 L 389.292969 347.550781 L 388.167969 348.117188 L 379.71875 348.117188 L 380.210938 348.605469 L 380.714844 349.113281 L 382.96875 349.113281 L 384.09375 349.675781 L 384.652344 349.675781 L 385.761719 350.230469 L 386.886719 351.355469 L 388.015625 351.921875 L 389.140625 353.046875 L 389.140625 357.394531 L 389.703125 358.523438 L 390.265625 359.085938 L 388.6875 360.664062 L 388.132812 360.664062 L 387.019531 361.222656 L 372.023438 361.222656 "/>
<path style="fill:none;stroke-width:2.26;stroke-linecap:round;stroke-linejoin:round;stroke:rgb(0%,100%,0%);stroke-opacity:1;comp-op:src;clip-to-self:true;stroke-miterlimit:10;" d="M 496.367188 395.574219 L 490.890625 395.574219 L 489.761719 395.011719 L 487.003906 395.011719 L 485.878906 394.449219 L 485.316406 393.886719 L 480.597656 393.886719 L 479.484375 393.332031 L 477.816406 393.332031 L 476.8125 392.828125 L 476.265625 392.277344 L 475.164062 391.726562 L 474.71875 391.726562 L 474.417969 391.425781 L 475.421875 390.921875 L 475.988281 390.359375 L 477.113281 389.234375 L 478.824219 388.09375 L 480.558594 387.515625 L 482.292969 386.359375 L 483.429688 385.789062 L 485.132812 384.652344 L 486.269531 384.085938 L 487.394531 383.523438 L 487.960938 382.960938 L 489.085938 382.398438 L 490.210938 382.398438 L 491.339844 381.832031 L 493.589844 379.582031 L 494.714844 379.019531 L 495.28125 377.890625 L 495.84375 377.328125 L 496.40625 376.203125 L 496.96875 375.640625 L 496.96875 375.074219 L 498.09375 372.824219 L 498.660156 371.699219 L 498.660156 366.085938 L 498.09375 364.960938 L 498.09375 362.164062 L 497.53125 361.039062 L 496.96875 360.476562 L 496.96875 359.914062 L 496.40625 358.785156 L 496.40625 358.222656 L 495.28125 355.972656 L 494.714844 355.410156 L 494.152344 354.28125 L 493.589844 353.71875 L 493.027344 352.59375 L 492.464844 351.464844 L 491.339844 350.339844 L 490.773438 349.777344 L 489.648438 349.214844 L 489.085938 348.652344 L 472.210938 348.652344 L 471.085938 349.214844 L 468.832031 349.214844 L 467.707031 349.777344 L 467.171875 349.777344 "/>
<path style="fill:none;stroke-width:2.26;stroke-linecap:round;stroke-linejoin:round;stroke:rgb(0%,100%,0%);stroke-opacity:1;comp-op:src;clip-to-self:true;stroke-miterlimit:10;" d="M 453.300781 396.511719 L 454.597656 397.011719 L 455.160156 397.574219 L 455.722656 398.699219 L 456.851562 399.261719 L 457.414062 399.824219 L 457.976562 400.390625 L 459.664062 402.078125 L 460.792969 402.640625 L 461.355469 403.203125 L 462.480469 403.769531 L 463.042969 404.332031 L 464.171875 404.894531 L 464.734375 405.457031 L 465.296875 405.457031 L 466.984375 406.019531 L 468.675781 406.582031 L 470.363281 407.144531 L 471.492188 407.144531 L 473.789062 407.722656 L 476.324219 408.355469 L 477.476562 408.355469 L 479.777344 408.929688 L 480.925781 408.929688 L 483.226562 409.503906 L 484.375 410.082031 L 509.714844 410.082031 L 511.40625 409.515625 L 513.09375 408.953125 L 514.785156 408.953125 L 516.472656 408.390625 L 517.03125 408.390625 L 518.699219 407.835938 L 519.261719 407.273438 L 520.386719 406.707031 L 520.949219 406.144531 L 522.074219 405.582031 L 522.640625 405.019531 L 523.765625 404.457031 L 524.328125 403.894531 L 524.890625 402.765625 L 525.453125 402.203125 L 526.019531 401.078125 L 526.582031 399.953125 L 526.582031 395.445312 L 527.175781 393.070312 L 527.773438 391.277344 L 527.773438 390.152344 L 528.335938 388.460938 L 528.335938 368.753906 L 527.773438 367.0625 L 527.773438 366.5 L 527.199219 364.199219 L 526.601562 362.40625 L 526.035156 360.714844 L 526.035156 358.464844 L 525.472656 356.773438 L 524.910156 355.085938 L 523.691406 352.644531 L 523.105469 351.472656 L 522.539062 349.78125 L 521.414062 346.40625 L 520.851562 345.277344 L 520.289062 343.589844 L 519.726562 342.460938 L 519.164062 340.773438 L 518.035156 339.648438 L 516.910156 338.519531 L 516.347656 336.832031 L 515.21875 335.707031 L 514.65625 334.578125 L 513.53125 334.015625 L 512.40625 332.890625 L 511.277344 332.328125 L 510.152344 331.199219 L 509.589844 330.636719 L 508.464844 330.074219 L 507.335938 329.511719 L 505.648438 328.949219 L 504.519531 328.386719 L 503.957031 328.386719 L 501.660156 327.808594 L 500.507812 327.234375 L 499.382812 327.234375 L 497.082031 326.660156 L 493.679688 326.660156 L 491.988281 326.097656 L 490.300781 325.535156 L 488.046875 325.535156 L 486.359375 324.96875 L 469.480469 324.96875 L 467.789062 325.535156 L 465.539062 327.785156 L 464.410156 328.347656 L 463.847656 329.476562 L 463.285156 330.039062 L 462.722656 331.164062 L 460.46875 333.417969 L 459.90625 334.542969 L 459.90625 335.667969 L 459.34375 337.359375 L 458.78125 338.484375 L 458.78125 339.046875 L 458.21875 340.175781 L 457.652344 341.300781 L 457.089844 342.425781 L 457.089844 344.117188 L 456.527344 345.804688 L 456.527344 392.5 "/>
<path style="fill:none;stroke-width:2.26;stroke-linecap:round;stroke-linejoin:round;stroke:rgb(0%,100%,0%);stroke-opacity:1;comp-op:src;clip-to-self:true;stroke-miterlimit:10;" d="M 533.140625 360.960938 L 533.488281 361.308594 L 567.402344 361.308594 L 569.09375 360.746094 L 575.847656 360.746094 L 577.539062 360.183594 L 606.382812 360.183594 L 606.863281 360.667969 L 606.863281 378.917969 L 607.359375 379.414062 L 608.148438 378.628906 L 609.273438 378.066406 L 609.835938 376.941406 L 610.972656 375.234375 L 612.757812 374.042969 L 616.550781 370.25 L 618.410156 369.011719 L 620.195312 367.824219 L 621.929688 367.246094 L 622.492188 366.683594 L 624.179688 366.683594 L 625.304688 366.117188 L 625.871094 365.554688 L 626.996094 365.554688 L 628.121094 364.992188 L 629.234375 364.992188 L 629.765625 364.460938 L 628.972656 363.667969 L 628.410156 362.542969 L 627.285156 361.417969 L 626.71875 360.289062 L 625.59375 359.164062 L 625.03125 358.039062 L 623.90625 356.914062 L 623.34375 355.222656 L 622.1875 353.492188 L 621.609375 351.761719 L 620.484375 350.636719 L 619.921875 349.507812 L 619.359375 347.820312 L 613.726562 342.1875 L 613.164062 341.0625 L 612.039062 340.5 L 611.476562 339.371094 L 610.347656 338.808594 L 608.097656 336.558594 L 607.539062 336.558594 L 606.429688 336 L 606.429688 361.09375 "/>
<path style="fill:none;stroke-width:2.26;stroke-linecap:round;stroke-linejoin:round;stroke:rgb(0%,100%,0%);stroke-opacity:1;comp-op:src;clip-to-self:true;stroke-miterlimit:10;" d="M 657.15625 386.183594 L 657.578125 386.601562 L 659.113281 385.066406 L 660.238281 384.503906 L 661.367188 383.941406 L 661.929688 383.375 L 663.054688 382.25 L 663.617188 381.125 L 664.183594 380.5625 L 665.308594 379.433594 L 666.433594 377.183594 L 666.996094 376.054688 L 668.125 375.492188 L 668.6875 374.367188 L 669.25 373.804688 L 669.8125 372.675781 L 670.375 372.113281 L 670.375 368.222656 L 669.847656 367.167969 L 669.285156 366.605469 L 668.722656 366.605469 L 667.597656 366.042969 L 667.035156 365.480469 L 665.90625 365.480469 L 664.78125 364.917969 L 661.402344 364.917969 L 659.714844 364.351562 L 659.148438 363.789062 L 656.898438 363.789062 L 655.769531 363.226562 L 652.96875 363.226562 L 652.40625 362.664062 L 652.90625 361.664062 L 653.96875 361.136719 L 655.09375 360.007812 L 656.230469 358.300781 L 658.015625 357.113281 L 659.792969 355.925781 L 660.933594 354.785156 L 662.644531 353.648438 L 663.78125 352.507812 L 664.910156 351.382812 L 665.472656 350.253906 L 666.597656 349.128906 L 667.160156 348.003906 L 667.160156 347.441406 L 667.722656 346.3125 L 667.722656 340.140625 L 667.160156 338.449219 L 666.597656 337.324219 L 663.78125 334.507812 L 662.65625 333.945312 L 662.09375 333.382812 L 658.226562 333.382812 "/>
<path style="fill:none;stroke-width:2.26;stroke-linecap:round;stroke-linejoin:round;stroke:rgb(0%,100%,0%);stroke-opacity:1;comp-op:src;clip-to-self:true;stroke-miterlimit:10;" d="M 698.234375 402.863281 L 676.273438 402.863281 L 674.585938 402.300781 L 672.332031 402.300781 L 670.644531 401.738281 L 669.515625 401.175781 L 666.703125 401.175781 L 665.574219 400.609375 L 663.324219 400.609375 L 662.195312 400.046875 L 661.070312 399.484375 L 658.253906 399.484375 L 657.128906 398.921875 L 656.003906 398.921875 L 654.3125 398.359375 L 653.75 397.796875 L 653.1875 397.796875 L 652.058594 396.667969 L 649.808594 395.542969 L 649.246094 395.542969 L 647.554688 394.980469 L 646.429688 393.855469 L 645.867188 393.289062 L 645.304688 392.726562 L 644.738281 391.601562 L 644.738281 391.039062 L 644.175781 389.347656 L 643.613281 388.222656 L 643.050781 386.53125 L 641.925781 384.28125 L 641.359375 383.15625 L 640.796875 382.589844 L 640.234375 381.464844 L 639.671875 380.902344 L 639.109375 379.210938 L 638.546875 378.648438 L 638.546875 378.09375 L 637.988281 376.425781 L 637.988281 375.300781 L 637.425781 374.171875 L 636.863281 373.046875 L 636.300781 372.484375 L 636.300781 371.359375 L 635.738281 369.667969 L 635.175781 369.105469 L 635.175781 368.542969 L 634.609375 367.414062 L 634.609375 363.496094 L 634.046875 361.804688 L 634.046875 360.679688 L 633.484375 358.992188 L 633.484375 347.726562 L 634.046875 346.601562 L 634.609375 346.039062 L 634.609375 344.914062 L 635.175781 343.222656 L 635.175781 341.535156 L 635.75 339.234375 L 636.324219 338.085938 L 636.324219 336.394531 L 636.886719 335.269531 L 636.886719 334.707031 L 637.449219 333.582031 L 638.011719 333.015625 L 639.140625 332.453125 L 640.265625 331.890625 L 642.519531 329.636719 L 645.011719 327.769531 L 646.308594 325.820312 L 648.167969 323.964844 L 650.097656 322.035156 L 651.335938 320.175781 L 653.1875 318.320312 L 655.121094 316.390625 L 656.980469 315.148438 L 658.765625 313.960938 L 659.902344 313.390625 L 661.027344 312.828125 L 662.15625 312.265625 L 663.28125 311.703125 L 670.011719 311.703125 L 671.136719 312.265625 L 671.699219 312.828125 L 672.261719 312.828125 L 673.953125 313.390625 L 675.078125 313.953125 L 676.203125 314.519531 L 676.765625 315.082031 L 677.894531 316.207031 L 679.019531 317.332031 L 680.710938 317.894531 L 681.835938 319.023438 L 682.960938 319.585938 L 683.523438 320.710938 L 684.652344 321.273438 L 685.214844 322.402344 L 686.339844 322.964844 L 687.464844 324.089844 L 688.59375 325.214844 L 689.15625 326.90625 L 690.3125 328.640625 L 691.449219 329.777344 L 692.011719 330.902344 L 693.148438 332.609375 L 693.726562 334.34375 L 694.292969 336.035156 L 694.855469 337.722656 L 695.417969 339.414062 L 695.980469 340.539062 L 696.542969 342.226562 L 697.105469 343.917969 L 697.667969 345.605469 L 698.234375 347.296875 L 698.796875 348.984375 L 699.359375 350.675781 L 699.359375 351.800781 L 699.933594 354.097656 L 700.53125 355.890625 L 700.53125 357.015625 L 701.09375 358.703125 L 701.09375 360.394531 L 701.667969 362.695312 L 702.242188 363.84375 L 702.242188 365.535156 L 702.820312 367.832031 L 702.820312 370.097656 L 703.382812 371.789062 L 703.945312 372.351562 L 703.945312 385.867188 L 703.351562 388.238281 L 702.753906 390.03125 L 702.753906 391.15625 L 702.191406 392.84375 L 702.191406 395.660156 L 701.628906 397.351562 L 701.066406 397.914062 L 700.535156 398.972656 L 700.027344 399.988281 L 699.527344 399.988281 L 698.476562 400.515625 L 697.914062 401.078125 "/>
<path style="fill:none;stroke-width:2.26;stroke-linecap:round;stroke-linejoin:round;stroke:rgb(0%,100%,0%);stroke-opacity:1;comp-op:src;clip-to-self:true;stroke-miterlimit:10;" d="M 548.8125 341.546875 L 548.8125 339.878906 L 549.378906 338.191406 L 549.941406 336.5 L 549.941406 335.375 L 550.515625 333.074219 L 550.515625 330.234375 L 551.109375 327.855469 L 551.707031 326.0625 L 552.269531 324.371094 L 552.269531 321.558594 L 552.863281 319.183594 L 553.4375 318.035156 L 553.4375 317.472656 L 554.003906 315.78125 L 554.003906 313.53125 L 555.039062 314.050781 L 555.558594 315.089844 L 555.558594 315.652344 L 556.132812 317.949219 L 556.710938 319.101562 L 558.398438 322.476562 L 558.960938 323.605469 L 558.960938 325.292969 L 559.523438 326.984375 L 560.089844 328.109375 L 560.089844 329.234375 L 560.664062 331.535156 L 560.664062 332.6875 L 561.238281 334.984375 L 561.8125 336.132812 "/>
<path style="fill:none;stroke-width:2.26;stroke-linecap:round;stroke-linejoin:round;stroke:rgb(0%,100%,0%);stroke-opacity:1;comp-op:src;clip-to-self:true;stroke-miterlimit:10;" d="M 545.800781 328.191406 L 566.96875 328.191406 "/>
<path style="fill:none;stroke-width:2.26;stroke-linecap:round;stroke-linejoin:round;stroke:rgb(0%,100%,0%);stroke-opacity:1;comp-op:src;clip-to-self:true;stroke-miterlimit:10;" d="M 277.207031 430.15625 L 276.210938 431.152344 L 276.210938 433.40625 L 275.648438 434.53125 L 275.648438 436.730469 L 275.082031 437.859375 L 274.519531 438.984375 L 274.519531 442.339844 L 273.957031 443.46875 L 273.957031 447.410156 L 273.394531 448.535156 L 273.394531 467.679688 L 273.957031 469.371094 L 273.957031 470.496094 L 274.519531 471.621094 L 274.519531 472.179688 L 275.078125 473.289062 L 275.640625 473.851562 L 276.203125 474.417969 L 277.890625 476.105469 L 278.457031 476.667969 L 279.019531 477.230469 L 279.582031 477.796875 L 280.707031 478.921875 L 281.269531 478.921875 L 282.398438 479.484375 L 284.648438 480.609375 L 285.777344 481.175781 L 286.902344 481.738281 L 287.464844 482.300781 L 288.027344 482.300781 L 289.152344 482.863281 L 290.28125 483.425781 L 291.96875 483.988281 L 293.660156 483.988281 L 295.347656 484.550781 L 295.910156 485.117188 L 317.871094 485.117188 L 320.171875 484.539062 L 321.324219 483.964844 L 322.449219 482.839844 L 324.140625 482.277344 L 324.703125 482.277344 L 325.828125 481.714844 L 326.390625 481.714844 L 327.519531 481.148438 L 329.769531 478.898438 L 330.332031 477.769531 L 330.898438 476.082031 L 332.023438 474.957031 L 332.023438 471.027344 L 332.585938 469.339844 L 332.585938 465.960938 L 332.023438 464.835938 L 332.023438 464.277344 L 331.464844 463.164062 L 331.464844 462.609375 L 330.910156 461.5 L 330.347656 460.933594 L 329.785156 459.246094 L 329.785156 458.691406 L 329.230469 458.132812 L 328.664062 457.570312 L 328.101562 456.445312 L 327.539062 455.882812 L 326.976562 455.316406 L 326.976562 454.753906 L 326.414062 453.628906 L 325.851562 453.066406 L 325.285156 451.941406 L 324.722656 451.375 L 324.722656 445.828125 L 324.242188 445.34375 L 323.394531 445.769531 L 322.269531 446.894531 L 321.707031 447.460938 L 321.140625 448.023438 L 320.578125 448.585938 L 319.453125 449.148438 L 318.890625 449.710938 L 317.761719 449.710938 L 316.074219 450.273438 L 313.257812 450.273438 L 312.132812 450.835938 L 311.007812 451.402344 L 307.640625 451.402344 L 307.152344 450.910156 L 307.65625 450.40625 L 308.21875 449.277344 L 308.78125 448.152344 L 309.34375 446.464844 L 309.90625 445.335938 L 311.035156 444.210938 L 311.597656 442.523438 L 312.722656 441.394531 L 313.859375 439.6875 L 315.050781 437.90625 L 316.1875 436.765625 L 316.75 435.640625 L 317.878906 435.078125 L 318.441406 433.953125 L 319.003906 433.386719 L 320.691406 431.699219 L 321.257812 430.574219 L 321.820312 430.011719 L 326.183594 430.011719 L 327.3125 430.574219 L 329.5625 432.824219 L 330.6875 433.953125 L 331.253906 435.078125 L 331.816406 436.203125 L 332.941406 437.332031 L 333.503906 437.894531 L 334.632812 439.019531 L 335.195312 439.582031 L 336.320312 440.710938 L 337.445312 441.835938 L 338.574219 442.398438 L 339.136719 442.960938 L 339.691406 442.960938 L 340.804688 443.519531 L 341.324219 443.519531 L 340.441406 443.8125 L 339.410156 444.328125 L 324.78125 444.328125 L 324.21875 444.890625 L 322.300781 444.890625 L 321.738281 445.453125 "/>
<path style="fill:none;stroke-width:2.26;stroke-linecap:round;stroke-linejoin:round;stroke:rgb(0%,100%,0%);stroke-opacity:1;comp-op:src;clip-to-self:true;stroke-miterlimit:10;" d="M 283.269531 518.546875 L 283.269531 518.066406 L 283.769531 517.066406 L 284.332031 516.503906 L 284.898438 515.378906 L 285.460938 513.6875 L 286.023438 512 L 286.585938 510.308594 L 287.148438 508.621094 L 287.710938 507.496094 L 288.847656 505.789062 L 289.425781 504.054688 L 290.582031 502.320312 L 291.164062 500.582031 L 291.726562 498.894531 L 292.289062 497.769531 L 292.851562 496.640625 L 293.976562 495.515625 L 294.542969 494.953125 L 295.667969 493.828125 L 296.230469 493.261719 L 297.355469 492.136719 L 298.3125 492.617188 L 298.835938 494.710938 L 299.414062 497.011719 L 300.046875 499.550781 L 300.71875 502.914062 L 301.429688 506.46875 L 302.101562 509.160156 L 302.738281 511.699219 L 303.335938 513.492188 L 304.492188 515.226562 L 305.058594 515.792969 L 305.058594 516.351562 "/>
<path style="fill:none;stroke-width:2.26;stroke-linecap:round;stroke-linejoin:round;stroke:rgb(0%,100%,0%);stroke-opacity:1;comp-op:src;clip-to-self:true;stroke-miterlimit:10;" d="M 288.359375 506.375 L 301.742188 506.375 "/>
<path style="fill:none;stroke-width:2.26;stroke-linecap:round;stroke-linejoin:round;stroke:rgb(0%,100%,0%);stroke-opacity:1;comp-op:src;clip-to-self:true;stroke-miterlimit:10;" d="M 715.007812 426.210938 L 713.316406 426.773438 L 712.753906 427.335938 L 687.976562 427.335938 L 686.289062 426.773438 L 685.164062 426.210938 L 682.910156 426.210938 L 681.222656 425.648438 L 680.09375 425.648438 L 678.40625 425.085938 L 677.277344 424.523438 L 675.589844 424.523438 L 673.898438 423.957031 L 671.648438 423.957031 L 669.277344 423.367188 L 668.125 422.789062 L 666.4375 422.226562 L 663.058594 422.226562 L 661.933594 421.664062 L 660.804688 421.101562 L 659.117188 421.101562 L 657.992188 420.539062 L 657.433594 420.539062 L 656.320312 419.980469 L 655.195312 418.855469 L 654.070312 418.292969 L 653.507812 417.730469 L 652.378906 417.167969 L 651.253906 416.601562 L 650.128906 415.476562 L 649.5625 414.914062 L 649 413.226562 L 648.4375 412.660156 L 647.3125 411.535156 L 646.75 410.410156 L 645.621094 409.28125 L 645.058594 408.15625 L 644.496094 407.59375 L 644.496094 407.03125 L 643.933594 405.902344 L 643.371094 405.339844 L 642.808594 404.214844 L 642.242188 403.089844 L 641.679688 402.527344 L 641.117188 401.960938 L 641.117188 401.40625 L 640.5625 400.292969 L 640.007812 399.742188 L 639.457031 398.636719 L 639.457031 398.101562 L 638.921875 397.027344 L 637.792969 396.464844 L 637.792969 395.90625 L 637.238281 394.796875 L 636.675781 394.234375 L 636.113281 393.105469 L 635.546875 391.980469 L 634.984375 390.855469 L 634.421875 390.292969 L 633.859375 389.164062 L 633.296875 388.601562 L 632.734375 387.476562 L 632.167969 386.347656 L 631.605469 385.222656 L 629.917969 383.535156 L 629.917969 382.976562 L 629.359375 381.863281 L 628.796875 380.738281 L 627.671875 379.613281 L 627.109375 377.921875 L 626.546875 376.796875 L 625.980469 376.234375 L 625.417969 375.109375 L 624.855469 374.542969 L 624.292969 373.980469 L 624.292969 373.417969 L 623.730469 372.292969 L 623.167969 371.164062 L 623.167969 370.039062 L 622.605469 368.914062 L 622.605469 336.867188 L 623.167969 335.179688 L 623.167969 334.617188 L 623.742188 332.316406 L 624.316406 331.164062 L 624.316406 330.601562 L 624.878906 328.914062 L 625.445312 327.785156 L 626.570312 325.535156 L 627.132812 324.40625 L 627.695312 323.28125 L 628.820312 322.15625 L 629.386719 321.027344 L 630.511719 318.777344 L 631.074219 318.214844 L 632.199219 317.085938 L 632.765625 316.523438 L 633.328125 315.960938 L 635.578125 314.835938 L 636.144531 314.273438 L 636.707031 314.273438 L 637.832031 313.707031 L 638.957031 313.144531 L 640.085938 312.019531 L 641.210938 311.457031 L 642.898438 310.894531 L 643.464844 310.894531 L 645.152344 310.328125 L 646.84375 309.765625 L 647.96875 309.203125 L 650.21875 309.203125 L 651.910156 308.640625 L 653.597656 308.078125 L 655.289062 307.515625 L 656.414062 306.949219 L 657.539062 306.386719 L 659.230469 305.824219 L 660.917969 305.261719 L 662.609375 304.699219 L 663.734375 304.136719 L 665.425781 303.574219 L 666.550781 303.007812 L 688.074219 303.007812 L 690.445312 303.601562 L 692.234375 304.199219 L 693.925781 304.761719 L 697.304688 304.761719 L 698.992188 305.324219 L 700.117188 305.886719 L 701.808594 306.453125 L 704.058594 307.578125 L 705.1875 308.140625 L 705.75 308.140625 L 707.4375 308.703125 L 708.566406 309.265625 L 710.273438 310.40625 L 711.410156 310.972656 L 712.535156 312.097656 L 713.660156 313.226562 L 714.789062 314.351562 L 715.914062 315.476562 L 717.039062 316.042969 L 717.601562 317.167969 L 718.730469 318.292969 L 719.292969 319.984375 L 720.449219 321.71875 L 721.027344 323.457031 L 722.183594 325.1875 L 722.761719 326.921875 L 723.917969 328.652344 L 724.496094 330.386719 L 725.058594 332.078125 L 725.621094 333.765625 L 726.183594 335.457031 L 726.746094 337.144531 L 727.308594 338.835938 L 727.875 340.523438 L 728.472656 342.917969 L 729.105469 345.457031 L 729.742188 347.996094 L 729.742188 349.144531 L 730.347656 352.171875 L 730.347656 354.066406 L 731.015625 358.089844 L 731.726562 360.929688 L 732.359375 363.460938 L 732.359375 396.574219 L 731.796875 398.261719 L 731.234375 399.953125 L 730.671875 400.515625 L 730.671875 401.078125 L 730.109375 402.769531 L 729.542969 404.457031 L 728.980469 406.148438 L 728.417969 407.273438 L 728.417969 407.835938 L 727.855469 408.960938 L 727.292969 410.089844 L 726.730469 411.214844 L 726.164062 412.339844 L 725.601562 413.46875 L 725.039062 414.03125 L 725.039062 414.59375 L 724.476562 415.71875 L 723.914062 416.285156 L 723.351562 416.847656 L 722.785156 417.410156 L 720.535156 419.660156 L 719.972656 420.226562 L 719.410156 420.789062 L 718.28125 421.351562 L 716.59375 423.039062 L 716.074219 423.039062 L 715.558594 423.558594 L 715.003906 424.109375 L 714.554688 424.109375 "/>
<path style="fill:none;stroke-width:2.26;stroke-linecap:round;stroke-linejoin:round;stroke:rgb(0%,100%,0%);stroke-opacity:1;comp-op:src;clip-to-self:true;stroke-miterlimit:10;" d="M 472.261719 416.816406 L 470.839844 418.238281 L 470.273438 419.367188 L 470.273438 419.929688 L 469.699219 422.230469 L 468.5625 424.503906 L 468.5625 426.757812 L 468 428.445312 L 467.4375 429.574219 L 467.4375 431.824219 L 466.871094 432.390625 L 466.871094 436.273438 L 466.308594 437.964844 L 465.746094 438.527344 L 465.746094 440.777344 L 465.183594 441.90625 L 465.183594 445.847656 L 464.058594 448.097656 L 464.058594 476.816406 L 464.621094 478.507812 L 465.183594 479.070312 L 465.746094 480.195312 L 465.746094 480.753906 L 466.300781 481.863281 L 467.429688 482.992188 L 467.992188 484.117188 L 468.554688 484.679688 L 469.679688 485.808594 L 470.242188 486.371094 L 470.808594 486.933594 L 471.933594 488.058594 L 473.058594 488.058594 L 474.75 488.621094 L 475.3125 489.183594 L 476.4375 489.75 L 477.566406 490.875 L 480.941406 492.5625 L 482.070312 493.691406 L 483.195312 494.253906 L 484.320312 494.253906 L 485.449219 494.816406 L 486.574219 494.816406 L 488.265625 495.378906 L 488.828125 495.941406 L 498.398438 495.941406 L 500.089844 495.378906 L 501.777344 493.691406 L 502.90625 493.128906 L 504.03125 492 L 505.15625 491.4375 L 505.71875 490.3125 L 506.285156 489.183594 L 506.847656 488.058594 L 507.410156 487.496094 L 507.410156 480.753906 L 506.847656 479.0625 L 506.285156 477.9375 L 506.285156 476.246094 L 505.71875 475.121094 L 505.71875 474.011719 L 505.15625 472.882812 L 504.59375 471.757812 L 504.03125 471.195312 L 504.03125 470.082031 L 503.46875 468.957031 L 502.90625 468.394531 L 502.90625 467.28125 L 502.339844 466.15625 L 502.339844 454.890625 L 502.90625 453.203125 L 502.90625 448.699219 L 503.46875 447.570312 L 503.46875 446.460938 L 502.980469 445.972656 L 497.636719 445.972656 L 496.507812 446.535156 L 495.382812 447.097656 L 486.949219 447.097656 L 487.449219 446.597656 L 487.957031 445.582031 L 488.519531 443.894531 L 489.082031 442.203125 L 490.207031 441.078125 L 490.773438 439.953125 L 491.335938 438.824219 L 491.335938 437.699219 L 491.898438 436.011719 L 492.460938 434.882812 L 493.023438 433.195312 L 493.023438 432.082031 L 493.585938 430.957031 L 494.089844 430.957031 L 495.097656 431.460938 L 496.226562 432.023438 L 497.351562 432.585938 L 499.042969 432.585938 L 500.730469 433.148438 L 501.855469 433.710938 L 502.417969 433.710938 L 504.722656 434.289062 L 505.871094 434.289062 L 507.5625 434.851562 L 510.9375 436.539062 L 512.066406 437.101562 L 512.628906 437.667969 L 513.753906 438.230469 L 514.316406 438.792969 L 514.882812 439.355469 L 516.007812 440.480469 L 517.132812 441.609375 L 517.695312 442.171875 L 518.824219 443.296875 L 519.386719 443.859375 L 520.511719 444.988281 L 521.636719 446.113281 L 521.128906 447.132812 L 516.351562 447.132812 L 515.226562 447.695312 L 511.863281 447.695312 L 510.738281 447.132812 L 504.105469 447.132812 L 503.542969 447.695312 "/>
<path style="fill:none;stroke-width:2.26;stroke-linecap:round;stroke-linejoin:round;stroke:rgb(0%,100%,0%);stroke-opacity:1;comp-op:src;clip-to-self:true;stroke-miterlimit:10;" d="M 479.554688 533.15625 L 479.074219 532.671875 L 479.074219 507.113281 L 479.570312 506.617188 L 482.675781 506.617188 L 484.925781 507.742188 L 485.484375 507.742188 L 486.59375 508.296875 L 488.285156 508.859375 L 488.847656 509.425781 L 489.972656 509.988281 L 490.53125 509.988281 L 491.640625 510.542969 L 492.207031 511.105469 L 492.769531 511.667969 L 493.332031 512.796875 L 493.894531 513.359375 L 493.894531 514.472656 L 494.457031 515.597656 L 494.457031 520.636719 L 493.894531 521.761719 L 483.324219 521.761719 L 482.199219 521.199219 L 479.402344 521.199219 L 478.277344 520.636719 L 477.714844 520.074219 L 486.546875 520.074219 L 488.234375 520.636719 L 488.796875 521.199219 L 489.925781 521.199219 L 491.613281 521.761719 L 493.304688 521.761719 L 494.429688 522.324219 L 494.992188 522.890625 L 495.550781 522.890625 L 496.105469 523.445312 L 496.660156 523.445312 L 497.21875 524 L 497.78125 524.5625 L 498.34375 525.128906 L 498.90625 525.691406 L 498.90625 526.765625 L 499.460938 527.878906 L 499.460938 534.402344 L 498.90625 534.960938 L 498.34375 536.085938 L 497.21875 536.648438 L 496.652344 537.210938 L 496.089844 537.773438 L 494.964844 538.339844 L 492.710938 538.339844 L 491.023438 538.902344 L 489.898438 539.464844 L 475.820312 539.464844 L 474.128906 538.902344 L 473.003906 538.339844 L 471.3125 538.339844 L 470.75 537.773438 "/>
<path style="fill:none;stroke-width:2.26;stroke-linecap:round;stroke-linejoin:round;stroke:rgb(0%,100%,0%);stroke-opacity:1;comp-op:src;clip-to-self:true;stroke-miterlimit:10;" d="M 173.242188 62.109375 L 173.242188 133.386719 L 173.832031 135.734375 L 173.832031 145.78125 L 174.386719 147.449219 L 174.945312 148.566406 L 174.945312 149.679688 L 175.5 151.347656 L 175.5 158.589844 L 176.070312 160.859375 L 176.660156 162.632812 L 177.21875 164.304688 L 177.21875 165.417969 L 177.785156 167.691406 L 178.355469 168.828125 L 178.355469 171.613281 L 178.941406 173.957031 L 178.941406 175.640625 L 179.507812 177.914062 L 180.078125 179.050781 L 180.078125 179.605469 L 180.632812 181.277344 L 180.632812 241.335938 L 181.136719 241.839844 L 181.953125 242.359375 "/>
<path style="fill:none;stroke-width:2.26;stroke-linecap:round;stroke-linejoin:round;stroke:rgb(0%,100%,0%);stroke-opacity:1;comp-op:src;clip-to-self:true;stroke-miterlimit:10;" d="M 123.96875 95.777344 L 129.589844 95.777344 L 131.261719 96.335938 L 132.933594 96.890625 L 134.601562 97.449219 L 137.386719 97.449219 L 139.730469 98.035156 L 141.5 98.625 L 232.304688 98.625 L 234.65625 99.214844 L 235.222656 99.214844 L 236.894531 99.769531 L 238.566406 100.328125 L 240.234375 100.882812 L 244.691406 100.882812 L 247.8125 101.507812 L 249.699219 102.136719 L 261.582031 102.136719 L 263.859375 102.707031 L 293.378906 102.707031 "/>
<path style="fill:none;stroke-width:2.26;stroke-linecap:round;stroke-linejoin:round;stroke:rgb(0%,100%,0%);stroke-opacity:1;comp-op:src;clip-to-self:true;stroke-miterlimit:10;" d="M 193.359375 85.34375 L 193.359375 84.386719 L 193.929688 82.113281 L 194.519531 80.332031 L 195.078125 78.664062 L 196.21875 76.949219 L 196.789062 75.234375 L 197.933594 73.519531 L 198.496094 72.394531 L 199.054688 71.28125 L 199.054688 69.609375 L 199.613281 67.941406 L 200.167969 66.824219 L 200.726562 66.269531 L 201.28125 65.710938 L 201.800781 65.191406 L 202.335938 63.59375 L 203.449219 62.480469 L 204.003906 61.921875 L 204.003906 61.375 L 204.003906 62.734375 L 204.5625 64.402344 L 205.117188 65.515625 L 205.675781 66.632812 L 205.675781 69.972656 L 206.230469 71.640625 L 206.789062 73.3125 L 206.789062 73.871094 L 207.359375 76.144531 L 207.359375 79.507812 L 207.914062 80.625 L 208.472656 81.179688 L 208.472656 83.386719 "/>
<path style="fill:none;stroke-width:2.26;stroke-linecap:round;stroke-linejoin:round;stroke:rgb(0%,100%,0%);stroke-opacity:1;comp-op:src;clip-to-self:true;stroke-miterlimit:10;" d="M 198.136719 79.476562 L 209.429688 79.476562 "/>
<path style="fill:none;stroke-width:2.26;stroke-linecap:round;stroke-linejoin:round;stroke:rgb(0%,100%,0%);stroke-opacity:1;comp-op:src;clip-to-self:true;stroke-miterlimit:10;" d="M 258.125 86.609375 L 258.125 82.953125 L 258.75 79.832031 L 258.75 69.167969 L 259.304688 68.054688 L 259.863281 66.941406 L 259.863281 65.269531 L 260.417969 64.15625 L 260.417969 61.800781 L 260.773438 61.445312 L 262.113281 61.445312 L 263.785156 62.003906 L 264.332031 62.003906 L 264.882812 62.554688 L 265.441406 63.109375 L 266.539062 63.109375 L 267.652344 63.667969 L 268.203125 63.667969 L 269.304688 64.214844 L 269.859375 65.332031 L 270.972656 65.886719 L 271.53125 66.445312 L 272.089844 67 L 273.203125 67.558594 L 273.203125 69.714844 L 273.757812 70.828125 L 274.316406 71.386719 L 274.316406 77.414062 L 273.757812 77.972656 L 273.207031 77.972656 L 272.109375 78.523438 L 257.085938 78.523438 L 260.839844 78.523438 L 262.511719 79.078125 L 263.070312 79.636719 L 264.71875 79.636719 L 265.832031 80.191406 L 266.933594 80.191406 L 268.046875 80.75 L 269.617188 82.320312 L 269.617188 84.84375 L 269.058594 85.402344 L 267.972656 85.945312 L 266.367188 85.945312 L 265.253906 86.5 L 264.699219 87.058594 L 264.148438 87.058594 L 263.046875 87.609375 L 255.304688 87.609375 "/>
<path style="fill:none;stroke-width:2.26;stroke-linecap:round;stroke-linejoin:round;stroke:rgb(0%,100%,0%);stroke-opacity:1;comp-op:src;clip-to-self:true;stroke-miterlimit:10;" d="M 227.558594 55.53125 L 227.558594 228.507812 "/>
<path style="fill:none;stroke-width:2.26;stroke-linecap:round;stroke-linejoin:round;stroke:rgb(0%,100%,0%);stroke-opacity:1;comp-op:src;clip-to-self:true;stroke-miterlimit:10;" d="M 141.394531 132.820312 L 141.890625 132.324219 L 141.890625 131.976562 L 142.4375 130.875 L 142.4375 128.671875 L 142.996094 127.554688 L 143.550781 127 L 143.550781 125.898438 L 144.667969 124.230469 L 145.222656 123.117188 L 145.222656 119.429688 L 145.78125 118.316406 L 145.78125 112.335938 L 145.425781 111.980469 L 144.808594 112.292969 L 144.394531 112.292969 L 143.332031 112.820312 L 142.777344 113.378906 L 142.21875 113.378906 L 140.550781 113.933594 L 138.878906 114.492188 L 137.765625 115.050781 L 137.207031 115.605469 L 135.035156 115.605469 L 134.636719 116.007812 L 134.089844 116.554688 L 133.539062 116.554688 "/>
<path style="fill:none;stroke-width:2.26;stroke-linecap:round;stroke-linejoin:round;stroke:rgb(0%,100%,0%);stroke-opacity:1;comp-op:src;clip-to-self:true;stroke-miterlimit:10;" d="M 202.890625 128.710938 L 202.707031 128.179688 L 202.707031 125.957031 L 203.261719 124.289062 L 203.261719 119.304688 L 203.820312 118.191406 L 204.378906 117.632812 L 204.378906 115.585938 L 204.933594 114.46875 L 204.933594 113.921875 L 204.574219 113.5625 L 204.277344 113.5625 L 202.683594 114.09375 L 202.125 114.648438 L 201.011719 115.207031 L 200.457031 115.761719 L 199.34375 116.320312 L 198.785156 116.320312 L 197.117188 116.878906 L 196 117.433594 L 195.445312 117.992188 L 194.886719 118.546875 L 194.375 118.546875 "/>
<path style="fill:none;stroke-width:2.26;stroke-linecap:round;stroke-linejoin:round;stroke:rgb(0%,100%,0%);stroke-opacity:1;comp-op:src;clip-to-self:true;stroke-miterlimit:10;" d="M 267.339844 131.003906 L 260.957031 131.003906 L 259.285156 130.449219 L 257.058594 130.449219 L 255.945312 129.890625 L 255.386719 129.335938 L 252.0625 129.335938 L 250.949219 128.777344 L 251.453125 127.765625 L 252.519531 126.699219 L 253.632812 126.144531 L 254.1875 125.585938 L 255.300781 125.03125 L 255.859375 124.472656 L 256.972656 123.914062 L 257.53125 123.359375 L 258.085938 122.800781 L 258.644531 122.246094 L 259.199219 121.6875 L 259.757812 121.132812 L 260.3125 120.574219 L 260.871094 120.019531 L 260.871094 119.46875 L 261.421875 118.917969 L 261.421875 116.167969 L 260.949219 115.226562 L 260.414062 114.691406 L 250.40625 114.691406 "/>
<path style="fill:none;stroke-width:2.26;stroke-linecap:round;stroke-linejoin:round;stroke:rgb(0%,100%,0%);stroke-opacity:1;comp-op:src;clip-to-self:true;stroke-miterlimit:10;" d="M 153.308594 164.433594 L 152.828125 163.953125 L 138.601562 163.953125 L 139.097656 163.460938 L 139.597656 162.960938 L 140.710938 162.402344 L 142.382812 161.847656 L 142.9375 161.289062 L 144.050781 160.730469 L 145.722656 160.175781 L 146.277344 159.617188 L 147.390625 158.503906 L 147.949219 157.949219 L 149.0625 156.835938 L 149.621094 155.71875 L 150.175781 155.164062 L 150.175781 154.613281 L 150.726562 154.066406 L 151.285156 153.507812 L 151.285156 148.097656 L 150.835938 147.652344 L 149.953125 147.210938 L 142.347656 147.210938 L 141.789062 147.765625 L 140.691406 147.765625 L 140.132812 148.324219 L 139.621094 148.324219 L 138.558594 148.855469 L 138.003906 149.410156 L 136.890625 149.96875 "/>
<path style="fill:none;stroke-width:2.26;stroke-linecap:round;stroke-linejoin:round;stroke:rgb(0%,100%,0%);stroke-opacity:1;comp-op:src;clip-to-self:true;stroke-miterlimit:10;" d="M 260.125 162.726562 L 246.203125 162.726562 L 246.675781 162.726562 L 247.171875 162.230469 L 248.160156 162.230469 L 248.710938 161.683594 L 249.265625 161.125 L 250.378906 160.570312 L 251.492188 160.011719 L 252.050781 159.457031 L 252.609375 158.898438 L 254.222656 158.898438 L 256.429688 156.691406 L 256.988281 156.136719 L 257.515625 156.136719 L 258.046875 155.605469 L 258.046875 153.195312 L 258.605469 152.640625 L 258.605469 151.539062 L 259.160156 150.425781 L 259.160156 146.671875 L 258.628906 146.140625 L 258.628906 145.78125 L 258.164062 145.316406 L 248.945312 145.316406 L 248.417969 145.839844 L 247.925781 146.335938 L 247.367188 146.890625 L 246.925781 147.332031 L 246.421875 147.839844 L 245.894531 148.363281 "/>
<path style="fill:none;stroke-width:2.26;stroke-linecap:round;stroke-linejoin:round;stroke:rgb(0%,100%,0%);stroke-opacity:1;comp-op:src;clip-to-self:true;stroke-miterlimit:10;" d="M 196.195312 161.269531 L 200.304688 161.269531 L 201.421875 160.710938 L 203.035156 160.710938 L 204.148438 160.15625 L 204.707031 159.597656 L 205.253906 159.597656 L 205.804688 159.050781 L 205.804688 158.621094 L 206.308594 157.617188 L 205.808594 157.617188 L 204.808594 157.117188 L 204.253906 156.558594 L 202.597656 156.558594 L 201.484375 156.003906 L 199.828125 156.003906 L 198.710938 155.445312 L 198.15625 154.890625 L 197.042969 154.332031 L 192.769531 154.332031 L 193.089844 153.691406 L 193.46875 153.691406 L 194.019531 153.144531 L 194.570312 153.144531 L 195.667969 152.59375 L 196.226562 151.480469 L 196.777344 151.480469 L 197.875 150.929688 L 198.988281 149.816406 L 199.421875 149.816406 L 199.644531 149.589844 L 199.125 148.792969 L 198.566406 148.238281 L 198.011719 147.679688 L 197.453125 147.125 L 196.902344 147.125 L 196.351562 146.574219 L 195.796875 146.015625 L 195.246094 146.015625 L 194.695312 145.46875 L 187.386719 145.46875 "/>
<path style="fill:none;stroke-width:2.26;stroke-linecap:round;stroke-linejoin:round;stroke:rgb(0%,100%,0%);stroke-opacity:1;comp-op:src;clip-to-self:true;stroke-miterlimit:10;" d="M 143.558594 202.550781 L 147.101562 202.550781 L 148.214844 201.996094 L 149.328125 201.996094 L 151 201.4375 L 152.113281 200.882812 L 154.339844 200.882812 L 155.453125 200.324219 L 156.515625 200.324219 L 157.074219 199.769531 L 157.628906 199.210938 L 157.628906 197.160156 L 158.179688 196.058594 L 158.726562 195.511719 L 158.726562 194.632812 L 157.621094 193.527344 L 157.074219 192.984375 L 155.960938 192.425781 L 155.40625 191.867188 L 154.847656 191.3125 L 154.292969 190.753906 L 153.734375 190.199219 L 153.179688 189.640625 L 152.621094 189.085938 L 151.023438 189.085938 L 149.90625 188.527344 L 149.351562 187.972656 L 148.320312 187.972656 L 149.835938 187.972656 L 150.949219 187.414062 L 152.011719 187.414062 L 153.125 186.855469 L 153.683594 186.300781 L 154.207031 185.777344 L 154.207031 185.476562 L 152.746094 184.015625 L 152.238281 184.015625 L 151.730469 183.507812 L 150.671875 182.980469 L 150.144531 182.449219 L 149.597656 181.902344 L 148.621094 181.902344 L 148.0625 181.347656 L 147.503906 180.789062 L 144.234375 180.789062 "/>
<path style="fill:none;stroke-width:2.26;stroke-linecap:round;stroke-linejoin:round;stroke:rgb(0%,100%,0%);stroke-opacity:1;comp-op:src;clip-to-self:true;stroke-miterlimit:10;" d="M 111.152344 138.71875 L 181.46875 138.71875 L 183.136719 138.160156 L 270.546875 138.160156 L 272.820312 137.59375 L 274.589844 137.003906 L 289.574219 137.003906 "/>
<path style="fill:none;stroke-width:2.26;stroke-linecap:round;stroke-linejoin:round;stroke:rgb(0%,100%,0%);stroke-opacity:1;comp-op:src;clip-to-self:true;stroke-miterlimit:10;" d="M 109.351562 180.550781 L 129.476562 180.550781 L 131.820312 179.964844 L 138.589844 179.964844 L 141.707031 179.339844 L 144.367188 178.675781 L 248.953125 178.675781 L 252.257812 178.015625 L 253.457031 178.015625 L 256.449219 177.414062 L 259.101562 176.75 L 260.875 176.160156 L 287.546875 176.160156 "/>
<path style="fill:none;stroke-width:2.26;stroke-linecap:round;stroke-linejoin:round;stroke:rgb(0%,100%,0%);stroke-opacity:1;comp-op:src;clip-to-self:true;stroke-miterlimit:10;" d="M 526.605469 188.816406 L 526.605469 188.816406 "/>
</g>
</svg>
