<?xml version="1.0" encoding="UTF-8" standalone="no"?>
<!DOCTYPE svg PUBLIC "-//W3C//DTD SVG 1.1//EN"
 "http://www.w3.org/Graphics/SVG/1.1/DTD/svg11.dtd">
<!-- Generated by graphviz version 2.40.1 (20161225.0304)
 -->
<!-- Title: G Pages: 1 -->
<svg width="251pt" height="164pt"
 viewBox="0.00 0.00 250.60 164.00" xmlns="http://www.w3.org/2000/svg" xmlns:xlink="http://www.w3.org/1999/xlink">
<g id="graph0" class="graph" transform="scale(1 1) rotate(0) translate(4 160)">
<title>G</title>
<polygon fill="#ffffff" stroke="transparent" points="-4,4 -4,-160 246.6,-160 246.6,4 -4,4"/>
<!-- A -->
<g id="node1" class="node">
<title>A</title>
<ellipse fill="none" stroke="#000000" cx="58.6" cy="-61" rx="18" ry="18"/>
<text text-anchor="middle" x="58.6" y="-57.3" font-family="Times,serif" font-size="14.00" fill="#000000">A</text>
</g>
<!-- B -->
<g id="node2" class="node">
<title>B</title>
<ellipse fill="none" stroke="#000000" cx="137.6" cy="-105" rx="18" ry="18"/>
<text text-anchor="middle" x="137.6" y="-101.3" font-family="Times,serif" font-size="14.00" fill="#000000">B</text>
</g>
<!-- A&#45;&gt;B -->
<g id="edge2" class="edge">
<title>A&#45;&gt;B</title>
<path fill="none" stroke="#000000" d="M74.5868,-69.9041C85.5089,-75.9872 100.202,-84.1708 112.6526,-91.1053"/>
<polygon fill="#000000" stroke="#000000" points="111.1975,-94.301 121.6369,-96.1092 114.6036,-88.1856 111.1975,-94.301"/>
<text text-anchor="middle" x="98.1" y="-87.8" font-family="Times,serif" font-size="14.00" fill="#000000">a</text>
</g>
<!-- C -->
<g id="node3" class="node">
<title>C</title>
<ellipse fill="none" stroke="#000000" cx="137.6" cy="-18" rx="18" ry="18"/>
<text text-anchor="middle" x="137.6" y="-14.3" font-family="Times,serif" font-size="14.00" fill="#000000">C</text>
</g>
<!-- A&#45;&gt;C -->
<g id="edge3" class="edge">
<title>A&#45;&gt;C</title>
<path fill="none" stroke="#000000" d="M74.5868,-52.2983C85.5089,-46.3534 100.202,-38.3559 112.6526,-31.5789"/>
<polygon fill="#000000" stroke="#000000" points="114.527,-34.5437 121.6369,-26.6888 111.1805,-28.3954 114.527,-34.5437"/>
<text text-anchor="middle" x="98.1" y="-44.8" font-family="Times,serif" font-size="14.00" fill="#000000">b</text>
</g>
<!-- B&#45;&gt;B -->
<g id="edge4" class="edge">
<title>B&#45;&gt;B</title>
<path fill="none" stroke="#000000" d="M130.8664,-122.0373C129.4922,-131.8579 131.7367,-141 137.6,-141 141.2646,-141 143.5155,-137.4289 144.3529,-132.3529"/>
<polygon fill="#000000" stroke="#000000" points="147.8524,-132.0307 144.3336,-122.0373 140.8524,-132.0439 147.8524,-132.0307"/>
<text text-anchor="middle" x="137.6" y="-144.8" font-family="Times,serif" font-size="14.00" fill="#000000">a</text>
</g>
<!-- D -->
<g id="node4" class="node">
<title>D</title>
<ellipse fill="none" stroke="#000000" cx="220.6" cy="-61" rx="18" ry="18"/>
<ellipse fill="none" stroke="#000000" cx="220.6" cy="-61" rx="22" ry="22"/>
<text text-anchor="middle" x="220.6" y="-57.3" font-family="Times,serif" font-size="14.00" fill="#000000">D</text>
</g>
<!-- B&#45;&gt;D -->
<g id="edge5" class="edge">
<title>B&#45;&gt;D</title>
<path fill="none" stroke="#000000" d="M153.6032,-96.5164C164.5203,-90.729 179.2807,-82.9042 192.1686,-76.0721"/>
<polygon fill="#000000" stroke="#000000" points="193.9442,-79.0922 201.1402,-71.316 190.6656,-72.9075 193.9442,-79.0922"/>
<text text-anchor="middle" x="177.1" y="-88.8" font-family="Times,serif" font-size="14.00" fill="#000000">b</text>
</g>
<!-- C&#45;&gt;C -->
<g id="edge6" class="edge">
<title>C&#45;&gt;C</title>
<path fill="none" stroke="#000000" d="M130.8664,-35.0373C129.4922,-44.8579 131.7367,-54 137.6,-54 141.2646,-54 143.5155,-50.4289 144.3529,-45.3529"/>
<polygon fill="#000000" stroke="#000000" points="147.8524,-45.0307 144.3336,-35.0373 140.8524,-45.0439 147.8524,-45.0307"/>
<text text-anchor="middle" x="137.6" y="-57.8" font-family="Times,serif" font-size="14.00" fill="#000000">b</text>
</g>
<!-- C&#45;&gt;D -->
<g id="edge7" class="edge">
<title>C&#45;&gt;D</title>
<path fill="none" stroke="#000000" d="M153.6032,-26.2908C164.4445,-31.9074 179.0759,-39.4875 191.8998,-46.1312"/>
<polygon fill="#000000" stroke="#000000" points="190.3488,-49.2695 200.8381,-50.7619 193.5689,-43.0541 190.3488,-49.2695"/>
<text text-anchor="middle" x="177.1" y="-43.8" font-family="Times,serif" font-size="14.00" fill="#000000">a</text>
</g>
<!-- start -->
<g id="node5" class="node">
<title>start</title>
<ellipse fill="#000000" stroke="#000000" cx="1.8" cy="-61" rx="1.8" ry="1.8"/>
</g>
<!-- start&#45;&gt;A -->
<g id="edge1" class="edge">
<title>start&#45;&gt;A</title>
<path fill="none" stroke="#000000" d="M3.6898,-61C8.0522,-61 19.3107,-61 30.5058,-61"/>
<polygon fill="#000000" stroke="#000000" points="30.5696,-64.5001 40.5696,-61 30.5696,-57.5001 30.5696,-64.5001"/>
</g>
</g>
</svg>
